<?xml version="1.0" encoding="UTF-8" standalone="no"?>
<!DOCTYPE svg PUBLIC "-//W3C//DTD SVG 1.1//EN"
 "http://www.w3.org/Graphics/SVG/1.1/DTD/svg11.dtd">
<!-- Generated by graphviz version 2.26.3 (20100126.1600)
 -->
<!-- Title: activity.c Pages: 1 -->
<svg width="681pt" height="146pt"
 viewBox="0.00 0.00 681.03 146.00" xmlns="http://www.w3.org/2000/svg" xmlns:xlink="http://www.w3.org/1999/xlink">
<g id="graph1" class="graph" transform="scale(1 1) rotate(0) translate(4 142)">
<title>activity.c</title>
<polygon fill="white" stroke="white" points="-4,5 -4,-142 678.025,-142 678.025,5 -4,5"/>
<!-- Node1 -->
<g id="node1" class="node"><title>Node1</title>
<polygon fill="#bfbfbf" stroke="black" points="312.025,-116.5 312.025,-137.5 368.025,-137.5 368.025,-116.5 312.025,-116.5"/>
<text text-anchor="middle" x="340.025" y="-124.5" font-family="Helvetica,sans-Serif" font-size="10.00">activity.c</text>
</g>
<!-- Node2 -->
<g id="node3" class="node"><title>Node2</title>
<polygon fill="white" stroke="#bfbfbf" points="362.525,-0.5 362.525,-21.5 403.525,-21.5 403.525,-0.5 362.525,-0.5"/>
<text text-anchor="middle" x="383.025" y="-8.5" font-family="Helvetica,sans-Serif" font-size="10.00">glib.h</text>
</g>
<!-- Node1&#45;&gt;Node2 -->
<g id="edge2" class="edge"><title>Node1&#45;&gt;Node2</title>
<path fill="none" stroke="midnightblue" d="M349.427,-116.213C356.781,-107.166 366.634,-93.5788 372.025,-80 378.171,-64.5206 380.888,-45.7981 382.087,-31.7635"/>
<polygon fill="midnightblue" stroke="midnightblue" points="385.588,-31.8752 382.76,-21.6647 378.603,-31.4101 385.588,-31.8752"/>
</g>
<!-- Node3 -->
<g id="node5" class="node"><title>Node3</title>
<polygon fill="white" stroke="#bfbfbf" points="16.5254,-58.5 16.5254,-79.5 67.5254,-79.5 67.5254,-58.5 16.5254,-58.5"/>
<text text-anchor="middle" x="42.0254" y="-66.5" font-family="Helvetica,sans-Serif" font-size="10.00">string.h</text>
</g>
<!-- Node1&#45;&gt;Node3 -->
<g id="edge4" class="edge"><title>Node1&#45;&gt;Node3</title>
<path fill="none" stroke="midnightblue" d="M312.015,-123.299C265.22,-116.84 168.088,-102.263 77.4194,-80.1181"/>
<polygon fill="midnightblue" stroke="midnightblue" points="78.0852,-76.6773 67.5368,-77.6673 76.4003,-83.4715 78.0852,-76.6773"/>
</g>
<!-- Node4 -->
<g id="node7" class="node"><title>Node4</title>
<polygon fill="white" stroke="#bfbfbf" points="84.5254,-58.5 84.5254,-79.5 137.525,-79.5 137.525,-58.5 84.5254,-58.5"/>
<text text-anchor="middle" x="111.025" y="-66.5" font-family="Helvetica,sans-Serif" font-size="10.00">unistd.h</text>
</g>
<!-- Node1&#45;&gt;Node4 -->
<g id="edge6" class="edge"><title>Node1&#45;&gt;Node4</title>
<path fill="none" stroke="midnightblue" d="M311.924,-120.812C275.902,-112.746 211.328,-97.8357 147.538,-80.3117"/>
<polygon fill="midnightblue" stroke="midnightblue" points="148.295,-76.8898 137.724,-77.5928 146.426,-83.6357 148.295,-76.8898"/>
</g>
<!-- Node5 -->
<g id="node9" class="node"><title>Node5</title>
<polygon fill="white" stroke="#bfbfbf" points="155.025,-58.5 155.025,-79.5 217.025,-79.5 217.025,-58.5 155.025,-58.5"/>
<text text-anchor="middle" x="186.025" y="-66.5" font-family="Helvetica,sans-Serif" font-size="10.00">pthread.h</text>
</g>
<!-- Node1&#45;&gt;Node5 -->
<g id="edge8" class="edge"><title>Node1&#45;&gt;Node5</title>
<path fill="none" stroke="midnightblue" d="M312.137,-116.497C287.357,-107.164 250.93,-93.4447 223.589,-83.1475"/>
<polygon fill="midnightblue" stroke="midnightblue" points="224.558,-79.7723 213.966,-79.5231 222.091,-86.3231 224.558,-79.7723"/>
</g>
<!-- Node6 -->
<g id="node11" class="node"><title>Node6</title>
<polygon fill="white" stroke="#bfbfbf" points="92.5254,-0.5 92.5254,-21.5 235.525,-21.5 235.525,-0.5 92.5254,-0.5"/>
<text text-anchor="middle" x="164.025" y="-8.5" font-family="Helvetica,sans-Serif" font-size="10.00">luna&#45;service2/lunaservice.h</text>
</g>
<!-- Node1&#45;&gt;Node6 -->
<g id="edge10" class="edge"><title>Node1&#45;&gt;Node6</title>
<path fill="none" stroke="midnightblue" d="M311.757,-125.093C235.138,-119.639 27.8973,-102.883 8.02535,-80 -19.5081,-48.2943 31.3203,-30.5427 82.1494,-21.0142"/>
<polygon fill="midnightblue" stroke="midnightblue" points="83.0564,-24.4081 92.292,-19.2165 81.8346,-17.5156 83.0564,-24.4081"/>
</g>
<!-- Node7 -->
<g id="node13" class="node"><title>Node7</title>
<a xlink:href="suspend_8h.htm" target="_top" xlink:title="suspend.h">
<polygon fill="white" stroke="black" points="234.525,-58.5 234.525,-79.5 299.525,-79.5 299.525,-58.5 234.525,-58.5"/>
<text text-anchor="middle" x="267.025" y="-66.5" font-family="Helvetica,sans-Serif" font-size="10.00">suspend.h</text>
</a>
</g>
<!-- Node1&#45;&gt;Node7 -->
<g id="edge12" class="edge"><title>Node1&#45;&gt;Node7</title>
<path fill="none" stroke="midnightblue" d="M326.636,-116.362C315.934,-107.859 300.729,-95.7785 288.355,-85.9466"/>
<polygon fill="midnightblue" stroke="midnightblue" points="290.337,-83.0511 280.33,-79.5707 285.982,-88.5318 290.337,-83.0511"/>
</g>
<!-- Node8 -->
<g id="node16" class="node"><title>Node8</title>
<a xlink:href="main_8h.htm" target="_top" xlink:title="main.h">
<polygon fill="white" stroke="black" points="316.525,-58.5 316.525,-79.5 363.525,-79.5 363.525,-58.5 316.525,-58.5"/>
<text text-anchor="middle" x="340.025" y="-66.5" font-family="Helvetica,sans-Serif" font-size="10.00">main.h</text>
</a>
</g>
<!-- Node1&#45;&gt;Node8 -->
<g id="edge16" class="edge"><title>Node1&#45;&gt;Node8</title>
<path fill="none" stroke="midnightblue" d="M340.025,-116.362C340.025,-108.922 340.025,-98.7427 340.025,-89.7276"/>
<polygon fill="midnightblue" stroke="midnightblue" points="343.525,-89.5706 340.025,-79.5707 336.525,-89.5707 343.525,-89.5706"/>
</g>
<!-- Node10 -->
<g id="node22" class="node"><title>Node10</title>
<a xlink:href="clock_8h.htm" target="_top" xlink:title="clock.h">
<polygon fill="white" stroke="black" points="418.525,-58.5 418.525,-79.5 467.525,-79.5 467.525,-58.5 418.525,-58.5"/>
<text text-anchor="middle" x="443.025" y="-66.5" font-family="Helvetica,sans-Serif" font-size="10.00">clock.h</text>
</a>
</g>
<!-- Node1&#45;&gt;Node10 -->
<g id="edge24" class="edge"><title>Node1&#45;&gt;Node10</title>
<path fill="none" stroke="midnightblue" d="M358.917,-116.362C374.743,-107.45 397.548,-94.6087 415.42,-84.5447"/>
<polygon fill="midnightblue" stroke="midnightblue" points="417.257,-87.5271 424.253,-79.5707 413.822,-81.4276 417.257,-87.5271"/>
</g>
<!-- Node13 -->
<g id="node29" class="node"><title>Node13</title>
<a xlink:href="logging_8h.htm" target="_top" xlink:title="logging.h">
<polygon fill="white" stroke="black" points="484.525,-58.5 484.525,-79.5 543.525,-79.5 543.525,-58.5 484.525,-58.5"/>
<text text-anchor="middle" x="514.025" y="-66.5" font-family="Helvetica,sans-Serif" font-size="10.00">logging.h</text>
</a>
</g>
<!-- Node1&#45;&gt;Node13 -->
<g id="edge32" class="edge"><title>Node1&#45;&gt;Node13</title>
<path fill="none" stroke="midnightblue" d="M368.369,-117.552C397.255,-107.923 442.291,-92.9115 474.637,-82.1294"/>
<polygon fill="midnightblue" stroke="midnightblue" points="475.857,-85.4123 484.237,-78.9296 473.643,-78.7716 475.857,-85.4123"/>
</g>
<!-- Node15 -->
<g id="node33" class="node"><title>Node15</title>
<a xlink:href="activity_8h.htm" target="_top" xlink:title="activity.h">
<polygon fill="white" stroke="black" points="560.525,-58.5 560.525,-79.5 617.525,-79.5 617.525,-58.5 560.525,-58.5"/>
<text text-anchor="middle" x="589.025" y="-66.5" font-family="Helvetica,sans-Serif" font-size="10.00">activity.h</text>
</a>
</g>
<!-- Node1&#45;&gt;Node15 -->
<g id="edge36" class="edge"><title>Node1&#45;&gt;Node15</title>
<path fill="none" stroke="midnightblue" d="M368.297,-121.396C407.249,-113.532 479.802,-98.371 550.446,-80.2978"/>
<polygon fill="midnightblue" stroke="midnightblue" points="551.59,-83.6172 560.398,-77.7287 549.841,-76.8394 551.59,-83.6172"/>
</g>
<!-- Node16 -->
<g id="node35" class="node"><title>Node16</title>
<a xlink:href="init_8h.htm" target="_top" xlink:title="init.h">
<polygon fill="white" stroke="black" points="635.025,-58.5 635.025,-79.5 673.025,-79.5 673.025,-58.5 635.025,-58.5"/>
<text text-anchor="middle" x="654.025" y="-66.5" font-family="Helvetica,sans-Serif" font-size="10.00">init.h</text>
</a>
</g>
<!-- Node1&#45;&gt;Node16 -->
<g id="edge38" class="edge"><title>Node1&#45;&gt;Node16</title>
<path fill="none" stroke="midnightblue" d="M368.055,-124.382C418.1,-119.285 526.105,-106.375 625.073,-79.8178"/>
<polygon fill="midnightblue" stroke="midnightblue" points="626.207,-83.1363 634.927,-77.1192 624.358,-76.3849 626.207,-83.1363"/>
</g>
<!-- Node7&#45;&gt;Node6 -->
<g id="edge14" class="edge"><title>Node7&#45;&gt;Node6</title>
<path fill="none" stroke="midnightblue" d="M248.134,-58.3619C232.308,-49.4502 209.503,-36.6087 191.631,-26.5447"/>
<polygon fill="midnightblue" stroke="midnightblue" points="193.228,-23.4276 182.797,-21.5707 189.794,-29.5271 193.228,-23.4276"/>
</g>
<!-- Node8&#45;&gt;Node2 -->
<g id="edge18" class="edge"><title>Node8&#45;&gt;Node2</title>
<path fill="none" stroke="midnightblue" d="M347.912,-58.3619C353.852,-50.3496 362.148,-39.1605 369.184,-29.6696"/>
<polygon fill="midnightblue" stroke="midnightblue" points="372.044,-31.6883 375.188,-21.5707 366.421,-27.5193 372.044,-31.6883"/>
</g>
<!-- Node8&#45;&gt;Node6 -->
<g id="edge20" class="edge"><title>Node8&#45;&gt;Node6</title>
<path fill="none" stroke="midnightblue" d="M316.274,-60.7893C313.495,-59.8424 310.699,-58.8958 308.025,-58 274.009,-46.603 235.356,-34.0064 206.667,-24.725"/>
<polygon fill="midnightblue" stroke="midnightblue" points="207.551,-21.3324 196.959,-21.5877 205.398,-27.9932 207.551,-21.3324"/>
</g>
<!-- Node9 -->
<g id="node20" class="node"><title>Node9</title>
<polygon fill="white" stroke="#bfbfbf" points="253.025,-0.5 253.025,-21.5 345.025,-21.5 345.025,-0.5 253.025,-0.5"/>
<text text-anchor="middle" x="299.025" y="-8.5" font-family="Helvetica,sans-Serif" font-size="10.00">nyx/nyx_client.h</text>
</g>
<!-- Node8&#45;&gt;Node9 -->
<g id="edge22" class="edge"><title>Node8&#45;&gt;Node9</title>
<path fill="none" stroke="midnightblue" d="M332.505,-58.3619C326.899,-50.4313 319.093,-39.3885 312.429,-29.9606"/>
<polygon fill="midnightblue" stroke="midnightblue" points="315.128,-27.7161 306.498,-21.5707 309.412,-31.7568 315.128,-27.7161"/>
</g>
<!-- Node10&#45;&gt;Node2 -->
<g id="edge30" class="edge"><title>Node10&#45;&gt;Node2</title>
<path fill="none" stroke="midnightblue" d="M432.02,-58.3619C423.478,-50.1043 411.445,-38.4725 401.442,-28.8029"/>
<polygon fill="midnightblue" stroke="midnightblue" points="403.583,-26.0044 393.961,-21.5707 398.718,-31.0374 403.583,-26.0044"/>
</g>
<!-- Node11 -->
<g id="node24" class="node"><title>Node11</title>
<polygon fill="white" stroke="#bfbfbf" points="420.525,-0.5 420.525,-21.5 479.525,-21.5 479.525,-0.5 420.525,-0.5"/>
<text text-anchor="middle" x="450.025" y="-8.5" font-family="Helvetica,sans-Serif" font-size="10.00">stdbool.h</text>
</g>
<!-- Node10&#45;&gt;Node11 -->
<g id="edge26" class="edge"><title>Node10&#45;&gt;Node11</title>
<path fill="none" stroke="midnightblue" d="M444.309,-58.3619C445.207,-50.9219 446.436,-40.7427 447.524,-31.7276"/>
<polygon fill="midnightblue" stroke="midnightblue" points="451.026,-31.918 448.75,-21.5707 444.077,-31.0792 451.026,-31.918"/>
</g>
<!-- Node12 -->
<g id="node26" class="node"><title>Node12</title>
<polygon fill="white" stroke="#bfbfbf" points="497.025,-0.5 497.025,-21.5 541.025,-21.5 541.025,-0.5 497.025,-0.5"/>
<text text-anchor="middle" x="519.025" y="-8.5" font-family="Helvetica,sans-Serif" font-size="10.00">time.h</text>
</g>
<!-- Node10&#45;&gt;Node12 -->
<g id="edge28" class="edge"><title>Node10&#45;&gt;Node12</title>
<path fill="none" stroke="midnightblue" d="M456.965,-58.3619C468.214,-49.7773 484.241,-37.5459 497.19,-27.6636"/>
<polygon fill="midnightblue" stroke="midnightblue" points="499.348,-30.4198 505.174,-21.5707 495.101,-24.8551 499.348,-30.4198"/>
</g>
<!-- Node14 -->
<g id="node31" class="node"><title>Node14</title>
<polygon fill="white" stroke="#bfbfbf" points="559.025,-0.5 559.025,-21.5 633.025,-21.5 633.025,-0.5 559.025,-0.5"/>
<text text-anchor="middle" x="596.025" y="-8.5" font-family="Helvetica,sans-Serif" font-size="10.00">sys/syslog.h</text>
</g>
<!-- Node13&#45;&gt;Node14 -->
<g id="edge34" class="edge"><title>Node13&#45;&gt;Node14</title>
<path fill="none" stroke="midnightblue" d="M529.065,-58.3619C541.318,-49.6955 558.825,-37.3126 572.865,-27.3819"/>
<polygon fill="midnightblue" stroke="midnightblue" points="574.938,-30.2028 581.081,-21.5707 570.895,-24.4879 574.938,-30.2028"/>
</g>
</g>
</svg>
