<?xml version="1.0" encoding="UTF-8" standalone="no"?>
<!DOCTYPE svg PUBLIC "-//W3C//DTD SVG 1.1//EN"
 "http://www.w3.org/Graphics/SVG/1.1/DTD/svg11.dtd">
<!-- Generated by graphviz version 2.26.3 (20100126.1600)
 -->
<!-- Title: alarm.c Pages: 1 -->
<svg width="988pt" height="146pt"
 viewBox="0.00 0.00 988.00 146.00" xmlns="http://www.w3.org/2000/svg" xmlns:xlink="http://www.w3.org/1999/xlink">
<g id="graph1" class="graph" transform="scale(1 1) rotate(0) translate(4 142)">
<title>alarm.c</title>
<polygon fill="white" stroke="white" points="-4,5 -4,-142 985,-142 985,5 -4,5"/>
<!-- Node1 -->
<g id="node1" class="node"><title>Node1</title>
<polygon fill="#bfbfbf" stroke="black" points="394,-116.5 394,-137.5 444,-137.5 444,-116.5 394,-116.5"/>
<text text-anchor="middle" x="419" y="-124.5" font-family="Helvetica,sans-Serif" font-size="10.00">alarm.c</text>
</g>
<!-- Node2 -->
<g id="node3" class="node"><title>Node2</title>
<polygon fill="white" stroke="#bfbfbf" points="347.5,-0.5 347.5,-21.5 388.5,-21.5 388.5,-0.5 347.5,-0.5"/>
<text text-anchor="middle" x="368" y="-8.5" font-family="Helvetica,sans-Serif" font-size="10.00">glib.h</text>
</g>
<!-- Node1&#45;&gt;Node2 -->
<g id="edge2" class="edge"><title>Node1&#45;&gt;Node2</title>
<path fill="none" stroke="midnightblue" d="M393.909,-122.905C354.791,-115.951 282.165,-100.563 267,-80 244.937,-50.0838 300.266,-28.8192 337.467,-18.3616"/>
<polygon fill="midnightblue" stroke="midnightblue" points="338.646,-21.6692 347.399,-15.7003 336.834,-14.9077 338.646,-21.6692"/>
</g>
<!-- Node3 -->
<g id="node5" class="node"><title>Node3</title>
<polygon fill="white" stroke="#bfbfbf" points="23.5,-0.5 23.5,-21.5 82.5,-21.5 82.5,-0.5 23.5,-0.5"/>
<text text-anchor="middle" x="53" y="-8.5" font-family="Helvetica,sans-Serif" font-size="10.00">stdbool.h</text>
</g>
<!-- Node1&#45;&gt;Node3 -->
<g id="edge4" class="edge"><title>Node1&#45;&gt;Node3</title>
<path fill="none" stroke="midnightblue" d="M393.714,-125.91C327.022,-122.629 148.106,-111.083 99,-80 80.9379,-68.5671 68.3536,-47.1856 60.9689,-31.2414"/>
<polygon fill="midnightblue" stroke="midnightblue" points="64.0328,-29.5071 56.8616,-21.7081 57.6041,-32.2769 64.0328,-29.5071"/>
</g>
<!-- Node4 -->
<g id="node7" class="node"><title>Node4</title>
<polygon fill="white" stroke="#bfbfbf" points="108,-58.5 108,-79.5 152,-79.5 152,-58.5 108,-58.5"/>
<text text-anchor="middle" x="130" y="-66.5" font-family="Helvetica,sans-Serif" font-size="10.00">time.h</text>
</g>
<!-- Node1&#45;&gt;Node4 -->
<g id="edge6" class="edge"><title>Node1&#45;&gt;Node4</title>
<path fill="none" stroke="midnightblue" d="M393.799,-123.782C348.921,-117.76 252.146,-103.458 162.037,-79.9695"/>
<polygon fill="midnightblue" stroke="midnightblue" points="162.779,-76.5455 152.216,-77.3653 160.985,-83.3116 162.779,-76.5455"/>
</g>
<!-- Node5 -->
<g id="node9" class="node"><title>Node5</title>
<polygon fill="white" stroke="#bfbfbf" points="169.5,-58.5 169.5,-79.5 220.5,-79.5 220.5,-58.5 169.5,-58.5"/>
<text text-anchor="middle" x="195" y="-66.5" font-family="Helvetica,sans-Serif" font-size="10.00">string.h</text>
</g>
<!-- Node1&#45;&gt;Node5 -->
<g id="edge8" class="edge"><title>Node1&#45;&gt;Node5</title>
<path fill="none" stroke="midnightblue" d="M393.81,-120.822C358.16,-112.028 290.976,-95.2697 234,-80 232.777,-79.6722 231.533,-79.3361 230.277,-78.9945"/>
<polygon fill="midnightblue" stroke="midnightblue" points="231.138,-75.6014 220.567,-76.3144 229.276,-82.3491 231.138,-75.6014"/>
</g>
<!-- Node6 -->
<g id="node11" class="node"><title>Node6</title>
<polygon fill="white" stroke="#bfbfbf" points="640.5,-0.5 640.5,-21.5 783.5,-21.5 783.5,-0.5 640.5,-0.5"/>
<text text-anchor="middle" x="712" y="-8.5" font-family="Helvetica,sans-Serif" font-size="10.00">luna&#45;service2/lunaservice.h</text>
</g>
<!-- Node1&#45;&gt;Node6 -->
<g id="edge10" class="edge"><title>Node1&#45;&gt;Node6</title>
<path fill="none" stroke="midnightblue" d="M444.152,-125.485C520.505,-120.634 745.711,-104.357 767,-80 782.349,-62.4388 759.987,-41.3606 739.342,-27.16"/>
<polygon fill="midnightblue" stroke="midnightblue" points="741,-24.0627 730.713,-21.5255 737.172,-29.9237 741,-24.0627"/>
</g>
<!-- Node7 -->
<g id="node13" class="node"><title>Node7</title>
<polygon fill="white" stroke="#bfbfbf" points="276,-58.5 276,-79.5 348,-79.5 348,-58.5 276,-58.5"/>
<text text-anchor="middle" x="312" y="-66.5" font-family="Helvetica,sans-Serif" font-size="10.00">cjson/json.h</text>
</g>
<!-- Node1&#45;&gt;Node7 -->
<g id="edge12" class="edge"><title>Node1&#45;&gt;Node7</title>
<path fill="none" stroke="midnightblue" d="M399.375,-116.362C382.859,-107.409 359.026,-94.4908 340.422,-84.4064"/>
<polygon fill="midnightblue" stroke="midnightblue" points="341.96,-81.2592 331.501,-79.5707 338.625,-87.4132 341.96,-81.2592"/>
</g>
<!-- Node8 -->
<g id="node15" class="node"><title>Node8</title>
<polygon fill="white" stroke="#bfbfbf" points="365.5,-58.5 365.5,-79.5 472.5,-79.5 472.5,-58.5 365.5,-58.5"/>
<text text-anchor="middle" x="419" y="-66.5" font-family="Helvetica,sans-Serif" font-size="10.00">libxml/xmlmemory.h</text>
</g>
<!-- Node1&#45;&gt;Node8 -->
<g id="edge14" class="edge"><title>Node1&#45;&gt;Node8</title>
<path fill="none" stroke="midnightblue" d="M419,-116.362C419,-108.922 419,-98.7427 419,-89.7276"/>
<polygon fill="midnightblue" stroke="midnightblue" points="422.5,-89.5706 419,-79.5707 415.5,-89.5707 422.5,-89.5706"/>
</g>
<!-- Node9 -->
<g id="node17" class="node"><title>Node9</title>
<polygon fill="white" stroke="#bfbfbf" points="490,-58.5 490,-79.5 574,-79.5 574,-58.5 490,-58.5"/>
<text text-anchor="middle" x="532" y="-66.5" font-family="Helvetica,sans-Serif" font-size="10.00">libxml/parser.h</text>
</g>
<!-- Node1&#45;&gt;Node9 -->
<g id="edge16" class="edge"><title>Node1&#45;&gt;Node9</title>
<path fill="none" stroke="midnightblue" d="M439.463,-116.497C457.033,-107.479 482.582,-94.3649 502.385,-84.2006"/>
<polygon fill="midnightblue" stroke="midnightblue" points="504.009,-87.3014 511.307,-79.6212 500.812,-81.0738 504.009,-87.3014"/>
</g>
<!-- Node10 -->
<g id="node19" class="node"><title>Node10</title>
<a xlink:href="lunaservice__utils_8h.htm" target="_top" xlink:title="lunaservice_utils.h">
<polygon fill="white" stroke="black" points="656,-58.5 656,-79.5 758,-79.5 758,-58.5 656,-58.5"/>
<text text-anchor="middle" x="707" y="-66.5" font-family="Helvetica,sans-Serif" font-size="10.00">lunaservice_utils.h</text>
</a>
</g>
<!-- Node1&#45;&gt;Node10 -->
<g id="edge18" class="edge"><title>Node1&#45;&gt;Node10</title>
<path fill="none" stroke="midnightblue" d="M444.054,-121.954C488.649,-112.973 582.989,-93.9745 645.69,-81.3471"/>
<polygon fill="midnightblue" stroke="midnightblue" points="646.741,-84.7058 655.854,-79.3003 645.359,-77.8435 646.741,-84.7058"/>
</g>
<!-- Node11 -->
<g id="node22" class="node"><title>Node11</title>
<a xlink:href="main_8h.htm" target="_top" xlink:title="main.h">
<polygon fill="white" stroke="black" points="591.5,-58.5 591.5,-79.5 638.5,-79.5 638.5,-58.5 591.5,-58.5"/>
<text text-anchor="middle" x="615" y="-66.5" font-family="Helvetica,sans-Serif" font-size="10.00">main.h</text>
</a>
</g>
<!-- Node1&#45;&gt;Node11 -->
<g id="edge22" class="edge"><title>Node1&#45;&gt;Node11</title>
<path fill="none" stroke="midnightblue" d="M444.127,-120.236C474.584,-111.943 527.67,-97.1871 581.568,-80.3598"/>
<polygon fill="midnightblue" stroke="midnightblue" points="582.789,-83.6447 591.28,-77.3073 580.69,-76.9667 582.789,-83.6447"/>
</g>
<!-- Node13 -->
<g id="node28" class="node"><title>Node13</title>
<a xlink:href="logging_8h.htm" target="_top" xlink:title="logging.h">
<polygon fill="white" stroke="black" points="813.5,-58.5 813.5,-79.5 872.5,-79.5 872.5,-58.5 813.5,-58.5"/>
<text text-anchor="middle" x="843" y="-66.5" font-family="Helvetica,sans-Serif" font-size="10.00">logging.h</text>
</a>
</g>
<!-- Node1&#45;&gt;Node13 -->
<g id="edge30" class="edge"><title>Node1&#45;&gt;Node13</title>
<path fill="none" stroke="midnightblue" d="M444.134,-125.018C505.38,-119.946 667.055,-105.098 800,-80 801.06,-79.7999 802.133,-79.5887 803.214,-79.3684"/>
<polygon fill="midnightblue" stroke="midnightblue" points="804.034,-82.7715 813.037,-77.1854 802.516,-75.9382 804.034,-82.7715"/>
</g>
<!-- Node15 -->
<g id="node32" class="node"><title>Node15</title>
<a xlink:href="config_8h.htm" target="_top" xlink:title="config.h">
<polygon fill="white" stroke="black" points="-0.5,-58.5 -0.5,-79.5 52.5,-79.5 52.5,-58.5 -0.5,-58.5"/>
<text text-anchor="middle" x="26" y="-66.5" font-family="Helvetica,sans-Serif" font-size="10.00">config.h</text>
</a>
</g>
<!-- Node1&#45;&gt;Node15 -->
<g id="edge34" class="edge"><title>Node1&#45;&gt;Node15</title>
<path fill="none" stroke="midnightblue" d="M393.984,-124.849C335.943,-119.602 187.783,-104.733 66,-80 64.906,-79.7778 63.7978,-79.5422 62.6812,-79.2956"/>
<polygon fill="midnightblue" stroke="midnightblue" points="63.1013,-75.7963 52.5586,-76.8458 61.4547,-82.5999 63.1013,-75.7963"/>
</g>
<!-- Node16 -->
<g id="node35" class="node"><title>Node16</title>
<a xlink:href="timeout__alarm_8h.htm" target="_top" xlink:title="timeout_alarm.h">
<polygon fill="white" stroke="black" points="889.5,-58.5 889.5,-79.5 980.5,-79.5 980.5,-58.5 889.5,-58.5"/>
<text text-anchor="middle" x="935" y="-66.5" font-family="Helvetica,sans-Serif" font-size="10.00">timeout_alarm.h</text>
</a>
</g>
<!-- Node1&#45;&gt;Node16 -->
<g id="edge38" class="edge"><title>Node1&#45;&gt;Node16</title>
<path fill="none" stroke="midnightblue" d="M444.151,-125.326C512.512,-120.589 707.596,-105.83 879.413,-80.1319"/>
<polygon fill="midnightblue" stroke="midnightblue" points="880.028,-83.5789 889.392,-78.6229 878.981,-76.6575 880.028,-83.5789"/>
</g>
<!-- Node10&#45;&gt;Node6 -->
<g id="edge20" class="edge"><title>Node10&#45;&gt;Node6</title>
<path fill="none" stroke="midnightblue" d="M707.917,-58.3619C708.558,-50.9219 709.436,-40.7427 710.213,-31.7276"/>
<polygon fill="midnightblue" stroke="midnightblue" points="713.717,-31.8343 711.089,-21.5707 706.743,-31.2331 713.717,-31.8343"/>
</g>
<!-- Node11&#45;&gt;Node2 -->
<g id="edge24" class="edge"><title>Node11&#45;&gt;Node2</title>
<path fill="none" stroke="midnightblue" d="M591.331,-60.5217C588.537,-59.6229 585.715,-58.7607 583,-58 518.049,-39.8033 440.435,-24.3526 398.51,-16.5141"/>
<polygon fill="midnightblue" stroke="midnightblue" points="399.12,-13.0676 388.65,-14.6882 397.845,-19.9506 399.12,-13.0676"/>
</g>
<!-- Node11&#45;&gt;Node6 -->
<g id="edge26" class="edge"><title>Node11&#45;&gt;Node6</title>
<path fill="none" stroke="midnightblue" d="M632.791,-58.3619C647.559,-49.532 668.778,-36.844 685.538,-26.8224"/>
<polygon fill="midnightblue" stroke="midnightblue" points="687.535,-29.7066 694.321,-21.5707 683.943,-23.6987 687.535,-29.7066"/>
</g>
<!-- Node12 -->
<g id="node26" class="node"><title>Node12</title>
<polygon fill="white" stroke="#bfbfbf" points="531,-0.5 531,-21.5 623,-21.5 623,-0.5 531,-0.5"/>
<text text-anchor="middle" x="577" y="-8.5" font-family="Helvetica,sans-Serif" font-size="10.00">nyx/nyx_client.h</text>
</g>
<!-- Node11&#45;&gt;Node12 -->
<g id="edge28" class="edge"><title>Node11&#45;&gt;Node12</title>
<path fill="none" stroke="midnightblue" d="M608.03,-58.3619C602.834,-50.4313 595.599,-39.3885 589.422,-29.9606"/>
<polygon fill="midnightblue" stroke="midnightblue" points="592.334,-28.0172 583.926,-21.5707 586.478,-31.8534 592.334,-28.0172"/>
</g>
<!-- Node14 -->
<g id="node30" class="node"><title>Node14</title>
<polygon fill="white" stroke="#bfbfbf" points="806,-0.5 806,-21.5 880,-21.5 880,-0.5 806,-0.5"/>
<text text-anchor="middle" x="843" y="-8.5" font-family="Helvetica,sans-Serif" font-size="10.00">sys/syslog.h</text>
</g>
<!-- Node13&#45;&gt;Node14 -->
<g id="edge32" class="edge"><title>Node13&#45;&gt;Node14</title>
<path fill="none" stroke="midnightblue" d="M843,-58.3619C843,-50.9219 843,-40.7427 843,-31.7276"/>
<polygon fill="midnightblue" stroke="midnightblue" points="846.5,-31.5706 843,-21.5707 839.5,-31.5707 846.5,-31.5706"/>
</g>
<!-- Node15&#45;&gt;Node3 -->
<g id="edge36" class="edge"><title>Node15&#45;&gt;Node3</title>
<path fill="none" stroke="midnightblue" d="M30.9522,-58.3619C34.5298,-50.6766 39.4681,-40.0686 43.7642,-30.8399"/>
<polygon fill="midnightblue" stroke="midnightblue" points="47.0319,-32.1136 48.0792,-21.5707 40.6858,-29.1594 47.0319,-32.1136"/>
</g>
</g>
</svg>
