<?xml version="1.0" encoding="UTF-8" standalone="no"?>
<!DOCTYPE svg PUBLIC "-//W3C//DTD SVG 1.1//EN"
 "http://www.w3.org/Graphics/SVG/1.1/DTD/svg11.dtd">
<!-- Generated by graphviz version 2.26.3 (20100126.1600)
 -->
<!-- Title: client.c Pages: 1 -->
<svg width="461pt" height="146pt"
 viewBox="0.00 0.00 461.00 146.00" xmlns="http://www.w3.org/2000/svg" xmlns:xlink="http://www.w3.org/1999/xlink">
<g id="graph1" class="graph" transform="scale(1 1) rotate(0) translate(4 142)">
<title>client.c</title>
<polygon fill="white" stroke="white" points="-4,5 -4,-142 458,-142 458,5 -4,5"/>
<!-- Node1 -->
<g id="node1" class="node"><title>Node1</title>
<polygon fill="#bfbfbf" stroke="black" points="268.5,-116.5 268.5,-137.5 317.5,-137.5 317.5,-116.5 268.5,-116.5"/>
<text text-anchor="middle" x="293" y="-124.5" font-family="Helvetica,sans-Serif" font-size="10.00">client.c</text>
</g>
<!-- Node2 -->
<g id="node3" class="node"><title>Node2</title>
<polygon fill="white" stroke="#bfbfbf" points="279.5,-0.5 279.5,-21.5 320.5,-21.5 320.5,-0.5 279.5,-0.5"/>
<text text-anchor="middle" x="300" y="-8.5" font-family="Helvetica,sans-Serif" font-size="10.00">glib.h</text>
</g>
<!-- Node1&#45;&gt;Node2 -->
<g id="edge2" class="edge"><title>Node1&#45;&gt;Node2</title>
<path fill="none" stroke="midnightblue" d="M293.646,-116.295C294.802,-97.1314 297.245,-56.654 298.742,-31.8434"/>
<polygon fill="midnightblue" stroke="midnightblue" points="302.247,-31.8719 299.356,-21.6792 295.259,-31.4502 302.247,-31.8719"/>
</g>
<!-- Node3 -->
<g id="node5" class="node"><title>Node3</title>
<polygon fill="white" stroke="#bfbfbf" points="320.5,-58.5 320.5,-79.5 369.5,-79.5 369.5,-58.5 320.5,-58.5"/>
<text text-anchor="middle" x="345" y="-66.5" font-family="Helvetica,sans-Serif" font-size="10.00">stdlib.h</text>
</g>
<!-- Node1&#45;&gt;Node3 -->
<g id="edge4" class="edge"><title>Node1&#45;&gt;Node3</title>
<path fill="none" stroke="midnightblue" d="M302.538,-116.362C309.868,-108.186 320.163,-96.7025 328.781,-87.0907"/>
<polygon fill="midnightblue" stroke="midnightblue" points="331.453,-89.3528 335.523,-79.5707 326.241,-84.68 331.453,-89.3528"/>
</g>
<!-- Node4 -->
<g id="node7" class="node"><title>Node4</title>
<a xlink:href="logging_8h.htm" target="_top" xlink:title="logging.h">
<polygon fill="white" stroke="black" points="386.5,-58.5 386.5,-79.5 445.5,-79.5 445.5,-58.5 386.5,-58.5"/>
<text text-anchor="middle" x="416" y="-66.5" font-family="Helvetica,sans-Serif" font-size="10.00">logging.h</text>
</a>
</g>
<!-- Node1&#45;&gt;Node4 -->
<g id="edge6" class="edge"><title>Node1&#45;&gt;Node4</title>
<path fill="none" stroke="midnightblue" d="M315.274,-116.497C334.572,-107.397 362.713,-94.1273 384.348,-83.9253"/>
<polygon fill="midnightblue" stroke="midnightblue" points="385.924,-87.052 393.476,-79.6212 382.938,-80.7206 385.924,-87.052"/>
</g>
<!-- Node6 -->
<g id="node11" class="node"><title>Node6</title>
<a xlink:href="debug_8h.htm" target="_top" xlink:title="debug.h">
<polygon fill="white" stroke="black" points="136.5,-58.5 136.5,-79.5 189.5,-79.5 189.5,-58.5 136.5,-58.5"/>
<text text-anchor="middle" x="163" y="-66.5" font-family="Helvetica,sans-Serif" font-size="10.00">debug.h</text>
</a>
</g>
<!-- Node1&#45;&gt;Node6 -->
<g id="edge10" class="edge"><title>Node1&#45;&gt;Node6</title>
<path fill="none" stroke="midnightblue" d="M269.458,-116.497C248.971,-107.356 219.053,-94.0082 196.146,-83.7883"/>
<polygon fill="midnightblue" stroke="midnightblue" points="197.365,-80.4994 186.806,-79.6212 194.512,-86.892 197.365,-80.4994"/>
</g>
<!-- Node11 -->
<g id="node22" class="node"><title>Node11</title>
<a xlink:href="client_8h.htm" target="_top" xlink:title="client.h">
<polygon fill="white" stroke="black" points="215,-58.5 215,-79.5 265,-79.5 265,-58.5 215,-58.5"/>
<text text-anchor="middle" x="240" y="-66.5" font-family="Helvetica,sans-Serif" font-size="10.00">client.h</text>
</a>
</g>
<!-- Node1&#45;&gt;Node11 -->
<g id="edge22" class="edge"><title>Node1&#45;&gt;Node11</title>
<path fill="none" stroke="midnightblue" d="M283.279,-116.362C275.808,-108.186 265.314,-96.7025 256.531,-87.0907"/>
<polygon fill="midnightblue" stroke="midnightblue" points="258.989,-84.5918 249.659,-79.5707 253.821,-89.3138 258.989,-84.5918"/>
</g>
<!-- Node5 -->
<g id="node9" class="node"><title>Node5</title>
<polygon fill="white" stroke="#bfbfbf" points="379,-0.5 379,-21.5 453,-21.5 453,-0.5 379,-0.5"/>
<text text-anchor="middle" x="416" y="-8.5" font-family="Helvetica,sans-Serif" font-size="10.00">sys/syslog.h</text>
</g>
<!-- Node4&#45;&gt;Node5 -->
<g id="edge8" class="edge"><title>Node4&#45;&gt;Node5</title>
<path fill="none" stroke="midnightblue" d="M416,-58.3619C416,-50.9219 416,-40.7427 416,-31.7276"/>
<polygon fill="midnightblue" stroke="midnightblue" points="419.5,-31.5706 416,-21.5707 412.5,-31.5707 419.5,-31.5706"/>
</g>
<!-- Node6&#45;&gt;Node2 -->
<g id="edge16" class="edge"><title>Node6&#45;&gt;Node2</title>
<path fill="none" stroke="midnightblue" d="M187.81,-58.4966C210.954,-48.6982 245.52,-34.0646 270.161,-23.6325"/>
<polygon fill="midnightblue" stroke="midnightblue" points="271.555,-26.8432 279.399,-19.7214 268.826,-20.397 271.555,-26.8432"/>
</g>
<!-- Node7 -->
<g id="node13" class="node"><title>Node7</title>
<polygon fill="white" stroke="#bfbfbf" points="139.5,-0.5 139.5,-21.5 186.5,-21.5 186.5,-0.5 139.5,-0.5"/>
<text text-anchor="middle" x="163" y="-8.5" font-family="Helvetica,sans-Serif" font-size="10.00">stdio.h</text>
</g>
<!-- Node6&#45;&gt;Node7 -->
<g id="edge12" class="edge"><title>Node6&#45;&gt;Node7</title>
<path fill="none" stroke="midnightblue" d="M163,-58.3619C163,-50.9219 163,-40.7427 163,-31.7276"/>
<polygon fill="midnightblue" stroke="midnightblue" points="166.5,-31.5706 163,-21.5707 159.5,-31.5707 166.5,-31.5706"/>
</g>
<!-- Node8 -->
<g id="node15" class="node"><title>Node8</title>
<polygon fill="white" stroke="#bfbfbf" points="0,-0.5 0,-21.5 54,-21.5 54,-0.5 0,-0.5"/>
<text text-anchor="middle" x="27" y="-8.5" font-family="Helvetica,sans-Serif" font-size="10.00">assert.h</text>
</g>
<!-- Node6&#45;&gt;Node8 -->
<g id="edge14" class="edge"><title>Node6&#45;&gt;Node8</title>
<path fill="none" stroke="midnightblue" d="M138.371,-58.4966C116.843,-49.3154 85.3602,-35.8889 61.3554,-25.6516"/>
<polygon fill="midnightblue" stroke="midnightblue" points="62.4764,-22.3247 51.9049,-21.6212 59.7303,-28.7636 62.4764,-22.3247"/>
</g>
<!-- Node9 -->
<g id="node18" class="node"><title>Node9</title>
<polygon fill="white" stroke="#bfbfbf" points="71.5,-0.5 71.5,-21.5 122.5,-21.5 122.5,-0.5 71.5,-0.5"/>
<text text-anchor="middle" x="97" y="-8.5" font-family="Helvetica,sans-Serif" font-size="10.00">string.h</text>
</g>
<!-- Node6&#45;&gt;Node9 -->
<g id="edge18" class="edge"><title>Node6&#45;&gt;Node9</title>
<path fill="none" stroke="midnightblue" d="M150.895,-58.3619C141.312,-49.9408 127.736,-38.0105 116.607,-28.2308"/>
<polygon fill="midnightblue" stroke="midnightblue" points="118.851,-25.5427 109.029,-21.5707 114.23,-30.8009 118.851,-25.5427"/>
</g>
<!-- Node10 -->
<g id="node20" class="node"><title>Node10</title>
<polygon fill="white" stroke="#bfbfbf" points="203.5,-0.5 203.5,-21.5 262.5,-21.5 262.5,-0.5 203.5,-0.5"/>
<text text-anchor="middle" x="233" y="-8.5" font-family="Helvetica,sans-Serif" font-size="10.00">stdbool.h</text>
</g>
<!-- Node6&#45;&gt;Node10 -->
<g id="edge20" class="edge"><title>Node6&#45;&gt;Node10</title>
<path fill="none" stroke="midnightblue" d="M175.839,-58.3619C186.002,-49.9408 200.401,-38.0105 212.204,-28.2308"/>
<polygon fill="midnightblue" stroke="midnightblue" points="214.775,-30.6459 220.242,-21.5707 210.309,-25.2558 214.775,-30.6459"/>
</g>
<!-- Node11&#45;&gt;Node2 -->
<g id="edge26" class="edge"><title>Node11&#45;&gt;Node2</title>
<path fill="none" stroke="midnightblue" d="M251.005,-58.3619C259.547,-50.1043 271.58,-38.4725 281.583,-28.8029"/>
<polygon fill="midnightblue" stroke="midnightblue" points="284.308,-31.0374 289.065,-21.5707 279.442,-26.0044 284.308,-31.0374"/>
</g>
<!-- Node11&#45;&gt;Node10 -->
<g id="edge24" class="edge"><title>Node11&#45;&gt;Node10</title>
<path fill="none" stroke="midnightblue" d="M238.716,-58.3619C237.818,-50.9219 236.59,-40.7427 235.502,-31.7276"/>
<polygon fill="midnightblue" stroke="midnightblue" points="238.949,-31.0792 234.276,-21.5707 231.999,-31.918 238.949,-31.0792"/>
</g>
</g>
</svg>
