<?xml version="1.0" encoding="UTF-8" standalone="no"?>
<!DOCTYPE svg PUBLIC "-//W3C//DTD SVG 1.1//EN"
 "http://www.w3.org/Graphics/SVG/1.1/DTD/svg11.dtd">
<!-- Generated by graphviz version 2.26.3 (20100126.1600)
 -->
<!-- Title: client.h Pages: 1 -->
<svg width="238pt" height="88pt"
 viewBox="0.00 0.00 238.00 88.00" xmlns="http://www.w3.org/2000/svg" xmlns:xlink="http://www.w3.org/1999/xlink">
<g id="graph1" class="graph" transform="scale(1 1) rotate(0) translate(4 84)">
<title>client.h</title>
<polygon fill="white" stroke="white" points="-4,5 -4,-84 235,-84 235,5 -4,5"/>
<!-- Node1 -->
<g id="node1" class="node"><title>Node1</title>
<polygon fill="#bfbfbf" stroke="black" points="73,-58.5 73,-79.5 123,-79.5 123,-58.5 73,-58.5"/>
<text text-anchor="middle" x="98" y="-66.5" font-family="Helvetica,sans-Serif" font-size="10.00">client.h</text>
</g>
<!-- Node2 -->
<g id="node3" class="node"><title>Node2</title>
<a xlink:href="client_8c.htm" target="_top" xlink:title="This file contains functions to manage clients registered with sleepd to veto suspend requests...">
<polygon fill="white" stroke="black" points="-0.5,-0.5 -0.5,-21.5 48.5,-21.5 48.5,-0.5 -0.5,-0.5"/>
<text text-anchor="middle" x="24" y="-8.5" font-family="Helvetica,sans-Serif" font-size="10.00">client.c</text>
</a>
</g>
<!-- Node1&#45;&gt;Node2 -->
<g id="edge2" class="edge"><title>Node1&#45;&gt;Node2</title>
<path fill="none" stroke="midnightblue" d="M76.2789,-51.9753C63.7195,-42.1315 48.311,-30.0545 37.4867,-21.5707"/>
<polygon fill="midnightblue" stroke="midnightblue" points="74.3976,-54.9478 84.4273,-58.3619 78.7158,-49.4383 74.3976,-54.9478"/>
</g>
<!-- Node3 -->
<g id="node5" class="node"><title>Node3</title>
<a xlink:href="suspend_8c.htm" target="_top" xlink:title="Suspend/Resume logic to conserve battery when device is idle.">
<polygon fill="white" stroke="black" points="66,-0.5 66,-21.5 130,-21.5 130,-0.5 66,-0.5"/>
<text text-anchor="middle" x="98" y="-8.5" font-family="Helvetica,sans-Serif" font-size="10.00">suspend.c</text>
</a>
</g>
<!-- Node1&#45;&gt;Node3 -->
<g id="edge4" class="edge"><title>Node1&#45;&gt;Node3</title>
<path fill="none" stroke="midnightblue" d="M98,-48.1906C98,-39.1684 98,-28.9941 98,-21.5707"/>
<polygon fill="midnightblue" stroke="midnightblue" points="94.5001,-48.3619 98,-58.3619 101.5,-48.3619 94.5001,-48.3619"/>
</g>
<!-- Node4 -->
<g id="node7" class="node"><title>Node4</title>
<a xlink:href="suspend__ipc_8c.htm" target="_top" xlink:title="Power Events Luna calls.">
<polygon fill="white" stroke="black" points="147.5,-0.5 147.5,-21.5 230.5,-21.5 230.5,-0.5 147.5,-0.5"/>
<text text-anchor="middle" x="189" y="-8.5" font-family="Helvetica,sans-Serif" font-size="10.00">suspend_ipc.c</text>
</a>
</g>
<!-- Node1&#45;&gt;Node4 -->
<g id="edge6" class="edge"><title>Node1&#45;&gt;Node4</title>
<path fill="none" stroke="midnightblue" d="M123.384,-52.8215C139.058,-42.8312 158.72,-30.2993 172.415,-21.5707"/>
<polygon fill="midnightblue" stroke="midnightblue" points="121.242,-50.0356 114.691,-58.3619 125.005,-55.9386 121.242,-50.0356"/>
</g>
</g>
</svg>
