<?xml version="1.0" encoding="UTF-8" standalone="no"?>
<!DOCTYPE svg PUBLIC "-//W3C//DTD SVG 1.1//EN"
 "http://www.w3.org/Graphics/SVG/1.1/DTD/svg11.dtd">
<!-- Generated by graphviz version 2.26.3 (20100126.1600)
 -->
<!-- Title: clock.h Pages: 1 -->
<svg width="242pt" height="88pt"
 viewBox="0.00 0.00 242.00 88.00" xmlns="http://www.w3.org/2000/svg" xmlns:xlink="http://www.w3.org/1999/xlink">
<g id="graph1" class="graph" transform="scale(1 1) rotate(0) translate(4 84)">
<title>clock.h</title>
<polygon fill="white" stroke="white" points="-4,5 -4,-84 239,-84 239,5 -4,5"/>
<!-- Node1 -->
<g id="node1" class="node"><title>Node1</title>
<polygon fill="#bfbfbf" stroke="black" points="81.5,-58.5 81.5,-79.5 130.5,-79.5 130.5,-58.5 81.5,-58.5"/>
<text text-anchor="middle" x="106" y="-66.5" font-family="Helvetica,sans-Serif" font-size="10.00">clock.h</text>
</g>
<!-- Node2 -->
<g id="node3" class="node"><title>Node2</title>
<a xlink:href="activity_8c.htm" target="_top" xlink:title="This file contains functions to manage activities, which are entities that can be registered with sle...">
<polygon fill="white" stroke="black" points="0,-0.5 0,-21.5 56,-21.5 56,-0.5 0,-0.5"/>
<text text-anchor="middle" x="28" y="-8.5" font-family="Helvetica,sans-Serif" font-size="10.00">activity.c</text>
</a>
</g>
<!-- Node1&#45;&gt;Node2 -->
<g id="edge2" class="edge"><title>Node1&#45;&gt;Node2</title>
<path fill="none" stroke="midnightblue" d="M83.4858,-52.2587C70.1793,-42.3641 53.7348,-30.1361 42.2157,-21.5707"/>
<polygon fill="midnightblue" stroke="midnightblue" points="81.5805,-55.2035 91.6936,-58.3619 85.7574,-49.5862 81.5805,-55.2035"/>
</g>
<!-- Node3 -->
<g id="node5" class="node"><title>Node3</title>
<a xlink:href="suspend_8c.htm" target="_top" xlink:title="Suspend/Resume logic to conserve battery when device is idle.">
<polygon fill="white" stroke="black" points="74,-0.5 74,-21.5 138,-21.5 138,-0.5 74,-0.5"/>
<text text-anchor="middle" x="106" y="-8.5" font-family="Helvetica,sans-Serif" font-size="10.00">suspend.c</text>
</a>
</g>
<!-- Node1&#45;&gt;Node3 -->
<g id="edge4" class="edge"><title>Node1&#45;&gt;Node3</title>
<path fill="none" stroke="midnightblue" d="M106,-48.1906C106,-39.1684 106,-28.9941 106,-21.5707"/>
<polygon fill="midnightblue" stroke="midnightblue" points="102.5,-48.3619 106,-58.3619 109.5,-48.3619 102.5,-48.3619"/>
</g>
<!-- Node4 -->
<g id="node7" class="node"><title>Node4</title>
<a xlink:href="timersource_8c.htm" target="_top" xlink:title="timersource.c">
<polygon fill="white" stroke="black" points="155.5,-0.5 155.5,-21.5 234.5,-21.5 234.5,-0.5 155.5,-0.5"/>
<text text-anchor="middle" x="195" y="-8.5" font-family="Helvetica,sans-Serif" font-size="10.00">timersource.c</text>
</a>
</g>
<!-- Node1&#45;&gt;Node4 -->
<g id="edge6" class="edge"><title>Node1&#45;&gt;Node4</title>
<path fill="none" stroke="midnightblue" d="M130.826,-52.8215C146.156,-42.8312 165.386,-30.2993 178.78,-21.5707"/>
<polygon fill="midnightblue" stroke="midnightblue" points="128.791,-49.9698 122.324,-58.3619 132.613,-55.8344 128.791,-49.9698"/>
</g>
</g>
</svg>
