<?xml version="1.0" encoding="UTF-8" standalone="no"?>
<!DOCTYPE svg PUBLIC "-//W3C//DTD SVG 1.1//EN"
 "http://www.w3.org/Graphics/SVG/1.1/DTD/svg11.dtd">
<!-- Generated by graphviz version 2.26.3 (20100126.1600)
 -->
<!-- Title: clock.h Pages: 1 -->
<svg width="186pt" height="88pt"
 viewBox="0.00 0.00 186.00 88.00" xmlns="http://www.w3.org/2000/svg" xmlns:xlink="http://www.w3.org/1999/xlink">
<g id="graph1" class="graph" transform="scale(1 1) rotate(0) translate(4 84)">
<title>clock.h</title>
<polygon fill="white" stroke="white" points="-4,5 -4,-84 183,-84 183,5 -4,5"/>
<!-- Node1 -->
<g id="node1" class="node"><title>Node1</title>
<polygon fill="#bfbfbf" stroke="black" points="73.5,-58.5 73.5,-79.5 122.5,-79.5 122.5,-58.5 73.5,-58.5"/>
<text text-anchor="middle" x="98" y="-66.5" font-family="Helvetica,sans-Serif" font-size="10.00">clock.h</text>
</g>
<!-- Node2 -->
<g id="node3" class="node"><title>Node2</title>
<polygon fill="white" stroke="#bfbfbf" points="-0.5,-0.5 -0.5,-21.5 58.5,-21.5 58.5,-0.5 -0.5,-0.5"/>
<text text-anchor="middle" x="29" y="-8.5" font-family="Helvetica,sans-Serif" font-size="10.00">stdbool.h</text>
</g>
<!-- Node1&#45;&gt;Node2 -->
<g id="edge2" class="edge"><title>Node1&#45;&gt;Node2</title>
<path fill="none" stroke="midnightblue" d="M85.3443,-58.3619C75.3261,-49.9408 61.1332,-38.0105 49.4987,-28.2308"/>
<polygon fill="midnightblue" stroke="midnightblue" points="51.4824,-25.326 41.5754,-21.5707 46.9782,-30.6844 51.4824,-25.326"/>
</g>
<!-- Node3 -->
<g id="node5" class="node"><title>Node3</title>
<polygon fill="white" stroke="#bfbfbf" points="76,-0.5 76,-21.5 120,-21.5 120,-0.5 76,-0.5"/>
<text text-anchor="middle" x="98" y="-8.5" font-family="Helvetica,sans-Serif" font-size="10.00">time.h</text>
</g>
<!-- Node1&#45;&gt;Node3 -->
<g id="edge4" class="edge"><title>Node1&#45;&gt;Node3</title>
<path fill="none" stroke="midnightblue" d="M98,-58.3619C98,-50.9219 98,-40.7427 98,-31.7276"/>
<polygon fill="midnightblue" stroke="midnightblue" points="101.5,-31.5706 98,-21.5707 94.5001,-31.5707 101.5,-31.5706"/>
</g>
<!-- Node4 -->
<g id="node7" class="node"><title>Node4</title>
<polygon fill="white" stroke="#bfbfbf" points="137.5,-0.5 137.5,-21.5 178.5,-21.5 178.5,-0.5 137.5,-0.5"/>
<text text-anchor="middle" x="158" y="-8.5" font-family="Helvetica,sans-Serif" font-size="10.00">glib.h</text>
</g>
<!-- Node1&#45;&gt;Node4 -->
<g id="edge6" class="edge"><title>Node1&#45;&gt;Node4</title>
<path fill="none" stroke="midnightblue" d="M109.005,-58.3619C117.547,-50.1043 129.58,-38.4725 139.583,-28.8029"/>
<polygon fill="midnightblue" stroke="midnightblue" points="142.308,-31.0374 147.065,-21.5707 137.442,-26.0044 142.308,-31.0374"/>
</g>
</g>
</svg>
