<?xml version="1.0" encoding="UTF-8" standalone="no"?>
<!DOCTYPE svg PUBLIC "-//W3C//DTD SVG 1.1//EN"
 "http://www.w3.org/Graphics/SVG/1.1/DTD/svg11.dtd">
<!-- Generated by graphviz version 2.26.3 (20100126.1600)
 -->
<!-- Title: config.h Pages: 1 -->
<svg width="492pt" height="88pt"
 viewBox="0.00 0.00 492.00 88.00" xmlns="http://www.w3.org/2000/svg" xmlns:xlink="http://www.w3.org/1999/xlink">
<g id="graph1" class="graph" transform="scale(1 1) rotate(0) translate(4 84)">
<title>config.h</title>
<polygon fill="white" stroke="white" points="-4,5 -4,-84 489,-84 489,5 -4,5"/>
<!-- Node1 -->
<g id="node1" class="node"><title>Node1</title>
<polygon fill="#bfbfbf" stroke="black" points="226.5,-58.5 226.5,-79.5 279.5,-79.5 279.5,-58.5 226.5,-58.5"/>
<text text-anchor="middle" x="253" y="-66.5" font-family="Helvetica,sans-Serif" font-size="10.00">config.h</text>
</g>
<!-- Node2 -->
<g id="node3" class="node"><title>Node2</title>
<a xlink:href="alarm_8c.htm" target="_top" xlink:title="Old interface (deprecated) to add/clear alarms using RTC.">
<polygon fill="white" stroke="black" points="0,-0.5 0,-21.5 50,-21.5 50,-0.5 0,-0.5"/>
<text text-anchor="middle" x="25" y="-8.5" font-family="Helvetica,sans-Serif" font-size="10.00">alarm.c</text>
</a>
</g>
<!-- Node1&#45;&gt;Node2 -->
<g id="edge2" class="edge"><title>Node1&#45;&gt;Node2</title>
<path fill="none" stroke="midnightblue" d="M216.603,-61.042C177.458,-52.2833 113.493,-37.3926 59,-22 56.1342,-21.1905 53.1478,-20.2979 50.1867,-19.3817"/>
<polygon fill="midnightblue" stroke="midnightblue" points="215.956,-64.4837 226.478,-63.2391 217.477,-57.6508 215.956,-64.4837"/>
</g>
<!-- Node3 -->
<g id="node5" class="node"><title>Node3</title>
<a xlink:href="timeout__alarm_8c.htm" target="_top" xlink:title="New interface add/clear alarms using RTC.">
<polygon fill="white" stroke="black" points="68,-0.5 68,-21.5 158,-21.5 158,-0.5 68,-0.5"/>
<text text-anchor="middle" x="113" y="-8.5" font-family="Helvetica,sans-Serif" font-size="10.00">timeout_alarm.c</text>
</a>
</g>
<!-- Node1&#45;&gt;Node3 -->
<g id="edge4" class="edge"><title>Node1&#45;&gt;Node3</title>
<path fill="none" stroke="midnightblue" d="M218.278,-54.6153C193.594,-44.3889 160.985,-30.8796 138.637,-21.6212"/>
<polygon fill="midnightblue" stroke="midnightblue" points="217.069,-57.9027 227.647,-58.4966 219.748,-51.4357 217.069,-57.9027"/>
</g>
<!-- Node4 -->
<g id="node7" class="node"><title>Node4</title>
<a xlink:href="suspend_8c.htm" target="_top" xlink:title="Suspend/Resume logic to conserve battery when device is idle.">
<polygon fill="white" stroke="black" points="176,-0.5 176,-21.5 240,-21.5 240,-0.5 176,-0.5"/>
<text text-anchor="middle" x="208" y="-8.5" font-family="Helvetica,sans-Serif" font-size="10.00">suspend.c</text>
</a>
</g>
<!-- Node1&#45;&gt;Node4 -->
<g id="edge6" class="edge"><title>Node1&#45;&gt;Node4</title>
<path fill="none" stroke="midnightblue" d="M238.453,-50.2504C231.082,-40.75 222.404,-29.5651 216.201,-21.5707"/>
<polygon fill="midnightblue" stroke="midnightblue" points="235.851,-52.6065 244.746,-58.3619 241.382,-48.3155 235.851,-52.6065"/>
</g>
<!-- Node5 -->
<g id="node9" class="node"><title>Node5</title>
<a xlink:href="suspend__ipc_8c.htm" target="_top" xlink:title="Power Events Luna calls.">
<polygon fill="white" stroke="black" points="257.5,-0.5 257.5,-21.5 340.5,-21.5 340.5,-0.5 257.5,-0.5"/>
<text text-anchor="middle" x="299" y="-8.5" font-family="Helvetica,sans-Serif" font-size="10.00">suspend_ipc.c</text>
</a>
</g>
<!-- Node1&#45;&gt;Node5 -->
<g id="edge8" class="edge"><title>Node1&#45;&gt;Node5</title>
<path fill="none" stroke="midnightblue" d="M267.87,-50.2504C275.405,-40.75 284.276,-29.5651 290.616,-21.5707"/>
<polygon fill="midnightblue" stroke="midnightblue" points="264.909,-48.352 261.437,-58.3619 270.393,-52.7018 264.909,-48.352"/>
</g>
<!-- Node6 -->
<g id="node11" class="node"><title>Node6</title>
<a xlink:href="init_8c.htm" target="_top" xlink:title="init.c">
<polygon fill="white" stroke="black" points="358,-0.5 358,-21.5 396,-21.5 396,-0.5 358,-0.5"/>
<text text-anchor="middle" x="377" y="-8.5" font-family="Helvetica,sans-Serif" font-size="10.00">init.c</text>
</a>
</g>
<!-- Node1&#45;&gt;Node6 -->
<g id="edge10" class="edge"><title>Node1&#45;&gt;Node6</title>
<path fill="none" stroke="midnightblue" d="M284.553,-54.2414C307.72,-43.4049 338.433,-29.0393 357.961,-19.9052"/>
<polygon fill="midnightblue" stroke="midnightblue" points="283.031,-51.0894 275.455,-58.4966 285.996,-57.4301 283.031,-51.0894"/>
</g>
<!-- Node7 -->
<g id="node13" class="node"><title>Node7</title>
<a xlink:href="timesaver_8c.htm" target="_top" xlink:title="timesaver.c">
<polygon fill="white" stroke="black" points="414,-0.5 414,-21.5 484,-21.5 484,-0.5 414,-0.5"/>
<text text-anchor="middle" x="449" y="-8.5" font-family="Helvetica,sans-Serif" font-size="10.00">timesaver.c</text>
</a>
</g>
<!-- Node1&#45;&gt;Node7 -->
<g id="edge12" class="edge"><title>Node1&#45;&gt;Node7</title>
<path fill="none" stroke="midnightblue" d="M289.818,-58.1049C325.393,-47.5776 378.896,-31.745 413.885,-21.3912"/>
<polygon fill="midnightblue" stroke="midnightblue" points="288.438,-54.8632 279.842,-61.057 290.424,-61.5755 288.438,-54.8632"/>
</g>
</g>
</svg>
