<?xml version="1.0" encoding="UTF-8" standalone="no"?>
<!DOCTYPE svg PUBLIC "-//W3C//DTD SVG 1.1//EN"
 "http://www.w3.org/Graphics/SVG/1.1/DTD/svg11.dtd">
<!-- Generated by graphviz version 2.26.3 (20100126.1600)
 -->
<!-- Title: debug.h Pages: 1 -->
<svg width="328pt" height="88pt"
 viewBox="0.00 0.00 328.00 88.00" xmlns="http://www.w3.org/2000/svg" xmlns:xlink="http://www.w3.org/1999/xlink">
<g id="graph1" class="graph" transform="scale(1 1) rotate(0) translate(4 84)">
<title>debug.h</title>
<polygon fill="white" stroke="white" points="-4,5 -4,-84 325,-84 325,5 -4,5"/>
<!-- Node1 -->
<g id="node1" class="node"><title>Node1</title>
<polygon fill="#bfbfbf" stroke="black" points="129.5,-58.5 129.5,-79.5 182.5,-79.5 182.5,-58.5 129.5,-58.5"/>
<text text-anchor="middle" x="156" y="-66.5" font-family="Helvetica,sans-Serif" font-size="10.00">debug.h</text>
</g>
<!-- Node2 -->
<g id="node3" class="node"><title>Node2</title>
<polygon fill="white" stroke="#bfbfbf" points="-0.5,-0.5 -0.5,-21.5 46.5,-21.5 46.5,-0.5 -0.5,-0.5"/>
<text text-anchor="middle" x="23" y="-8.5" font-family="Helvetica,sans-Serif" font-size="10.00">stdio.h</text>
</g>
<!-- Node1&#45;&gt;Node2 -->
<g id="edge2" class="edge"><title>Node1&#45;&gt;Node2</title>
<path fill="none" stroke="midnightblue" d="M131.915,-58.4966C110.729,-49.258 79.6876,-35.7209 56.1583,-25.46"/>
<polygon fill="midnightblue" stroke="midnightblue" points="57.4715,-22.2144 46.9061,-21.4252 54.6733,-28.6308 57.4715,-22.2144"/>
</g>
<!-- Node3 -->
<g id="node5" class="node"><title>Node3</title>
<polygon fill="white" stroke="#bfbfbf" points="64,-0.5 64,-21.5 118,-21.5 118,-0.5 64,-0.5"/>
<text text-anchor="middle" x="91" y="-8.5" font-family="Helvetica,sans-Serif" font-size="10.00">assert.h</text>
</g>
<!-- Node1&#45;&gt;Node3 -->
<g id="edge4" class="edge"><title>Node1&#45;&gt;Node3</title>
<path fill="none" stroke="midnightblue" d="M144.078,-58.3619C134.641,-49.9408 121.27,-38.0105 110.31,-28.2308"/>
<polygon fill="midnightblue" stroke="midnightblue" points="112.638,-25.6171 102.846,-21.5707 107.978,-30.8401 112.638,-25.6171"/>
</g>
<!-- Node4 -->
<g id="node7" class="node"><title>Node4</title>
<polygon fill="white" stroke="#bfbfbf" points="135.5,-0.5 135.5,-21.5 176.5,-21.5 176.5,-0.5 135.5,-0.5"/>
<text text-anchor="middle" x="156" y="-8.5" font-family="Helvetica,sans-Serif" font-size="10.00">glib.h</text>
</g>
<!-- Node1&#45;&gt;Node4 -->
<g id="edge6" class="edge"><title>Node1&#45;&gt;Node4</title>
<path fill="none" stroke="midnightblue" d="M156,-58.3619C156,-50.9219 156,-40.7427 156,-31.7276"/>
<polygon fill="midnightblue" stroke="midnightblue" points="159.5,-31.5706 156,-21.5707 152.5,-31.5707 159.5,-31.5706"/>
</g>
<!-- Node5 -->
<g id="node9" class="node"><title>Node5</title>
<polygon fill="white" stroke="#bfbfbf" points="193.5,-0.5 193.5,-21.5 244.5,-21.5 244.5,-0.5 193.5,-0.5"/>
<text text-anchor="middle" x="219" y="-8.5" font-family="Helvetica,sans-Serif" font-size="10.00">string.h</text>
</g>
<!-- Node1&#45;&gt;Node5 -->
<g id="edge8" class="edge"><title>Node1&#45;&gt;Node5</title>
<path fill="none" stroke="midnightblue" d="M167.555,-58.3619C176.613,-50.0226 189.41,-38.2418 199.974,-28.5162"/>
<polygon fill="midnightblue" stroke="midnightblue" points="202.532,-30.9187 207.518,-21.5707 197.79,-25.7688 202.532,-30.9187"/>
</g>
<!-- Node6 -->
<g id="node11" class="node"><title>Node6</title>
<polygon fill="white" stroke="#bfbfbf" points="261.5,-0.5 261.5,-21.5 320.5,-21.5 320.5,-0.5 261.5,-0.5"/>
<text text-anchor="middle" x="291" y="-8.5" font-family="Helvetica,sans-Serif" font-size="10.00">stdbool.h</text>
</g>
<!-- Node1&#45;&gt;Node6 -->
<g id="edge10" class="edge"><title>Node1&#45;&gt;Node6</title>
<path fill="none" stroke="midnightblue" d="M180.447,-58.4966C201.818,-49.3154 233.069,-35.8889 256.897,-25.6516"/>
<polygon fill="midnightblue" stroke="midnightblue" points="258.472,-28.7845 266.278,-21.6212 255.709,-22.3529 258.472,-28.7845"/>
</g>
</g>
</svg>
