<?xml version="1.0" encoding="UTF-8" standalone="no"?>
<!DOCTYPE svg PUBLIC "-//W3C//DTD SVG 1.1//EN"
 "http://www.w3.org/Graphics/SVG/1.1/DTD/svg11.dtd">
<!-- Generated by graphviz version 2.26.3 (20100126.1600)
 -->
<!-- Title: debug.h Pages: 1 -->
<svg width="446pt" height="88pt"
 viewBox="0.00 0.00 446.00 88.00" xmlns="http://www.w3.org/2000/svg" xmlns:xlink="http://www.w3.org/1999/xlink">
<g id="graph1" class="graph" transform="scale(1 1) rotate(0) translate(4 84)">
<title>debug.h</title>
<polygon fill="white" stroke="white" points="-4,5 -4,-84 443,-84 443,5 -4,5"/>
<!-- Node1 -->
<g id="node1" class="node"><title>Node1</title>
<polygon fill="#bfbfbf" stroke="black" points="202.5,-58.5 202.5,-79.5 255.5,-79.5 255.5,-58.5 202.5,-58.5"/>
<text text-anchor="middle" x="229" y="-66.5" font-family="Helvetica,sans-Serif" font-size="10.00">debug.h</text>
</g>
<!-- Node2 -->
<g id="node3" class="node"><title>Node2</title>
<a xlink:href="client_8c.htm" target="_top" xlink:title="This file contains functions to manage clients registered with sleepd to veto suspend requests...">
<polygon fill="white" stroke="black" points="-0.5,-0.5 -0.5,-21.5 48.5,-21.5 48.5,-0.5 -0.5,-0.5"/>
<text text-anchor="middle" x="24" y="-8.5" font-family="Helvetica,sans-Serif" font-size="10.00">client.c</text>
</a>
</g>
<!-- Node1&#45;&gt;Node2 -->
<g id="edge2" class="edge"><title>Node1&#45;&gt;Node2</title>
<path fill="none" stroke="midnightblue" d="M192.596,-59.6739C157.667,-50.5794 103.512,-36.0953 57,-22 54.3414,-21.1943 51.5728,-20.323 48.8195,-19.4357"/>
<polygon fill="midnightblue" stroke="midnightblue" points="191.793,-63.0814 202.351,-62.204 193.55,-56.3056 191.793,-63.0814"/>
</g>
<!-- Node3 -->
<g id="node5" class="node"><title>Node3</title>
<a xlink:href="shutdown_8c.htm" target="_top" xlink:title="Two&#45;tiered shutdown system sequence.">
<polygon fill="white" stroke="black" points="65.5,-0.5 65.5,-21.5 134.5,-21.5 134.5,-0.5 65.5,-0.5"/>
<text text-anchor="middle" x="100" y="-8.5" font-family="Helvetica,sans-Serif" font-size="10.00">shutdown.c</text>
</a>
</g>
<!-- Node1&#45;&gt;Node3 -->
<g id="edge4" class="edge"><title>Node1&#45;&gt;Node3</title>
<path fill="none" stroke="midnightblue" d="M196.401,-54.3431C173.731,-44.1502 144.033,-30.7977 123.623,-21.6212"/>
<polygon fill="midnightblue" stroke="midnightblue" points="195.083,-57.5881 205.639,-58.4966 197.954,-51.2037 195.083,-57.5881"/>
</g>
<!-- Node4 -->
<g id="node7" class="node"><title>Node4</title>
<a xlink:href="suspend_8c.htm" target="_top" xlink:title="Suspend/Resume logic to conserve battery when device is idle.">
<polygon fill="white" stroke="black" points="152,-0.5 152,-21.5 216,-21.5 216,-0.5 152,-0.5"/>
<text text-anchor="middle" x="184" y="-8.5" font-family="Helvetica,sans-Serif" font-size="10.00">suspend.c</text>
</a>
</g>
<!-- Node1&#45;&gt;Node4 -->
<g id="edge6" class="edge"><title>Node1&#45;&gt;Node4</title>
<path fill="none" stroke="midnightblue" d="M214.453,-50.2504C207.082,-40.75 198.404,-29.5651 192.201,-21.5707"/>
<polygon fill="midnightblue" stroke="midnightblue" points="211.851,-52.6065 220.746,-58.3619 217.382,-48.3155 211.851,-52.6065"/>
</g>
<!-- Node5 -->
<g id="node9" class="node"><title>Node5</title>
<a xlink:href="suspend__ipc_8c.htm" target="_top" xlink:title="Power Events Luna calls.">
<polygon fill="white" stroke="black" points="233.5,-0.5 233.5,-21.5 316.5,-21.5 316.5,-0.5 233.5,-0.5"/>
<text text-anchor="middle" x="275" y="-8.5" font-family="Helvetica,sans-Serif" font-size="10.00">suspend_ipc.c</text>
</a>
</g>
<!-- Node1&#45;&gt;Node5 -->
<g id="edge8" class="edge"><title>Node1&#45;&gt;Node5</title>
<path fill="none" stroke="midnightblue" d="M243.87,-50.2504C251.405,-40.75 260.276,-29.5651 266.616,-21.5707"/>
<polygon fill="midnightblue" stroke="midnightblue" points="240.909,-48.352 237.437,-58.3619 246.393,-52.7018 240.909,-48.352"/>
</g>
<!-- Node6 -->
<g id="node11" class="node"><title>Node6</title>
<a xlink:href="init_8c.htm" target="_top" xlink:title="init.c">
<polygon fill="white" stroke="black" points="334,-0.5 334,-21.5 372,-21.5 372,-0.5 334,-0.5"/>
<text text-anchor="middle" x="353" y="-8.5" font-family="Helvetica,sans-Serif" font-size="10.00">init.c</text>
</a>
</g>
<!-- Node1&#45;&gt;Node6 -->
<g id="edge10" class="edge"><title>Node1&#45;&gt;Node6</title>
<path fill="none" stroke="midnightblue" d="M260.553,-54.2414C283.72,-43.4049 314.433,-29.0393 333.961,-19.9052"/>
<polygon fill="midnightblue" stroke="midnightblue" points="259.031,-51.0894 251.455,-58.4966 261.996,-57.4301 259.031,-51.0894"/>
</g>
<!-- Node7 -->
<g id="node13" class="node"><title>Node7</title>
<a xlink:href="sysfs_8c.htm" target="_top" xlink:title="Get or set sysfs entries.">
<polygon fill="white" stroke="black" points="390,-0.5 390,-21.5 438,-21.5 438,-0.5 390,-0.5"/>
<text text-anchor="middle" x="414" y="-8.5" font-family="Helvetica,sans-Serif" font-size="10.00">sysfs.c</text>
</a>
</g>
<!-- Node1&#45;&gt;Node7 -->
<g id="edge12" class="edge"><title>Node1&#45;&gt;Node7</title>
<path fill="none" stroke="midnightblue" d="M265.563,-57.9394C296.396,-48.5535 341.661,-34.6369 381,-22 383.875,-21.0765 386.886,-20.0941 389.869,-19.1111"/>
<polygon fill="midnightblue" stroke="midnightblue" points="264.239,-54.6835 255.689,-60.9403 266.275,-61.381 264.239,-54.6835"/>
</g>
</g>
</svg>
