<?xml version="1.0" encoding="UTF-8" standalone="no"?>
<!DOCTYPE svg PUBLIC "-//W3C//DTD SVG 1.1//EN"
 "http://www.w3.org/Graphics/SVG/1.1/DTD/svg11.dtd">
<!-- Generated by graphviz version 2.26.3 (20100126.1600)
 -->
<!-- Title: src Pages: 1 -->
<svg width="336pt" height="161pt"
 viewBox="0.00 0.00 336.00 161.00" xmlns="http://www.w3.org/2000/svg" xmlns:xlink="http://www.w3.org/1999/xlink">
<g id="graph1" class="graph" transform="scale(1 1) rotate(0) translate(4 157)">
<title>src</title>
<polygon fill="white" stroke="white" points="-4,5 -4,-157 333,-157 333,5 -4,5"/>
<g id="graph2" class="cluster"><title>clusterdir_ed37362f1d01bfadde64bacbfe07e42c</title>
<a xlink:href="dir_ed37362f1d01bfadde64bacbfe07e42c.htm" target="_top" xlink:title="sleepd">
<polygon fill="#ddddee" stroke="black" points="8,-56 8,-145 320,-145 320,-56 8,-56"/>
<text text-anchor="middle" x="164" y="-132" font-family="Helvetica,sans-Serif" font-size="10.00">sleepd</text>
</a>
</g>
<g id="graph3" class="cluster"><title>clusterdir_8dc48b163ee9448c0e261998b9b304e0</title>
<a xlink:href="dir_8dc48b163ee9448c0e261998b9b304e0.htm" target="_top">
<polygon fill="#eeeeff" stroke="black" points="16,-64 16,-116 312,-116 312,-64 16,-64"/>
</a>
</g>
<!-- dir_8dc48b163ee9448c0e261998b9b304e0 -->
<g id="node3" class="node"><title>dir_8dc48b163ee9448c0e261998b9b304e0</title>
<text text-anchor="middle" x="277" y="-87.5" font-family="Helvetica,sans-Serif" font-size="10.00">src</text>
</g>
<!-- dir_f0b3eb456eb29dd91c445edfd5d655f3 -->
<g id="node4" class="node"><title>dir_f0b3eb456eb29dd91c445edfd5d655f3</title>
<a xlink:href="dir_f0b3eb456eb29dd91c445edfd5d655f3.htm" target="_top" xlink:title="alarms">
<polygon fill="white" stroke="black" points="232,-108 178,-108 178,-72 232,-72 232,-108"/>
<text text-anchor="middle" x="205" y="-87.5" font-family="Helvetica,sans-Serif" font-size="10.00">alarms</text>
</a>
</g>
<!-- dir_13c95d5e380c9973253fdbfe7e875280 -->
<g id="node7" class="node"><title>dir_13c95d5e380c9973253fdbfe7e875280</title>
<a xlink:href="dir_13c95d5e380c9973253fdbfe7e875280.htm" target="_top" xlink:title="include">
<polygon fill="white" stroke="red" points="155,-36 101,-36 101,-1.77636e-14 155,-3.55271e-15 155,-36"/>
<text text-anchor="middle" x="128" y="-15.5" font-family="Helvetica,sans-Serif" font-size="10.00">include</text>
</a>
</g>
<!-- dir_f0b3eb456eb29dd91c445edfd5d655f3&#45;&gt;dir_13c95d5e380c9973253fdbfe7e875280 -->
<g id="edge8" class="edge"><title>dir_f0b3eb456eb29dd91c445edfd5d655f3&#45;&gt;dir_13c95d5e380c9973253fdbfe7e875280</title>
<path fill="none" stroke="black" d="M185.975,-71.9684C180.505,-66.8013 174.524,-61.1686 169,-56 164.551,-51.8372 159.818,-47.4308 155.208,-43.1506"/>
<polygon fill="black" stroke="black" points="157.351,-40.3644 147.638,-36.1318 152.591,-45.4975 157.351,-40.3644"/>
<a xlink:href="dir_000005_000003.htm" target="_top" xlink:title="14">
<text text-anchor="middle" x="161.917" y="-38.2264" font-family="Helvetica,sans-Serif" font-size="10.00">14</text>
</a>
</g>
<!-- dir_fbd1d54e89bb272e41c8fbac1dfde28e -->
<g id="node5" class="node"><title>dir_fbd1d54e89bb272e41c8fbac1dfde28e</title>
<a xlink:href="dir_fbd1d54e89bb272e41c8fbac1dfde28e.htm" target="_top" xlink:title="pwrevents">
<polygon fill="white" stroke="black" points="160,-108 96,-108 96,-72 160,-72 160,-108"/>
<text text-anchor="middle" x="128" y="-87.5" font-family="Helvetica,sans-Serif" font-size="10.00">pwrevents</text>
</a>
</g>
<!-- dir_fbd1d54e89bb272e41c8fbac1dfde28e&#45;&gt;dir_13c95d5e380c9973253fdbfe7e875280 -->
<g id="edge6" class="edge"><title>dir_fbd1d54e89bb272e41c8fbac1dfde28e&#45;&gt;dir_13c95d5e380c9973253fdbfe7e875280</title>
<path fill="none" stroke="black" d="M128,-71.8314C128,-64.131 128,-54.9743 128,-46.4166"/>
<polygon fill="black" stroke="black" points="131.5,-46.4132 128,-36.4133 124.5,-46.4133 131.5,-46.4132"/>
<a xlink:href="dir_000002_000003.htm" target="_top" xlink:title="44">
<text text-anchor="middle" x="134.339" y="-47.5079" font-family="Helvetica,sans-Serif" font-size="10.00">44</text>
</a>
</g>
<!-- dir_45dcabae751a06d4e2e405c850af1692 -->
<g id="node6" class="node"><title>dir_45dcabae751a06d4e2e405c850af1692</title>
<a xlink:href="dir_45dcabae751a06d4e2e405c850af1692.htm" target="_top" xlink:title="utils">
<polygon fill="white" stroke="black" points="78,-108 24,-108 24,-72 78,-72 78,-108"/>
<text text-anchor="middle" x="51" y="-87.5" font-family="Helvetica,sans-Serif" font-size="10.00">utils</text>
</a>
</g>
<!-- dir_45dcabae751a06d4e2e405c850af1692&#45;&gt;dir_13c95d5e380c9973253fdbfe7e875280 -->
<g id="edge4" class="edge"><title>dir_45dcabae751a06d4e2e405c850af1692&#45;&gt;dir_13c95d5e380c9973253fdbfe7e875280</title>
<path fill="none" stroke="black" d="M70.0254,-71.9684C75.4954,-66.8013 81.4757,-61.1686 87,-56 91.4493,-51.8372 96.1822,-47.4308 100.792,-43.1506"/>
<polygon fill="black" stroke="black" points="103.409,-45.4975 108.362,-36.1318 98.6491,-40.3644 103.409,-45.4975"/>
<a xlink:href="dir_000006_000003.htm" target="_top" xlink:title="13">
<text text-anchor="middle" x="102.703" y="-47.5235" font-family="Helvetica,sans-Serif" font-size="10.00">13</text>
</a>
</g>
</g>
</svg>
