<?xml version="1.0" encoding="UTF-8" standalone="no"?>
<!DOCTYPE svg PUBLIC "-//W3C//DTD SVG 1.1//EN"
 "http://www.w3.org/Graphics/SVG/1.1/DTD/svg11.dtd">
<!-- Generated by graphviz version 2.26.3 (20100126.1600)
 -->
<!-- Title: sleepd Pages: 1 -->
<svg width="166pt" height="148pt"
 viewBox="0.00 0.00 166.00 148.00" xmlns="http://www.w3.org/2000/svg" xmlns:xlink="http://www.w3.org/1999/xlink">
<g id="graph1" class="graph" transform="scale(1 1) rotate(0) translate(4 144)">
<title>sleepd</title>
<polygon fill="white" stroke="white" points="-4,5 -4,-144 163,-144 163,5 -4,5"/>
<g id="graph2" class="cluster"><title>clusterdir_ed37362f1d01bfadde64bacbfe07e42c</title>
<a xlink:href="dir_ed37362f1d01bfadde64bacbfe07e42c.htm" target="_top">
<polygon fill="#eeeeff" stroke="black" points="8,-8 8,-132 150,-132 150,-8 8,-8"/>
</a>
</g>
<!-- dir_ed37362f1d01bfadde64bacbfe07e42c -->
<g id="node2" class="node"><title>dir_ed37362f1d01bfadde64bacbfe07e42c</title>
<text text-anchor="middle" x="115" y="-103.5" font-family="Helvetica,sans-Serif" font-size="10.00">sleepd</text>
</g>
<!-- dir_13c95d5e380c9973253fdbfe7e875280 -->
<g id="node3" class="node"><title>dir_13c95d5e380c9973253fdbfe7e875280</title>
<a xlink:href="dir_13c95d5e380c9973253fdbfe7e875280.htm" target="_top" xlink:title="include">
<polygon fill="white" stroke="red" points="70,-52 16,-52 16,-16 70,-16 70,-52"/>
<text text-anchor="middle" x="43" y="-31.5" font-family="Helvetica,sans-Serif" font-size="10.00">include</text>
</a>
</g>
<!-- dir_8dc48b163ee9448c0e261998b9b304e0 -->
<g id="node4" class="node"><title>dir_8dc48b163ee9448c0e261998b9b304e0</title>
<a xlink:href="dir_8dc48b163ee9448c0e261998b9b304e0.htm" target="_top" xlink:title="src">
<polygon fill="white" stroke="red" points="70,-124 16,-124 16,-88 70,-88 70,-124"/>
<text text-anchor="middle" x="43" y="-103.5" font-family="Helvetica,sans-Serif" font-size="10.00">src</text>
</a>
</g>
<!-- dir_8dc48b163ee9448c0e261998b9b304e0&#45;&gt;dir_13c95d5e380c9973253fdbfe7e875280 -->
<g id="edge3" class="edge"><title>dir_8dc48b163ee9448c0e261998b9b304e0&#45;&gt;dir_13c95d5e380c9973253fdbfe7e875280</title>
<path fill="none" stroke="black" d="M43,-87.8314C43,-80.131 43,-70.9743 43,-62.4166"/>
<polygon fill="black" stroke="black" points="46.5001,-62.4132 43,-52.4133 39.5001,-62.4133 46.5001,-62.4132"/>
<a xlink:href="dir_000001_000003.htm" target="_top" xlink:title="74">
<text text-anchor="middle" x="49.3393" y="-63.5079" font-family="Helvetica,sans-Serif" font-size="10.00">74</text>
</a>
</g>
</g>
</svg>
