<?xml version="1.0" encoding="UTF-8" standalone="no"?>
<!DOCTYPE svg PUBLIC "-//W3C//DTD SVG 1.1//EN"
 "http://www.w3.org/Graphics/SVG/1.1/DTD/svg11.dtd">
<!-- Generated by graphviz version 2.26.3 (20100126.1600)
 -->
<!-- Title: RTC alarms Pages: 1 -->
<svg width="200pt" height="70pt"
 viewBox="0.00 0.00 200.00 70.00" xmlns="http://www.w3.org/2000/svg" xmlns:xlink="http://www.w3.org/1999/xlink">
<g id="graph1" class="graph" transform="scale(1 1) rotate(0) translate(4 66)">
<title>RTC alarms</title>
<polygon fill="white" stroke="white" points="-4,5 -4,-66 197,-66 197,5 -4,5"/>
<!-- Node2 -->
<g id="node1" class="node"><title>Node2</title>
<a xlink:href="group__NewInterface.htm" target="_top" xlink:title="New interface for RTC alarms using SQLite.">
<polygon fill="white" stroke="black" points="110,-40.5 110,-61.5 192,-61.5 192,-40.5 110,-40.5"/>
<text text-anchor="middle" x="151" y="-48.5" font-family="Helvetica,sans-Serif" font-size="10.00">New interface</text>
</a>
</g>
<!-- Node1 -->
<g id="node2" class="node"><title>Node1</title>
<a xlink:href="group__OldInterface.htm" target="_top" xlink:title="Old (deprecated) interface to add/clear RTC alarms.">
<polygon fill="white" stroke="black" points="112,-0.5 112,-21.5 190,-21.5 190,-0.5 112,-0.5"/>
<text text-anchor="middle" x="151" y="-8.5" font-family="Helvetica,sans-Serif" font-size="10.00">Old Interface</text>
</a>
</g>
<!-- Node0 -->
<g id="node3" class="node"><title>Node0</title>
<polygon fill="#bfbfbf" stroke="black" points="0.5,-20.5 0.5,-41.5 73.5,-41.5 73.5,-20.5 0.5,-20.5"/>
<text text-anchor="middle" x="37" y="-28.5" font-family="Helvetica,sans-Serif" font-size="10.00">RTC alarms</text>
</g>
<!-- Node0&#45;&gt;Node2 -->
<g id="edge4" class="edge"><title>Node0&#45;&gt;Node2</title>
<path fill="none" stroke="midnightblue" d="M83.6129,-39.1777C92.2294,-40.6894 101.174,-42.2585 109.622,-43.7407"/>
<polygon fill="midnightblue" stroke="midnightblue" points="84.1522,-35.7189 73.6978,-37.4382 82.9426,-42.6136 84.1522,-35.7189"/>
</g>
<!-- Node0&#45;&gt;Node1 -->
<g id="edge2" class="edge"><title>Node0&#45;&gt;Node1</title>
<path fill="none" stroke="midnightblue" d="M83.5937,-22.8257C92.8972,-21.1935 102.584,-19.4941 111.616,-17.9096"/>
<polygon fill="midnightblue" stroke="midnightblue" points="82.9426,-19.3864 73.6978,-24.5618 84.1522,-26.2811 82.9426,-19.3864"/>
</g>
</g>
</svg>
