<?xml version="1.0" encoding="UTF-8" standalone="no"?>
<!DOCTYPE svg PUBLIC "-//W3C//DTD SVG 1.1//EN"
 "http://www.w3.org/Graphics/SVG/1.1/DTD/svg11.dtd">
<!-- Generated by graphviz version 2.26.3 (20100126.1600)
 -->
<!-- Title: Suspend/Resume State Machine Pages: 1 -->
<svg width="420pt" height="42pt"
 viewBox="0.00 0.00 420.00 42.00" xmlns="http://www.w3.org/2000/svg" xmlns:xlink="http://www.w3.org/1999/xlink">
<g id="graph1" class="graph" transform="scale(1 1) rotate(0) translate(4 38)">
<title>Suspend/Resume State Machine</title>
<polygon fill="white" stroke="white" points="-4,5 -4,-38 417,-38 417,5 -4,5"/>
<!-- Node0 -->
<g id="node1" class="node"><title>Node0</title>
<polygon fill="#bfbfbf" stroke="black" points="118.5,-0 118.5,-34 245.5,-34 245.5,-0 118.5,-0"/>
<text text-anchor="start" x="126.5" y="-21" font-family="Helvetica,sans-Serif" font-size="10.00">Suspend/Resume State</text>
<text text-anchor="middle" x="182" y="-8" font-family="Helvetica,sans-Serif" font-size="10.00"> Machine</text>
</g>
<!-- Node2 -->
<g id="node3" class="node"><title>Node2</title>
<a xlink:href="group__SuspendIPC.htm" target="_top" xlink:title="Various luna methods &amp; signals to support suspend/resume logic in sleepd, like registering clients fo...">
<polygon fill="white" stroke="black" points="282,-6.5 282,-27.5 412,-27.5 412,-6.5 282,-6.5"/>
<text text-anchor="middle" x="347" y="-14.5" font-family="Helvetica,sans-Serif" font-size="10.00">Luna methods &amp; signals</text>
</a>
</g>
<!-- Node0&#45;&gt;Node2 -->
<g id="edge4" class="edge"><title>Node0&#45;&gt;Node2</title>
<path fill="none" stroke="midnightblue" d="M255.845,-17C264.477,-17 273.237,-17 281.741,-17"/>
<polygon fill="midnightblue" stroke="midnightblue" points="255.793,-13.5001 245.793,-17 255.793,-20.5001 255.793,-13.5001"/>
</g>
<!-- Node1 -->
<g id="node2" class="node"><title>Node1</title>
<a xlink:href="group__PowerEvents.htm" target="_top" xlink:title="Power events are all the events that affect system power.">
<polygon fill="white" stroke="black" points="0,-6.5 0,-27.5 82,-27.5 82,-6.5 0,-6.5"/>
<text text-anchor="middle" x="41" y="-14.5" font-family="Helvetica,sans-Serif" font-size="10.00">Power Events</text>
</a>
</g>
<!-- Node1&#45;&gt;Node0 -->
<g id="edge2" class="edge"><title>Node1&#45;&gt;Node0</title>
<path fill="none" stroke="midnightblue" d="M92.3048,-17C100.815,-17 109.728,-17 118.496,-17"/>
<polygon fill="midnightblue" stroke="midnightblue" points="92.1621,-13.5001 82.1621,-17 92.162,-20.5001 92.1621,-13.5001"/>
</g>
</g>
</svg>
