<?xml version="1.0" encoding="UTF-8" standalone="no"?>
<!DOCTYPE svg PUBLIC "-//W3C//DTD SVG 1.1//EN"
 "http://www.w3.org/Graphics/SVG/1.1/DTD/svg11.dtd">
<!-- Generated by graphviz version 2.26.3 (20100126.1600)
 -->
<!-- Title: Power Events Pages: 1 -->
<svg width="254pt" height="162pt"
 viewBox="0.00 0.00 254.00 162.00" xmlns="http://www.w3.org/2000/svg" xmlns:xlink="http://www.w3.org/1999/xlink">
<g id="graph1" class="graph" transform="scale(1 1) rotate(0) translate(4 158)">
<title>Power Events</title>
<polygon fill="white" stroke="white" points="-4,5 -4,-158 251,-158 251,5 -4,5"/>
<!-- Node3 -->
<g id="node1" class="node"><title>Node3</title>
<a xlink:href="group__ShutdownProcess.htm" target="_top" xlink:title="The Shutdown Process:">
<polygon fill="white" stroke="black" points="130,-132.5 130,-153.5 234,-153.5 234,-132.5 130,-132.5"/>
<text text-anchor="middle" x="182" y="-140.5" font-family="Helvetica,sans-Serif" font-size="10.00">Shutdown Process</text>
</a>
</g>
<!-- Node4 -->
<g id="node2" class="node"><title>Node4</title>
<a xlink:href="group__SuspendLogic.htm" target="_top" xlink:title="Suspend/Resume state machine:">
<polygon fill="white" stroke="black" points="118.5,-80 118.5,-114 245.5,-114 245.5,-80 118.5,-80"/>
<text text-anchor="start" x="126.5" y="-101" font-family="Helvetica,sans-Serif" font-size="10.00">Suspend/Resume State</text>
<text text-anchor="middle" x="182" y="-88" font-family="Helvetica,sans-Serif" font-size="10.00"> Machine</text>
</a>
</g>
<!-- Node1 -->
<g id="node3" class="node"><title>Node1</title>
<a xlink:href="group__PowerActivities.htm" target="_top" xlink:title="Duration of time to prevent the system from sleeping.">
<polygon fill="white" stroke="black" points="136.5,-40.5 136.5,-61.5 227.5,-61.5 227.5,-40.5 136.5,-40.5"/>
<text text-anchor="middle" x="182" y="-48.5" font-family="Helvetica,sans-Serif" font-size="10.00">Power Activities</text>
</a>
</g>
<!-- Node2 -->
<g id="node4" class="node"><title>Node2</title>
<a xlink:href="group__SuspendClient.htm" target="_top" xlink:title="Clients registering for device suspend polling.">
<polygon fill="white" stroke="black" points="135.5,-0.5 135.5,-21.5 228.5,-21.5 228.5,-0.5 135.5,-0.5"/>
<text text-anchor="middle" x="182" y="-8.5" font-family="Helvetica,sans-Serif" font-size="10.00">Suspend Clients</text>
</a>
</g>
<!-- Node0 -->
<g id="node5" class="node"><title>Node0</title>
<polygon fill="#bfbfbf" stroke="black" points="0,-63.5 0,-84.5 82,-84.5 82,-63.5 0,-63.5"/>
<text text-anchor="middle" x="41" y="-71.5" font-family="Helvetica,sans-Serif" font-size="10.00">Power Events</text>
</g>
<!-- Node0&#45;&gt;Node3 -->
<g id="edge6" class="edge"><title>Node0&#45;&gt;Node3</title>
<path fill="none" stroke="midnightblue" d="M63.6225,-90.6485C78.5016,-101.02 98.7205,-114.046 118,-123 125.707,-126.58 134.223,-129.744 142.46,-132.439"/>
<polygon fill="midnightblue" stroke="midnightblue" points="65.2829,-87.5347 55.1043,-84.5943 61.2276,-93.2404 65.2829,-87.5347"/>
</g>
<!-- Node0&#45;&gt;Node4 -->
<g id="edge8" class="edge"><title>Node0&#45;&gt;Node4</title>
<path fill="none" stroke="midnightblue" d="M92.3048,-82.3689C100.815,-83.757 109.728,-85.211 118.496,-86.6412"/>
<polygon fill="midnightblue" stroke="midnightblue" points="92.5951,-78.87 82.1621,-80.7144 91.4681,-85.7787 92.5951,-78.87"/>
</g>
<!-- Node0&#45;&gt;Node1 -->
<g id="edge2" class="edge"><title>Node0&#45;&gt;Node1</title>
<path fill="none" stroke="midnightblue" d="M92.3449,-65.6246C106.657,-63.2899 122.109,-60.7694 136.087,-58.4893"/>
<polygon fill="midnightblue" stroke="midnightblue" points="91.4681,-62.2213 82.1621,-67.2856 92.5951,-69.13 91.4681,-62.2213"/>
</g>
<!-- Node0&#45;&gt;Node2 -->
<g id="edge4" class="edge"><title>Node0&#45;&gt;Node2</title>
<path fill="none" stroke="midnightblue" d="M66.5768,-57.96C81.2481,-49.2115 100.231,-38.6407 118,-31 126.128,-27.5052 135.07,-24.3227 143.627,-21.5751"/>
<polygon fill="midnightblue" stroke="midnightblue" points="64.349,-55.2178 57.6143,-63.3967 67.9795,-61.2027 64.349,-55.2178"/>
</g>
</g>
</svg>
