<?xml version="1.0" encoding="UTF-8" standalone="no"?>
<!DOCTYPE svg PUBLIC "-//W3C//DTD SVG 1.1//EN"
 "http://www.w3.org/Graphics/SVG/1.1/DTD/svg11.dtd">
<!-- Generated by graphviz version 2.26.3 (20100126.1600)
 -->
<!-- Title: init.h Pages: 1 -->
<svg width="672pt" height="88pt"
 viewBox="0.00 0.00 672.00 88.00" xmlns="http://www.w3.org/2000/svg" xmlns:xlink="http://www.w3.org/1999/xlink">
<g id="graph1" class="graph" transform="scale(1 1) rotate(0) translate(4 84)">
<title>init.h</title>
<polygon fill="white" stroke="white" points="-4,5 -4,-84 669,-84 669,5 -4,5"/>
<!-- Node1 -->
<g id="node1" class="node"><title>Node1</title>
<polygon fill="#bfbfbf" stroke="black" points="323,-58.5 323,-79.5 361,-79.5 361,-58.5 323,-58.5"/>
<text text-anchor="middle" x="342" y="-66.5" font-family="Helvetica,sans-Serif" font-size="10.00">init.h</text>
</g>
<!-- Node2 -->
<g id="node3" class="node"><title>Node2</title>
<a xlink:href="timeout__alarm_8c.htm" target="_top" xlink:title="New interface add/clear alarms using RTC.">
<polygon fill="white" stroke="black" points="0,-0.5 0,-21.5 90,-21.5 90,-0.5 0,-0.5"/>
<text text-anchor="middle" x="45" y="-8.5" font-family="Helvetica,sans-Serif" font-size="10.00">timeout_alarm.c</text>
</a>
</g>
<!-- Node1&#45;&gt;Node2 -->
<g id="edge2" class="edge"><title>Node1&#45;&gt;Node2</title>
<path fill="none" stroke="midnightblue" d="M312.687,-63.4275C267.003,-54.7208 176.062,-37.3009 99,-22 96.0909,-21.4224 93.0944,-20.8233 90.0745,-20.2166"/>
<polygon fill="midnightblue" stroke="midnightblue" points="312.293,-66.9153 322.772,-65.3479 313.603,-60.0389 312.293,-66.9153"/>
</g>
<!-- Node3 -->
<g id="node5" class="node"><title>Node3</title>
<a xlink:href="main_8c.htm" target="_top" xlink:title="main.c">
<polygon fill="white" stroke="black" points="107.5,-0.5 107.5,-21.5 154.5,-21.5 154.5,-0.5 107.5,-0.5"/>
<text text-anchor="middle" x="131" y="-8.5" font-family="Helvetica,sans-Serif" font-size="10.00">main.c</text>
</a>
</g>
<!-- Node1&#45;&gt;Node3 -->
<g id="edge4" class="edge"><title>Node1&#45;&gt;Node3</title>
<path fill="none" stroke="midnightblue" d="M312.62,-61.997C277.003,-53.344 215.254,-37.8174 163,-22 160.301,-21.183 157.489,-20.2857 154.702,-19.3669"/>
<polygon fill="midnightblue" stroke="midnightblue" points="312.253,-65.509 322.795,-64.4545 313.897,-58.7046 312.253,-65.509"/>
</g>
<!-- Node4 -->
<g id="node7" class="node"><title>Node4</title>
<a xlink:href="activity_8c.htm" target="_top" xlink:title="This file contains functions to manage activities, which are entities that can be registered with sle...">
<polygon fill="white" stroke="black" points="172,-0.5 172,-21.5 228,-21.5 228,-0.5 172,-0.5"/>
<text text-anchor="middle" x="200" y="-8.5" font-family="Helvetica,sans-Serif" font-size="10.00">activity.c</text>
</a>
</g>
<!-- Node1&#45;&gt;Node4 -->
<g id="edge6" class="edge"><title>Node1&#45;&gt;Node4</title>
<path fill="none" stroke="midnightblue" d="M313.316,-57.2839C287.698,-46.8205 250.51,-31.6308 225.809,-21.5417"/>
<polygon fill="midnightblue" stroke="midnightblue" points="312.268,-60.6367 322.849,-61.1779 314.915,-54.1564 312.268,-60.6367"/>
</g>
<!-- Node5 -->
<g id="node9" class="node"><title>Node5</title>
<a xlink:href="sawmill__logger_8c.htm" target="_top" xlink:title="This module&#39;s purpose is to log periodic statistics to /var/log/messages for processing by sawmill...">
<polygon fill="white" stroke="black" points="246,-0.5 246,-21.5 340,-21.5 340,-0.5 246,-0.5"/>
<text text-anchor="middle" x="293" y="-8.5" font-family="Helvetica,sans-Serif" font-size="10.00">sawmill_logger.c</text>
</a>
</g>
<!-- Node1&#45;&gt;Node5 -->
<g id="edge8" class="edge"><title>Node1&#45;&gt;Node5</title>
<path fill="none" stroke="midnightblue" d="M326.405,-50.5407C318.327,-40.9786 308.753,-29.6467 301.93,-21.5707"/>
<polygon fill="midnightblue" stroke="midnightblue" points="323.885,-52.9818 333.013,-58.3619 329.233,-48.4643 323.885,-52.9818"/>
</g>
<!-- Node6 -->
<g id="node11" class="node"><title>Node6</title>
<a xlink:href="shutdown_8c.htm" target="_top" xlink:title="Two&#45;tiered shutdown system sequence.">
<polygon fill="white" stroke="black" points="357.5,-0.5 357.5,-21.5 426.5,-21.5 426.5,-0.5 357.5,-0.5"/>
<text text-anchor="middle" x="392" y="-8.5" font-family="Helvetica,sans-Serif" font-size="10.00">shutdown.c</text>
</a>
</g>
<!-- Node1&#45;&gt;Node6 -->
<g id="edge10" class="edge"><title>Node1&#45;&gt;Node6</title>
<path fill="none" stroke="midnightblue" d="M357.913,-50.5407C366.156,-40.9786 375.925,-29.6467 382.887,-21.5707"/>
<polygon fill="midnightblue" stroke="midnightblue" points="355.049,-48.5025 351.171,-58.3619 360.351,-53.0731 355.049,-48.5025"/>
</g>
<!-- Node7 -->
<g id="node13" class="node"><title>Node7</title>
<a xlink:href="suspend_8c.htm" target="_top" xlink:title="Suspend/Resume logic to conserve battery when device is idle.">
<polygon fill="white" stroke="black" points="444,-0.5 444,-21.5 508,-21.5 508,-0.5 444,-0.5"/>
<text text-anchor="middle" x="476" y="-8.5" font-family="Helvetica,sans-Serif" font-size="10.00">suspend.c</text>
</a>
</g>
<!-- Node1&#45;&gt;Node7 -->
<g id="edge12" class="edge"><title>Node1&#45;&gt;Node7</title>
<path fill="none" stroke="midnightblue" d="M370.501,-56.6636C394.517,-46.2686 428.522,-31.55 451.374,-21.6592"/>
<polygon fill="midnightblue" stroke="midnightblue" points="368.986,-53.5057 361.199,-60.69 371.766,-59.9298 368.986,-53.5057"/>
</g>
<!-- Node8 -->
<g id="node15" class="node"><title>Node8</title>
<a xlink:href="suspend__ipc_8c.htm" target="_top" xlink:title="Power Events Luna calls.">
<polygon fill="white" stroke="black" points="525.5,-0.5 525.5,-21.5 608.5,-21.5 608.5,-0.5 525.5,-0.5"/>
<text text-anchor="middle" x="567" y="-8.5" font-family="Helvetica,sans-Serif" font-size="10.00">suspend_ipc.c</text>
</a>
</g>
<!-- Node1&#45;&gt;Node8 -->
<g id="edge14" class="edge"><title>Node1&#45;&gt;Node8</title>
<path fill="none" stroke="midnightblue" d="M370.96,-61.5346C410.384,-51.372 481.159,-33.1279 526.018,-21.5643"/>
<polygon fill="midnightblue" stroke="midnightblue" points="369.993,-58.1695 361.183,-64.055 371.741,-64.9479 369.993,-58.1695"/>
</g>
<!-- Node9 -->
<g id="node17" class="node"><title>Node9</title>
<a xlink:href="init_8c.htm" target="_top" xlink:title="init.c">
<polygon fill="white" stroke="black" points="626,-0.5 626,-21.5 664,-21.5 664,-0.5 626,-0.5"/>
<text text-anchor="middle" x="645" y="-8.5" font-family="Helvetica,sans-Serif" font-size="10.00">init.c</text>
</a>
</g>
<!-- Node1&#45;&gt;Node9 -->
<g id="edge16" class="edge"><title>Node1&#45;&gt;Node9</title>
<path fill="none" stroke="midnightblue" d="M371.557,-65.963C422.405,-60.294 529.413,-46.4107 617,-22 619.918,-21.1867 622.951,-20.1774 625.897,-19.1025"/>
<polygon fill="midnightblue" stroke="midnightblue" points="370.864,-62.5177 361.301,-67.0791 371.621,-69.4766 370.864,-62.5177"/>
</g>
</g>
</svg>
