<?xml version="1.0" encoding="UTF-8" standalone="no"?>
<!DOCTYPE svg PUBLIC "-//W3C//DTD SVG 1.1//EN"
 "http://www.w3.org/Graphics/SVG/1.1/DTD/svg11.dtd">
<!-- Generated by graphviz version 2.26.3 (20100126.1600)
 -->
<!-- Title: init.c Pages: 1 -->
<svg width="447pt" height="146pt"
 viewBox="0.00 0.00 447.00 146.00" xmlns="http://www.w3.org/2000/svg" xmlns:xlink="http://www.w3.org/1999/xlink">
<g id="graph1" class="graph" transform="scale(1 1) rotate(0) translate(4 142)">
<title>init.c</title>
<polygon fill="white" stroke="white" points="-4,5 -4,-142 444,-142 444,5 -4,5"/>
<!-- Node1 -->
<g id="node1" class="node"><title>Node1</title>
<polygon fill="#bfbfbf" stroke="black" points="196,-116.5 196,-137.5 234,-137.5 234,-116.5 196,-116.5"/>
<text text-anchor="middle" x="215" y="-124.5" font-family="Helvetica,sans-Serif" font-size="10.00">init.c</text>
</g>
<!-- Node2 -->
<g id="node3" class="node"><title>Node2</title>
<polygon fill="white" stroke="#bfbfbf" points="-0.5,-0.5 -0.5,-21.5 40.5,-21.5 40.5,-0.5 -0.5,-0.5"/>
<text text-anchor="middle" x="20" y="-8.5" font-family="Helvetica,sans-Serif" font-size="10.00">glib.h</text>
</g>
<!-- Node1&#45;&gt;Node2 -->
<g id="edge2" class="edge"><title>Node1&#45;&gt;Node2</title>
<path fill="none" stroke="midnightblue" d="M195.994,-122.855C169.878,-116.554 122.14,-102.823 87,-80 66.0466,-66.3914 46.6977,-45.1179 34.2363,-29.7891"/>
<polygon fill="midnightblue" stroke="midnightblue" points="36.6784,-27.234 27.735,-21.5536 31.184,-31.5713 36.6784,-27.234"/>
</g>
<!-- Node3 -->
<g id="node5" class="node"><title>Node3</title>
<polygon fill="white" stroke="#bfbfbf" points="334.5,-58.5 334.5,-79.5 383.5,-79.5 383.5,-58.5 334.5,-58.5"/>
<text text-anchor="middle" x="359" y="-66.5" font-family="Helvetica,sans-Serif" font-size="10.00">stdlib.h</text>
</g>
<!-- Node1&#45;&gt;Node3 -->
<g id="edge4" class="edge"><title>Node1&#45;&gt;Node3</title>
<path fill="none" stroke="midnightblue" d="M234.122,-119.298C257.254,-109.981 296.614,-94.1278 324.969,-82.7071"/>
<polygon fill="midnightblue" stroke="midnightblue" points="326.526,-85.8529 334.495,-78.8702 323.911,-79.3598 326.526,-85.8529"/>
</g>
<!-- Node4 -->
<g id="node7" class="node"><title>Node4</title>
<polygon fill="white" stroke="#bfbfbf" points="57.5,-0.5 57.5,-21.5 108.5,-21.5 108.5,-0.5 57.5,-0.5"/>
<text text-anchor="middle" x="83" y="-8.5" font-family="Helvetica,sans-Serif" font-size="10.00">string.h</text>
</g>
<!-- Node1&#45;&gt;Node4 -->
<g id="edge6" class="edge"><title>Node1&#45;&gt;Node4</title>
<path fill="none" stroke="midnightblue" d="M195.628,-123.953C170.885,-119.051 128.36,-107.065 104,-80 92.1179,-66.7986 86.956,-47.0433 84.715,-32.0497"/>
<polygon fill="midnightblue" stroke="midnightblue" points="88.1429,-31.2267 83.5078,-21.6995 81.19,-32.0377 88.1429,-31.2267"/>
</g>
<!-- Node5 -->
<g id="node9" class="node"><title>Node5</title>
<a xlink:href="init_8h.htm" target="_top" xlink:title="init.h">
<polygon fill="white" stroke="black" points="401,-58.5 401,-79.5 439,-79.5 439,-58.5 401,-58.5"/>
<text text-anchor="middle" x="420" y="-66.5" font-family="Helvetica,sans-Serif" font-size="10.00">init.h</text>
</a>
</g>
<!-- Node1&#45;&gt;Node5 -->
<g id="edge8" class="edge"><title>Node1&#45;&gt;Node5</title>
<path fill="none" stroke="midnightblue" d="M234.07,-122.696C265.141,-115.524 328.74,-100.177 391.218,-80.0109"/>
<polygon fill="midnightblue" stroke="midnightblue" points="392.41,-83.3035 400.826,-76.8677 390.233,-76.6504 392.41,-83.3035"/>
</g>
<!-- Node6 -->
<g id="node11" class="node"><title>Node6</title>
<a xlink:href="config_8h.htm" target="_top" xlink:title="config.h">
<polygon fill="white" stroke="black" points="264.5,-58.5 264.5,-79.5 317.5,-79.5 317.5,-58.5 264.5,-58.5"/>
<text text-anchor="middle" x="291" y="-66.5" font-family="Helvetica,sans-Serif" font-size="10.00">config.h</text>
</a>
</g>
<!-- Node1&#45;&gt;Node6 -->
<g id="edge10" class="edge"><title>Node1&#45;&gt;Node6</title>
<path fill="none" stroke="midnightblue" d="M228.94,-116.362C240.188,-107.777 256.216,-95.5459 269.165,-85.6636"/>
<polygon fill="midnightblue" stroke="midnightblue" points="271.323,-88.4198 277.149,-79.5707 267.076,-82.8551 271.323,-88.4198"/>
</g>
<!-- Node8 -->
<g id="node15" class="node"><title>Node8</title>
<a xlink:href="machine_8h.htm" target="_top" xlink:title="machine.h">
<polygon fill="white" stroke="black" points="182.5,-58.5 182.5,-79.5 247.5,-79.5 247.5,-58.5 182.5,-58.5"/>
<text text-anchor="middle" x="215" y="-66.5" font-family="Helvetica,sans-Serif" font-size="10.00">machine.h</text>
</a>
</g>
<!-- Node1&#45;&gt;Node8 -->
<g id="edge14" class="edge"><title>Node1&#45;&gt;Node8</title>
<path fill="none" stroke="midnightblue" d="M215,-116.362C215,-108.922 215,-98.7427 215,-89.7276"/>
<polygon fill="midnightblue" stroke="midnightblue" points="218.5,-89.5706 215,-79.5707 211.5,-89.5707 218.5,-89.5706"/>
</g>
<!-- Node9 -->
<g id="node18" class="node"><title>Node9</title>
<a xlink:href="debug_8h.htm" target="_top" xlink:title="debug.h">
<polygon fill="white" stroke="black" points="112.5,-58.5 112.5,-79.5 165.5,-79.5 165.5,-58.5 112.5,-58.5"/>
<text text-anchor="middle" x="139" y="-66.5" font-family="Helvetica,sans-Serif" font-size="10.00">debug.h</text>
</a>
</g>
<!-- Node1&#45;&gt;Node9 -->
<g id="edge18" class="edge"><title>Node1&#45;&gt;Node9</title>
<path fill="none" stroke="midnightblue" d="M201.06,-116.362C189.812,-107.777 173.784,-95.5459 160.835,-85.6636"/>
<polygon fill="midnightblue" stroke="midnightblue" points="162.924,-82.8551 152.851,-79.5707 158.677,-88.4198 162.924,-82.8551"/>
</g>
<!-- Node7 -->
<g id="node13" class="node"><title>Node7</title>
<polygon fill="white" stroke="#bfbfbf" points="261.5,-0.5 261.5,-21.5 320.5,-21.5 320.5,-0.5 261.5,-0.5"/>
<text text-anchor="middle" x="291" y="-8.5" font-family="Helvetica,sans-Serif" font-size="10.00">stdbool.h</text>
</g>
<!-- Node6&#45;&gt;Node7 -->
<g id="edge12" class="edge"><title>Node6&#45;&gt;Node7</title>
<path fill="none" stroke="midnightblue" d="M291,-58.3619C291,-50.9219 291,-40.7427 291,-31.7276"/>
<polygon fill="midnightblue" stroke="midnightblue" points="294.5,-31.5706 291,-21.5707 287.5,-31.5707 294.5,-31.5706"/>
</g>
<!-- Node8&#45;&gt;Node7 -->
<g id="edge16" class="edge"><title>Node8&#45;&gt;Node7</title>
<path fill="none" stroke="midnightblue" d="M228.94,-58.3619C240.188,-49.7773 256.216,-37.5459 269.165,-27.6636"/>
<polygon fill="midnightblue" stroke="midnightblue" points="271.323,-30.4198 277.149,-21.5707 267.076,-24.8551 271.323,-30.4198"/>
</g>
<!-- Node9&#45;&gt;Node2 -->
<g id="edge24" class="edge"><title>Node9&#45;&gt;Node2</title>
<path fill="none" stroke="midnightblue" d="M117.45,-58.4966C98.5152,-49.2679 70.7803,-35.75 49.736,-25.4932"/>
<polygon fill="midnightblue" stroke="midnightblue" points="51.116,-22.2722 40.5934,-21.0371 48.0491,-28.5646 51.116,-22.2722"/>
</g>
<!-- Node9&#45;&gt;Node4 -->
<g id="edge26" class="edge"><title>Node9&#45;&gt;Node4</title>
<path fill="none" stroke="midnightblue" d="M128.729,-58.3619C120.756,-50.1043 109.525,-38.4725 100.189,-28.8029"/>
<polygon fill="midnightblue" stroke="midnightblue" points="102.67,-26.3336 93.2061,-21.5707 97.6342,-31.1958 102.67,-26.3336"/>
</g>
<!-- Node9&#45;&gt;Node7 -->
<g id="edge28" class="edge"><title>Node9&#45;&gt;Node7</title>
<path fill="none" stroke="midnightblue" d="M165.825,-58.7643C190.266,-49.4379 226.599,-35.574 253.834,-25.1817"/>
<polygon fill="midnightblue" stroke="midnightblue" points="255.322,-28.3601 263.418,-21.5249 252.827,-21.82 255.322,-28.3601"/>
</g>
<!-- Node10 -->
<g id="node20" class="node"><title>Node10</title>
<polygon fill="white" stroke="#bfbfbf" points="197.5,-0.5 197.5,-21.5 244.5,-21.5 244.5,-0.5 197.5,-0.5"/>
<text text-anchor="middle" x="221" y="-8.5" font-family="Helvetica,sans-Serif" font-size="10.00">stdio.h</text>
</g>
<!-- Node9&#45;&gt;Node10 -->
<g id="edge20" class="edge"><title>Node9&#45;&gt;Node10</title>
<path fill="none" stroke="midnightblue" d="M154.04,-58.3619C166.293,-49.6955 183.799,-37.3126 197.839,-27.3819"/>
<polygon fill="midnightblue" stroke="midnightblue" points="199.912,-30.2028 206.055,-21.5707 195.87,-24.4879 199.912,-30.2028"/>
</g>
<!-- Node11 -->
<g id="node22" class="node"><title>Node11</title>
<polygon fill="white" stroke="#bfbfbf" points="126,-0.5 126,-21.5 180,-21.5 180,-0.5 126,-0.5"/>
<text text-anchor="middle" x="153" y="-8.5" font-family="Helvetica,sans-Serif" font-size="10.00">assert.h</text>
</g>
<!-- Node9&#45;&gt;Node11 -->
<g id="edge22" class="edge"><title>Node9&#45;&gt;Node11</title>
<path fill="none" stroke="midnightblue" d="M141.568,-58.3619C143.383,-50.8401 145.875,-40.5187 148.068,-31.4308"/>
<polygon fill="midnightblue" stroke="midnightblue" points="151.504,-32.1127 150.448,-21.5707 144.7,-30.4702 151.504,-32.1127"/>
</g>
</g>
</svg>
