<?xml version="1.0" encoding="UTF-8" standalone="no"?>
<!DOCTYPE svg PUBLIC "-//W3C//DTD SVG 1.1//EN"
 "http://www.w3.org/Graphics/SVG/1.1/DTD/svg11.dtd">
<!-- Generated by graphviz version 2.26.3 (20100126.1600)
 -->
<!-- Title: logging.h Pages: 1 -->
<svg width="950pt" height="88pt"
 viewBox="0.00 0.00 950.00 88.00" xmlns="http://www.w3.org/2000/svg" xmlns:xlink="http://www.w3.org/1999/xlink">
<g id="graph1" class="graph" transform="scale(1 1) rotate(0) translate(4 84)">
<title>logging.h</title>
<polygon fill="white" stroke="white" points="-4,5 -4,-84 947,-84 947,5 -4,5"/>
<!-- Node1 -->
<g id="node1" class="node"><title>Node1</title>
<polygon fill="#bfbfbf" stroke="black" points="428.5,-58.5 428.5,-79.5 487.5,-79.5 487.5,-58.5 428.5,-58.5"/>
<text text-anchor="middle" x="458" y="-66.5" font-family="Helvetica,sans-Serif" font-size="10.00">logging.h</text>
</g>
<!-- Node2 -->
<g id="node3" class="node"><title>Node2</title>
<a xlink:href="alarm_8c.htm" target="_top" xlink:title="Old interface (deprecated) to add/clear alarms using RTC.">
<polygon fill="white" stroke="black" points="0,-0.5 0,-21.5 50,-21.5 50,-0.5 0,-0.5"/>
<text text-anchor="middle" x="25" y="-8.5" font-family="Helvetica,sans-Serif" font-size="10.00">alarm.c</text>
</a>
</g>
<!-- Node1&#45;&gt;Node2 -->
<g id="edge2" class="edge"><title>Node1&#45;&gt;Node2</title>
<path fill="none" stroke="midnightblue" d="M418.371,-66.9056C346.184,-62.523 188.735,-50.3414 59,-22 56.0907,-21.3644 53.077,-20.5805 50.1005,-19.7262"/>
<polygon fill="midnightblue" stroke="midnightblue" points="418.201,-70.4015 428.389,-67.4966 418.613,-63.4136 418.201,-70.4015"/>
</g>
<!-- Node3 -->
<g id="node5" class="node"><title>Node3</title>
<a xlink:href="smartsql_8c.htm" target="_top" xlink:title="Convenience functions to interact with the rtc driver.">
<polygon fill="white" stroke="black" points="68,-0.5 68,-21.5 132,-21.5 132,-0.5 68,-0.5"/>
<text text-anchor="middle" x="100" y="-8.5" font-family="Helvetica,sans-Serif" font-size="10.00">smartsql.c</text>
</a>
</g>
<!-- Node1&#45;&gt;Node3 -->
<g id="edge4" class="edge"><title>Node1&#45;&gt;Node3</title>
<path fill="none" stroke="midnightblue" d="M417.831,-64.5459C357.402,-57.5073 239.668,-42.4798 141,-22 138.114,-21.4009 135.128,-20.7205 132.145,-19.9987"/>
<polygon fill="midnightblue" stroke="midnightblue" points="417.745,-68.059 428.08,-65.7268 418.546,-61.105 417.745,-68.059"/>
</g>
<!-- Node4 -->
<g id="node7" class="node"><title>Node4</title>
<a xlink:href="timeout__alarm_8c.htm" target="_top" xlink:title="New interface add/clear alarms using RTC.">
<polygon fill="white" stroke="black" points="150,-0.5 150,-21.5 240,-21.5 240,-0.5 150,-0.5"/>
<text text-anchor="middle" x="195" y="-8.5" font-family="Helvetica,sans-Serif" font-size="10.00">timeout_alarm.c</text>
</a>
</g>
<!-- Node1&#45;&gt;Node4 -->
<g id="edge6" class="edge"><title>Node1&#45;&gt;Node4</title>
<path fill="none" stroke="midnightblue" d="M418.376,-60.2617C370.622,-49.7303 290.555,-32.073 240.369,-21.0054"/>
<polygon fill="midnightblue" stroke="midnightblue" points="417.823,-63.7236 428.342,-62.4594 419.33,-56.8879 417.823,-63.7236"/>
</g>
<!-- Node5 -->
<g id="node9" class="node"><title>Node5</title>
<a xlink:href="main_8c.htm" target="_top" xlink:title="main.c">
<polygon fill="white" stroke="black" points="257.5,-0.5 257.5,-21.5 304.5,-21.5 304.5,-0.5 257.5,-0.5"/>
<text text-anchor="middle" x="281" y="-8.5" font-family="Helvetica,sans-Serif" font-size="10.00">main.c</text>
</a>
</g>
<!-- Node1&#45;&gt;Node5 -->
<g id="edge8" class="edge"><title>Node1&#45;&gt;Node5</title>
<path fill="none" stroke="midnightblue" d="M418.418,-56.3776C389.234,-47.0207 348.589,-33.8835 313,-22 310.325,-21.1069 307.529,-20.162 304.75,-19.2161"/>
<polygon fill="midnightblue" stroke="midnightblue" points="417.644,-59.805 428.235,-59.5214 419.779,-53.1385 417.644,-59.805"/>
</g>
<!-- Node6 -->
<g id="node11" class="node"><title>Node6</title>
<a xlink:href="activity_8c.htm" target="_top" xlink:title="This file contains functions to manage activities, which are entities that can be registered with sle...">
<polygon fill="white" stroke="black" points="322,-0.5 322,-21.5 378,-21.5 378,-0.5 322,-0.5"/>
<text text-anchor="middle" x="350" y="-8.5" font-family="Helvetica,sans-Serif" font-size="10.00">activity.c</text>
</a>
</g>
<!-- Node1&#45;&gt;Node6 -->
<g id="edge10" class="edge"><title>Node1&#45;&gt;Node6</title>
<path fill="none" stroke="midnightblue" d="M429.428,-53.6559C410.622,-43.5561 386.483,-30.5928 369.777,-21.6212"/>
<polygon fill="midnightblue" stroke="midnightblue" points="427.976,-56.8488 438.442,-58.4966 431.288,-50.6818 427.976,-56.8488"/>
</g>
<!-- Node7 -->
<g id="node13" class="node"><title>Node7</title>
<a xlink:href="client_8c.htm" target="_top" xlink:title="This file contains functions to manage clients registered with sleepd to veto suspend requests...">
<polygon fill="white" stroke="black" points="395.5,-0.5 395.5,-21.5 444.5,-21.5 444.5,-0.5 395.5,-0.5"/>
<text text-anchor="middle" x="420" y="-8.5" font-family="Helvetica,sans-Serif" font-size="10.00">client.c</text>
</a>
</g>
<!-- Node1&#45;&gt;Node7 -->
<g id="edge12" class="edge"><title>Node1&#45;&gt;Node7</title>
<path fill="none" stroke="midnightblue" d="M445.525,-49.9591C439.342,-40.522 432.11,-29.4835 426.926,-21.5707"/>
<polygon fill="midnightblue" stroke="midnightblue" points="442.622,-51.9154 451.03,-58.3619 448.478,-48.0792 442.622,-51.9154"/>
</g>
<!-- Node8 -->
<g id="node15" class="node"><title>Node8</title>
<a xlink:href="shutdown_8c.htm" target="_top" xlink:title="Two&#45;tiered shutdown system sequence.">
<polygon fill="white" stroke="black" points="461.5,-0.5 461.5,-21.5 530.5,-21.5 530.5,-0.5 461.5,-0.5"/>
<text text-anchor="middle" x="496" y="-8.5" font-family="Helvetica,sans-Serif" font-size="10.00">shutdown.c</text>
</a>
</g>
<!-- Node1&#45;&gt;Node8 -->
<g id="edge14" class="edge"><title>Node1&#45;&gt;Node8</title>
<path fill="none" stroke="midnightblue" d="M470.475,-49.9591C476.658,-40.522 483.89,-29.4835 489.074,-21.5707"/>
<polygon fill="midnightblue" stroke="midnightblue" points="467.522,-48.0792 464.97,-58.3619 473.378,-51.9154 467.522,-48.0792"/>
</g>
<!-- Node9 -->
<g id="node17" class="node"><title>Node9</title>
<a xlink:href="suspend_8c.htm" target="_top" xlink:title="Suspend/Resume logic to conserve battery when device is idle.">
<polygon fill="white" stroke="black" points="548,-0.5 548,-21.5 612,-21.5 612,-0.5 548,-0.5"/>
<text text-anchor="middle" x="580" y="-8.5" font-family="Helvetica,sans-Serif" font-size="10.00">suspend.c</text>
</a>
</g>
<!-- Node1&#45;&gt;Node9 -->
<g id="edge16" class="edge"><title>Node1&#45;&gt;Node9</title>
<path fill="none" stroke="midnightblue" d="M489.406,-54.0693C510.771,-43.9121 538.529,-30.7157 557.659,-21.6212"/>
<polygon fill="midnightblue" stroke="midnightblue" points="487.622,-51.042 480.093,-58.4966 490.627,-57.364 487.622,-51.042"/>
</g>
<!-- Node10 -->
<g id="node19" class="node"><title>Node10</title>
<a xlink:href="suspend__ipc_8c.htm" target="_top" xlink:title="Power Events Luna calls.">
<polygon fill="white" stroke="black" points="629.5,-0.5 629.5,-21.5 712.5,-21.5 712.5,-0.5 629.5,-0.5"/>
<text text-anchor="middle" x="671" y="-8.5" font-family="Helvetica,sans-Serif" font-size="10.00">suspend_ipc.c</text>
</a>
</g>
<!-- Node1&#45;&gt;Node10 -->
<g id="edge18" class="edge"><title>Node1&#45;&gt;Node10</title>
<path fill="none" stroke="midnightblue" d="M497.428,-58.2638C535.889,-47.7907 594.032,-31.9584 632.257,-21.5496"/>
<polygon fill="midnightblue" stroke="midnightblue" points="496.346,-54.9309 487.617,-60.9353 498.185,-61.685 496.346,-54.9309"/>
</g>
<!-- Node11 -->
<g id="node21" class="node"><title>Node11</title>
<a xlink:href="logging_8c.htm" target="_top" xlink:title="Logging interface.">
<polygon fill="white" stroke="black" points="729.5,-0.5 729.5,-21.5 788.5,-21.5 788.5,-0.5 729.5,-0.5"/>
<text text-anchor="middle" x="759" y="-8.5" font-family="Helvetica,sans-Serif" font-size="10.00">logging.c</text>
</a>
</g>
<!-- Node1&#45;&gt;Node11 -->
<g id="edge20" class="edge"><title>Node1&#45;&gt;Node11</title>
<path fill="none" stroke="midnightblue" d="M497.881,-63.2076C549.64,-55.3857 642.612,-40.2967 721,-22 723.675,-21.3755 726.442,-20.6777 729.207,-19.9446"/>
<polygon fill="midnightblue" stroke="midnightblue" points="497.159,-59.7765 487.788,-64.7195 498.197,-66.6993 497.159,-59.7765"/>
</g>
<!-- Node12 -->
<g id="node23" class="node"><title>Node12</title>
<a xlink:href="sysfs_8c.htm" target="_top" xlink:title="Get or set sysfs entries.">
<polygon fill="white" stroke="black" points="806,-0.5 806,-21.5 854,-21.5 854,-0.5 806,-0.5"/>
<text text-anchor="middle" x="830" y="-8.5" font-family="Helvetica,sans-Serif" font-size="10.00">sysfs.c</text>
</a>
</g>
<!-- Node1&#45;&gt;Node12 -->
<g id="edge22" class="edge"><title>Node1&#45;&gt;Node12</title>
<path fill="none" stroke="midnightblue" d="M497.847,-65.8684C561.652,-60.321 690.405,-46.9313 797,-22 799.94,-21.3123 802.991,-20.4737 805.996,-19.5692"/>
<polygon fill="midnightblue" stroke="midnightblue" points="497.478,-62.3872 487.81,-66.7227 498.071,-69.362 497.478,-62.3872"/>
</g>
<!-- Node13 -->
<g id="node25" class="node"><title>Node13</title>
<a xlink:href="timesaver_8c.htm" target="_top" xlink:title="timesaver.c">
<polygon fill="white" stroke="black" points="872,-0.5 872,-21.5 942,-21.5 942,-0.5 872,-0.5"/>
<text text-anchor="middle" x="907" y="-8.5" font-family="Helvetica,sans-Serif" font-size="10.00">timesaver.c</text>
</a>
</g>
<!-- Node1&#45;&gt;Node13 -->
<g id="edge24" class="edge"><title>Node1&#45;&gt;Node13</title>
<path fill="none" stroke="midnightblue" d="M497.775,-66.103C570.64,-60.4155 730.253,-46.1909 863,-22 865.789,-21.4918 868.663,-20.909 871.544,-20.2826"/>
<polygon fill="midnightblue" stroke="midnightblue" points="497.369,-62.6238 487.667,-66.8804 497.906,-69.6032 497.369,-62.6238"/>
</g>
</g>
</svg>
