<?xml version="1.0" encoding="UTF-8" standalone="no"?>
<!DOCTYPE svg PUBLIC "-//W3C//DTD SVG 1.1//EN"
 "http://www.w3.org/Graphics/SVG/1.1/DTD/svg11.dtd">
<!-- Generated by graphviz version 2.26.3 (20100126.1600)
 -->
<!-- Title: logging.c Pages: 1 -->
<svg width="778pt" height="146pt"
 viewBox="0.00 0.00 778.00 146.00" xmlns="http://www.w3.org/2000/svg" xmlns:xlink="http://www.w3.org/1999/xlink">
<g id="graph1" class="graph" transform="scale(1 1) rotate(0) translate(4 142)">
<title>logging.c</title>
<polygon fill="white" stroke="white" points="-4,5 -4,-142 775,-142 775,5 -4,5"/>
<!-- Node1 -->
<g id="node1" class="node"><title>Node1</title>
<polygon fill="#bfbfbf" stroke="black" points="340.5,-116.5 340.5,-137.5 399.5,-137.5 399.5,-116.5 340.5,-116.5"/>
<text text-anchor="middle" x="370" y="-124.5" font-family="Helvetica,sans-Serif" font-size="10.00">logging.c</text>
</g>
<!-- Node2 -->
<g id="node3" class="node"><title>Node2</title>
<polygon fill="white" stroke="#bfbfbf" points="-0.5,-58.5 -0.5,-79.5 46.5,-79.5 46.5,-58.5 -0.5,-58.5"/>
<text text-anchor="middle" x="23" y="-66.5" font-family="Helvetica,sans-Serif" font-size="10.00">stdio.h</text>
</g>
<!-- Node1&#45;&gt;Node2 -->
<g id="edge2" class="edge"><title>Node1&#45;&gt;Node2</title>
<path fill="none" stroke="midnightblue" d="M340.118,-124.38C285.404,-119.191 165.431,-105.998 56.4566,-80.0445"/>
<polygon fill="midnightblue" stroke="midnightblue" points="57.1651,-76.6149 46.6218,-77.6595 55.5153,-83.4177 57.1651,-76.6149"/>
</g>
<!-- Node3 -->
<g id="node5" class="node"><title>Node3</title>
<polygon fill="white" stroke="#bfbfbf" points="63.5,-58.5 63.5,-79.5 112.5,-79.5 112.5,-58.5 63.5,-58.5"/>
<text text-anchor="middle" x="88" y="-66.5" font-family="Helvetica,sans-Serif" font-size="10.00">stdlib.h</text>
</g>
<!-- Node1&#45;&gt;Node3 -->
<g id="edge4" class="edge"><title>Node1&#45;&gt;Node3</title>
<path fill="none" stroke="midnightblue" d="M340.199,-122.71C294.981,-115.914 206.229,-101.454 122.658,-80.2077"/>
<polygon fill="midnightblue" stroke="midnightblue" points="123.316,-76.7629 112.759,-77.6521 121.566,-83.5407 123.316,-76.7629"/>
</g>
<!-- Node4 -->
<g id="node7" class="node"><title>Node4</title>
<polygon fill="white" stroke="#bfbfbf" points="129.5,-58.5 129.5,-79.5 170.5,-79.5 170.5,-58.5 129.5,-58.5"/>
<text text-anchor="middle" x="150" y="-66.5" font-family="Helvetica,sans-Serif" font-size="10.00">glib.h</text>
</g>
<!-- Node1&#45;&gt;Node4 -->
<g id="edge6" class="edge"><title>Node1&#45;&gt;Node4</title>
<path fill="none" stroke="midnightblue" d="M340.246,-120.852C304.333,-113.177 241.989,-99.0461 180.637,-80.2869"/>
<polygon fill="midnightblue" stroke="midnightblue" points="181.392,-76.8564 170.804,-77.2367 179.318,-83.5422 181.392,-76.8564"/>
</g>
<!-- Node5 -->
<g id="node9" class="node"><title>Node5</title>
<polygon fill="white" stroke="#bfbfbf" points="187.5,-58.5 187.5,-79.5 242.5,-79.5 242.5,-58.5 187.5,-58.5"/>
<text text-anchor="middle" x="215" y="-66.5" font-family="Helvetica,sans-Serif" font-size="10.00">syslog.h</text>
</g>
<!-- Node1&#45;&gt;Node5 -->
<g id="edge8" class="edge"><title>Node1&#45;&gt;Node5</title>
<path fill="none" stroke="midnightblue" d="M341.931,-116.497C316.834,-107.106 279.869,-93.2735 252.295,-82.9554"/>
<polygon fill="midnightblue" stroke="midnightblue" points="253.192,-79.5544 242.6,-79.3277 250.739,-86.1104 253.192,-79.5544"/>
</g>
<!-- Node6 -->
<g id="node11" class="node"><title>Node6</title>
<polygon fill="white" stroke="#bfbfbf" points="259.5,-58.5 259.5,-79.5 318.5,-79.5 318.5,-58.5 259.5,-58.5"/>
<text text-anchor="middle" x="289" y="-66.5" font-family="Helvetica,sans-Serif" font-size="10.00">stdbool.h</text>
</g>
<!-- Node1&#45;&gt;Node6 -->
<g id="edge10" class="edge"><title>Node1&#45;&gt;Node6</title>
<path fill="none" stroke="midnightblue" d="M355.143,-116.362C343.154,-107.777 326.073,-95.5459 312.272,-85.6636"/>
<polygon fill="midnightblue" stroke="midnightblue" points="313.931,-82.5469 303.762,-79.5707 309.855,-88.2383 313.931,-82.5469"/>
</g>
<!-- Node7 -->
<g id="node13" class="node"><title>Node7</title>
<polygon fill="white" stroke="#bfbfbf" points="335.5,-58.5 335.5,-79.5 404.5,-79.5 404.5,-58.5 335.5,-58.5"/>
<text text-anchor="middle" x="370" y="-66.5" font-family="Helvetica,sans-Serif" font-size="10.00">sys/types.h</text>
</g>
<!-- Node1&#45;&gt;Node7 -->
<g id="edge12" class="edge"><title>Node1&#45;&gt;Node7</title>
<path fill="none" stroke="midnightblue" d="M370,-116.362C370,-108.922 370,-98.7427 370,-89.7276"/>
<polygon fill="midnightblue" stroke="midnightblue" points="373.5,-89.5706 370,-79.5707 366.5,-89.5707 373.5,-89.5706"/>
</g>
<!-- Node8 -->
<g id="node15" class="node"><title>Node8</title>
<polygon fill="white" stroke="#bfbfbf" points="421.5,-58.5 421.5,-79.5 482.5,-79.5 482.5,-58.5 421.5,-58.5"/>
<text text-anchor="middle" x="452" y="-66.5" font-family="Helvetica,sans-Serif" font-size="10.00">sys/stat.h</text>
</g>
<!-- Node1&#45;&gt;Node8 -->
<g id="edge14" class="edge"><title>Node1&#45;&gt;Node8</title>
<path fill="none" stroke="midnightblue" d="M385.04,-116.362C397.293,-107.696 414.799,-95.3126 428.839,-85.3819"/>
<polygon fill="midnightblue" stroke="midnightblue" points="430.912,-88.2028 437.055,-79.5707 426.87,-82.4879 430.912,-88.2028"/>
</g>
<!-- Node9 -->
<g id="node17" class="node"><title>Node9</title>
<polygon fill="white" stroke="#bfbfbf" points="500,-58.5 500,-79.5 544,-79.5 544,-58.5 500,-58.5"/>
<text text-anchor="middle" x="522" y="-66.5" font-family="Helvetica,sans-Serif" font-size="10.00">fcntl.h</text>
</g>
<!-- Node1&#45;&gt;Node9 -->
<g id="edge16" class="edge"><title>Node1&#45;&gt;Node9</title>
<path fill="none" stroke="midnightblue" d="M397.526,-116.497C423.584,-106.553 462.692,-91.6309 490.099,-81.1727"/>
<polygon fill="midnightblue" stroke="midnightblue" points="491.527,-84.3743 499.622,-77.5391 489.031,-77.8342 491.527,-84.3743"/>
</g>
<!-- Node10 -->
<g id="node19" class="node"><title>Node10</title>
<polygon fill="white" stroke="#bfbfbf" points="561.5,-58.5 561.5,-79.5 614.5,-79.5 614.5,-58.5 561.5,-58.5"/>
<text text-anchor="middle" x="588" y="-66.5" font-family="Helvetica,sans-Serif" font-size="10.00">unistd.h</text>
</g>
<!-- Node1&#45;&gt;Node10 -->
<g id="edge18" class="edge"><title>Node1&#45;&gt;Node10</title>
<path fill="none" stroke="midnightblue" d="M399.606,-119.909C433.988,-111.563 492.616,-96.9879 551.465,-80.3516"/>
<polygon fill="midnightblue" stroke="midnightblue" points="552.631,-83.6587 561.291,-77.5548 550.715,-76.9261 552.631,-83.6587"/>
</g>
<!-- Node11 -->
<g id="node21" class="node"><title>Node11</title>
<polygon fill="white" stroke="#bfbfbf" points="631.5,-58.5 631.5,-79.5 686.5,-79.5 686.5,-58.5 631.5,-58.5"/>
<text text-anchor="middle" x="659" y="-66.5" font-family="Helvetica,sans-Serif" font-size="10.00">stdarg.h</text>
</g>
<!-- Node1&#45;&gt;Node11 -->
<g id="edge20" class="edge"><title>Node1&#45;&gt;Node11</title>
<path fill="none" stroke="midnightblue" d="M399.834,-122.577C445.623,-115.547 536.115,-100.704 621.35,-80.2324"/>
<polygon fill="midnightblue" stroke="midnightblue" points="622.289,-83.6059 631.178,-77.8405 620.634,-76.8045 622.289,-83.6059"/>
</g>
<!-- Node12 -->
<g id="node23" class="node"><title>Node12</title>
<a xlink:href="logging_8h.htm" target="_top" xlink:title="logging.h">
<polygon fill="white" stroke="black" points="703.5,-58.5 703.5,-79.5 762.5,-79.5 762.5,-58.5 703.5,-58.5"/>
<text text-anchor="middle" x="733" y="-66.5" font-family="Helvetica,sans-Serif" font-size="10.00">logging.h</text>
</a>
</g>
<!-- Node1&#45;&gt;Node12 -->
<g id="edge22" class="edge"><title>Node1&#45;&gt;Node12</title>
<path fill="none" stroke="midnightblue" d="M399.82,-124.082C455.714,-118.314 580.138,-104.065 693.359,-80.1549"/>
<polygon fill="midnightblue" stroke="midnightblue" points="694.184,-83.5577 703.228,-78.0397 692.717,-76.7132 694.184,-83.5577"/>
</g>
<!-- Node13 -->
<g id="node25" class="node"><title>Node13</title>
<polygon fill="white" stroke="#bfbfbf" points="696,-0.5 696,-21.5 770,-21.5 770,-0.5 696,-0.5"/>
<text text-anchor="middle" x="733" y="-8.5" font-family="Helvetica,sans-Serif" font-size="10.00">sys/syslog.h</text>
</g>
<!-- Node12&#45;&gt;Node13 -->
<g id="edge24" class="edge"><title>Node12&#45;&gt;Node13</title>
<path fill="none" stroke="midnightblue" d="M733,-58.3619C733,-50.9219 733,-40.7427 733,-31.7276"/>
<polygon fill="midnightblue" stroke="midnightblue" points="736.5,-31.5706 733,-21.5707 729.5,-31.5707 736.5,-31.5706"/>
</g>
</g>
</svg>
