<?xml version="1.0" encoding="UTF-8" standalone="no"?>
<!DOCTYPE svg PUBLIC "-//W3C//DTD SVG 1.1//EN"
 "http://www.w3.org/Graphics/SVG/1.1/DTD/svg11.dtd">
<!-- Generated by graphviz version 2.26.3 (20100126.1600)
 -->
<!-- Title: lunaservice_utils.c Pages: 1 -->
<svg width="150pt" height="146pt"
 viewBox="0.00 0.00 150.00 146.00" xmlns="http://www.w3.org/2000/svg" xmlns:xlink="http://www.w3.org/1999/xlink">
<g id="graph1" class="graph" transform="scale(1 1) rotate(0) translate(4 142)">
<title>lunaservice_utils.c</title>
<polygon fill="white" stroke="white" points="-4,5 -4,-142 147,-142 147,5 -4,5"/>
<!-- Node1 -->
<g id="node1" class="node"><title>Node1</title>
<polygon fill="#bfbfbf" stroke="black" points="20.5,-116.5 20.5,-137.5 121.5,-137.5 121.5,-116.5 20.5,-116.5"/>
<text text-anchor="middle" x="71" y="-124.5" font-family="Helvetica,sans-Serif" font-size="10.00">lunaservice_utils.c</text>
</g>
<!-- Node2 -->
<g id="node3" class="node"><title>Node2</title>
<a xlink:href="lunaservice__utils_8h.htm" target="_top" xlink:title="lunaservice_utils.h">
<polygon fill="white" stroke="black" points="20,-58.5 20,-79.5 122,-79.5 122,-58.5 20,-58.5"/>
<text text-anchor="middle" x="71" y="-66.5" font-family="Helvetica,sans-Serif" font-size="10.00">lunaservice_utils.h</text>
</a>
</g>
<!-- Node1&#45;&gt;Node2 -->
<g id="edge2" class="edge"><title>Node1&#45;&gt;Node2</title>
<path fill="none" stroke="midnightblue" d="M71,-116.362C71,-108.922 71,-98.7427 71,-89.7276"/>
<polygon fill="midnightblue" stroke="midnightblue" points="74.5001,-89.5706 71,-79.5707 67.5001,-89.5707 74.5001,-89.5706"/>
</g>
<!-- Node3 -->
<g id="node5" class="node"><title>Node3</title>
<polygon fill="white" stroke="#bfbfbf" points="-0.5,-0.5 -0.5,-21.5 142.5,-21.5 142.5,-0.5 -0.5,-0.5"/>
<text text-anchor="middle" x="71" y="-8.5" font-family="Helvetica,sans-Serif" font-size="10.00">luna&#45;service2/lunaservice.h</text>
</g>
<!-- Node2&#45;&gt;Node3 -->
<g id="edge4" class="edge"><title>Node2&#45;&gt;Node3</title>
<path fill="none" stroke="midnightblue" d="M71,-58.3619C71,-50.9219 71,-40.7427 71,-31.7276"/>
<polygon fill="midnightblue" stroke="midnightblue" points="74.5001,-31.5706 71,-21.5707 67.5001,-31.5707 74.5001,-31.5706"/>
</g>
</g>
</svg>
