<?xml version="1.0" encoding="UTF-8" standalone="no"?>
<!DOCTYPE svg PUBLIC "-//W3C//DTD SVG 1.1//EN"
 "http://www.w3.org/Graphics/SVG/1.1/DTD/svg11.dtd">
<!-- Generated by graphviz version 2.26.3 (20100126.1600)
 -->
<!-- Title: lunaservice_utils.h Pages: 1 -->
<svg width="470pt" height="88pt"
 viewBox="0.00 0.00 470.00 88.00" xmlns="http://www.w3.org/2000/svg" xmlns:xlink="http://www.w3.org/1999/xlink">
<g id="graph1" class="graph" transform="scale(1 1) rotate(0) translate(4 84)">
<title>lunaservice_utils.h</title>
<polygon fill="white" stroke="white" points="-4,5 -4,-84 467,-84 467,5 -4,5"/>
<!-- Node1 -->
<g id="node1" class="node"><title>Node1</title>
<polygon fill="#bfbfbf" stroke="black" points="159,-58.5 159,-79.5 261,-79.5 261,-58.5 159,-58.5"/>
<text text-anchor="middle" x="210" y="-66.5" font-family="Helvetica,sans-Serif" font-size="10.00">lunaservice_utils.h</text>
</g>
<!-- Node2 -->
<g id="node3" class="node"><title>Node2</title>
<a xlink:href="alarm_8c.htm" target="_top" xlink:title="Old interface (deprecated) to add/clear alarms using RTC.">
<polygon fill="white" stroke="black" points="0,-0.5 0,-21.5 50,-21.5 50,-0.5 0,-0.5"/>
<text text-anchor="middle" x="25" y="-8.5" font-family="Helvetica,sans-Serif" font-size="10.00">alarm.c</text>
</a>
</g>
<!-- Node1&#45;&gt;Node2 -->
<g id="edge2" class="edge"><title>Node1&#45;&gt;Node2</title>
<path fill="none" stroke="midnightblue" d="M165.994,-55.4445C135.851,-46.1244 94.9727,-33.4171 59,-22 56.1616,-21.0991 53.1923,-20.1494 50.2409,-19.2007"/>
<polygon fill="midnightblue" stroke="midnightblue" points="165.195,-58.8608 175.783,-58.4686 167.261,-52.1727 165.195,-58.8608"/>
</g>
<!-- Node3 -->
<g id="node5" class="node"><title>Node3</title>
<a xlink:href="timeout__alarm_8c.htm" target="_top" xlink:title="New interface add/clear alarms using RTC.">
<polygon fill="white" stroke="black" points="68,-0.5 68,-21.5 158,-21.5 158,-0.5 68,-0.5"/>
<text text-anchor="middle" x="113" y="-8.5" font-family="Helvetica,sans-Serif" font-size="10.00">timeout_alarm.c</text>
</a>
</g>
<!-- Node1&#45;&gt;Node3 -->
<g id="edge4" class="edge"><title>Node1&#45;&gt;Node3</title>
<path fill="none" stroke="midnightblue" d="M183.41,-53.1009C166.627,-43.0658 145.413,-30.3808 130.679,-21.5707"/>
<polygon fill="midnightblue" stroke="midnightblue" points="181.83,-56.2339 192.209,-58.3619 185.422,-50.226 181.83,-56.2339"/>
</g>
<!-- Node4 -->
<g id="node7" class="node"><title>Node4</title>
<a xlink:href="shutdown_8c.htm" target="_top" xlink:title="Two&#45;tiered shutdown system sequence.">
<polygon fill="white" stroke="black" points="175.5,-0.5 175.5,-21.5 244.5,-21.5 244.5,-0.5 175.5,-0.5"/>
<text text-anchor="middle" x="210" y="-8.5" font-family="Helvetica,sans-Serif" font-size="10.00">shutdown.c</text>
</a>
</g>
<!-- Node1&#45;&gt;Node4 -->
<g id="edge6" class="edge"><title>Node1&#45;&gt;Node4</title>
<path fill="none" stroke="midnightblue" d="M210,-48.1906C210,-39.1684 210,-28.9941 210,-21.5707"/>
<polygon fill="midnightblue" stroke="midnightblue" points="206.5,-48.3619 210,-58.3619 213.5,-48.3619 206.5,-48.3619"/>
</g>
<!-- Node5 -->
<g id="node9" class="node"><title>Node5</title>
<a xlink:href="suspend__ipc_8c.htm" target="_top" xlink:title="Power Events Luna calls.">
<polygon fill="white" stroke="black" points="261.5,-0.5 261.5,-21.5 344.5,-21.5 344.5,-0.5 261.5,-0.5"/>
<text text-anchor="middle" x="303" y="-8.5" font-family="Helvetica,sans-Serif" font-size="10.00">suspend_ipc.c</text>
</a>
</g>
<!-- Node1&#45;&gt;Node5 -->
<g id="edge8" class="edge"><title>Node1&#45;&gt;Node5</title>
<path fill="none" stroke="midnightblue" d="M235.941,-52.8215C251.96,-42.8312 272.055,-30.2993 286.051,-21.5707"/>
<polygon fill="midnightblue" stroke="midnightblue" points="233.691,-50.1003 227.058,-58.3619 237.395,-56.0399 233.691,-50.1003"/>
</g>
<!-- Node6 -->
<g id="node11" class="node"><title>Node6</title>
<a xlink:href="lunaservice__utils_8c.htm" target="_top" xlink:title="lunaservice_utils.c">
<polygon fill="white" stroke="black" points="361.5,-0.5 361.5,-21.5 462.5,-21.5 462.5,-0.5 361.5,-0.5"/>
<text text-anchor="middle" x="412" y="-8.5" font-family="Helvetica,sans-Serif" font-size="10.00">lunaservice_utils.c</text>
</a>
</g>
<!-- Node1&#45;&gt;Node6 -->
<g id="edge10" class="edge"><title>Node1&#45;&gt;Node6</title>
<path fill="none" stroke="midnightblue" d="M256.392,-55.6795C292.517,-45.307 341.97,-31.1078 375.351,-21.5231"/>
<polygon fill="midnightblue" stroke="midnightblue" points="255.226,-52.3727 246.581,-58.4966 257.158,-59.1009 255.226,-52.3727"/>
</g>
</g>
</svg>
