<?xml version="1.0" encoding="UTF-8" standalone="no"?>
<!DOCTYPE svg PUBLIC "-//W3C//DTD SVG 1.1//EN"
 "http://www.w3.org/Graphics/SVG/1.1/DTD/svg11.dtd">
<!-- Generated by graphviz version 2.26.3 (20100126.1600)
 -->
<!-- Title: machine.h Pages: 1 -->
<svg width="214pt" height="88pt"
 viewBox="0.00 0.00 214.00 88.00" xmlns="http://www.w3.org/2000/svg" xmlns:xlink="http://www.w3.org/1999/xlink">
<g id="graph1" class="graph" transform="scale(1 1) rotate(0) translate(4 84)">
<title>machine.h</title>
<polygon fill="white" stroke="white" points="-4,5 -4,-84 211,-84 211,5 -4,5"/>
<!-- Node1 -->
<g id="node1" class="node"><title>Node1</title>
<polygon fill="#bfbfbf" stroke="black" points="85.5,-58.5 85.5,-79.5 150.5,-79.5 150.5,-58.5 85.5,-58.5"/>
<text text-anchor="middle" x="118" y="-66.5" font-family="Helvetica,sans-Serif" font-size="10.00">machine.h</text>
</g>
<!-- Node2 -->
<g id="node3" class="node"><title>Node2</title>
<a xlink:href="shutdown_8c.htm" target="_top" xlink:title="Two&#45;tiered shutdown system sequence.">
<polygon fill="white" stroke="black" points="-0.5,-0.5 -0.5,-21.5 68.5,-21.5 68.5,-0.5 -0.5,-0.5"/>
<text text-anchor="middle" x="34" y="-8.5" font-family="Helvetica,sans-Serif" font-size="10.00">shutdown.c</text>
</a>
</g>
<!-- Node1&#45;&gt;Node2 -->
<g id="edge2" class="edge"><title>Node1&#45;&gt;Node2</title>
<path fill="none" stroke="midnightblue" d="M94.1624,-52.5407C79.7617,-42.5973 61.8325,-30.2177 49.3092,-21.5707"/>
<polygon fill="midnightblue" stroke="midnightblue" points="92.3754,-55.5601 102.593,-58.3619 96.3528,-49.7998 92.3754,-55.5601"/>
</g>
<!-- Node3 -->
<g id="node5" class="node"><title>Node3</title>
<a xlink:href="suspend_8c.htm" target="_top" xlink:title="Suspend/Resume logic to conserve battery when device is idle.">
<polygon fill="white" stroke="black" points="86,-0.5 86,-21.5 150,-21.5 150,-0.5 86,-0.5"/>
<text text-anchor="middle" x="118" y="-8.5" font-family="Helvetica,sans-Serif" font-size="10.00">suspend.c</text>
</a>
</g>
<!-- Node1&#45;&gt;Node3 -->
<g id="edge4" class="edge"><title>Node1&#45;&gt;Node3</title>
<path fill="none" stroke="midnightblue" d="M118,-48.1906C118,-39.1684 118,-28.9941 118,-21.5707"/>
<polygon fill="midnightblue" stroke="midnightblue" points="114.5,-48.3619 118,-58.3619 121.5,-48.3619 114.5,-48.3619"/>
</g>
<!-- Node4 -->
<g id="node7" class="node"><title>Node4</title>
<a xlink:href="init_8c.htm" target="_top" xlink:title="init.c">
<polygon fill="white" stroke="black" points="168,-0.5 168,-21.5 206,-21.5 206,-0.5 168,-0.5"/>
<text text-anchor="middle" x="187" y="-8.5" font-family="Helvetica,sans-Serif" font-size="10.00">init.c</text>
</a>
</g>
<!-- Node1&#45;&gt;Node4 -->
<g id="edge6" class="edge"><title>Node1&#45;&gt;Node4</title>
<path fill="none" stroke="midnightblue" d="M138.592,-51.6908C150.24,-41.8996 164.429,-29.973 174.425,-21.5707"/>
<polygon fill="midnightblue" stroke="midnightblue" points="136.058,-49.2481 130.656,-58.3619 140.563,-54.6066 136.058,-49.2481"/>
</g>
</g>
</svg>
