<?xml version="1.0" encoding="UTF-8" standalone="no"?>
<!DOCTYPE svg PUBLIC "-//W3C//DTD SVG 1.1//EN"
 "http://www.w3.org/Graphics/SVG/1.1/DTD/svg11.dtd">
<!-- Generated by graphviz version 2.26.3 (20100126.1600)
 -->
<!-- Title: main.h Pages: 1 -->
<svg width="660pt" height="88pt"
 viewBox="0.00 0.00 660.00 88.00" xmlns="http://www.w3.org/2000/svg" xmlns:xlink="http://www.w3.org/1999/xlink">
<g id="graph1" class="graph" transform="scale(1 1) rotate(0) translate(4 84)">
<title>main.h</title>
<polygon fill="white" stroke="white" points="-4,5 -4,-84 657,-84 657,5 -4,5"/>
<!-- Node1 -->
<g id="node1" class="node"><title>Node1</title>
<polygon fill="#bfbfbf" stroke="black" points="284.5,-58.5 284.5,-79.5 331.5,-79.5 331.5,-58.5 284.5,-58.5"/>
<text text-anchor="middle" x="308" y="-66.5" font-family="Helvetica,sans-Serif" font-size="10.00">main.h</text>
</g>
<!-- Node2 -->
<g id="node3" class="node"><title>Node2</title>
<a xlink:href="alarm_8c.htm" target="_top" xlink:title="Old interface (deprecated) to add/clear alarms using RTC.">
<polygon fill="white" stroke="black" points="0,-0.5 0,-21.5 50,-21.5 50,-0.5 0,-0.5"/>
<text text-anchor="middle" x="25" y="-8.5" font-family="Helvetica,sans-Serif" font-size="10.00">alarm.c</text>
</a>
</g>
<!-- Node1&#45;&gt;Node2 -->
<g id="edge2" class="edge"><title>Node1&#45;&gt;Node2</title>
<path fill="none" stroke="midnightblue" d="M274.277,-64.0216C226.129,-56.6009 135.091,-41.4073 59,-22 56.1145,-21.264 53.1157,-20.4173 50.1476,-19.5273"/>
<polygon fill="midnightblue" stroke="midnightblue" points="274.027,-67.5238 284.44,-65.5703 275.081,-60.6037 274.027,-67.5238"/>
</g>
<!-- Node3 -->
<g id="node5" class="node"><title>Node3</title>
<a xlink:href="timeout__alarm_8c.htm" target="_top" xlink:title="New interface add/clear alarms using RTC.">
<polygon fill="white" stroke="black" points="68,-0.5 68,-21.5 158,-21.5 158,-0.5 68,-0.5"/>
<text text-anchor="middle" x="113" y="-8.5" font-family="Helvetica,sans-Serif" font-size="10.00">timeout_alarm.c</text>
</a>
</g>
<!-- Node1&#45;&gt;Node3 -->
<g id="edge4" class="edge"><title>Node1&#45;&gt;Node3</title>
<path fill="none" stroke="midnightblue" d="M274.699,-59.0951C239.572,-48.6472 184.434,-32.2469 148.499,-21.5586"/>
<polygon fill="midnightblue" stroke="midnightblue" points="273.896,-62.5076 284.478,-62.0038 275.891,-55.7981 273.896,-62.5076"/>
</g>
<!-- Node4 -->
<g id="node7" class="node"><title>Node4</title>
<a xlink:href="main_8c.htm" target="_top" xlink:title="main.c">
<polygon fill="white" stroke="black" points="175.5,-0.5 175.5,-21.5 222.5,-21.5 222.5,-0.5 175.5,-0.5"/>
<text text-anchor="middle" x="199" y="-8.5" font-family="Helvetica,sans-Serif" font-size="10.00">main.c</text>
</a>
</g>
<!-- Node1&#45;&gt;Node4 -->
<g id="edge6" class="edge"><title>Node1&#45;&gt;Node4</title>
<path fill="none" stroke="midnightblue" d="M279.423,-53.794C260.406,-43.6746 235.898,-30.6338 218.961,-21.6212"/>
<polygon fill="midnightblue" stroke="midnightblue" points="277.789,-56.8889 288.261,-58.4966 281.077,-50.7093 277.789,-56.8889"/>
</g>
<!-- Node5 -->
<g id="node9" class="node"><title>Node5</title>
<a xlink:href="activity_8c.htm" target="_top" xlink:title="This file contains functions to manage activities, which are entities that can be registered with sle...">
<polygon fill="white" stroke="black" points="240,-0.5 240,-21.5 296,-21.5 296,-0.5 240,-0.5"/>
<text text-anchor="middle" x="268" y="-8.5" font-family="Helvetica,sans-Serif" font-size="10.00">activity.c</text>
</a>
</g>
<!-- Node1&#45;&gt;Node5 -->
<g id="edge8" class="edge"><title>Node1&#45;&gt;Node5</title>
<path fill="none" stroke="midnightblue" d="M294.868,-49.9591C288.36,-40.522 280.747,-29.4835 275.29,-21.5707"/>
<polygon fill="midnightblue" stroke="midnightblue" points="292.105,-52.1168 300.663,-58.3619 297.867,-48.1427 292.105,-52.1168"/>
</g>
<!-- Node6 -->
<g id="node11" class="node"><title>Node6</title>
<a xlink:href="shutdown_8c.htm" target="_top" xlink:title="Two&#45;tiered shutdown system sequence.">
<polygon fill="white" stroke="black" points="313.5,-0.5 313.5,-21.5 382.5,-21.5 382.5,-0.5 313.5,-0.5"/>
<text text-anchor="middle" x="348" y="-8.5" font-family="Helvetica,sans-Serif" font-size="10.00">shutdown.c</text>
</a>
</g>
<!-- Node1&#45;&gt;Node6 -->
<g id="edge10" class="edge"><title>Node1&#45;&gt;Node6</title>
<path fill="none" stroke="midnightblue" d="M321.132,-49.9591C327.64,-40.522 335.253,-29.4835 340.71,-21.5707"/>
<polygon fill="midnightblue" stroke="midnightblue" points="318.133,-48.1427 315.337,-58.3619 323.895,-52.1168 318.133,-48.1427"/>
</g>
<!-- Node7 -->
<g id="node13" class="node"><title>Node7</title>
<a xlink:href="suspend_8c.htm" target="_top" xlink:title="Suspend/Resume logic to conserve battery when device is idle.">
<polygon fill="white" stroke="black" points="400,-0.5 400,-21.5 464,-21.5 464,-0.5 400,-0.5"/>
<text text-anchor="middle" x="432" y="-8.5" font-family="Helvetica,sans-Serif" font-size="10.00">suspend.c</text>
</a>
</g>
<!-- Node1&#45;&gt;Node7 -->
<g id="edge12" class="edge"><title>Node1&#45;&gt;Node7</title>
<path fill="none" stroke="midnightblue" d="M339.628,-54.2064C361.382,-44.031 389.762,-30.7567 409.293,-21.6212"/>
<polygon fill="midnightblue" stroke="midnightblue" points="338.031,-51.0894 330.455,-58.4966 340.996,-57.4301 338.031,-51.0894"/>
</g>
<!-- Node8 -->
<g id="node15" class="node"><title>Node8</title>
<a xlink:href="suspend__ipc_8c.htm" target="_top" xlink:title="Power Events Luna calls.">
<polygon fill="white" stroke="black" points="481.5,-0.5 481.5,-21.5 564.5,-21.5 564.5,-0.5 481.5,-0.5"/>
<text text-anchor="middle" x="523" y="-8.5" font-family="Helvetica,sans-Serif" font-size="10.00">suspend_ipc.c</text>
</a>
</g>
<!-- Node1&#45;&gt;Node8 -->
<g id="edge14" class="edge"><title>Node1&#45;&gt;Node8</title>
<path fill="none" stroke="midnightblue" d="M341.526,-59.9558C380.011,-49.5737 443.055,-32.5664 483.784,-21.5791"/>
<polygon fill="midnightblue" stroke="midnightblue" points="340.573,-56.5875 331.83,-62.5714 342.397,-63.3459 340.573,-56.5875"/>
</g>
<!-- Node9 -->
<g id="node17" class="node"><title>Node9</title>
<a xlink:href="timesaver_8c.htm" target="_top" xlink:title="timesaver.c">
<polygon fill="white" stroke="black" points="582,-0.5 582,-21.5 652,-21.5 652,-0.5 582,-0.5"/>
<text text-anchor="middle" x="617" y="-8.5" font-family="Helvetica,sans-Serif" font-size="10.00">timesaver.c</text>
</a>
</g>
<!-- Node1&#45;&gt;Node9 -->
<g id="edge16" class="edge"><title>Node1&#45;&gt;Node9</title>
<path fill="none" stroke="midnightblue" d="M341.513,-63.822C391.938,-55.8584 490.237,-39.6625 573,-22 575.926,-21.3755 578.953,-20.6941 581.987,-19.9863"/>
<polygon fill="midnightblue" stroke="midnightblue" points="340.838,-60.385 331.502,-65.394 341.924,-67.3003 340.838,-60.385"/>
</g>
</g>
</svg>
