<?xml version="1.0" encoding="UTF-8" standalone="no"?>
<!DOCTYPE svg PUBLIC "-//W3C//DTD SVG 1.1//EN"
 "http://www.w3.org/Graphics/SVG/1.1/DTD/svg11.dtd">
<!-- Generated by graphviz version 2.26.3 (20100126.1600)
 -->
<!-- Title: main.c Pages: 1 -->
<svg width="909pt" height="146pt"
 viewBox="0.00 0.00 909.00 146.00" xmlns="http://www.w3.org/2000/svg" xmlns:xlink="http://www.w3.org/1999/xlink">
<g id="graph1" class="graph" transform="scale(1 1) rotate(0) translate(4 142)">
<title>main.c</title>
<polygon fill="white" stroke="white" points="-4,5 -4,-142 906,-142 906,5 -4,5"/>
<!-- Node1 -->
<g id="node1" class="node"><title>Node1</title>
<polygon fill="#bfbfbf" stroke="black" points="401.5,-116.5 401.5,-137.5 448.5,-137.5 448.5,-116.5 401.5,-116.5"/>
<text text-anchor="middle" x="425" y="-124.5" font-family="Helvetica,sans-Serif" font-size="10.00">main.c</text>
</g>
<!-- Node2 -->
<g id="node3" class="node"><title>Node2</title>
<polygon fill="white" stroke="#bfbfbf" points="-0.5,-58.5 -0.5,-79.5 46.5,-79.5 46.5,-58.5 -0.5,-58.5"/>
<text text-anchor="middle" x="23" y="-66.5" font-family="Helvetica,sans-Serif" font-size="10.00">stdio.h</text>
</g>
<!-- Node1&#45;&gt;Node2 -->
<g id="edge2" class="edge"><title>Node1&#45;&gt;Node2</title>
<path fill="none" stroke="midnightblue" d="M401.328,-125.677C343.663,-122.102 191.338,-110.534 56.6821,-80.0435"/>
<polygon fill="midnightblue" stroke="midnightblue" points="57.1387,-76.5569 46.6077,-77.7187 55.5646,-83.3777 57.1387,-76.5569"/>
</g>
<!-- Node3 -->
<g id="node5" class="node"><title>Node3</title>
<polygon fill="white" stroke="#bfbfbf" points="63.5,-58.5 63.5,-79.5 116.5,-79.5 116.5,-58.5 63.5,-58.5"/>
<text text-anchor="middle" x="90" y="-66.5" font-family="Helvetica,sans-Serif" font-size="10.00">unistd.h</text>
</g>
<!-- Node1&#45;&gt;Node3 -->
<g id="edge4" class="edge"><title>Node1&#45;&gt;Node3</title>
<path fill="none" stroke="midnightblue" d="M401.431,-124.519C352.056,-119.067 234.069,-104.698 126.665,-80.1514"/>
<polygon fill="midnightblue" stroke="midnightblue" points="127.172,-76.676 116.64,-77.8226 125.588,-83.4945 127.172,-76.676"/>
</g>
<!-- Node4 -->
<g id="node7" class="node"><title>Node4</title>
<polygon fill="white" stroke="#bfbfbf" points="133.5,-58.5 133.5,-79.5 186.5,-79.5 186.5,-58.5 133.5,-58.5"/>
<text text-anchor="middle" x="160" y="-66.5" font-family="Helvetica,sans-Serif" font-size="10.00">signal.h</text>
</g>
<!-- Node1&#45;&gt;Node4 -->
<g id="edge6" class="edge"><title>Node1&#45;&gt;Node4</title>
<path fill="none" stroke="midnightblue" d="M401.244,-122.544C360.084,-114.711 272.923,-97.6251 200,-80 198.915,-79.7377 197.815,-79.4669 196.705,-79.1895"/>
<polygon fill="midnightblue" stroke="midnightblue" points="197.179,-75.6965 186.62,-76.5696 195.419,-82.4716 197.179,-75.6965"/>
</g>
<!-- Node5 -->
<g id="node9" class="node"><title>Node5</title>
<polygon fill="white" stroke="#bfbfbf" points="337.5,-0.5 337.5,-21.5 378.5,-21.5 378.5,-0.5 337.5,-0.5"/>
<text text-anchor="middle" x="358" y="-8.5" font-family="Helvetica,sans-Serif" font-size="10.00">glib.h</text>
</g>
<!-- Node1&#45;&gt;Node5 -->
<g id="edge8" class="edge"><title>Node1&#45;&gt;Node5</title>
<path fill="none" stroke="midnightblue" d="M401.368,-124.787C354.762,-119.884 253.709,-106.39 233,-80 204.819,-44.0886 281.867,-24.1377 327.332,-15.7679"/>
<polygon fill="midnightblue" stroke="midnightblue" points="328.07,-19.1921 337.317,-14.0208 326.863,-12.2968 328.07,-19.1921"/>
</g>
<!-- Node6 -->
<g id="node11" class="node"><title>Node6</title>
<polygon fill="white" stroke="#bfbfbf" points="242,-58.5 242,-79.5 304,-79.5 304,-58.5 242,-58.5"/>
<text text-anchor="middle" x="273" y="-66.5" font-family="Helvetica,sans-Serif" font-size="10.00">pthread.h</text>
</g>
<!-- Node1&#45;&gt;Node6 -->
<g id="edge10" class="edge"><title>Node1&#45;&gt;Node6</title>
<path fill="none" stroke="midnightblue" d="M401.25,-117.938C376.901,-108.646 338.684,-94.0636 310.295,-83.231"/>
<polygon fill="midnightblue" stroke="midnightblue" points="311.293,-79.8658 300.702,-79.5707 308.798,-86.4058 311.293,-79.8658"/>
</g>
<!-- Node7 -->
<g id="node13" class="node"><title>Node7</title>
<polygon fill="white" stroke="#bfbfbf" points="321.5,-58.5 321.5,-79.5 380.5,-79.5 380.5,-58.5 321.5,-58.5"/>
<text text-anchor="middle" x="351" y="-66.5" font-family="Helvetica,sans-Serif" font-size="10.00">stdbool.h</text>
</g>
<!-- Node1&#45;&gt;Node7 -->
<g id="edge12" class="edge"><title>Node1&#45;&gt;Node7</title>
<path fill="none" stroke="midnightblue" d="M411.427,-116.362C400.579,-107.859 385.166,-95.7785 372.621,-85.9466"/>
<polygon fill="midnightblue" stroke="midnightblue" points="374.516,-82.9848 364.487,-79.5707 370.198,-88.4942 374.516,-82.9848"/>
</g>
<!-- Node8 -->
<g id="node15" class="node"><title>Node8</title>
<polygon fill="white" stroke="#bfbfbf" points="397.5,-58.5 397.5,-79.5 452.5,-79.5 452.5,-58.5 397.5,-58.5"/>
<text text-anchor="middle" x="425" y="-66.5" font-family="Helvetica,sans-Serif" font-size="10.00">getopt.h</text>
</g>
<!-- Node1&#45;&gt;Node8 -->
<g id="edge14" class="edge"><title>Node1&#45;&gt;Node8</title>
<path fill="none" stroke="midnightblue" d="M425,-116.362C425,-108.922 425,-98.7427 425,-89.7276"/>
<polygon fill="midnightblue" stroke="midnightblue" points="428.5,-89.5706 425,-79.5707 421.5,-89.5707 428.5,-89.5706"/>
</g>
<!-- Node9 -->
<g id="node17" class="node"><title>Node9</title>
<polygon fill="white" stroke="#bfbfbf" points="469.5,-58.5 469.5,-79.5 518.5,-79.5 518.5,-58.5 469.5,-58.5"/>
<text text-anchor="middle" x="494" y="-66.5" font-family="Helvetica,sans-Serif" font-size="10.00">stdlib.h</text>
</g>
<!-- Node1&#45;&gt;Node9 -->
<g id="edge16" class="edge"><title>Node1&#45;&gt;Node9</title>
<path fill="none" stroke="midnightblue" d="M437.656,-116.362C447.674,-107.941 461.867,-96.0105 473.501,-86.2308"/>
<polygon fill="midnightblue" stroke="midnightblue" points="476.022,-88.6844 481.425,-79.5707 471.518,-83.326 476.022,-88.6844"/>
</g>
<!-- Node10 -->
<g id="node19" class="node"><title>Node10</title>
<polygon fill="white" stroke="#bfbfbf" points="536,-58.5 536,-79.5 608,-79.5 608,-58.5 536,-58.5"/>
<text text-anchor="middle" x="572" y="-66.5" font-family="Helvetica,sans-Serif" font-size="10.00">cjson/json.h</text>
</g>
<!-- Node1&#45;&gt;Node10 -->
<g id="edge18" class="edge"><title>Node1&#45;&gt;Node10</title>
<path fill="none" stroke="midnightblue" d="M448.618,-117.681C472.11,-108.412 508.474,-94.0648 535.647,-83.3432"/>
<polygon fill="midnightblue" stroke="midnightblue" points="537.185,-86.4993 545.202,-79.5733 534.615,-79.9878 537.185,-86.4993"/>
</g>
<!-- Node11 -->
<g id="node21" class="node"><title>Node11</title>
<polygon fill="white" stroke="#bfbfbf" points="666.5,-0.5 666.5,-21.5 809.5,-21.5 809.5,-0.5 666.5,-0.5"/>
<text text-anchor="middle" x="738" y="-8.5" font-family="Helvetica,sans-Serif" font-size="10.00">luna&#45;service2/lunaservice.h</text>
</g>
<!-- Node1&#45;&gt;Node11 -->
<g id="edge20" class="edge"><title>Node1&#45;&gt;Node11</title>
<path fill="none" stroke="midnightblue" d="M448.77,-125.171C518.365,-119.58 717.993,-101.764 737,-80 748.351,-67.0024 747.245,-46.7872 744.107,-31.5912"/>
<polygon fill="midnightblue" stroke="midnightblue" points="747.428,-30.4436 741.612,-21.5881 740.636,-32.1379 747.428,-30.4436"/>
</g>
<!-- Node12 -->
<g id="node23" class="node"><title>Node12</title>
<a xlink:href="init_8h.htm" target="_top" xlink:title="init.h">
<polygon fill="white" stroke="black" points="690,-58.5 690,-79.5 728,-79.5 728,-58.5 690,-58.5"/>
<text text-anchor="middle" x="709" y="-66.5" font-family="Helvetica,sans-Serif" font-size="10.00">init.h</text>
</a>
</g>
<!-- Node1&#45;&gt;Node12 -->
<g id="edge22" class="edge"><title>Node1&#45;&gt;Node12</title>
<path fill="none" stroke="midnightblue" d="M448.644,-124.209C492.617,-118.693 589.97,-104.943 680.071,-79.8577"/>
<polygon fill="midnightblue" stroke="midnightblue" points="681.224,-83.1686 689.888,-77.0703 679.312,-76.4348 681.224,-83.1686"/>
</g>
<!-- Node13 -->
<g id="node25" class="node"><title>Node13</title>
<a xlink:href="logging_8h.htm" target="_top" xlink:title="logging.h">
<polygon fill="white" stroke="black" points="800.5,-58.5 800.5,-79.5 859.5,-79.5 859.5,-58.5 800.5,-58.5"/>
<text text-anchor="middle" x="830" y="-66.5" font-family="Helvetica,sans-Serif" font-size="10.00">logging.h</text>
</a>
</g>
<!-- Node1&#45;&gt;Node13 -->
<g id="edge24" class="edge"><title>Node1&#45;&gt;Node13</title>
<path fill="none" stroke="midnightblue" d="M448.897,-124.128C505.045,-117.297 649.719,-99.2084 770,-80 776.52,-78.9588 783.422,-77.7724 790.135,-76.5732"/>
<polygon fill="midnightblue" stroke="midnightblue" points="791.232,-79.9311 800.444,-74.6973 789.979,-73.0442 791.232,-79.9311"/>
</g>
<!-- Node15 -->
<g id="node29" class="node"><title>Node15</title>
<a xlink:href="main_8h.htm" target="_top" xlink:title="main.h">
<polygon fill="white" stroke="black" points="625.5,-58.5 625.5,-79.5 672.5,-79.5 672.5,-58.5 625.5,-58.5"/>
<text text-anchor="middle" x="649" y="-66.5" font-family="Helvetica,sans-Serif" font-size="10.00">main.h</text>
</a>
</g>
<!-- Node1&#45;&gt;Node15 -->
<g id="edge28" class="edge"><title>Node1&#45;&gt;Node15</title>
<path fill="none" stroke="midnightblue" d="M448.532,-121.965C483.211,-114.39 550.236,-99.1603 615.673,-80.2308"/>
<polygon fill="midnightblue" stroke="midnightblue" points="616.696,-83.5782 625.312,-77.4116 614.731,-76.8596 616.696,-83.5782"/>
</g>
<!-- Node14 -->
<g id="node27" class="node"><title>Node14</title>
<polygon fill="white" stroke="#bfbfbf" points="827,-0.5 827,-21.5 901,-21.5 901,-0.5 827,-0.5"/>
<text text-anchor="middle" x="864" y="-8.5" font-family="Helvetica,sans-Serif" font-size="10.00">sys/syslog.h</text>
</g>
<!-- Node13&#45;&gt;Node14 -->
<g id="edge26" class="edge"><title>Node13&#45;&gt;Node14</title>
<path fill="none" stroke="midnightblue" d="M836.236,-58.3619C840.837,-50.5131 847.225,-39.6159 852.714,-30.2527"/>
<polygon fill="midnightblue" stroke="midnightblue" points="855.766,-31.9677 857.803,-21.5707 849.727,-28.4276 855.766,-31.9677"/>
</g>
<!-- Node15&#45;&gt;Node5 -->
<g id="edge30" class="edge"><title>Node15&#45;&gt;Node5</title>
<path fill="none" stroke="midnightblue" d="M625.357,-60.4255C622.559,-59.5439 619.728,-58.7121 617,-58 535.639,-36.7647 437.435,-21.7749 388.631,-15.0229"/>
<polygon fill="midnightblue" stroke="midnightblue" points="389.093,-11.5536 378.712,-13.6705 388.147,-18.4894 389.093,-11.5536"/>
</g>
<!-- Node15&#45;&gt;Node11 -->
<g id="edge32" class="edge"><title>Node15&#45;&gt;Node11</title>
<path fill="none" stroke="midnightblue" d="M665.324,-58.3619C678.748,-49.6138 697.983,-37.0786 713.293,-27.1015"/>
<polygon fill="midnightblue" stroke="midnightblue" points="715.312,-29.9628 721.78,-21.5707 711.491,-24.0982 715.312,-29.9628"/>
</g>
<!-- Node16 -->
<g id="node33" class="node"><title>Node16</title>
<polygon fill="white" stroke="#bfbfbf" points="557,-0.5 557,-21.5 649,-21.5 649,-0.5 557,-0.5"/>
<text text-anchor="middle" x="603" y="-8.5" font-family="Helvetica,sans-Serif" font-size="10.00">nyx/nyx_client.h</text>
</g>
<!-- Node15&#45;&gt;Node16 -->
<g id="edge34" class="edge"><title>Node15&#45;&gt;Node16</title>
<path fill="none" stroke="midnightblue" d="M640.563,-58.3619C634.208,-50.3496 625.334,-39.1605 617.807,-29.6696"/>
<polygon fill="midnightblue" stroke="midnightblue" points="620.34,-27.2308 611.384,-21.5707 614.855,-31.5805 620.34,-27.2308"/>
</g>
</g>
</svg>
