<?xml version="1.0" encoding="UTF-8" standalone="no"?>
<!DOCTYPE svg PUBLIC "-//W3C//DTD SVG 1.1//EN"
 "http://www.w3.org/Graphics/SVG/1.1/DTD/svg11.dtd">
<!-- Generated by graphviz version 2.26.3 (20100126.1600)
 -->
<!-- Title: sawmill_logger.c Pages: 1 -->
<svg width="676pt" height="88pt"
 viewBox="0.00 0.00 676.00 88.00" xmlns="http://www.w3.org/2000/svg" xmlns:xlink="http://www.w3.org/1999/xlink">
<g id="graph1" class="graph" transform="scale(1 1) rotate(0) translate(4 84)">
<title>sawmill_logger.c</title>
<polygon fill="white" stroke="white" points="-4,5 -4,-84 673,-84 673,5 -4,5"/>
<!-- Node1 -->
<g id="node1" class="node"><title>Node1</title>
<polygon fill="#bfbfbf" stroke="black" points="251,-58.5 251,-79.5 345,-79.5 345,-58.5 251,-58.5"/>
<text text-anchor="middle" x="298" y="-66.5" font-family="Helvetica,sans-Serif" font-size="10.00">sawmill_logger.c</text>
</g>
<!-- Node2 -->
<g id="node3" class="node"><title>Node2</title>
<polygon fill="white" stroke="#bfbfbf" points="-0.5,-0.5 -0.5,-21.5 40.5,-21.5 40.5,-0.5 -0.5,-0.5"/>
<text text-anchor="middle" x="20" y="-8.5" font-family="Helvetica,sans-Serif" font-size="10.00">glib.h</text>
</g>
<!-- Node1&#45;&gt;Node2 -->
<g id="edge2" class="edge"><title>Node1&#45;&gt;Node2</title>
<path fill="none" stroke="midnightblue" d="M250.619,-62.5956C202.267,-55.4982 125.017,-42.6101 50.7451,-22.1749"/>
<polygon fill="midnightblue" stroke="midnightblue" points="51.3356,-18.7056 40.7621,-19.3766 49.4463,-25.4458 51.3356,-18.7056"/>
</g>
<!-- Node3 -->
<g id="node5" class="node"><title>Node3</title>
<polygon fill="white" stroke="#bfbfbf" points="57.5,-0.5 57.5,-21.5 108.5,-21.5 108.5,-0.5 57.5,-0.5"/>
<text text-anchor="middle" x="83" y="-8.5" font-family="Helvetica,sans-Serif" font-size="10.00">string.h</text>
</g>
<!-- Node1&#45;&gt;Node3 -->
<g id="edge4" class="edge"><title>Node1&#45;&gt;Node3</title>
<path fill="none" stroke="midnightblue" d="M254.282,-58.4137C219.655,-49.8566 169.857,-37.1707 118.228,-22.2603"/>
<polygon fill="midnightblue" stroke="midnightblue" points="119.15,-18.8833 108.57,-19.4508 117.194,-25.6047 119.15,-18.8833"/>
</g>
<!-- Node4 -->
<g id="node7" class="node"><title>Node4</title>
<polygon fill="white" stroke="#bfbfbf" points="125.5,-0.5 125.5,-21.5 178.5,-21.5 178.5,-0.5 125.5,-0.5"/>
<text text-anchor="middle" x="152" y="-8.5" font-family="Helvetica,sans-Serif" font-size="10.00">unistd.h</text>
</g>
<!-- Node1&#45;&gt;Node4 -->
<g id="edge6" class="edge"><title>Node1&#45;&gt;Node4</title>
<path fill="none" stroke="midnightblue" d="M271.561,-58.4966C248.244,-49.2337 214.05,-35.6499 188.196,-25.3793"/>
<polygon fill="midnightblue" stroke="midnightblue" points="189.322,-22.0605 178.736,-21.6212 186.737,-28.566 189.322,-22.0605"/>
</g>
<!-- Node5 -->
<g id="node9" class="node"><title>Node5</title>
<polygon fill="white" stroke="#bfbfbf" points="196,-0.5 196,-21.5 258,-21.5 258,-0.5 196,-0.5"/>
<text text-anchor="middle" x="227" y="-8.5" font-family="Helvetica,sans-Serif" font-size="10.00">pthread.h</text>
</g>
<!-- Node1&#45;&gt;Node5 -->
<g id="edge8" class="edge"><title>Node1&#45;&gt;Node5</title>
<path fill="none" stroke="midnightblue" d="M284.978,-58.3619C274.569,-49.859 259.781,-37.7785 247.745,-27.9466"/>
<polygon fill="midnightblue" stroke="midnightblue" points="249.899,-25.1866 239.94,-21.5707 245.47,-30.6077 249.899,-25.1866"/>
</g>
<!-- Node6 -->
<g id="node11" class="node"><title>Node6</title>
<polygon fill="white" stroke="#bfbfbf" points="276,-0.5 276,-21.5 320,-21.5 320,-0.5 276,-0.5"/>
<text text-anchor="middle" x="298" y="-8.5" font-family="Helvetica,sans-Serif" font-size="10.00">time.h</text>
</g>
<!-- Node1&#45;&gt;Node6 -->
<g id="edge10" class="edge"><title>Node1&#45;&gt;Node6</title>
<path fill="none" stroke="midnightblue" d="M298,-58.3619C298,-50.9219 298,-40.7427 298,-31.7276"/>
<polygon fill="midnightblue" stroke="midnightblue" points="301.5,-31.5706 298,-21.5707 294.5,-31.5707 301.5,-31.5706"/>
</g>
<!-- Node7 -->
<g id="node13" class="node"><title>Node7</title>
<polygon fill="white" stroke="#bfbfbf" points="337.5,-0.5 337.5,-21.5 386.5,-21.5 386.5,-0.5 337.5,-0.5"/>
<text text-anchor="middle" x="362" y="-8.5" font-family="Helvetica,sans-Serif" font-size="10.00">stdlib.h</text>
</g>
<!-- Node1&#45;&gt;Node7 -->
<g id="edge12" class="edge"><title>Node1&#45;&gt;Node7</title>
<path fill="none" stroke="midnightblue" d="M309.739,-58.3619C318.941,-50.0226 331.94,-38.2418 342.672,-28.5162"/>
<polygon fill="midnightblue" stroke="midnightblue" points="345.276,-30.8793 350.336,-21.5707 340.576,-25.6924 345.276,-30.8793"/>
</g>
<!-- Node8 -->
<g id="node15" class="node"><title>Node8</title>
<polygon fill="white" stroke="#bfbfbf" points="403.5,-0.5 403.5,-21.5 546.5,-21.5 546.5,-0.5 403.5,-0.5"/>
<text text-anchor="middle" x="475" y="-8.5" font-family="Helvetica,sans-Serif" font-size="10.00">luna&#45;service2/lunaservice.h</text>
</g>
<!-- Node1&#45;&gt;Node8 -->
<g id="edge14" class="edge"><title>Node1&#45;&gt;Node8</title>
<path fill="none" stroke="midnightblue" d="M330.053,-58.4966C358.909,-49.0411 401.506,-35.0829 433.061,-24.7428"/>
<polygon fill="midnightblue" stroke="midnightblue" points="434.474,-27.963 442.887,-21.5231 432.294,-21.3111 434.474,-27.963"/>
</g>
<!-- Node9 -->
<g id="node17" class="node"><title>Node9</title>
<a xlink:href="init_8h.htm" target="_top" xlink:title="init.h">
<polygon fill="white" stroke="black" points="564,-0.5 564,-21.5 602,-21.5 602,-0.5 564,-0.5"/>
<text text-anchor="middle" x="583" y="-8.5" font-family="Helvetica,sans-Serif" font-size="10.00">init.h</text>
</a>
</g>
<!-- Node1&#45;&gt;Node9 -->
<g id="edge16" class="edge"><title>Node1&#45;&gt;Node9</title>
<path fill="none" stroke="midnightblue" d="M345.051,-63.1807C394.933,-56.3966 476.03,-43.6148 553.916,-21.9067"/>
<polygon fill="midnightblue" stroke="midnightblue" points="555.227,-25.1728 563.889,-19.0721 553.313,-18.4395 555.227,-25.1728"/>
</g>
<!-- Node10 -->
<g id="node19" class="node"><title>Node10</title>
<a xlink:href="sysfs_8h.htm" target="_top" xlink:title="sysfs.h">
<polygon fill="white" stroke="black" points="619.5,-0.5 619.5,-21.5 668.5,-21.5 668.5,-0.5 619.5,-0.5"/>
<text text-anchor="middle" x="644" y="-8.5" font-family="Helvetica,sans-Serif" font-size="10.00">sysfs.h</text>
</a>
</g>
<!-- Node1&#45;&gt;Node10 -->
<g id="edge18" class="edge"><title>Node1&#45;&gt;Node10</title>
<path fill="none" stroke="midnightblue" d="M345.151,-64.4865C404.851,-58.2076 510.91,-45.1751 609.45,-22.0936"/>
<polygon fill="midnightblue" stroke="midnightblue" points="610.351,-25.477 619.267,-19.7542 608.728,-18.6677 610.351,-25.477"/>
</g>
</g>
</svg>
