<?xml version="1.0" encoding="UTF-8" standalone="no"?>
<!DOCTYPE svg PUBLIC "-//W3C//DTD SVG 1.1//EN"
 "http://www.w3.org/Graphics/SVG/1.1/DTD/svg11.dtd">
<!-- Generated by graphviz version 2.26.3 (20100126.1600)
 -->
<!-- Title: shutdown.c Pages: 1 -->
<svg width="743pt" height="146pt"
 viewBox="0.00 0.00 743.00 146.00" xmlns="http://www.w3.org/2000/svg" xmlns:xlink="http://www.w3.org/1999/xlink">
<g id="graph1" class="graph" transform="scale(1 1) rotate(0) translate(4 142)">
<title>shutdown.c</title>
<polygon fill="white" stroke="white" points="-4,5 -4,-142 740,-142 740,5 -4,5"/>
<!-- Node1 -->
<g id="node1" class="node"><title>Node1</title>
<polygon fill="#bfbfbf" stroke="black" points="333.5,-116.5 333.5,-137.5 402.5,-137.5 402.5,-116.5 333.5,-116.5"/>
<text text-anchor="middle" x="368" y="-124.5" font-family="Helvetica,sans-Serif" font-size="10.00">shutdown.c</text>
</g>
<!-- Node2 -->
<g id="node3" class="node"><title>Node2</title>
<polygon fill="white" stroke="#bfbfbf" points="322.5,-0.5 322.5,-21.5 363.5,-21.5 363.5,-0.5 322.5,-0.5"/>
<text text-anchor="middle" x="343" y="-8.5" font-family="Helvetica,sans-Serif" font-size="10.00">glib.h</text>
</g>
<!-- Node1&#45;&gt;Node2 -->
<g id="edge2" class="edge"><title>Node1&#45;&gt;Node2</title>
<path fill="none" stroke="midnightblue" d="M371.593,-116.46C375.718,-102.703 381.169,-78.0219 375,-58 371.841,-47.7466 365.596,-37.7278 359.455,-29.5925"/>
<polygon fill="midnightblue" stroke="midnightblue" points="361.991,-27.1612 352.984,-21.5822 356.546,-31.5603 361.991,-27.1612"/>
</g>
<!-- Node3 -->
<g id="node5" class="node"><title>Node3</title>
<polygon fill="white" stroke="#bfbfbf" points="120,-58.5 120,-79.5 192,-79.5 192,-58.5 120,-58.5"/>
<text text-anchor="middle" x="156" y="-66.5" font-family="Helvetica,sans-Serif" font-size="10.00">cjson/json.h</text>
</g>
<!-- Node1&#45;&gt;Node3 -->
<g id="edge4" class="edge"><title>Node1&#45;&gt;Node3</title>
<path fill="none" stroke="midnightblue" d="M333.467,-117.552C297.665,-107.757 241.503,-92.3923 201.966,-81.5755"/>
<polygon fill="midnightblue" stroke="midnightblue" points="202.864,-78.1926 192.294,-78.9296 201.016,-84.9445 202.864,-78.1926"/>
</g>
<!-- Node4 -->
<g id="node7" class="node"><title>Node4</title>
<polygon fill="white" stroke="#bfbfbf" points="209.5,-58.5 209.5,-79.5 264.5,-79.5 264.5,-58.5 209.5,-58.5"/>
<text text-anchor="middle" x="237" y="-66.5" font-family="Helvetica,sans-Serif" font-size="10.00">syslog.h</text>
</g>
<!-- Node1&#45;&gt;Node4 -->
<g id="edge6" class="edge"><title>Node1&#45;&gt;Node4</title>
<path fill="none" stroke="midnightblue" d="M344.277,-116.497C323.632,-107.356 293.484,-94.0082 270.401,-83.7883"/>
<polygon fill="midnightblue" stroke="midnightblue" points="271.55,-80.4694 260.989,-79.6212 268.716,-86.8701 271.55,-80.4694"/>
</g>
<!-- Node5 -->
<g id="node9" class="node"><title>Node5</title>
<polygon fill="white" stroke="#bfbfbf" points="52.5,-0.5 52.5,-21.5 195.5,-21.5 195.5,-0.5 52.5,-0.5"/>
<text text-anchor="middle" x="124" y="-8.5" font-family="Helvetica,sans-Serif" font-size="10.00">luna&#45;service2/lunaservice.h</text>
</g>
<!-- Node1&#45;&gt;Node5 -->
<g id="edge8" class="edge"><title>Node1&#45;&gt;Node5</title>
<path fill="none" stroke="midnightblue" d="M356.23,-116.485C339.047,-101.614 305.583,-74.4228 273,-58 243.749,-43.2569 208.939,-31.9645 180.323,-24.148"/>
<polygon fill="midnightblue" stroke="midnightblue" points="181.043,-20.7178 170.479,-21.5282 179.243,-27.4823 181.043,-20.7178"/>
</g>
<!-- Node6 -->
<g id="node11" class="node"><title>Node6</title>
<a xlink:href="lunaservice__utils_8h.htm" target="_top" xlink:title="lunaservice_utils.h">
<polygon fill="white" stroke="black" points="0,-58.5 0,-79.5 102,-79.5 102,-58.5 0,-58.5"/>
<text text-anchor="middle" x="51" y="-66.5" font-family="Helvetica,sans-Serif" font-size="10.00">lunaservice_utils.h</text>
</a>
</g>
<!-- Node1&#45;&gt;Node6 -->
<g id="edge10" class="edge"><title>Node1&#45;&gt;Node6</title>
<path fill="none" stroke="midnightblue" d="M333.497,-120.695C285.998,-112.014 197.521,-95.8404 111.942,-80.1719"/>
<polygon fill="midnightblue" stroke="midnightblue" points="112.53,-76.7215 102.063,-78.3631 111.269,-83.607 112.53,-76.7215"/>
</g>
<!-- Node7 -->
<g id="node14" class="node"><title>Node7</title>
<a xlink:href="debug_8h.htm" target="_top" xlink:title="debug.h">
<polygon fill="white" stroke="black" points="421.5,-58.5 421.5,-79.5 474.5,-79.5 474.5,-58.5 421.5,-58.5"/>
<text text-anchor="middle" x="448" y="-66.5" font-family="Helvetica,sans-Serif" font-size="10.00">debug.h</text>
</a>
</g>
<!-- Node1&#45;&gt;Node7 -->
<g id="edge14" class="edge"><title>Node1&#45;&gt;Node7</title>
<path fill="none" stroke="midnightblue" d="M382.673,-116.362C394.514,-107.777 411.385,-95.5459 425.016,-85.6636"/>
<polygon fill="midnightblue" stroke="midnightblue" points="427.378,-88.274 433.42,-79.5707 423.269,-82.6067 427.378,-88.274"/>
</g>
<!-- Node12 -->
<g id="node25" class="node"><title>Node12</title>
<a xlink:href="main_8h.htm" target="_top" xlink:title="main.h">
<polygon fill="white" stroke="black" points="319.5,-58.5 319.5,-79.5 366.5,-79.5 366.5,-58.5 319.5,-58.5"/>
<text text-anchor="middle" x="343" y="-66.5" font-family="Helvetica,sans-Serif" font-size="10.00">main.h</text>
</a>
</g>
<!-- Node1&#45;&gt;Node12 -->
<g id="edge26" class="edge"><title>Node1&#45;&gt;Node12</title>
<path fill="none" stroke="midnightblue" d="M363.415,-116.362C360.102,-108.677 355.53,-98.0686 351.552,-88.8399"/>
<polygon fill="midnightblue" stroke="midnightblue" points="354.729,-87.3685 347.556,-79.5707 348.301,-90.1393 354.729,-87.3685"/>
</g>
<!-- Node14 -->
<g id="node31" class="node"><title>Node14</title>
<a xlink:href="logging_8h.htm" target="_top" xlink:title="logging.h">
<polygon fill="white" stroke="black" points="573.5,-58.5 573.5,-79.5 632.5,-79.5 632.5,-58.5 573.5,-58.5"/>
<text text-anchor="middle" x="603" y="-66.5" font-family="Helvetica,sans-Serif" font-size="10.00">logging.h</text>
</a>
</g>
<!-- Node1&#45;&gt;Node14 -->
<g id="edge34" class="edge"><title>Node1&#45;&gt;Node14</title>
<path fill="none" stroke="midnightblue" d="M402.643,-119.26C440.084,-110.779 501.729,-96.4827 563.291,-80.3805"/>
<polygon fill="midnightblue" stroke="midnightblue" points="564.387,-83.7113 573.166,-77.7813 562.605,-76.9418 564.387,-83.7113"/>
</g>
<!-- Node16 -->
<g id="node35" class="node"><title>Node16</title>
<a xlink:href="machine_8h.htm" target="_top" xlink:title="machine.h">
<polygon fill="white" stroke="black" points="491.5,-58.5 491.5,-79.5 556.5,-79.5 556.5,-58.5 491.5,-58.5"/>
<text text-anchor="middle" x="524" y="-66.5" font-family="Helvetica,sans-Serif" font-size="10.00">machine.h</text>
</a>
</g>
<!-- Node1&#45;&gt;Node16 -->
<g id="edge38" class="edge"><title>Node1&#45;&gt;Node16</title>
<path fill="none" stroke="midnightblue" d="M396.25,-116.497C421.462,-107.123 458.576,-93.3242 486.312,-83.0122"/>
<polygon fill="midnightblue" stroke="midnightblue" points="487.543,-86.2886 495.697,-79.5231 485.104,-79.7274 487.543,-86.2886"/>
</g>
<!-- Node17 -->
<g id="node38" class="node"><title>Node17</title>
<a xlink:href="init_8h.htm" target="_top" xlink:title="init.h">
<polygon fill="white" stroke="black" points="650,-58.5 650,-79.5 688,-79.5 688,-58.5 650,-58.5"/>
<text text-anchor="middle" x="669" y="-66.5" font-family="Helvetica,sans-Serif" font-size="10.00">init.h</text>
</a>
</g>
<!-- Node1&#45;&gt;Node17 -->
<g id="edge42" class="edge"><title>Node1&#45;&gt;Node17</title>
<path fill="none" stroke="midnightblue" d="M402.545,-123.342C453.004,-117.507 549.813,-104.447 640.06,-79.8358"/>
<polygon fill="midnightblue" stroke="midnightblue" points="641.2,-83.1515 649.896,-77.0993 639.324,-76.4077 641.2,-83.1515"/>
</g>
<!-- Node6&#45;&gt;Node5 -->
<g id="edge12" class="edge"><title>Node6&#45;&gt;Node5</title>
<path fill="none" stroke="midnightblue" d="M64.3893,-58.3619C75.0912,-49.859 90.296,-37.7785 102.671,-27.9466"/>
<polygon fill="midnightblue" stroke="midnightblue" points="105.043,-30.5318 110.696,-21.5707 100.689,-25.0511 105.043,-30.5318"/>
</g>
<!-- Node7&#45;&gt;Node2 -->
<g id="edge20" class="edge"><title>Node7&#45;&gt;Node2</title>
<path fill="none" stroke="midnightblue" d="M428.741,-58.3619C412.534,-49.4094 389.147,-36.4908 370.891,-26.4064"/>
<polygon fill="midnightblue" stroke="midnightblue" points="372.582,-23.3422 362.137,-21.5707 369.198,-29.4696 372.582,-23.3422"/>
</g>
<!-- Node8 -->
<g id="node16" class="node"><title>Node8</title>
<polygon fill="white" stroke="#bfbfbf" points="448.5,-0.5 448.5,-21.5 495.5,-21.5 495.5,-0.5 448.5,-0.5"/>
<text text-anchor="middle" x="472" y="-8.5" font-family="Helvetica,sans-Serif" font-size="10.00">stdio.h</text>
</g>
<!-- Node7&#45;&gt;Node8 -->
<g id="edge16" class="edge"><title>Node7&#45;&gt;Node8</title>
<path fill="none" stroke="midnightblue" d="M452.402,-58.3619C455.582,-50.6766 459.972,-40.0686 463.79,-30.8399"/>
<polygon fill="midnightblue" stroke="midnightblue" points="467.036,-32.1491 467.626,-21.5707 460.568,-29.4726 467.036,-32.1491"/>
</g>
<!-- Node9 -->
<g id="node18" class="node"><title>Node9</title>
<polygon fill="white" stroke="#bfbfbf" points="513,-0.5 513,-21.5 567,-21.5 567,-0.5 513,-0.5"/>
<text text-anchor="middle" x="540" y="-8.5" font-family="Helvetica,sans-Serif" font-size="10.00">assert.h</text>
</g>
<!-- Node7&#45;&gt;Node9 -->
<g id="edge18" class="edge"><title>Node7&#45;&gt;Node9</title>
<path fill="none" stroke="midnightblue" d="M464.874,-58.3619C478.751,-49.6138 498.634,-37.0786 514.46,-27.1015"/>
<polygon fill="midnightblue" stroke="midnightblue" points="516.64,-29.8645 523.233,-21.5707 512.907,-23.943 516.64,-29.8645"/>
</g>
<!-- Node10 -->
<g id="node21" class="node"><title>Node10</title>
<polygon fill="white" stroke="#bfbfbf" points="380.5,-0.5 380.5,-21.5 431.5,-21.5 431.5,-0.5 380.5,-0.5"/>
<text text-anchor="middle" x="406" y="-8.5" font-family="Helvetica,sans-Serif" font-size="10.00">string.h</text>
</g>
<!-- Node7&#45;&gt;Node10 -->
<g id="edge22" class="edge"><title>Node7&#45;&gt;Node10</title>
<path fill="none" stroke="midnightblue" d="M440.297,-58.3619C434.554,-50.4313 426.557,-39.3885 419.73,-29.9606"/>
<polygon fill="midnightblue" stroke="midnightblue" points="422.355,-27.6173 413.655,-21.5707 416.685,-31.7229 422.355,-27.6173"/>
</g>
<!-- Node11 -->
<g id="node23" class="node"><title>Node11</title>
<polygon fill="white" stroke="#bfbfbf" points="584.5,-0.5 584.5,-21.5 643.5,-21.5 643.5,-0.5 584.5,-0.5"/>
<text text-anchor="middle" x="614" y="-8.5" font-family="Helvetica,sans-Serif" font-size="10.00">stdbool.h</text>
</g>
<!-- Node7&#45;&gt;Node11 -->
<g id="edge24" class="edge"><title>Node7&#45;&gt;Node11</title>
<path fill="none" stroke="midnightblue" d="M474.671,-59.6813C501.713,-50.2327 543.861,-35.5064 574.722,-24.7236"/>
<polygon fill="midnightblue" stroke="midnightblue" points="576.026,-27.9755 584.312,-21.3729 573.717,-21.3673 576.026,-27.9755"/>
</g>
<!-- Node12&#45;&gt;Node2 -->
<g id="edge28" class="edge"><title>Node12&#45;&gt;Node2</title>
<path fill="none" stroke="midnightblue" d="M343,-58.3619C343,-50.9219 343,-40.7427 343,-31.7276"/>
<polygon fill="midnightblue" stroke="midnightblue" points="346.5,-31.5706 343,-21.5707 339.5,-31.5707 346.5,-31.5706"/>
</g>
<!-- Node12&#45;&gt;Node5 -->
<g id="edge30" class="edge"><title>Node12&#45;&gt;Node5</title>
<path fill="none" stroke="midnightblue" d="M319.152,-61.772C314.785,-60.4877 310.262,-59.1834 306,-58 262.6,-45.949 213.093,-33.2304 176.681,-24.0671"/>
<polygon fill="midnightblue" stroke="midnightblue" points="177.325,-20.6203 166.774,-21.5804 175.621,-27.4097 177.325,-20.6203"/>
</g>
<!-- Node13 -->
<g id="node29" class="node"><title>Node13</title>
<polygon fill="white" stroke="#bfbfbf" points="213,-0.5 213,-21.5 305,-21.5 305,-0.5 213,-0.5"/>
<text text-anchor="middle" x="259" y="-8.5" font-family="Helvetica,sans-Serif" font-size="10.00">nyx/nyx_client.h</text>
</g>
<!-- Node12&#45;&gt;Node13 -->
<g id="edge32" class="edge"><title>Node12&#45;&gt;Node13</title>
<path fill="none" stroke="midnightblue" d="M327.593,-58.3619C315.042,-49.6955 297.108,-37.3126 282.725,-27.3819"/>
<polygon fill="midnightblue" stroke="midnightblue" points="284.527,-24.3725 274.309,-21.5707 280.55,-30.1327 284.527,-24.3725"/>
</g>
<!-- Node15 -->
<g id="node33" class="node"><title>Node15</title>
<polygon fill="white" stroke="#bfbfbf" points="661,-0.5 661,-21.5 735,-21.5 735,-0.5 661,-0.5"/>
<text text-anchor="middle" x="698" y="-8.5" font-family="Helvetica,sans-Serif" font-size="10.00">sys/syslog.h</text>
</g>
<!-- Node14&#45;&gt;Node15 -->
<g id="edge36" class="edge"><title>Node14&#45;&gt;Node15</title>
<path fill="none" stroke="midnightblue" d="M620.424,-58.3619C634.887,-49.532 655.669,-36.844 672.084,-26.8224"/>
<polygon fill="midnightblue" stroke="midnightblue" points="673.975,-29.7688 680.686,-21.5707 670.327,-23.7943 673.975,-29.7688"/>
</g>
<!-- Node16&#45;&gt;Node11 -->
<g id="edge40" class="edge"><title>Node16&#45;&gt;Node11</title>
<path fill="none" stroke="midnightblue" d="M540.507,-58.3619C554.082,-49.6138 573.533,-37.0786 589.015,-27.1015"/>
<polygon fill="midnightblue" stroke="midnightblue" points="591.088,-29.9297 597.597,-21.5707 587.296,-24.0457 591.088,-29.9297"/>
</g>
</g>
</svg>
