<?xml version="1.0" encoding="UTF-8" standalone="no"?>
<!DOCTYPE svg PUBLIC "-//W3C//DTD SVG 1.1//EN"
 "http://www.w3.org/Graphics/SVG/1.1/DTD/svg11.dtd">
<!-- Generated by graphviz version 2.26.3 (20100126.1600)
 -->
<!-- Title: smartsql.c Pages: 1 -->
<svg width="510pt" height="146pt"
 viewBox="0.00 0.00 510.00 146.00" xmlns="http://www.w3.org/2000/svg" xmlns:xlink="http://www.w3.org/1999/xlink">
<g id="graph1" class="graph" transform="scale(1 1) rotate(0) translate(4 142)">
<title>smartsql.c</title>
<polygon fill="white" stroke="white" points="-4,5 -4,-142 507,-142 507,5 -4,5"/>
<!-- Node1 -->
<g id="node1" class="node"><title>Node1</title>
<polygon fill="#bfbfbf" stroke="black" points="174,-116.5 174,-137.5 238,-137.5 238,-116.5 174,-116.5"/>
<text text-anchor="middle" x="206" y="-124.5" font-family="Helvetica,sans-Serif" font-size="10.00">smartsql.c</text>
</g>
<!-- Node2 -->
<g id="node3" class="node"><title>Node2</title>
<polygon fill="white" stroke="#bfbfbf" points="0,-58.5 0,-79.5 56,-79.5 56,-58.5 0,-58.5"/>
<text text-anchor="middle" x="28" y="-66.5" font-family="Helvetica,sans-Serif" font-size="10.00">sqlite3.h</text>
</g>
<!-- Node1&#45;&gt;Node2 -->
<g id="edge2" class="edge"><title>Node1&#45;&gt;Node2</title>
<path fill="none" stroke="midnightblue" d="M173.766,-116.497C143.481,-106.629 98.1466,-91.8568 66.0896,-81.4112"/>
<polygon fill="midnightblue" stroke="midnightblue" points="66.7762,-77.9539 56.1839,-78.1835 64.6075,-84.6095 66.7762,-77.9539"/>
</g>
<!-- Node3 -->
<g id="node5" class="node"><title>Node3</title>
<polygon fill="white" stroke="#bfbfbf" points="73.5,-58.5 73.5,-79.5 132.5,-79.5 132.5,-58.5 73.5,-58.5"/>
<text text-anchor="middle" x="103" y="-66.5" font-family="Helvetica,sans-Serif" font-size="10.00">stdbool.h</text>
</g>
<!-- Node1&#45;&gt;Node3 -->
<g id="edge4" class="edge"><title>Node1&#45;&gt;Node3</title>
<path fill="none" stroke="midnightblue" d="M187.108,-116.362C171.282,-107.45 148.477,-94.6087 130.605,-84.5447"/>
<polygon fill="midnightblue" stroke="midnightblue" points="132.203,-81.4276 121.772,-79.5707 128.768,-87.5271 132.203,-81.4276"/>
</g>
<!-- Node4 -->
<g id="node7" class="node"><title>Node4</title>
<polygon fill="white" stroke="#bfbfbf" points="149.5,-58.5 149.5,-79.5 200.5,-79.5 200.5,-58.5 149.5,-58.5"/>
<text text-anchor="middle" x="175" y="-66.5" font-family="Helvetica,sans-Serif" font-size="10.00">string.h</text>
</g>
<!-- Node1&#45;&gt;Node4 -->
<g id="edge6" class="edge"><title>Node1&#45;&gt;Node4</title>
<path fill="none" stroke="midnightblue" d="M200.314,-116.362C196.163,-108.595 190.416,-97.8426 185.447,-88.5458"/>
<polygon fill="midnightblue" stroke="midnightblue" points="188.45,-86.7401 180.65,-79.5707 182.277,-90.0398 188.45,-86.7401"/>
</g>
<!-- Node5 -->
<g id="node9" class="node"><title>Node5</title>
<polygon fill="white" stroke="#bfbfbf" points="217.5,-58.5 217.5,-79.5 258.5,-79.5 258.5,-58.5 217.5,-58.5"/>
<text text-anchor="middle" x="238" y="-66.5" font-family="Helvetica,sans-Serif" font-size="10.00">glib.h</text>
</g>
<!-- Node1&#45;&gt;Node5 -->
<g id="edge8" class="edge"><title>Node1&#45;&gt;Node5</title>
<path fill="none" stroke="midnightblue" d="M211.869,-116.362C216.155,-108.595 222.087,-97.8426 227.216,-88.5458"/>
<polygon fill="midnightblue" stroke="midnightblue" points="230.402,-90.0172 232.168,-79.5707 224.273,-86.6357 230.402,-90.0172"/>
</g>
<!-- Node6 -->
<g id="node11" class="node"><title>Node6</title>
<polygon fill="white" stroke="#bfbfbf" points="275.5,-58.5 275.5,-79.5 418.5,-79.5 418.5,-58.5 275.5,-58.5"/>
<text text-anchor="middle" x="347" y="-66.5" font-family="Helvetica,sans-Serif" font-size="10.00">luna&#45;service2/lunaservice.h</text>
</g>
<!-- Node1&#45;&gt;Node6 -->
<g id="edge10" class="edge"><title>Node1&#45;&gt;Node6</title>
<path fill="none" stroke="midnightblue" d="M231.534,-116.497C253.953,-107.275 286.785,-93.7695 311.713,-83.5153"/>
<polygon fill="midnightblue" stroke="midnightblue" points="313.263,-86.6623 321.179,-79.6212 310.6,-80.1886 313.263,-86.6623"/>
</g>
<!-- Node7 -->
<g id="node13" class="node"><title>Node7</title>
<a xlink:href="logging_8h.htm" target="_top" xlink:title="logging.h">
<polygon fill="white" stroke="black" points="435.5,-58.5 435.5,-79.5 494.5,-79.5 494.5,-58.5 435.5,-58.5"/>
<text text-anchor="middle" x="465" y="-66.5" font-family="Helvetica,sans-Serif" font-size="10.00">logging.h</text>
</a>
</g>
<!-- Node1&#45;&gt;Node7 -->
<g id="edge12" class="edge"><title>Node1&#45;&gt;Node7</title>
<path fill="none" stroke="midnightblue" d="M238.006,-120.947C279.203,-112.992 353.192,-98.1532 425.061,-80.3785"/>
<polygon fill="midnightblue" stroke="midnightblue" points="426.33,-83.6692 435.185,-77.8513 424.635,-76.8777 426.33,-83.6692"/>
</g>
<!-- Node8 -->
<g id="node15" class="node"><title>Node8</title>
<polygon fill="white" stroke="#bfbfbf" points="428,-0.5 428,-21.5 502,-21.5 502,-0.5 428,-0.5"/>
<text text-anchor="middle" x="465" y="-8.5" font-family="Helvetica,sans-Serif" font-size="10.00">sys/syslog.h</text>
</g>
<!-- Node7&#45;&gt;Node8 -->
<g id="edge14" class="edge"><title>Node7&#45;&gt;Node8</title>
<path fill="none" stroke="midnightblue" d="M465,-58.3619C465,-50.9219 465,-40.7427 465,-31.7276"/>
<polygon fill="midnightblue" stroke="midnightblue" points="468.5,-31.5706 465,-21.5707 461.5,-31.5707 468.5,-31.5706"/>
</g>
</g>
</svg>
