<?xml version="1.0" encoding="UTF-8" standalone="no"?>
<!DOCTYPE svg PUBLIC "-//W3C//DTD SVG 1.1//EN"
 "http://www.w3.org/Graphics/SVG/1.1/DTD/svg11.dtd">
<!-- Generated by graphviz version 2.26.3 (20100126.1600)
 -->
<!-- Title: ShutdownEvent Pages: 1 -->
<svg width="302pt" height="186pt"
 viewBox="0.00 0.00 302.00 186.00" xmlns="http://www.w3.org/2000/svg" xmlns:xlink="http://www.w3.org/1999/xlink">
<g id="graph1" class="graph" transform="scale(1 1) rotate(0) translate(4 182)">
<title>ShutdownEvent</title>
<polygon fill="white" stroke="white" points="-4,5 -4,-182 299,-182 299,5 -4,5"/>
<!-- Node1 -->
<g id="node1" class="node"><title>Node1</title>
<polygon fill="#bfbfbf" stroke="black" points="50,-0.5 50,-21.5 140,-21.5 140,-0.5 50,-0.5"/>
<text text-anchor="middle" x="95" y="-8.5" font-family="Helvetica,sans-Serif" font-size="10.00">ShutdownEvent</text>
</g>
<!-- Node2 -->
<g id="node2" class="node"><title>Node2</title>
<polygon fill="white" stroke="#bfbfbf" points="0,-72.5 0,-93.5 114,-93.5 114,-72.5 0,-72.5"/>
<text text-anchor="middle" x="57" y="-80.5" font-family="Helvetica,sans-Serif" font-size="10.00">ShutdownEventType</text>
</g>
<!-- Node2&#45;&gt;Node1 -->
<g id="edge2" class="edge"><title>Node2&#45;&gt;Node1</title>
<path fill="none" stroke="#9a32cd" stroke-dasharray="5,2" d="M67.3342,-63.4193C74.4307,-49.9734 83.5798,-32.6384 89.37,-21.6674"/>
<polygon fill="#9a32cd" stroke="#9a32cd" points="64.1793,-61.8986 62.607,-72.3762 70.37,-65.166 64.1793,-61.8986"/>
<text text-anchor="middle" x="86" y="-44.5" font-family="Helvetica,sans-Serif" font-size="10.00"> id</text>
</g>
<!-- Node3 -->
<g id="node4" class="node"><title>Node3</title>
<a xlink:href="structShutdownClient.htm" target="_top" xlink:title="Client information.">
<polygon fill="white" stroke="black" points="132,-72.5 132,-93.5 222,-93.5 222,-72.5 132,-72.5"/>
<text text-anchor="middle" x="177" y="-80.5" font-family="Helvetica,sans-Serif" font-size="10.00">ShutdownClient</text>
</a>
</g>
<!-- Node3&#45;&gt;Node1 -->
<g id="edge4" class="edge"><title>Node3&#45;&gt;Node1</title>
<path fill="none" stroke="#9a32cd" stroke-dasharray="5,2" d="M157.329,-65.7275C141.711,-52.0146 120.372,-33.2774 107.149,-21.6674"/>
<polygon fill="#9a32cd" stroke="#9a32cd" points="155.077,-68.4082 164.901,-72.3762 159.696,-63.1481 155.077,-68.4082"/>
<text text-anchor="middle" x="158" y="-44.5" font-family="Helvetica,sans-Serif" font-size="10.00"> client</text>
</g>
<!-- Node4 -->
<g id="node6" class="node"><title>Node4</title>
<polygon fill="white" stroke="#bfbfbf" points="67.5,-156.5 67.5,-177.5 114.5,-177.5 114.5,-156.5 67.5,-156.5"/>
<text text-anchor="middle" x="91" y="-164.5" font-family="Helvetica,sans-Serif" font-size="10.00">double</text>
</g>
<!-- Node4&#45;&gt;Node3 -->
<g id="edge6" class="edge"><title>Node4&#45;&gt;Node3</title>
<path fill="none" stroke="#9a32cd" stroke-dasharray="5,2" d="M102.851,-147.744C110.34,-136.519 120.713,-122.543 132,-112 139.471,-105.021 148.83,-98.6854 157.075,-93.7287"/>
<polygon fill="#9a32cd" stroke="#9a32cd" points="99.7546,-146.088 97.2823,-156.39 105.64,-149.878 99.7546,-146.088"/>
<text text-anchor="middle" x="152.5" y="-122.5" font-family="Helvetica,sans-Serif" font-size="10.00"> elapsed</text>
</g>
<!-- Node5 -->
<g id="node8" class="node"><title>Node5</title>
<polygon fill="white" stroke="#bfbfbf" points="132,-156.5 132,-177.5 222,-177.5 222,-156.5 132,-156.5"/>
<text text-anchor="middle" x="177" y="-164.5" font-family="Helvetica,sans-Serif" font-size="10.00">ShutdownReply</text>
</g>
<!-- Node5&#45;&gt;Node3 -->
<g id="edge8" class="edge"><title>Node5&#45;&gt;Node3</title>
<path fill="none" stroke="#9a32cd" stroke-dasharray="5,2" d="M177,-145.945C177,-129.257 177,-106.639 177,-93.5523"/>
<polygon fill="#9a32cd" stroke="#9a32cd" points="173.5,-146.361 177,-156.361 180.5,-146.361 173.5,-146.361"/>
<text text-anchor="middle" x="212.5" y="-122.5" font-family="Helvetica,sans-Serif" font-size="10.00"> ack_shutdown</text>
</g>
<!-- Node6 -->
<g id="node10" class="node"><title>Node6</title>
<polygon fill="white" stroke="#bfbfbf" points="248,-156.5 248,-177.5 294,-177.5 294,-156.5 248,-156.5"/>
<text text-anchor="middle" x="271" y="-164.5" font-family="Helvetica,sans-Serif" font-size="10.00">char *</text>
</g>
<!-- Node6&#45;&gt;Node3 -->
<g id="edge10" class="edge"><title>Node6&#45;&gt;Node3</title>
<path fill="none" stroke="#9a32cd" stroke-dasharray="5,2" d="M266.921,-146.305C263.738,-134.922 258.247,-121.269 249,-112 240.815,-103.795 230.004,-97.8305 219.255,-93.5264"/>
<polygon fill="#9a32cd" stroke="#9a32cd" points="263.583,-147.396 269.314,-156.307 270.391,-145.767 263.583,-147.396"/>
<text text-anchor="middle" x="277.5" y="-129" font-family="Helvetica,sans-Serif" font-size="10.00"> id</text>
<text text-anchor="middle" x="277.5" y="-116" font-family="Helvetica,sans-Serif" font-size="10.00">name</text>
</g>
</g>
</svg>
