<?xml version="1.0" encoding="UTF-8" standalone="no"?>
<!DOCTYPE svg PUBLIC "-//W3C//DTD SVG 1.1//EN"
 "http://www.w3.org/Graphics/SVG/1.1/DTD/svg11.dtd">
<!-- Generated by graphviz version 2.26.3 (20100126.1600)
 -->
<!-- Title: _Alarm Pages: 1 -->
<svg width="344pt" height="128pt"
 viewBox="0.00 0.00 344.00 128.00" xmlns="http://www.w3.org/2000/svg" xmlns:xlink="http://www.w3.org/1999/xlink">
<g id="graph1" class="graph" transform="scale(1 1) rotate(0) translate(4 124)">
<title>_Alarm</title>
<polygon fill="white" stroke="white" points="-4,5 -4,-124 341,-124 341,5 -4,5"/>
<!-- Node1 -->
<g id="node1" class="node"><title>Node1</title>
<polygon fill="#bfbfbf" stroke="black" points="96,-0.5 96,-21.5 146,-21.5 146,-0.5 96,-0.5"/>
<text text-anchor="middle" x="121" y="-8.5" font-family="Helvetica,sans-Serif" font-size="10.00">_Alarm</text>
</g>
<!-- Node2 -->
<g id="node2" class="node"><title>Node2</title>
<polygon fill="white" stroke="#bfbfbf" points="-0.5,-98.5 -0.5,-119.5 44.5,-119.5 44.5,-98.5 -0.5,-98.5"/>
<text text-anchor="middle" x="22" y="-106.5" font-family="Helvetica,sans-Serif" font-size="10.00">time_t</text>
</g>
<!-- Node2&#45;&gt;Node1 -->
<g id="edge2" class="edge"><title>Node2&#45;&gt;Node1</title>
<path fill="none" stroke="#9a32cd" stroke-dasharray="5,2" d="M26.2432,-88.2714C30.2975,-73.1652 37.8056,-53.1271 51,-40 63.2162,-27.8461 81.2598,-20.5372 95.9679,-16.2972"/>
<polygon fill="#9a32cd" stroke="#9a32cd" points="22.7835,-87.6909 23.8694,-98.23 29.5928,-89.314 22.7835,-87.6909"/>
<text text-anchor="middle" x="67" y="-57.5" font-family="Helvetica,sans-Serif" font-size="10.00"> expiry</text>
</g>
<!-- Node3 -->
<g id="node4" class="node"><title>Node3</title>
<polygon fill="white" stroke="#bfbfbf" points="61.5,-98.5 61.5,-119.5 90.5,-119.5 90.5,-98.5 61.5,-98.5"/>
<text text-anchor="middle" x="76" y="-106.5" font-family="Helvetica,sans-Serif" font-size="10.00">int</text>
</g>
<!-- Node3&#45;&gt;Node1 -->
<g id="edge4" class="edge"><title>Node3&#45;&gt;Node1</title>
<path fill="none" stroke="#9a32cd" stroke-dasharray="5,2" d="M83.4437,-88.4503C88.6959,-74.548 96.1676,-55.8943 104,-40 107.096,-33.7181 111.024,-26.9534 114.325,-21.5388"/>
<polygon fill="#9a32cd" stroke="#9a32cd" points="80.0864,-87.4378 79.8909,-98.0308 86.6496,-89.8718 80.0864,-87.4378"/>
<text text-anchor="middle" x="110" y="-57.5" font-family="Helvetica,sans-Serif" font-size="10.00"> id</text>
</g>
<!-- Node4 -->
<g id="node6" class="node"><title>Node4</title>
<polygon fill="white" stroke="#bfbfbf" points="108,-98.5 108,-119.5 144,-119.5 144,-98.5 108,-98.5"/>
<text text-anchor="middle" x="126" y="-106.5" font-family="Helvetica,sans-Serif" font-size="10.00">bool</text>
</g>
<!-- Node4&#45;&gt;Node1 -->
<g id="edge6" class="edge"><title>Node4&#45;&gt;Node1</title>
<path fill="none" stroke="#9a32cd" stroke-dasharray="5,2" d="M122.819,-88.2024C122.489,-85.4496 122.202,-82.6606 122,-80 120.44,-59.4528 120.525,-35.3682 120.748,-21.7749"/>
<polygon fill="#9a32cd" stroke="#9a32cd" points="119.376,-88.8603 124.204,-98.2914 126.311,-87.9082 119.376,-88.8603"/>
<text text-anchor="middle" x="144.5" y="-57.5" font-family="Helvetica,sans-Serif" font-size="10.00"> calendar</text>
</g>
<!-- Node5 -->
<g id="node8" class="node"><title>Node5</title>
<polygon fill="white" stroke="#bfbfbf" points="166,-98.5 166,-119.5 212,-119.5 212,-98.5 166,-98.5"/>
<text text-anchor="middle" x="189" y="-106.5" font-family="Helvetica,sans-Serif" font-size="10.00">char *</text>
</g>
<!-- Node5&#45;&gt;Node1 -->
<g id="edge8" class="edge"><title>Node5&#45;&gt;Node1</title>
<path fill="none" stroke="#9a32cd" stroke-dasharray="5,2" d="M186.192,-87.9916C183.361,-73.3222 177.79,-53.9473 167,-40 161.108,-32.3838 152.608,-26.2329 144.514,-21.5888"/>
<polygon fill="#9a32cd" stroke="#9a32cd" points="182.783,-88.8277 187.865,-98.1243 189.689,-87.6878 182.783,-88.8277"/>
<text text-anchor="middle" x="225" y="-70.5" font-family="Helvetica,sans-Serif" font-size="10.00"> applicationName</text>
<text text-anchor="middle" x="225" y="-57.5" font-family="Helvetica,sans-Serif" font-size="10.00">key</text>
<text text-anchor="middle" x="225" y="-44.5" font-family="Helvetica,sans-Serif" font-size="10.00">serviceName</text>
</g>
<!-- Node6 -->
<g id="node10" class="node"><title>Node6</title>
<polygon fill="white" stroke="#bfbfbf" points="253.5,-98.5 253.5,-119.5 334.5,-119.5 334.5,-98.5 253.5,-98.5"/>
<text text-anchor="middle" x="294" y="-106.5" font-family="Helvetica,sans-Serif" font-size="10.00">LSMessage *</text>
</g>
<!-- Node6&#45;&gt;Node1 -->
<g id="edge10" class="edge"><title>Node6&#45;&gt;Node1</title>
<path fill="none" stroke="#9a32cd" stroke-dasharray="5,2" d="M292.207,-88.076C289.738,-72.5375 283.882,-52.0323 270,-40 251.828,-24.2496 183.842,-16.2176 146.301,-12.9039"/>
<polygon fill="#9a32cd" stroke="#9a32cd" points="288.772,-88.8248 293.472,-98.3204 295.72,-87.9669 288.772,-88.8248"/>
<text text-anchor="middle" x="313" y="-57.5" font-family="Helvetica,sans-Serif" font-size="10.00"> message</text>
</g>
</g>
</svg>
