<?xml version="1.0" encoding="UTF-8" standalone="no"?>
<!DOCTYPE svg PUBLIC "-//W3C//DTD SVG 1.1//EN"
 "http://www.w3.org/Graphics/SVG/1.1/DTD/svg11.dtd">
<!-- Generated by graphviz version 2.26.3 (20100126.1600)
 -->
<!-- Title: ShutdownStateNode Pages: 1 -->
<svg width="182pt" height="102pt"
 viewBox="0.00 0.00 182.00 102.00" xmlns="http://www.w3.org/2000/svg" xmlns:xlink="http://www.w3.org/1999/xlink">
<g id="graph1" class="graph" transform="scale(1 1) rotate(0) translate(4 98)">
<title>ShutdownStateNode</title>
<polygon fill="white" stroke="white" points="-4,5 -4,-98 179,-98 179,5 -4,5"/>
<!-- Node1 -->
<g id="node1" class="node"><title>Node1</title>
<polygon fill="#bfbfbf" stroke="black" points="7.5,-0.5 7.5,-21.5 120.5,-21.5 120.5,-0.5 7.5,-0.5"/>
<text text-anchor="middle" x="64" y="-8.5" font-family="Helvetica,sans-Serif" font-size="10.00">ShutdownStateNode</text>
</g>
<!-- Node2 -->
<g id="node2" class="node"><title>Node2</title>
<polygon fill="white" stroke="#bfbfbf" points="-0.5,-72.5 -0.5,-93.5 28.5,-93.5 28.5,-72.5 -0.5,-72.5"/>
<text text-anchor="middle" x="14" y="-80.5" font-family="Helvetica,sans-Serif" font-size="10.00">int</text>
</g>
<!-- Node2&#45;&gt;Node1 -->
<g id="edge2" class="edge"><title>Node2&#45;&gt;Node1</title>
<path fill="none" stroke="#9a32cd" stroke-dasharray="5,2" d="M20.8992,-62.9523C23.9901,-55.3962 28.0626,-46.9543 33,-40 37.8637,-33.1494 44.5431,-26.6494 50.4566,-21.5461"/>
<polygon fill="#9a32cd" stroke="#9a32cd" points="17.5583,-61.8925 17.3036,-72.4843 24.1078,-64.3631 17.5583,-61.8925"/>
<text text-anchor="middle" x="46.5" y="-44.5" font-family="Helvetica,sans-Serif" font-size="10.00"> state</text>
</g>
<!-- Node3 -->
<g id="node4" class="node"><title>Node3</title>
<polygon fill="white" stroke="#bfbfbf" points="46,-72.5 46,-93.5 82,-93.5 82,-72.5 46,-72.5"/>
<text text-anchor="middle" x="64" y="-80.5" font-family="Helvetica,sans-Serif" font-size="10.00">bool</text>
</g>
<!-- Node3&#45;&gt;Node1 -->
<g id="edge4" class="edge"><title>Node3&#45;&gt;Node1</title>
<path fill="none" stroke="#9a32cd" stroke-dasharray="5,2" d="M64,-62.2348C64,-48.969 64,-32.3188 64,-21.6674"/>
<polygon fill="#9a32cd" stroke="#9a32cd" points="60.5001,-62.3761 64,-72.3762 67.5001,-62.3762 60.5001,-62.3761"/>
<text text-anchor="middle" x="84" y="-44.5" font-family="Helvetica,sans-Serif" font-size="10.00"> function</text>
</g>
<!-- Node4 -->
<g id="node6" class="node"><title>Node4</title>
<polygon fill="white" stroke="#bfbfbf" points="100,-72.5 100,-93.5 174,-93.5 174,-72.5 100,-72.5"/>
<text text-anchor="middle" x="137" y="-80.5" font-family="Helvetica,sans-Serif" font-size="10.00">const char *</text>
</g>
<!-- Node4&#45;&gt;Node1 -->
<g id="edge6" class="edge"><title>Node4&#45;&gt;Node1</title>
<path fill="none" stroke="#9a32cd" stroke-dasharray="5,2" d="M126.23,-63.6306C121.299,-55.7638 114.993,-46.919 108,-40 100.846,-32.9217 91.7165,-26.572 83.6296,-21.6317"/>
<polygon fill="#9a32cd" stroke="#9a32cd" points="123.23,-65.4332 131.347,-72.2422 129.248,-61.8575 123.23,-65.4332"/>
<text text-anchor="middle" x="134" y="-44.5" font-family="Helvetica,sans-Serif" font-size="10.00"> name</text>
</g>
</g>
</svg>
