<?xml version="1.0" encoding="UTF-8" standalone="no"?>
<!DOCTYPE svg PUBLIC "-//W3C//DTD SVG 1.1//EN"
 "http://www.w3.org/Graphics/SVG/1.1/DTD/svg11.dtd">
<!-- Generated by graphviz version 2.26.3 (20100126.1600)
 -->
<!-- Title: _AlarmQueue Pages: 1 -->
<svg width="224pt" height="102pt"
 viewBox="0.00 0.00 224.00 102.00" xmlns="http://www.w3.org/2000/svg" xmlns:xlink="http://www.w3.org/1999/xlink">
<g id="graph1" class="graph" transform="scale(1 1) rotate(0) translate(4 98)">
<title>_AlarmQueue</title>
<polygon fill="white" stroke="white" points="-4,5 -4,-98 221,-98 221,5 -4,5"/>
<!-- Node1 -->
<g id="node1" class="node"><title>Node1</title>
<polygon fill="#bfbfbf" stroke="black" points="72,-0.5 72,-21.5 152,-21.5 152,-0.5 72,-0.5"/>
<text text-anchor="middle" x="112" y="-8.5" font-family="Helvetica,sans-Serif" font-size="10.00">_AlarmQueue</text>
</g>
<!-- Node2 -->
<g id="node2" class="node"><title>Node2</title>
<polygon fill="white" stroke="#bfbfbf" points="0,-72.5 0,-93.5 54,-93.5 54,-72.5 0,-72.5"/>
<text text-anchor="middle" x="27" y="-80.5" font-family="Helvetica,sans-Serif" font-size="10.00">uint32_t</text>
</g>
<!-- Node2&#45;&gt;Node1 -->
<g id="edge2" class="edge"><title>Node2&#45;&gt;Node1</title>
<path fill="none" stroke="#9a32cd" stroke-dasharray="5,2" d="M44.9993,-65.2892C53.3226,-57.3324 63.46,-47.963 73,-40 80.6435,-33.6199 89.5267,-26.9601 96.8829,-21.6339"/>
<polygon fill="#9a32cd" stroke="#9a32cd" points="42.409,-62.9253 37.6537,-72.393 47.2753,-67.9571 42.409,-62.9253"/>
<text text-anchor="middle" x="90.5" y="-44.5" font-family="Helvetica,sans-Serif" font-size="10.00"> seq_id</text>
</g>
<!-- Node3 -->
<g id="node4" class="node"><title>Node3</title>
<polygon fill="white" stroke="#bfbfbf" points="72,-72.5 72,-93.5 152,-93.5 152,-72.5 72,-72.5"/>
<text text-anchor="middle" x="112" y="-80.5" font-family="Helvetica,sans-Serif" font-size="10.00">GSequence *</text>
</g>
<!-- Node3&#45;&gt;Node1 -->
<g id="edge4" class="edge"><title>Node3&#45;&gt;Node1</title>
<path fill="none" stroke="#9a32cd" stroke-dasharray="5,2" d="M112,-62.2348C112,-48.969 112,-32.3188 112,-21.6674"/>
<polygon fill="#9a32cd" stroke="#9a32cd" points="108.5,-62.3761 112,-72.3762 115.5,-62.3762 108.5,-62.3761"/>
<text text-anchor="middle" x="129.5" y="-44.5" font-family="Helvetica,sans-Serif" font-size="10.00"> alarms</text>
</g>
<!-- Node4 -->
<g id="node6" class="node"><title>Node4</title>
<polygon fill="white" stroke="#bfbfbf" points="170,-72.5 170,-93.5 216,-93.5 216,-72.5 170,-72.5"/>
<text text-anchor="middle" x="193" y="-80.5" font-family="Helvetica,sans-Serif" font-size="10.00">char *</text>
</g>
<!-- Node4&#45;&gt;Node1 -->
<g id="edge6" class="edge"><title>Node4&#45;&gt;Node1</title>
<path fill="none" stroke="#9a32cd" stroke-dasharray="5,2" d="M176.537,-64.8965C169.021,-56.9655 159.839,-47.7259 151,-40 143.631,-33.5589 134.932,-27.0007 127.622,-21.754"/>
<polygon fill="#9a32cd" stroke="#9a32cd" points="174.045,-67.3565 183.423,-72.2867 179.166,-62.5845 174.045,-67.3565"/>
<text text-anchor="middle" x="188.5" y="-44.5" font-family="Helvetica,sans-Serif" font-size="10.00"> alarm_db</text>
</g>
</g>
</svg>
