<?xml version="1.0" encoding="UTF-8" standalone="no"?>
<!DOCTYPE svg PUBLIC "-//W3C//DTD SVG 1.1//EN"
 "http://www.w3.org/Graphics/SVG/1.1/DTD/svg11.dtd">
<!-- Generated by graphviz version 2.26.3 (20100126.1600)
 -->
<!-- Title: ShutdownClientList Pages: 1 -->
<svg width="174pt" height="114pt"
 viewBox="0.00 0.00 174.00 114.00" xmlns="http://www.w3.org/2000/svg" xmlns:xlink="http://www.w3.org/1999/xlink">
<g id="graph1" class="graph" transform="scale(1 1) rotate(0) translate(4 110)">
<title>ShutdownClientList</title>
<polygon fill="white" stroke="white" points="-4,5 -4,-110 171,-110 171,5 -4,5"/>
<!-- Node1 -->
<g id="node1" class="node"><title>Node1</title>
<polygon fill="#bfbfbf" stroke="black" points="29.5,-0.5 29.5,-21.5 136.5,-21.5 136.5,-0.5 29.5,-0.5"/>
<text text-anchor="middle" x="83" y="-8.5" font-family="Helvetica,sans-Serif" font-size="10.00">ShutdownClientList</text>
</g>
<!-- Node2 -->
<g id="node2" class="node"><title>Node2</title>
<polygon fill="white" stroke="#bfbfbf" points="0,-84.5 0,-105.5 84,-105.5 84,-84.5 0,-84.5"/>
<text text-anchor="middle" x="42" y="-92.5" font-family="Helvetica,sans-Serif" font-size="10.00">GHashTable *</text>
</g>
<!-- Node2&#45;&gt;Node1 -->
<g id="edge2" class="edge"><title>Node2&#45;&gt;Node1</title>
<path fill="none" stroke="#9a32cd" stroke-dasharray="5,2" d="M38.0989,-73.9843C37.1336,-63.2457 37.6235,-50.3063 43,-40 46.9673,-32.3951 53.9386,-26.3065 60.9618,-21.71"/>
<polygon fill="#9a32cd" stroke="#9a32cd" points="34.6695,-74.7402 39.4879,-84.1759 41.6054,-73.7949 34.6695,-74.7402"/>
<text text-anchor="middle" x="73" y="-57" font-family="Helvetica,sans-Serif" font-size="10.00"> applications</text>
<text text-anchor="middle" x="73" y="-44" font-family="Helvetica,sans-Serif" font-size="10.00">services</text>
</g>
<!-- Node3 -->
<g id="node4" class="node"><title>Node3</title>
<polygon fill="white" stroke="#bfbfbf" points="110.5,-84.5 110.5,-105.5 139.5,-105.5 139.5,-84.5 110.5,-84.5"/>
<text text-anchor="middle" x="125" y="-92.5" font-family="Helvetica,sans-Serif" font-size="10.00">int</text>
</g>
<!-- Node3&#45;&gt;Node1 -->
<g id="edge4" class="edge"><title>Node3&#45;&gt;Node1</title>
<path fill="none" stroke="#9a32cd" stroke-dasharray="5,2" d="M118.052,-74.5265C114.159,-63.9606 108.904,-51.0124 103,-40 99.59,-33.6396 95.0744,-26.9813 91.1968,-21.651"/>
<polygon fill="#9a32cd" stroke="#9a32cd" points="114.82,-75.8853 121.464,-84.1384 121.417,-73.5437 114.82,-75.8853"/>
<text text-anchor="middle" x="140" y="-57" font-family="Helvetica,sans-Serif" font-size="10.00"> num_nack</text>
<text text-anchor="middle" x="140" y="-44" font-family="Helvetica,sans-Serif" font-size="10.00">num_ack</text>
</g>
</g>
</svg>
