<?xml version="1.0" encoding="UTF-8" standalone="no"?>
<!DOCTYPE svg PUBLIC "-//W3C//DTD SVG 1.1//EN"
 "http://www.w3.org/Graphics/SVG/1.1/DTD/svg11.dtd">
<!-- Generated by graphviz version 2.26.3 (20100126.1600)
 -->
<!-- Title: _GNamedHookList Pages: 1 -->
<svg width="166pt" height="102pt"
 viewBox="0.00 0.00 166.00 102.00" xmlns="http://www.w3.org/2000/svg" xmlns:xlink="http://www.w3.org/1999/xlink">
<g id="graph1" class="graph" transform="scale(1 1) rotate(0) translate(4 98)">
<title>_GNamedHookList</title>
<polygon fill="white" stroke="white" points="-4,5 -4,-98 163,-98 163,5 -4,5"/>
<!-- Node1 -->
<g id="node1" class="node"><title>Node1</title>
<polygon fill="#bfbfbf" stroke="black" points="24,-0.5 24,-21.5 130,-21.5 130,-0.5 24,-0.5"/>
<text text-anchor="middle" x="77" y="-8.5" font-family="Helvetica,sans-Serif" font-size="10.00">_GNamedHookList</text>
</g>
<!-- Node2 -->
<g id="node2" class="node"><title>Node2</title>
<polygon fill="white" stroke="#bfbfbf" points="0,-72.5 0,-93.5 66,-93.5 66,-72.5 0,-72.5"/>
<text text-anchor="middle" x="33" y="-80.5" font-family="Helvetica,sans-Serif" font-size="10.00">GHookList</text>
</g>
<!-- Node2&#45;&gt;Node1 -->
<g id="edge2" class="edge"><title>Node2&#45;&gt;Node1</title>
<path fill="none" stroke="#9a32cd" stroke-dasharray="5,2" d="M43.0126,-62.9334C46.8616,-55.5939 51.4319,-47.3033 56,-40 59.9557,-33.6759 64.8172,-26.9085 68.8661,-21.5031"/>
<polygon fill="#9a32cd" stroke="#9a32cd" points="39.725,-61.6743 38.2789,-72.17 45.9545,-64.867 39.725,-61.6743"/>
<text text-anchor="middle" x="77.5" y="-44.5" font-family="Helvetica,sans-Serif" font-size="10.00"> hookList</text>
</g>
<!-- Node3 -->
<g id="node4" class="node"><title>Node3</title>
<polygon fill="white" stroke="#bfbfbf" points="84,-72.5 84,-93.5 158,-93.5 158,-72.5 84,-72.5"/>
<text text-anchor="middle" x="121" y="-80.5" font-family="Helvetica,sans-Serif" font-size="10.00">const char *</text>
</g>
<!-- Node3&#45;&gt;Node1 -->
<g id="edge4" class="edge"><title>Node3&#45;&gt;Node1</title>
<path fill="none" stroke="#9a32cd" stroke-dasharray="5,2" d="M111.881,-63.3979C108.166,-55.9142 103.653,-47.4056 99,-40 95.0329,-33.6857 90.0488,-27.031 85.8281,-21.6912"/>
<polygon fill="#9a32cd" stroke="#9a32cd" points="108.757,-64.9765 116.25,-72.4665 115.063,-61.9384 108.757,-64.9765"/>
<text text-anchor="middle" x="121" y="-44.5" font-family="Helvetica,sans-Serif" font-size="10.00"> name</text>
</g>
</g>
</svg>
