<?xml version="1.0" encoding="UTF-8" standalone="no"?>
<!DOCTYPE svg PUBLIC "-//W3C//DTD SVG 1.1//EN"
 "http://www.w3.org/Graphics/SVG/1.1/DTD/svg11.dtd">
<!-- Generated by graphviz version 2.26.3 (20100126.1600)
 -->
<!-- Title: WaitObj Pages: 1 -->
<svg width="392pt" height="102pt"
 viewBox="0.00 0.00 392.00 102.00" xmlns="http://www.w3.org/2000/svg" xmlns:xlink="http://www.w3.org/1999/xlink">
<g id="graph1" class="graph" transform="scale(1 1) rotate(0) translate(4 98)">
<title>WaitObj</title>
<polygon fill="white" stroke="white" points="-4,5 -4,-98 389,-98 389,5 -4,5"/>
<!-- Node1 -->
<g id="node1" class="node"><title>Node1</title>
<polygon fill="#bfbfbf" stroke="black" points="187.5,-0.5 187.5,-21.5 240.5,-21.5 240.5,-0.5 187.5,-0.5"/>
<text text-anchor="middle" x="214" y="-8.5" font-family="Helvetica,sans-Serif" font-size="10.00">WaitObj</text>
</g>
<!-- Node2 -->
<g id="node2" class="node"><title>Node2</title>
<polygon fill="white" stroke="#bfbfbf" points="-0.5,-72.5 -0.5,-93.5 106.5,-93.5 106.5,-72.5 -0.5,-72.5"/>
<text text-anchor="middle" x="53" y="-80.5" font-family="Helvetica,sans-Serif" font-size="10.00">pthread_condattr_t</text>
</g>
<!-- Node2&#45;&gt;Node1 -->
<g id="edge2" class="edge"><title>Node2&#45;&gt;Node1</title>
<path fill="none" stroke="#9a32cd" stroke-dasharray="5,2" d="M83.0167,-67.8763C100.162,-59.3948 122.138,-48.7862 142,-40 156.912,-33.4035 173.812,-26.564 187.49,-21.185"/>
<polygon fill="#9a32cd" stroke="#9a32cd" points="81.4279,-64.7575 74.0326,-72.3444 84.545,-71.0252 81.4279,-64.7575"/>
<text text-anchor="middle" x="163.5" y="-44.5" font-family="Helvetica,sans-Serif" font-size="10.00"> condattr</text>
</g>
<!-- Node3 -->
<g id="node4" class="node"><title>Node3</title>
<polygon fill="white" stroke="#bfbfbf" points="124,-72.5 124,-93.5 220,-93.5 220,-72.5 124,-72.5"/>
<text text-anchor="middle" x="172" y="-80.5" font-family="Helvetica,sans-Serif" font-size="10.00">pthread_mutex_t</text>
</g>
<!-- Node3&#45;&gt;Node1 -->
<g id="edge4" class="edge"><title>Node3&#45;&gt;Node1</title>
<path fill="none" stroke="#9a32cd" stroke-dasharray="5,2" d="M183.422,-63.4193C191.266,-49.9734 201.378,-32.6384 207.777,-21.6674"/>
<polygon fill="#9a32cd" stroke="#9a32cd" points="180.213,-61.9748 178.197,-72.3762 186.259,-65.5019 180.213,-61.9748"/>
<text text-anchor="middle" x="211.5" y="-44.5" font-family="Helvetica,sans-Serif" font-size="10.00"> mutex</text>
</g>
<!-- Node4 -->
<g id="node6" class="node"><title>Node4</title>
<polygon fill="white" stroke="#bfbfbf" points="238,-72.5 238,-93.5 274,-93.5 274,-72.5 238,-72.5"/>
<text text-anchor="middle" x="256" y="-80.5" font-family="Helvetica,sans-Serif" font-size="10.00">bool</text>
</g>
<!-- Node4&#45;&gt;Node1 -->
<g id="edge6" class="edge"><title>Node4&#45;&gt;Node1</title>
<path fill="none" stroke="#9a32cd" stroke-dasharray="5,2" d="M244.822,-63.74C240.509,-56.3169 235.531,-47.7604 231,-40 227.469,-33.952 223.513,-27.2019 220.306,-21.7369"/>
<polygon fill="#9a32cd" stroke="#9a32cd" points="241.797,-65.5014 249.846,-72.3911 247.851,-61.9859 241.797,-65.5014"/>
<text text-anchor="middle" x="255" y="-44.5" font-family="Helvetica,sans-Serif" font-size="10.00"> locked</text>
</g>
<!-- Node5 -->
<g id="node8" class="node"><title>Node5</title>
<polygon fill="white" stroke="#bfbfbf" points="292,-72.5 292,-93.5 384,-93.5 384,-72.5 292,-72.5"/>
<text text-anchor="middle" x="338" y="-80.5" font-family="Helvetica,sans-Serif" font-size="10.00">pthread_cond_t</text>
</g>
<!-- Node5&#45;&gt;Node1 -->
<g id="edge8" class="edge"><title>Node5&#45;&gt;Node1</title>
<path fill="none" stroke="#9a32cd" stroke-dasharray="5,2" d="M315.958,-66.3568C304.372,-57.9617 289.754,-47.9105 276,-40 264.154,-33.1867 250.439,-26.6426 238.926,-21.5008"/>
<polygon fill="#9a32cd" stroke="#9a32cd" points="314.033,-69.2854 324.162,-72.391 318.18,-63.6464 314.033,-69.2854"/>
<text text-anchor="middle" x="310.5" y="-44.5" font-family="Helvetica,sans-Serif" font-size="10.00"> cond</text>
</g>
</g>
</svg>
