<?xml version="1.0" encoding="UTF-8" standalone="no"?>
<!DOCTYPE svg PUBLIC "-//W3C//DTD SVG 1.1//EN"
 "http://www.w3.org/Graphics/SVG/1.1/DTD/svg11.dtd">
<!-- Generated by graphviz version 2.26.3 (20100126.1600)
 -->
<!-- Title: Activity Pages: 1 -->
<svg width="233pt" height="114pt"
 viewBox="0.00 0.00 233.00 114.00" xmlns="http://www.w3.org/2000/svg" xmlns:xlink="http://www.w3.org/1999/xlink">
<g id="graph1" class="graph" transform="scale(1 1) rotate(0) translate(4 110)">
<title>Activity</title>
<polygon fill="white" stroke="white" points="-4,5 -4,-110 230,-110 230,5 -4,5"/>
<!-- Node1 -->
<g id="node1" class="node"><title>Node1</title>
<polygon fill="#bfbfbf" stroke="black" points="73,-0.5 73,-21.5 123,-21.5 123,-0.5 73,-0.5"/>
<text text-anchor="middle" x="98" y="-8.5" font-family="Helvetica,sans-Serif" font-size="10.00">Activity</text>
</g>
<!-- Node2 -->
<g id="node2" class="node"><title>Node2</title>
<polygon fill="white" stroke="#bfbfbf" points="-0.5,-84.5 -0.5,-105.5 28.5,-105.5 28.5,-84.5 -0.5,-84.5"/>
<text text-anchor="middle" x="14" y="-92.5" font-family="Helvetica,sans-Serif" font-size="10.00">int</text>
</g>
<!-- Node2&#45;&gt;Node1 -->
<g id="edge2" class="edge"><title>Node2&#45;&gt;Node1</title>
<path fill="none" stroke="#9a32cd" stroke-dasharray="5,2" d="M16.9887,-74.4661C19.564,-63.1351 24.3098,-49.4815 33,-40 43.5201,-28.522 59.4306,-21.3175 72.8769,-16.9602"/>
<polygon fill="#9a32cd" stroke="#9a32cd" points="13.5278,-73.9328 15.1267,-84.4063 20.4081,-75.2217 13.5278,-73.9328"/>
<text text-anchor="middle" x="63.5" y="-50.5" font-family="Helvetica,sans-Serif" font-size="10.00"> duration_ms</text>
</g>
<!-- Node3 -->
<g id="node4" class="node"><title>Node3</title>
<polygon fill="white" stroke="#bfbfbf" points="75,-84.5 75,-105.5 121,-105.5 121,-84.5 75,-84.5"/>
<text text-anchor="middle" x="98" y="-92.5" font-family="Helvetica,sans-Serif" font-size="10.00">char *</text>
</g>
<!-- Node3&#45;&gt;Node1 -->
<g id="edge4" class="edge"><title>Node3&#45;&gt;Node1</title>
<path fill="none" stroke="#9a32cd" stroke-dasharray="5,2" d="M98,-73.9452C98,-57.2568 98,-34.6387 98,-21.5523"/>
<polygon fill="#9a32cd" stroke="#9a32cd" points="94.5001,-74.3613 98,-84.3613 101.5,-74.3614 94.5001,-74.3613"/>
<text text-anchor="middle" x="123" y="-50.5" font-family="Helvetica,sans-Serif" font-size="10.00"> activity_id</text>
</g>
<!-- Node4 -->
<g id="node6" class="node"><title>Node4</title>
<polygon fill="white" stroke="#bfbfbf" points="138.5,-84.5 138.5,-105.5 225.5,-105.5 225.5,-84.5 138.5,-84.5"/>
<text text-anchor="middle" x="182" y="-92.5" font-family="Helvetica,sans-Serif" font-size="10.00">struct timespec</text>
</g>
<!-- Node4&#45;&gt;Node1 -->
<g id="edge6" class="edge"><title>Node4&#45;&gt;Node1</title>
<path fill="none" stroke="#9a32cd" stroke-dasharray="5,2" d="M174.3,-74.619C169.27,-63.3679 161.807,-49.7429 152,-40 143.847,-31.8999 132.962,-25.4729 123.102,-20.749"/>
<polygon fill="#9a32cd" stroke="#9a32cd" points="171.17,-76.2076 178.233,-84.1048 177.636,-73.5267 171.17,-76.2076"/>
<text text-anchor="middle" x="194" y="-57" font-family="Helvetica,sans-Serif" font-size="10.00"> start_time</text>
<text text-anchor="middle" x="194" y="-44" font-family="Helvetica,sans-Serif" font-size="10.00">end_time</text>
</g>
</g>
</svg>
