<?xml version="1.0" encoding="UTF-8" standalone="no"?>
<!DOCTYPE svg PUBLIC "-//W3C//DTD SVG 1.1//EN"
 "http://www.w3.org/Graphics/SVG/1.1/DTD/svg11.dtd">
<!-- Generated by graphviz version 2.26.3 (20100126.1600)
 -->
<!-- Title: _GTimerSource Pages: 1 -->
<svg width="215pt" height="114pt"
 viewBox="0.00 0.00 215.00 114.00" xmlns="http://www.w3.org/2000/svg" xmlns:xlink="http://www.w3.org/1999/xlink">
<g id="graph1" class="graph" transform="scale(1 1) rotate(0) translate(4 110)">
<title>_GTimerSource</title>
<polygon fill="white" stroke="white" points="-4,5 -4,-110 212,-110 212,5 -4,5"/>
<!-- Node1 -->
<g id="node1" class="node"><title>Node1</title>
<polygon fill="#bfbfbf" stroke="black" points="54.5,-0.5 54.5,-21.5 145.5,-21.5 145.5,-0.5 54.5,-0.5"/>
<text text-anchor="middle" x="100" y="-8.5" font-family="Helvetica,sans-Serif" font-size="10.00">_GTimerSource</text>
</g>
<!-- Node2 -->
<g id="node2" class="node"><title>Node2</title>
<polygon fill="white" stroke="#bfbfbf" points="-0.5,-84.5 -0.5,-105.5 38.5,-105.5 38.5,-84.5 -0.5,-84.5"/>
<text text-anchor="middle" x="19" y="-92.5" font-family="Helvetica,sans-Serif" font-size="10.00">guint</text>
</g>
<!-- Node2&#45;&gt;Node1 -->
<g id="edge2" class="edge"><title>Node2&#45;&gt;Node1</title>
<path fill="none" stroke="#9a32cd" stroke-dasharray="5,2" d="M22.0531,-74.5247C24.6495,-63.2127 29.3948,-49.5587 38,-40 45.2351,-31.9632 55.1607,-25.9757 64.9498,-21.5961"/>
<polygon fill="#9a32cd" stroke="#9a32cd" points="18.597,-73.9645 20.1665,-84.4424 25.4737,-75.2727 18.597,-73.9645"/>
<text text-anchor="middle" x="67" y="-57" font-family="Helvetica,sans-Serif" font-size="10.00"> interval_ms</text>
<text text-anchor="middle" x="67" y="-44" font-family="Helvetica,sans-Serif" font-size="10.00">granularity</text>
</g>
<!-- Node3 -->
<g id="node4" class="node"><title>Node3</title>
<polygon fill="white" stroke="#bfbfbf" points="68.5,-84.5 68.5,-105.5 131.5,-105.5 131.5,-84.5 68.5,-84.5"/>
<text text-anchor="middle" x="100" y="-92.5" font-family="Helvetica,sans-Serif" font-size="10.00">GTimeVal</text>
</g>
<!-- Node3&#45;&gt;Node1 -->
<g id="edge4" class="edge"><title>Node3&#45;&gt;Node1</title>
<path fill="none" stroke="#9a32cd" stroke-dasharray="5,2" d="M100,-73.9452C100,-57.2568 100,-34.6387 100,-21.5523"/>
<polygon fill="#9a32cd" stroke="#9a32cd" points="96.5001,-74.3613 100,-84.3613 103.5,-74.3614 96.5001,-74.3613"/>
<text text-anchor="middle" x="125" y="-50.5" font-family="Helvetica,sans-Serif" font-size="10.00"> expiration</text>
</g>
<!-- Node4 -->
<g id="node6" class="node"><title>Node4</title>
<polygon fill="white" stroke="#bfbfbf" points="149,-84.5 149,-105.5 207,-105.5 207,-84.5 149,-84.5"/>
<text text-anchor="middle" x="178" y="-92.5" font-family="Helvetica,sans-Serif" font-size="10.00">GSource</text>
</g>
<!-- Node4&#45;&gt;Node1 -->
<g id="edge6" class="edge"><title>Node4&#45;&gt;Node1</title>
<path fill="none" stroke="#9a32cd" stroke-dasharray="5,2" d="M172.583,-74.2683C168.831,-63.083 162.882,-49.6364 154,-40 146.86,-32.2538 137.166,-26.1618 127.962,-21.603"/>
<polygon fill="#9a32cd" stroke="#9a32cd" points="169.307,-75.5285 175.533,-84.1013 176.012,-73.5173 169.307,-75.5285"/>
<text text-anchor="middle" x="186.5" y="-50.5" font-family="Helvetica,sans-Serif" font-size="10.00"> source</text>
</g>
</g>
</svg>
