<?xml version="1.0" encoding="UTF-8" standalone="no"?>
<!DOCTYPE svg PUBLIC "-//W3C//DTD SVG 1.1//EN"
 "http://www.w3.org/Graphics/SVG/1.1/DTD/svg11.dtd">
<!-- Generated by graphviz version 2.26.3 (20100126.1600)
 -->
<!-- Title: SleepConfiguration Pages: 1 -->
<svg width="376pt" height="244pt"
 viewBox="0.00 0.00 376.00 244.00" xmlns="http://www.w3.org/2000/svg" xmlns:xlink="http://www.w3.org/1999/xlink">
<g id="graph1" class="graph" transform="scale(1 1) rotate(0) translate(4 240)">
<title>SleepConfiguration</title>
<polygon fill="white" stroke="white" points="-4,5 -4,-240 373,-240 373,5 -4,5"/>
<!-- Node1 -->
<g id="node1" class="node"><title>Node1</title>
<polygon fill="#bfbfbf" stroke="black" points="101.5,-0.5 101.5,-21.5 208.5,-21.5 208.5,-0.5 101.5,-0.5"/>
<text text-anchor="middle" x="155" y="-8.5" font-family="Helvetica,sans-Serif" font-size="10.00">SleepConfiguration</text>
</g>
<!-- Node2 -->
<g id="node2" class="node"><title>Node2</title>
<polygon fill="white" stroke="#bfbfbf" points="-0.5,-214.5 -0.5,-235.5 28.5,-235.5 28.5,-214.5 -0.5,-214.5"/>
<text text-anchor="middle" x="14" y="-222.5" font-family="Helvetica,sans-Serif" font-size="10.00">int</text>
</g>
<!-- Node2&#45;&gt;Node1 -->
<g id="edge2" class="edge"><title>Node2&#45;&gt;Node1</title>
<path fill="none" stroke="#9a32cd" stroke-dasharray="5,2" d="M9.20474,-204.323C1.79023,-166.639 -7.6859,-86.3995 33,-40 42.222,-29.4829 72.9248,-22.2172 101.22,-17.5887"/>
<polygon fill="#9a32cd" stroke="#9a32cd" points="5.79324,-205.108 11.29,-214.165 12.6412,-203.657 5.79324,-205.108"/>
<text text-anchor="start" x="33" y="-187" font-family="Helvetica,sans-Serif" font-size="10.00"> wait_suspend_response</text>
<text text-anchor="middle" x="92" y="-174" font-family="Helvetica,sans-Serif" font-size="10.00">_ms</text>
<text text-anchor="middle" x="92" y="-161" font-family="Helvetica,sans-Serif" font-size="10.00">wait_idle_ms</text>
<text text-anchor="middle" x="92" y="-148" font-family="Helvetica,sans-Serif" font-size="10.00">wait_alarms_s</text>
<text text-anchor="start" x="33" y="-135" font-family="Helvetica,sans-Serif" font-size="10.00">wait_idle_granularity</text>
<text text-anchor="middle" x="92" y="-122" font-family="Helvetica,sans-Serif" font-size="10.00">_ms</text>
<text text-anchor="middle" x="92" y="-109" font-family="Helvetica,sans-Serif" font-size="10.00">is_running</text>
<text text-anchor="start" x="33" y="-96" font-family="Helvetica,sans-Serif" font-size="10.00">wait_prepare_suspend</text>
<text text-anchor="middle" x="92" y="-83" font-family="Helvetica,sans-Serif" font-size="10.00">_ms</text>
<text text-anchor="middle" x="92" y="-70" font-family="Helvetica,sans-Serif" font-size="10.00">debug</text>
<text text-anchor="start" x="33" y="-57" font-family="Helvetica,sans-Serif" font-size="10.00">after_resume</text>
<text text-anchor="middle" x="92" y="-44" font-family="Helvetica,sans-Serif" font-size="10.00">_idle_ms</text>
</g>
<!-- Node3 -->
<g id="node4" class="node"><title>Node3</title>
<polygon fill="white" stroke="#bfbfbf" points="137,-214.5 137,-235.5 173,-235.5 173,-214.5 137,-214.5"/>
<text text-anchor="middle" x="155" y="-222.5" font-family="Helvetica,sans-Serif" font-size="10.00">bool</text>
</g>
<!-- Node3&#45;&gt;Node1 -->
<g id="edge4" class="edge"><title>Node3&#45;&gt;Node1</title>
<path fill="none" stroke="#9a32cd" stroke-dasharray="5,2" d="M155,-204.118C155,-159.309 155,-55.2822 155,-21.6763"/>
<polygon fill="#9a32cd" stroke="#9a32cd" points="151.5,-204.388 155,-214.388 158.5,-204.388 151.5,-204.388"/>
<text text-anchor="middle" x="209" y="-141.5" font-family="Helvetica,sans-Serif" font-size="10.00"> use_syslog</text>
<text text-anchor="middle" x="209" y="-128.5" font-family="Helvetica,sans-Serif" font-size="10.00">fasthalt</text>
<text text-anchor="middle" x="209" y="-115.5" font-family="Helvetica,sans-Serif" font-size="10.00">visual_leds_suspend</text>
<text text-anchor="middle" x="209" y="-102.5" font-family="Helvetica,sans-Serif" font-size="10.00">suspend_with_charger</text>
<text text-anchor="middle" x="209" y="-89.5" font-family="Helvetica,sans-Serif" font-size="10.00">disable_rtc_alarms</text>
</g>
<!-- Node4 -->
<g id="node6" class="node"><title>Node4</title>
<polygon fill="white" stroke="#bfbfbf" points="249,-214.5 249,-235.5 323,-235.5 323,-214.5 249,-214.5"/>
<text text-anchor="middle" x="286" y="-222.5" font-family="Helvetica,sans-Serif" font-size="10.00">const char *</text>
</g>
<!-- Node4&#45;&gt;Node1 -->
<g id="edge6" class="edge"><title>Node4&#45;&gt;Node1</title>
<path fill="none" stroke="#9a32cd" stroke-dasharray="5,2" d="M290.365,-203.894C296.858,-166.103 304.336,-86.4976 264,-40 256.365,-31.1989 232.276,-24.3138 208.679,-19.4651"/>
<polygon fill="#9a32cd" stroke="#9a32cd" points="286.836,-203.723 288.436,-214.197 293.717,-205.012 286.836,-203.723"/>
<text text-anchor="middle" x="331.5" y="-115.5" font-family="Helvetica,sans-Serif" font-size="10.00"> preference_dir</text>
</g>
</g>
</svg>
