<?xml version="1.0" encoding="UTF-8" standalone="no"?>
<!DOCTYPE svg PUBLIC "-//W3C//DTD SVG 1.1//EN"
 "http://www.w3.org/Graphics/SVG/1.1/DTD/svg11.dtd">
<!-- Generated by graphviz version 2.26.3 (20100126.1600)
 -->
<!-- Title: _AlarmTimeoutNonConst Pages: 1 -->
<svg width="331pt" height="166pt"
 viewBox="0.00 0.00 331.00 166.00" xmlns="http://www.w3.org/2000/svg" xmlns:xlink="http://www.w3.org/1999/xlink">
<g id="graph1" class="graph" transform="scale(1 1) rotate(0) translate(4 162)">
<title>_AlarmTimeoutNonConst</title>
<polygon fill="white" stroke="white" points="-4,5 -4,-162 328,-162 328,5 -4,5"/>
<!-- Node1 -->
<g id="node1" class="node"><title>Node1</title>
<polygon fill="#bfbfbf" stroke="black" points="71,-0.5 71,-21.5 205,-21.5 205,-0.5 71,-0.5"/>
<text text-anchor="middle" x="138" y="-8.5" font-family="Helvetica,sans-Serif" font-size="10.00">_AlarmTimeoutNonConst</text>
</g>
<!-- Node2 -->
<g id="node2" class="node"><title>Node2</title>
<polygon fill="white" stroke="#bfbfbf" points="-0.5,-136.5 -0.5,-157.5 44.5,-157.5 44.5,-136.5 -0.5,-136.5"/>
<text text-anchor="middle" x="22" y="-144.5" font-family="Helvetica,sans-Serif" font-size="10.00">time_t</text>
</g>
<!-- Node2&#45;&gt;Node1 -->
<g id="edge2" class="edge"><title>Node2&#45;&gt;Node1</title>
<path fill="none" stroke="#9a32cd" stroke-dasharray="5,2" d="M17.3738,-126.432C13.345,-102.774 10.903,-64.1026 31,-40 37.3476,-32.3872 55.9086,-26.2058 75.8275,-21.5363"/>
<polygon fill="#9a32cd" stroke="#9a32cd" points="13.9733,-127.281 19.3241,-136.425 20.8437,-125.94 13.9733,-127.281"/>
<text text-anchor="middle" x="47" y="-76.5" font-family="Helvetica,sans-Serif" font-size="10.00"> expiry</text>
</g>
<!-- Node3 -->
<g id="node4" class="node"><title>Node3</title>
<polygon fill="white" stroke="#bfbfbf" points="62.5,-136.5 62.5,-157.5 91.5,-157.5 91.5,-136.5 62.5,-136.5"/>
<text text-anchor="middle" x="77" y="-144.5" font-family="Helvetica,sans-Serif" font-size="10.00">int</text>
</g>
<!-- Node3&#45;&gt;Node1 -->
<g id="edge4" class="edge"><title>Node3&#45;&gt;Node1</title>
<path fill="none" stroke="#9a32cd" stroke-dasharray="5,2" d="M71.2197,-126.536C66.0042,-103.58 61.4289,-66.1425 78,-40 83.2031,-31.7917 91.4516,-25.8478 100.187,-21.566"/>
<polygon fill="#9a32cd" stroke="#9a32cd" points="67.8298,-127.407 73.6643,-136.251 74.6181,-125.699 67.8298,-127.407"/>
<text text-anchor="middle" x="128" y="-76.5" font-family="Helvetica,sans-Serif" font-size="10.00"> activity_duration_ms</text>
</g>
<!-- Node4 -->
<g id="node6" class="node"><title>Node4</title>
<polygon fill="white" stroke="#bfbfbf" points="182,-136.5 182,-157.5 218,-157.5 218,-136.5 182,-136.5"/>
<text text-anchor="middle" x="200" y="-144.5" font-family="Helvetica,sans-Serif" font-size="10.00">bool</text>
</g>
<!-- Node4&#45;&gt;Node1 -->
<g id="edge6" class="edge"><title>Node4&#45;&gt;Node1</title>
<path fill="none" stroke="#9a32cd" stroke-dasharray="5,2" d="M200.071,-126.062C199.208,-103.189 194.98,-66.3087 178,-40 173.163,-32.5049 165.654,-26.3134 158.443,-21.6033"/>
<polygon fill="#9a32cd" stroke="#9a32cd" points="196.577,-126.404 200.265,-136.337 203.575,-126.272 196.577,-126.404"/>
<text text-anchor="middle" x="223.5" y="-89.5" font-family="Helvetica,sans-Serif" font-size="10.00"> wakeup</text>
<text text-anchor="middle" x="223.5" y="-76.5" font-family="Helvetica,sans-Serif" font-size="10.00">public_bus</text>
<text text-anchor="middle" x="223.5" y="-63.5" font-family="Helvetica,sans-Serif" font-size="10.00">calendar</text>
</g>
<!-- Node5 -->
<g id="node8" class="node"><title>Node5</title>
<polygon fill="white" stroke="#bfbfbf" points="249,-136.5 249,-157.5 295,-157.5 295,-136.5 249,-136.5"/>
<text text-anchor="middle" x="272" y="-144.5" font-family="Helvetica,sans-Serif" font-size="10.00">char *</text>
</g>
<!-- Node5&#45;&gt;Node1 -->
<g id="edge8" class="edge"><title>Node5&#45;&gt;Node1</title>
<path fill="none" stroke="#9a32cd" stroke-dasharray="5,2" d="M273.765,-126.093C274.577,-102.114 271.997,-63.1385 250,-40 242.804,-32.4302 222.97,-26.2247 201.955,-21.5244"/>
<polygon fill="#9a32cd" stroke="#9a32cd" points="270.262,-126.052 273.188,-136.235 277.251,-126.45 270.262,-126.052"/>
<text text-anchor="middle" x="298" y="-109" font-family="Helvetica,sans-Serif" font-size="10.00"> activity_id</text>
<text text-anchor="middle" x="298" y="-96" font-family="Helvetica,sans-Serif" font-size="10.00">uri</text>
<text text-anchor="middle" x="298" y="-83" font-family="Helvetica,sans-Serif" font-size="10.00">table_id</text>
<text text-anchor="middle" x="298" y="-70" font-family="Helvetica,sans-Serif" font-size="10.00">params</text>
<text text-anchor="middle" x="298" y="-57" font-family="Helvetica,sans-Serif" font-size="10.00">key</text>
<text text-anchor="middle" x="298" y="-44" font-family="Helvetica,sans-Serif" font-size="10.00">app_id</text>
</g>
</g>
</svg>
