<?xml version="1.0" encoding="UTF-8" standalone="no"?>
<!DOCTYPE svg PUBLIC "-//W3C//DTD SVG 1.1//EN"
 "http://www.w3.org/Graphics/SVG/1.1/DTD/svg11.dtd">
<!-- Generated by graphviz version 2.26.3 (20100126.1600)
 -->
<!-- Title: ShutdownClient Pages: 1 -->
<svg width="234pt" height="114pt"
 viewBox="0.00 0.00 234.00 114.00" xmlns="http://www.w3.org/2000/svg" xmlns:xlink="http://www.w3.org/1999/xlink">
<g id="graph1" class="graph" transform="scale(1 1) rotate(0) translate(4 110)">
<title>ShutdownClient</title>
<polygon fill="white" stroke="white" points="-4,5 -4,-110 231,-110 231,5 -4,5"/>
<!-- Node1 -->
<g id="node1" class="node"><title>Node1</title>
<polygon fill="#bfbfbf" stroke="black" points="64,-0.5 64,-21.5 154,-21.5 154,-0.5 64,-0.5"/>
<text text-anchor="middle" x="109" y="-8.5" font-family="Helvetica,sans-Serif" font-size="10.00">ShutdownClient</text>
</g>
<!-- Node2 -->
<g id="node2" class="node"><title>Node2</title>
<polygon fill="white" stroke="#bfbfbf" points="-0.5,-84.5 -0.5,-105.5 46.5,-105.5 46.5,-84.5 -0.5,-84.5"/>
<text text-anchor="middle" x="23" y="-92.5" font-family="Helvetica,sans-Serif" font-size="10.00">double</text>
</g>
<!-- Node2&#45;&gt;Node1 -->
<g id="edge2" class="edge"><title>Node2&#45;&gt;Node1</title>
<path fill="none" stroke="#9a32cd" stroke-dasharray="5,2" d="M34.8509,-75.7442C42.3395,-64.5193 52.7128,-50.5433 64,-40 71.4713,-33.0211 80.8303,-26.6854 89.0754,-21.7287"/>
<polygon fill="#9a32cd" stroke="#9a32cd" points="31.7546,-74.0879 29.2823,-84.3903 37.6396,-77.8783 31.7546,-74.0879"/>
<text text-anchor="middle" x="84.5" y="-50.5" font-family="Helvetica,sans-Serif" font-size="10.00"> elapsed</text>
</g>
<!-- Node3 -->
<g id="node4" class="node"><title>Node3</title>
<polygon fill="white" stroke="#bfbfbf" points="64,-84.5 64,-105.5 154,-105.5 154,-84.5 64,-84.5"/>
<text text-anchor="middle" x="109" y="-92.5" font-family="Helvetica,sans-Serif" font-size="10.00">ShutdownReply</text>
</g>
<!-- Node3&#45;&gt;Node1 -->
<g id="edge4" class="edge"><title>Node3&#45;&gt;Node1</title>
<path fill="none" stroke="#9a32cd" stroke-dasharray="5,2" d="M109,-73.9452C109,-57.2568 109,-34.6387 109,-21.5523"/>
<polygon fill="#9a32cd" stroke="#9a32cd" points="105.5,-74.3613 109,-84.3613 112.5,-74.3614 105.5,-74.3613"/>
<text text-anchor="middle" x="144.5" y="-50.5" font-family="Helvetica,sans-Serif" font-size="10.00"> ack_shutdown</text>
</g>
<!-- Node4 -->
<g id="node6" class="node"><title>Node4</title>
<polygon fill="white" stroke="#bfbfbf" points="180,-84.5 180,-105.5 226,-105.5 226,-84.5 180,-84.5"/>
<text text-anchor="middle" x="203" y="-92.5" font-family="Helvetica,sans-Serif" font-size="10.00">char *</text>
</g>
<!-- Node4&#45;&gt;Node1 -->
<g id="edge6" class="edge"><title>Node4&#45;&gt;Node1</title>
<path fill="none" stroke="#9a32cd" stroke-dasharray="5,2" d="M198.921,-74.3053C195.738,-62.9217 190.247,-49.2692 181,-40 172.815,-31.7954 162.004,-25.8305 151.255,-21.5264"/>
<polygon fill="#9a32cd" stroke="#9a32cd" points="195.583,-75.3957 201.314,-84.307 202.391,-73.7671 195.583,-75.3957"/>
<text text-anchor="middle" x="209.5" y="-57" font-family="Helvetica,sans-Serif" font-size="10.00"> id</text>
<text text-anchor="middle" x="209.5" y="-44" font-family="Helvetica,sans-Serif" font-size="10.00">name</text>
</g>
</g>
</svg>
