<?xml version="1.0" encoding="UTF-8" standalone="no"?>
<!DOCTYPE svg PUBLIC "-//W3C//DTD SVG 1.1//EN"
 "http://www.w3.org/Graphics/SVG/1.1/DTD/svg11.dtd">
<!-- Generated by graphviz version 2.26.3 (20100126.1600)
 -->
<!-- Title: GPrioritizedHook Pages: 1 -->
<svg width="196pt" height="102pt"
 viewBox="0.00 0.00 196.00 102.00" xmlns="http://www.w3.org/2000/svg" xmlns:xlink="http://www.w3.org/1999/xlink">
<g id="graph1" class="graph" transform="scale(1 1) rotate(0) translate(4 98)">
<title>GPrioritizedHook</title>
<polygon fill="white" stroke="white" points="-4,5 -4,-98 193,-98 193,5 -4,5"/>
<!-- Node1 -->
<g id="node1" class="node"><title>Node1</title>
<polygon fill="#bfbfbf" stroke="black" points="33.5,-0.5 33.5,-21.5 130.5,-21.5 130.5,-0.5 33.5,-0.5"/>
<text text-anchor="middle" x="82" y="-8.5" font-family="Helvetica,sans-Serif" font-size="10.00">GPrioritizedHook</text>
</g>
<!-- Node2 -->
<g id="node2" class="node"><title>Node2</title>
<polygon fill="white" stroke="#bfbfbf" points="0,-72.5 0,-93.5 50,-93.5 50,-72.5 0,-72.5"/>
<text text-anchor="middle" x="25" y="-80.5" font-family="Helvetica,sans-Serif" font-size="10.00">GHook</text>
</g>
<!-- Node2&#45;&gt;Node1 -->
<g id="edge2" class="edge"><title>Node2&#45;&gt;Node1</title>
<path fill="none" stroke="#9a32cd" stroke-dasharray="5,2" d="M35.8004,-63.6235C40.4047,-55.9803 46.0781,-47.3004 52,-40 57.2937,-33.4741 63.9496,-26.9079 69.6464,-21.6779"/>
<polygon fill="#9a32cd" stroke="#9a32cd" points="32.7734,-61.8664 30.7695,-72.2701 38.8238,-65.3868 32.7734,-61.8664"/>
<text text-anchor="middle" x="65" y="-44.5" font-family="Helvetica,sans-Serif" font-size="10.00"> base</text>
</g>
<!-- Node3 -->
<g id="node4" class="node"><title>Node3</title>
<polygon fill="white" stroke="#bfbfbf" points="67.5,-72.5 67.5,-93.5 96.5,-93.5 96.5,-72.5 67.5,-72.5"/>
<text text-anchor="middle" x="82" y="-80.5" font-family="Helvetica,sans-Serif" font-size="10.00">int</text>
</g>
<!-- Node3&#45;&gt;Node1 -->
<g id="edge4" class="edge"><title>Node3&#45;&gt;Node1</title>
<path fill="none" stroke="#9a32cd" stroke-dasharray="5,2" d="M82,-62.2348C82,-48.969 82,-32.3188 82,-21.6674"/>
<polygon fill="#9a32cd" stroke="#9a32cd" points="78.5001,-62.3761 82,-72.3762 85.5001,-62.3762 78.5001,-62.3761"/>
<text text-anchor="middle" x="100" y="-44.5" font-family="Helvetica,sans-Serif" font-size="10.00"> priority</text>
</g>
<!-- Node4 -->
<g id="node6" class="node"><title>Node4</title>
<polygon fill="white" stroke="#bfbfbf" points="114,-72.5 114,-93.5 188,-93.5 188,-72.5 114,-72.5"/>
<text text-anchor="middle" x="151" y="-80.5" font-family="Helvetica,sans-Serif" font-size="10.00">const char *</text>
</g>
<!-- Node4&#45;&gt;Node1 -->
<g id="edge6" class="edge"><title>Node4&#45;&gt;Node1</title>
<path fill="none" stroke="#9a32cd" stroke-dasharray="5,2" d="M140.077,-63.7825C135.12,-55.9405 128.837,-47.0731 122,-40 115.323,-33.0926 106.832,-26.6784 99.3928,-21.648"/>
<polygon fill="#9a32cd" stroke="#9a32cd" points="137.08,-65.5908 145.24,-72.3484 143.075,-61.9771 137.08,-65.5908"/>
<text text-anchor="middle" x="159.5" y="-44.5" font-family="Helvetica,sans-Serif" font-size="10.00"> func_name</text>
</g>
</g>
</svg>
