<?xml version="1.0" encoding="UTF-8" standalone="no"?>
<!DOCTYPE svg PUBLIC "-//W3C//DTD SVG 1.1//EN"
 "http://www.w3.org/Graphics/SVG/1.1/DTD/svg11.dtd">
<!-- Generated by graphviz version 2.26.3 (20100126.1600)
 -->
<!-- Title: PwrEventClientInfo Pages: 1 -->
<svg width="404pt" height="140pt"
 viewBox="0.00 0.00 404.00 140.00" xmlns="http://www.w3.org/2000/svg" xmlns:xlink="http://www.w3.org/1999/xlink">
<g id="graph1" class="graph" transform="scale(1 1) rotate(0) translate(4 136)">
<title>PwrEventClientInfo</title>
<polygon fill="white" stroke="white" points="-4,5 -4,-136 401,-136 401,5 -4,5"/>
<!-- Node1 -->
<g id="node1" class="node"><title>Node1</title>
<polygon fill="#bfbfbf" stroke="black" points="122.5,-0.5 122.5,-21.5 229.5,-21.5 229.5,-0.5 122.5,-0.5"/>
<text text-anchor="middle" x="176" y="-8.5" font-family="Helvetica,sans-Serif" font-size="10.00">PwrEventClientInfo</text>
</g>
<!-- Node2 -->
<g id="node2" class="node"><title>Node2</title>
<polygon fill="white" stroke="#bfbfbf" points="-0.5,-110.5 -0.5,-131.5 28.5,-131.5 28.5,-110.5 -0.5,-110.5"/>
<text text-anchor="middle" x="14" y="-118.5" font-family="Helvetica,sans-Serif" font-size="10.00">int</text>
</g>
<!-- Node2&#45;&gt;Node1 -->
<g id="edge2" class="edge"><title>Node2&#45;&gt;Node1</title>
<path fill="none" stroke="#9a32cd" stroke-dasharray="5,2" d="M13.0365,-100.318C13.3663,-81.9124 16.9559,-55.5649 33,-40 45.7272,-27.6529 87.3014,-20.1374 122.365,-15.8615"/>
<polygon fill="#9a32cd" stroke="#9a32cd" points="9.53693,-100.383 13.1596,-110.339 16.5364,-100.297 9.53693,-100.383"/>
<text text-anchor="middle" x="102.5" y="-83" font-family="Helvetica,sans-Serif" font-size="10.00"> ackPrepareSuspend</text>
<text text-anchor="middle" x="102.5" y="-70" font-family="Helvetica,sans-Serif" font-size="10.00">num_NACK_suspendRequest</text>
<text text-anchor="middle" x="102.5" y="-57" font-family="Helvetica,sans-Serif" font-size="10.00">ackSuspendRequest</text>
<text text-anchor="middle" x="102.5" y="-44" font-family="Helvetica,sans-Serif" font-size="10.00">num_NACK_prepareSuspend</text>
</g>
<!-- Node3 -->
<g id="node4" class="node"><title>Node3</title>
<polygon fill="white" stroke="#bfbfbf" points="158,-110.5 158,-131.5 194,-131.5 194,-110.5 158,-110.5"/>
<text text-anchor="middle" x="176" y="-118.5" font-family="Helvetica,sans-Serif" font-size="10.00">bool</text>
</g>
<!-- Node3&#45;&gt;Node1 -->
<g id="edge4" class="edge"><title>Node3&#45;&gt;Node1</title>
<path fill="none" stroke="#9a32cd" stroke-dasharray="5,2" d="M176,-100.22C176,-76.8464 176,-39.7904 176,-21.677"/>
<polygon fill="#9a32cd" stroke="#9a32cd" points="172.5,-100.453 176,-110.453 179.5,-100.453 172.5,-100.453"/>
<text text-anchor="middle" x="234" y="-70" font-family="Helvetica,sans-Serif" font-size="10.00"> requirePrepareSuspend</text>
<text text-anchor="middle" x="234" y="-57" font-family="Helvetica,sans-Serif" font-size="10.00">requireSuspendRequest</text>
</g>
<!-- Node4 -->
<g id="node6" class="node"><title>Node4</title>
<polygon fill="white" stroke="#bfbfbf" points="292,-110.5 292,-131.5 338,-131.5 338,-110.5 292,-110.5"/>
<text text-anchor="middle" x="315" y="-118.5" font-family="Helvetica,sans-Serif" font-size="10.00">char *</text>
</g>
<!-- Node4&#45;&gt;Node1 -->
<g id="edge6" class="edge"><title>Node4&#45;&gt;Node1</title>
<path fill="none" stroke="#9a32cd" stroke-dasharray="5,2" d="M314.947,-100.154C313.748,-81.8261 309.047,-55.6938 293,-40 283.687,-30.8914 255.76,-23.7834 229.527,-18.8844"/>
<polygon fill="#9a32cd" stroke="#9a32cd" points="311.458,-100.525 315.311,-110.394 318.454,-100.276 311.458,-100.525"/>
<text text-anchor="middle" x="355" y="-76.5" font-family="Helvetica,sans-Serif" font-size="10.00"> applicationName</text>
<text text-anchor="middle" x="355" y="-63.5" font-family="Helvetica,sans-Serif" font-size="10.00">clientId</text>
<text text-anchor="middle" x="355" y="-50.5" font-family="Helvetica,sans-Serif" font-size="10.00">clientName</text>
</g>
</g>
</svg>
