<?xml version="1.0" encoding="UTF-8" standalone="no"?>
<!DOCTYPE svg PUBLIC "-//W3C//DTD SVG 1.1//EN"
 "http://www.w3.org/Graphics/SVG/1.1/DTD/svg11.dtd">
<!-- Generated by graphviz version 2.26.3 (20100126.1600)
 -->
<!-- Title: suspend_ipc.c Pages: 1 -->
<svg width="1028pt" height="146pt"
 viewBox="0.00 0.00 1028.00 146.00" xmlns="http://www.w3.org/2000/svg" xmlns:xlink="http://www.w3.org/1999/xlink">
<g id="graph1" class="graph" transform="scale(1 1) rotate(0) translate(4 142)">
<title>suspend_ipc.c</title>
<polygon fill="white" stroke="white" points="-4,5 -4,-142 1025,-142 1025,5 -4,5"/>
<!-- Node1 -->
<g id="node1" class="node"><title>Node1</title>
<polygon fill="#bfbfbf" stroke="black" points="435.5,-116.5 435.5,-137.5 518.5,-137.5 518.5,-116.5 435.5,-116.5"/>
<text text-anchor="middle" x="477" y="-124.5" font-family="Helvetica,sans-Serif" font-size="10.00">suspend_ipc.c</text>
</g>
<!-- Node2 -->
<g id="node3" class="node"><title>Node2</title>
<polygon fill="white" stroke="#bfbfbf" points="-0.5,-58.5 -0.5,-79.5 54.5,-79.5 54.5,-58.5 -0.5,-58.5"/>
<text text-anchor="middle" x="27" y="-66.5" font-family="Helvetica,sans-Serif" font-size="10.00">syslog.h</text>
</g>
<!-- Node1&#45;&gt;Node2 -->
<g id="edge2" class="edge"><title>Node1&#45;&gt;Node2</title>
<path fill="none" stroke="midnightblue" d="M435.469,-124.812C362.194,-120.407 205.154,-108.525 64.8487,-80.1131"/>
<polygon fill="midnightblue" stroke="midnightblue" points="65.2776,-76.628 54.7771,-78.0387 63.8654,-83.4841 65.2776,-76.628"/>
</g>
<!-- Node3 -->
<g id="node5" class="node"><title>Node3</title>
<polygon fill="white" stroke="#bfbfbf" points="72,-58.5 72,-79.5 144,-79.5 144,-58.5 72,-58.5"/>
<text text-anchor="middle" x="108" y="-66.5" font-family="Helvetica,sans-Serif" font-size="10.00">cjson/json.h</text>
</g>
<!-- Node1&#45;&gt;Node3 -->
<g id="edge4" class="edge"><title>Node1&#45;&gt;Node3</title>
<path fill="none" stroke="midnightblue" d="M435.358,-122.253C375.349,-115.129 260.909,-100.489 154.248,-80.1104"/>
<polygon fill="midnightblue" stroke="midnightblue" points="154.766,-76.6458 144.284,-78.1851 153.438,-83.5187 154.766,-76.6458"/>
</g>
<!-- Node4 -->
<g id="node7" class="node"><title>Node4</title>
<polygon fill="white" stroke="#bfbfbf" points="696.5,-0.5 696.5,-21.5 839.5,-21.5 839.5,-0.5 696.5,-0.5"/>
<text text-anchor="middle" x="768" y="-8.5" font-family="Helvetica,sans-Serif" font-size="10.00">luna&#45;service2/lunaservice.h</text>
</g>
<!-- Node1&#45;&gt;Node4 -->
<g id="edge6" class="edge"><title>Node1&#45;&gt;Node4</title>
<path fill="none" stroke="midnightblue" d="M518.773,-117.022C550.284,-108.838 594.219,-96.0082 631,-80 648.894,-72.212 651.727,-67.0812 669,-58 690.61,-46.639 715.43,-34.8586 734.812,-25.9337"/>
<polygon fill="midnightblue" stroke="midnightblue" points="736.492,-29.0141 744.129,-21.6704 733.579,-22.6489 736.492,-29.0141"/>
</g>
<!-- Node5 -->
<g id="node9" class="node"><title>Node5</title>
<a xlink:href="wait_8h.htm" target="_top" xlink:title="wait.h">
<polygon fill="white" stroke="black" points="162,-58.5 162,-79.5 206,-79.5 206,-58.5 162,-58.5"/>
<text text-anchor="middle" x="184" y="-66.5" font-family="Helvetica,sans-Serif" font-size="10.00">wait.h</text>
</a>
</g>
<!-- Node1&#45;&gt;Node5 -->
<g id="edge8" class="edge"><title>Node1&#45;&gt;Node5</title>
<path fill="none" stroke="midnightblue" d="M435.247,-121.659C385.14,-114.778 298.522,-101.387 215.995,-79.9561"/>
<polygon fill="midnightblue" stroke="midnightblue" points="216.777,-76.5425 206.214,-77.3726 214.989,-83.3104 216.777,-76.5425"/>
</g>
<!-- Node8 -->
<g id="node15" class="node"><title>Node8</title>
<a xlink:href="init_8h.htm" target="_top" xlink:title="init.h">
<polygon fill="white" stroke="black" points="294,-58.5 294,-79.5 332,-79.5 332,-58.5 294,-58.5"/>
<text text-anchor="middle" x="313" y="-66.5" font-family="Helvetica,sans-Serif" font-size="10.00">init.h</text>
</a>
</g>
<!-- Node1&#45;&gt;Node8 -->
<g id="edge14" class="edge"><title>Node1&#45;&gt;Node8</title>
<path fill="none" stroke="midnightblue" d="M445.265,-116.449C419.616,-107.829 382.378,-95.1097 341.783,-80.2023"/>
<polygon fill="midnightblue" stroke="midnightblue" points="342.833,-76.8591 332.239,-76.6798 340.409,-83.426 342.833,-76.8591"/>
</g>
<!-- Node9 -->
<g id="node17" class="node"><title>Node9</title>
<a xlink:href="main_8h.htm" target="_top" xlink:title="main.h">
<polygon fill="white" stroke="black" points="487.5,-58.5 487.5,-79.5 534.5,-79.5 534.5,-58.5 487.5,-58.5"/>
<text text-anchor="middle" x="511" y="-66.5" font-family="Helvetica,sans-Serif" font-size="10.00">main.h</text>
</a>
</g>
<!-- Node1&#45;&gt;Node9 -->
<g id="edge16" class="edge"><title>Node1&#45;&gt;Node9</title>
<path fill="none" stroke="midnightblue" d="M483.236,-116.362C487.837,-108.513 494.225,-97.6159 499.714,-88.2527"/>
<polygon fill="midnightblue" stroke="midnightblue" points="502.766,-89.9677 504.803,-79.5707 496.727,-86.4276 502.766,-89.9677"/>
</g>
<!-- Node12 -->
<g id="node24" class="node"><title>Node12</title>
<a xlink:href="debug_8h.htm" target="_top" xlink:title="debug.h">
<polygon fill="white" stroke="black" points="417.5,-58.5 417.5,-79.5 470.5,-79.5 470.5,-58.5 417.5,-58.5"/>
<text text-anchor="middle" x="444" y="-66.5" font-family="Helvetica,sans-Serif" font-size="10.00">debug.h</text>
</a>
</g>
<!-- Node1&#45;&gt;Node12 -->
<g id="edge24" class="edge"><title>Node1&#45;&gt;Node12</title>
<path fill="none" stroke="midnightblue" d="M470.947,-116.362C466.528,-108.595 460.41,-97.8426 455.121,-88.5458"/>
<polygon fill="midnightblue" stroke="midnightblue" points="458.002,-86.5315 450.014,-79.5707 451.918,-89.9932 458.002,-86.5315"/>
</g>
<!-- Node16 -->
<g id="node34" class="node"><title>Node16</title>
<a xlink:href="client_8h.htm" target="_top" xlink:title="client.h">
<polygon fill="white" stroke="black" points="350,-58.5 350,-79.5 400,-79.5 400,-58.5 350,-58.5"/>
<text text-anchor="middle" x="375" y="-66.5" font-family="Helvetica,sans-Serif" font-size="10.00">client.h</text>
</a>
</g>
<!-- Node1&#45;&gt;Node16 -->
<g id="edge36" class="edge"><title>Node1&#45;&gt;Node16</title>
<path fill="none" stroke="midnightblue" d="M458.292,-116.362C442.619,-107.45 420.036,-94.6087 402.337,-84.5447"/>
<polygon fill="midnightblue" stroke="midnightblue" points="404.013,-81.4712 393.59,-79.5707 400.553,-87.5562 404.013,-81.4712"/>
</g>
<!-- Node17 -->
<g id="node38" class="node"><title>Node17</title>
<a xlink:href="shutdown_8h.htm" target="_top" xlink:title="shutdown.h">
<polygon fill="white" stroke="black" points="552,-58.5 552,-79.5 622,-79.5 622,-58.5 552,-58.5"/>
<text text-anchor="middle" x="587" y="-66.5" font-family="Helvetica,sans-Serif" font-size="10.00">shutdown.h</text>
</a>
</g>
<!-- Node1&#45;&gt;Node17 -->
<g id="edge42" class="edge"><title>Node1&#45;&gt;Node17</title>
<path fill="none" stroke="midnightblue" d="M496.92,-116.497C513.946,-107.519 538.669,-94.4835 557.909,-84.3387"/>
<polygon fill="midnightblue" stroke="midnightblue" points="559.643,-87.3814 566.856,-79.6212 556.378,-81.1894 559.643,-87.3814"/>
</g>
<!-- Node18 -->
<g id="node40" class="node"><title>Node18</title>
<a xlink:href="suspend_8h.htm" target="_top" xlink:title="suspend.h">
<polygon fill="white" stroke="black" points="751.5,-58.5 751.5,-79.5 816.5,-79.5 816.5,-58.5 751.5,-58.5"/>
<text text-anchor="middle" x="784" y="-66.5" font-family="Helvetica,sans-Serif" font-size="10.00">suspend.h</text>
</a>
</g>
<!-- Node1&#45;&gt;Node18 -->
<g id="edge44" class="edge"><title>Node1&#45;&gt;Node18</title>
<path fill="none" stroke="midnightblue" d="M518.689,-120.787C569.246,-112.999 657.231,-98.6327 741.411,-80.229"/>
<polygon fill="midnightblue" stroke="midnightblue" points="742.38,-83.5994 751.39,-78.0242 740.87,-76.7642 742.38,-83.5994"/>
</g>
<!-- Node19 -->
<g id="node43" class="node"><title>Node19</title>
<a xlink:href="activity_8h.htm" target="_top" xlink:title="activity.h">
<polygon fill="white" stroke="black" points="677.5,-58.5 677.5,-79.5 734.5,-79.5 734.5,-58.5 677.5,-58.5"/>
<text text-anchor="middle" x="706" y="-66.5" font-family="Helvetica,sans-Serif" font-size="10.00">activity.h</text>
</a>
</g>
<!-- Node1&#45;&gt;Node19 -->
<g id="edge48" class="edge"><title>Node1&#45;&gt;Node19</title>
<path fill="none" stroke="midnightblue" d="M518.622,-116.664C556.538,-107.219 614.066,-92.8137 664,-80 665.059,-79.7283 666.132,-79.4522 667.215,-79.1728"/>
<polygon fill="midnightblue" stroke="midnightblue" points="668.289,-82.5102 677.09,-76.6118 666.532,-75.7344 668.289,-82.5102"/>
</g>
<!-- Node20 -->
<g id="node45" class="node"><title>Node20</title>
<a xlink:href="logging_8h.htm" target="_top" xlink:title="logging.h">
<polygon fill="white" stroke="black" points="953.5,-58.5 953.5,-79.5 1012.5,-79.5 1012.5,-58.5 953.5,-58.5"/>
<text text-anchor="middle" x="983" y="-66.5" font-family="Helvetica,sans-Serif" font-size="10.00">logging.h</text>
</a>
</g>
<!-- Node1&#45;&gt;Node20 -->
<g id="edge50" class="edge"><title>Node1&#45;&gt;Node20</title>
<path fill="none" stroke="midnightblue" d="M518.686,-125.355C599.212,-121.631 781.772,-110.532 943.147,-80.1017"/>
<polygon fill="midnightblue" stroke="midnightblue" points="944.091,-83.4844 953.254,-78.1648 942.774,-76.6095 944.091,-83.4844"/>
</g>
<!-- Node22 -->
<g id="node49" class="node"><title>Node22</title>
<a xlink:href="lunaservice__utils_8h.htm" target="_top" xlink:title="lunaservice_utils.h">
<polygon fill="white" stroke="black" points="834,-58.5 834,-79.5 936,-79.5 936,-58.5 834,-58.5"/>
<text text-anchor="middle" x="885" y="-66.5" font-family="Helvetica,sans-Serif" font-size="10.00">lunaservice_utils.h</text>
</a>
</g>
<!-- Node1&#45;&gt;Node22 -->
<g id="edge54" class="edge"><title>Node1&#45;&gt;Node22</title>
<path fill="none" stroke="midnightblue" d="M518.608,-122.023C582.126,-114.285 707.319,-98.4822 823.804,-80.1358"/>
<polygon fill="midnightblue" stroke="midnightblue" points="824.636,-83.5476 833.965,-78.5253 823.54,-76.6339 824.636,-83.5476"/>
</g>
<!-- Node23 -->
<g id="node52" class="node"><title>Node23</title>
<a xlink:href="config_8h.htm" target="_top" xlink:title="config.h">
<polygon fill="white" stroke="black" points="223.5,-58.5 223.5,-79.5 276.5,-79.5 276.5,-58.5 223.5,-58.5"/>
<text text-anchor="middle" x="250" y="-66.5" font-family="Helvetica,sans-Serif" font-size="10.00">config.h</text>
</a>
</g>
<!-- Node1&#45;&gt;Node23 -->
<g id="edge58" class="edge"><title>Node1&#45;&gt;Node23</title>
<path fill="none" stroke="midnightblue" d="M435.225,-117.592C398.33,-109.101 342.876,-95.8952 286.492,-80.3138"/>
<polygon fill="midnightblue" stroke="midnightblue" points="287.273,-76.8981 276.7,-77.5862 285.394,-83.6414 287.273,-76.8981"/>
</g>
<!-- Node6 -->
<g id="node11" class="node"><title>Node6</title>
<polygon fill="white" stroke="#bfbfbf" points="147,-0.5 147,-21.5 209,-21.5 209,-0.5 147,-0.5"/>
<text text-anchor="middle" x="178" y="-8.5" font-family="Helvetica,sans-Serif" font-size="10.00">pthread.h</text>
</g>
<!-- Node5&#45;&gt;Node6 -->
<g id="edge10" class="edge"><title>Node5&#45;&gt;Node6</title>
<path fill="none" stroke="midnightblue" d="M182.9,-58.3619C182.13,-50.9219 181.077,-40.7427 180.144,-31.7276"/>
<polygon fill="midnightblue" stroke="midnightblue" points="183.604,-31.1574 179.094,-21.5707 176.641,-31.8777 183.604,-31.1574"/>
</g>
<!-- Node7 -->
<g id="node13" class="node"><title>Node7</title>
<polygon fill="white" stroke="#bfbfbf" points="226.5,-0.5 226.5,-21.5 285.5,-21.5 285.5,-0.5 226.5,-0.5"/>
<text text-anchor="middle" x="256" y="-8.5" font-family="Helvetica,sans-Serif" font-size="10.00">stdbool.h</text>
</g>
<!-- Node5&#45;&gt;Node7 -->
<g id="edge12" class="edge"><title>Node5&#45;&gt;Node7</title>
<path fill="none" stroke="midnightblue" d="M197.206,-58.3619C207.761,-49.859 222.758,-37.7785 234.963,-27.9466"/>
<polygon fill="midnightblue" stroke="midnightblue" points="237.286,-30.5696 242.878,-21.5707 232.895,-25.1183 237.286,-30.5696"/>
</g>
<!-- Node9&#45;&gt;Node4 -->
<g id="edge20" class="edge"><title>Node9&#45;&gt;Node4</title>
<path fill="none" stroke="midnightblue" d="M534.662,-60.4967C537.457,-59.6024 540.281,-58.7481 543,-58 594.152,-43.9253 652.856,-31.7936 697.473,-23.3827"/>
<polygon fill="midnightblue" stroke="midnightblue" points="698.158,-26.8154 707.345,-21.5389 696.873,-19.9344 698.158,-26.8154"/>
</g>
<!-- Node10 -->
<g id="node19" class="node"><title>Node10</title>
<polygon fill="white" stroke="#bfbfbf" points="438.5,-0.5 438.5,-21.5 479.5,-21.5 479.5,-0.5 438.5,-0.5"/>
<text text-anchor="middle" x="459" y="-8.5" font-family="Helvetica,sans-Serif" font-size="10.00">glib.h</text>
</g>
<!-- Node9&#45;&gt;Node10 -->
<g id="edge18" class="edge"><title>Node9&#45;&gt;Node10</title>
<path fill="none" stroke="midnightblue" d="M501.462,-58.3619C494.132,-50.1861 483.837,-38.7025 475.219,-29.0907"/>
<polygon fill="midnightblue" stroke="midnightblue" points="477.759,-26.68 468.477,-21.5707 472.547,-31.3528 477.759,-26.68"/>
</g>
<!-- Node11 -->
<g id="node22" class="node"><title>Node11</title>
<polygon fill="white" stroke="#bfbfbf" points="565,-0.5 565,-21.5 657,-21.5 657,-0.5 565,-0.5"/>
<text text-anchor="middle" x="611" y="-8.5" font-family="Helvetica,sans-Serif" font-size="10.00">nyx/nyx_client.h</text>
</g>
<!-- Node9&#45;&gt;Node11 -->
<g id="edge22" class="edge"><title>Node9&#45;&gt;Node11</title>
<path fill="none" stroke="midnightblue" d="M529.342,-58.3619C544.566,-49.532 566.441,-36.844 583.72,-26.8224"/>
<polygon fill="midnightblue" stroke="midnightblue" points="585.88,-29.6155 592.775,-21.5707 582.368,-23.5603 585.88,-29.6155"/>
</g>
<!-- Node12&#45;&gt;Node7 -->
<g id="edge34" class="edge"><title>Node12&#45;&gt;Node7</title>
<path fill="none" stroke="midnightblue" d="M417.253,-60.5741C414.467,-59.7023 411.676,-58.8316 409,-58 370.497,-46.0358 326.489,-32.5352 295.585,-23.0834"/>
<polygon fill="midnightblue" stroke="midnightblue" points="296.221,-19.6178 285.634,-20.0413 294.174,-26.3119 296.221,-19.6178"/>
</g>
<!-- Node12&#45;&gt;Node10 -->
<g id="edge30" class="edge"><title>Node12&#45;&gt;Node10</title>
<path fill="none" stroke="midnightblue" d="M446.751,-58.3619C448.697,-50.8401 451.366,-40.5187 453.716,-31.4308"/>
<polygon fill="midnightblue" stroke="midnightblue" points="457.151,-32.1285 456.266,-21.5707 450.374,-30.3758 457.151,-32.1285"/>
</g>
<!-- Node13 -->
<g id="node26" class="node"><title>Node13</title>
<polygon fill="white" stroke="#bfbfbf" points="302.5,-0.5 302.5,-21.5 349.5,-21.5 349.5,-0.5 302.5,-0.5"/>
<text text-anchor="middle" x="326" y="-8.5" font-family="Helvetica,sans-Serif" font-size="10.00">stdio.h</text>
</g>
<!-- Node12&#45;&gt;Node13 -->
<g id="edge26" class="edge"><title>Node12&#45;&gt;Node13</title>
<path fill="none" stroke="midnightblue" d="M422.631,-58.4966C404.201,-49.4378 377.363,-36.2462 356.645,-26.0628"/>
<polygon fill="midnightblue" stroke="midnightblue" points="358.127,-22.8914 347.609,-21.6212 355.039,-29.1735 358.127,-22.8914"/>
</g>
<!-- Node14 -->
<g id="node28" class="node"><title>Node14</title>
<polygon fill="white" stroke="#bfbfbf" points="367,-0.5 367,-21.5 421,-21.5 421,-0.5 367,-0.5"/>
<text text-anchor="middle" x="394" y="-8.5" font-family="Helvetica,sans-Serif" font-size="10.00">assert.h</text>
</g>
<!-- Node12&#45;&gt;Node14 -->
<g id="edge28" class="edge"><title>Node12&#45;&gt;Node14</title>
<path fill="none" stroke="midnightblue" d="M434.829,-58.3619C427.852,-50.2678 418.079,-38.9318 409.844,-29.3796"/>
<polygon fill="midnightblue" stroke="midnightblue" points="412.293,-26.8595 403.113,-21.5707 406.991,-31.4301 412.293,-26.8595"/>
</g>
<!-- Node15 -->
<g id="node31" class="node"><title>Node15</title>
<polygon fill="white" stroke="#bfbfbf" points="496.5,-0.5 496.5,-21.5 547.5,-21.5 547.5,-0.5 496.5,-0.5"/>
<text text-anchor="middle" x="522" y="-8.5" font-family="Helvetica,sans-Serif" font-size="10.00">string.h</text>
</g>
<!-- Node12&#45;&gt;Node15 -->
<g id="edge32" class="edge"><title>Node12&#45;&gt;Node15</title>
<path fill="none" stroke="midnightblue" d="M458.306,-58.3619C469.851,-49.7773 486.3,-37.5459 499.59,-27.6636"/>
<polygon fill="midnightblue" stroke="midnightblue" points="501.848,-30.3463 507.784,-21.5707 497.671,-24.7291 501.848,-30.3463"/>
</g>
<!-- Node16&#45;&gt;Node7 -->
<g id="edge38" class="edge"><title>Node16&#45;&gt;Node7</title>
<path fill="none" stroke="midnightblue" d="M353.45,-58.4966C334.864,-49.4378 307.798,-36.2462 286.905,-26.0628"/>
<polygon fill="midnightblue" stroke="midnightblue" points="288.314,-22.8563 277.792,-21.6212 285.247,-29.1487 288.314,-22.8563"/>
</g>
<!-- Node16&#45;&gt;Node10 -->
<g id="edge40" class="edge"><title>Node16&#45;&gt;Node10</title>
<path fill="none" stroke="midnightblue" d="M390.407,-58.3619C402.958,-49.6955 420.892,-37.3126 435.275,-27.3819"/>
<polygon fill="midnightblue" stroke="midnightblue" points="437.45,-30.1327 443.691,-21.5707 433.473,-24.3725 437.45,-30.1327"/>
</g>
<!-- Node18&#45;&gt;Node4 -->
<g id="edge46" class="edge"><title>Node18&#45;&gt;Node4</title>
<path fill="none" stroke="midnightblue" d="M781.065,-58.3619C778.99,-50.8401 776.143,-40.5187 773.636,-31.4308"/>
<polygon fill="midnightblue" stroke="midnightblue" points="776.949,-30.2798 770.916,-21.5707 770.201,-32.1414 776.949,-30.2798"/>
</g>
<!-- Node21 -->
<g id="node47" class="node"><title>Node21</title>
<polygon fill="white" stroke="#bfbfbf" points="946,-0.5 946,-21.5 1020,-21.5 1020,-0.5 946,-0.5"/>
<text text-anchor="middle" x="983" y="-8.5" font-family="Helvetica,sans-Serif" font-size="10.00">sys/syslog.h</text>
</g>
<!-- Node20&#45;&gt;Node21 -->
<g id="edge52" class="edge"><title>Node20&#45;&gt;Node21</title>
<path fill="none" stroke="midnightblue" d="M983,-58.3619C983,-50.9219 983,-40.7427 983,-31.7276"/>
<polygon fill="midnightblue" stroke="midnightblue" points="986.5,-31.5706 983,-21.5707 979.5,-31.5707 986.5,-31.5706"/>
</g>
<!-- Node22&#45;&gt;Node4 -->
<g id="edge56" class="edge"><title>Node22&#45;&gt;Node4</title>
<path fill="none" stroke="midnightblue" d="M863.812,-58.4966C845.538,-49.4378 818.928,-36.2462 798.385,-26.0628"/>
<polygon fill="midnightblue" stroke="midnightblue" points="799.94,-22.9269 789.426,-21.6212 796.831,-29.1986 799.94,-22.9269"/>
</g>
<!-- Node23&#45;&gt;Node7 -->
<g id="edge60" class="edge"><title>Node23&#45;&gt;Node7</title>
<path fill="none" stroke="midnightblue" d="M251.1,-58.3619C251.87,-50.9219 252.923,-40.7427 253.856,-31.7276"/>
<polygon fill="midnightblue" stroke="midnightblue" points="257.359,-31.8777 254.906,-21.5707 250.396,-31.1574 257.359,-31.8777"/>
</g>
</g>
</svg>
