<?xml version="1.0" encoding="UTF-8" standalone="no"?>
<!DOCTYPE svg PUBLIC "-//W3C//DTD SVG 1.1//EN"
 "http://www.w3.org/Graphics/SVG/1.1/DTD/svg11.dtd">
<!-- Generated by graphviz version 2.26.3 (20100126.1600)
 -->
<!-- Title: suspend.c Pages: 1 -->
<svg width="1720pt" height="146pt"
 viewBox="0.00 0.00 1720.00 146.00" xmlns="http://www.w3.org/2000/svg" xmlns:xlink="http://www.w3.org/1999/xlink">
<g id="graph1" class="graph" transform="scale(1 1) rotate(0) translate(4 142)">
<title>suspend.c</title>
<polygon fill="white" stroke="white" points="-4,5 -4,-142 1717,-142 1717,5 -4,5"/>
<!-- Node1 -->
<g id="node1" class="node"><title>Node1</title>
<polygon fill="#bfbfbf" stroke="black" points="732,-116.5 732,-137.5 796,-137.5 796,-116.5 732,-116.5"/>
<text text-anchor="middle" x="764" y="-124.5" font-family="Helvetica,sans-Serif" font-size="10.00">suspend.c</text>
</g>
<!-- Node2 -->
<g id="node3" class="node"><title>Node2</title>
<polygon fill="white" stroke="#bfbfbf" points="190.5,-0.5 190.5,-21.5 249.5,-21.5 249.5,-0.5 190.5,-0.5"/>
<text text-anchor="middle" x="220" y="-8.5" font-family="Helvetica,sans-Serif" font-size="10.00">stdbool.h</text>
</g>
<!-- Node1&#45;&gt;Node2 -->
<g id="edge2" class="edge"><title>Node1&#45;&gt;Node2</title>
<path fill="none" stroke="midnightblue" d="M731.773,-125.932C601.64,-121.464 120.821,-103.418 99,-80 70.6457,-49.571 135.007,-28.8842 180.302,-18.5841"/>
<polygon fill="midnightblue" stroke="midnightblue" points="181.178,-21.9753 190.203,-16.4256 179.687,-15.1359 181.178,-21.9753"/>
</g>
<!-- Node3 -->
<g id="node5" class="node"><title>Node3</title>
<polygon fill="white" stroke="#bfbfbf" points="602.5,-0.5 602.5,-21.5 653.5,-21.5 653.5,-0.5 602.5,-0.5"/>
<text text-anchor="middle" x="628" y="-8.5" font-family="Helvetica,sans-Serif" font-size="10.00">string.h</text>
</g>
<!-- Node1&#45;&gt;Node3 -->
<g id="edge4" class="edge"><title>Node1&#45;&gt;Node3</title>
<path fill="none" stroke="midnightblue" d="M731.968,-121.469C706.445,-115.456 671.534,-103.386 650,-80 637.801,-66.7518 632.366,-46.7281 629.944,-31.6581"/>
<polygon fill="midnightblue" stroke="midnightblue" points="633.414,-31.1967 628.66,-21.7281 626.472,-32.0944 633.414,-31.1967"/>
</g>
<!-- Node4 -->
<g id="node7" class="node"><title>Node4</title>
<polygon fill="white" stroke="#bfbfbf" points="347,-0.5 347,-21.5 391,-21.5 391,-0.5 347,-0.5"/>
<text text-anchor="middle" x="369" y="-8.5" font-family="Helvetica,sans-Serif" font-size="10.00">time.h</text>
</g>
<!-- Node1&#45;&gt;Node4 -->
<g id="edge6" class="edge"><title>Node1&#45;&gt;Node4</title>
<path fill="none" stroke="midnightblue" d="M731.747,-125.281C643.696,-120.283 404.096,-104.539 379,-80 366.464,-67.7427 364.913,-47.267 365.929,-31.7967"/>
<polygon fill="midnightblue" stroke="midnightblue" points="369.435,-31.9172 367.002,-21.6056 362.474,-31.1841 369.435,-31.9172"/>
</g>
<!-- Node5 -->
<g id="node9" class="node"><title>Node5</title>
<polygon fill="white" stroke="#bfbfbf" points="851.5,-58.5 851.5,-79.5 904.5,-79.5 904.5,-58.5 851.5,-58.5"/>
<text text-anchor="middle" x="878" y="-66.5" font-family="Helvetica,sans-Serif" font-size="10.00">unistd.h</text>
</g>
<!-- Node1&#45;&gt;Node5 -->
<g id="edge8" class="edge"><title>Node1&#45;&gt;Node5</title>
<path fill="none" stroke="midnightblue" d="M784.645,-116.497C802.37,-107.479 828.145,-94.3649 848.123,-84.2006"/>
<polygon fill="midnightblue" stroke="midnightblue" points="849.798,-87.2753 857.124,-79.6212 846.624,-81.0364 849.798,-87.2753"/>
</g>
<!-- Node6 -->
<g id="node11" class="node"><title>Node6</title>
<polygon fill="white" stroke="#bfbfbf" points="921.5,-58.5 921.5,-79.5 970.5,-79.5 970.5,-58.5 921.5,-58.5"/>
<text text-anchor="middle" x="946" y="-66.5" font-family="Helvetica,sans-Serif" font-size="10.00">stdlib.h</text>
</g>
<!-- Node1&#45;&gt;Node6 -->
<g id="edge10" class="edge"><title>Node1&#45;&gt;Node6</title>
<path fill="none" stroke="midnightblue" d="M796.02,-117.064C824.22,-108.277 866.643,-94.9713 911.535,-80.4482"/>
<polygon fill="midnightblue" stroke="midnightblue" points="912.715,-83.7452 921.148,-77.3319 910.556,-77.0864 912.715,-83.7452"/>
</g>
<!-- Node7 -->
<g id="node13" class="node"><title>Node7</title>
<polygon fill="white" stroke="#bfbfbf" points="987.5,-58.5 987.5,-79.5 1042.5,-79.5 1042.5,-58.5 987.5,-58.5"/>
<text text-anchor="middle" x="1015" y="-66.5" font-family="Helvetica,sans-Serif" font-size="10.00">syslog.h</text>
</g>
<!-- Node1&#45;&gt;Node7 -->
<g id="edge12" class="edge"><title>Node1&#45;&gt;Node7</title>
<path fill="none" stroke="midnightblue" d="M796.249,-120.802C836.575,-112.866 907.904,-98.2191 977.37,-80.3021"/>
<polygon fill="midnightblue" stroke="midnightblue" points="978.361,-83.6607 987.156,-77.7525 976.596,-76.8868 978.361,-83.6607"/>
</g>
<!-- Node8 -->
<g id="node15" class="node"><title>Node8</title>
<a xlink:href="suspend_8h.htm" target="_top" xlink:title="suspend.h">
<polygon fill="white" stroke="black" points="731.5,-58.5 731.5,-79.5 796.5,-79.5 796.5,-58.5 731.5,-58.5"/>
<text text-anchor="middle" x="764" y="-66.5" font-family="Helvetica,sans-Serif" font-size="10.00">suspend.h</text>
</a>
</g>
<!-- Node1&#45;&gt;Node8 -->
<g id="edge14" class="edge"><title>Node1&#45;&gt;Node8</title>
<path fill="none" stroke="midnightblue" d="M764,-116.362C764,-108.922 764,-98.7427 764,-89.7276"/>
<polygon fill="midnightblue" stroke="midnightblue" points="767.5,-89.5706 764,-79.5707 760.5,-89.5707 767.5,-89.5706"/>
</g>
<!-- Node9 -->
<g id="node17" class="node"><title>Node9</title>
<polygon fill="white" stroke="#bfbfbf" points="670.5,-0.5 670.5,-21.5 813.5,-21.5 813.5,-0.5 670.5,-0.5"/>
<text text-anchor="middle" x="742" y="-8.5" font-family="Helvetica,sans-Serif" font-size="10.00">luna&#45;service2/lunaservice.h</text>
</g>
<!-- Node1&#45;&gt;Node9 -->
<g id="edge90" class="edge"><title>Node1&#45;&gt;Node9</title>
<path fill="none" stroke="midnightblue" d="M731.787,-122.094C707.217,-116.478 674.965,-104.638 659,-80 644.077,-56.9703 673.389,-37.7092 701.209,-25.4413"/>
<polygon fill="midnightblue" stroke="midnightblue" points="702.641,-28.6363 710.521,-21.5536 699.945,-22.1766 702.641,-28.6363"/>
</g>
<!-- Node10 -->
<g id="node19" class="node"><title>Node10</title>
<a xlink:href="clock_8h.htm" target="_top" xlink:title="clock.h">
<polygon fill="white" stroke="black" points="387.5,-58.5 387.5,-79.5 436.5,-79.5 436.5,-58.5 387.5,-58.5"/>
<text text-anchor="middle" x="412" y="-66.5" font-family="Helvetica,sans-Serif" font-size="10.00">clock.h</text>
</a>
</g>
<!-- Node1&#45;&gt;Node10 -->
<g id="edge18" class="edge"><title>Node1&#45;&gt;Node10</title>
<path fill="none" stroke="midnightblue" d="M731.954,-124.157C675.762,-118.769 555.764,-105.474 446.585,-80.0929"/>
<polygon fill="midnightblue" stroke="midnightblue" points="447.268,-76.658 436.731,-77.7617 445.657,-83.47 447.268,-76.658"/>
</g>
<!-- Node12 -->
<g id="node25" class="node"><title>Node12</title>
<a xlink:href="wait_8h.htm" target="_top" xlink:title="wait.h">
<polygon fill="white" stroke="black" points="288,-58.5 288,-79.5 332,-79.5 332,-58.5 288,-58.5"/>
<text text-anchor="middle" x="310" y="-66.5" font-family="Helvetica,sans-Serif" font-size="10.00">wait.h</text>
</a>
</g>
<!-- Node1&#45;&gt;Node12 -->
<g id="edge26" class="edge"><title>Node1&#45;&gt;Node12</title>
<path fill="none" stroke="midnightblue" d="M731.959,-125.417C661.515,-121.497 488.123,-109.44 346,-80 344.74,-79.739 343.461,-79.4531 342.173,-79.1477"/>
<polygon fill="midnightblue" stroke="midnightblue" points="342.867,-75.7104 332.303,-76.5129 341.062,-82.4736 342.867,-75.7104"/>
</g>
<!-- Node14 -->
<g id="node30" class="node"><title>Node14</title>
<a xlink:href="machine_8h.htm" target="_top" xlink:title="machine.h">
<polygon fill="white" stroke="black" points="107.5,-58.5 107.5,-79.5 172.5,-79.5 172.5,-58.5 107.5,-58.5"/>
<text text-anchor="middle" x="140" y="-66.5" font-family="Helvetica,sans-Serif" font-size="10.00">machine.h</text>
</a>
</g>
<!-- Node1&#45;&gt;Node14 -->
<g id="edge32" class="edge"><title>Node1&#45;&gt;Node14</title>
<path fill="none" stroke="midnightblue" d="M731.829,-126.452C644.687,-124.537 396.781,-116.222 182.722,-80.05"/>
<polygon fill="midnightblue" stroke="midnightblue" points="183.002,-76.5472 172.555,-78.3064 181.819,-83.4464 183.002,-76.5472"/>
</g>
<!-- Node15 -->
<g id="node33" class="node"><title>Node15</title>
<a xlink:href="debug_8h.htm" target="_top" xlink:title="debug.h">
<polygon fill="white" stroke="black" points="521.5,-58.5 521.5,-79.5 574.5,-79.5 574.5,-58.5 521.5,-58.5"/>
<text text-anchor="middle" x="548" y="-66.5" font-family="Helvetica,sans-Serif" font-size="10.00">debug.h</text>
</a>
</g>
<!-- Node1&#45;&gt;Node15 -->
<g id="edge36" class="edge"><title>Node1&#45;&gt;Node15</title>
<path fill="none" stroke="midnightblue" d="M731.865,-118.495C696.567,-109.135 638.214,-93.6089 588,-80 586.923,-79.708 585.829,-79.411 584.725,-79.1107"/>
<polygon fill="midnightblue" stroke="midnightblue" points="585.241,-75.6236 574.673,-76.3645 583.397,-82.3762 585.241,-75.6236"/>
</g>
<!-- Node18 -->
<g id="node42" class="node"><title>Node18</title>
<a xlink:href="main_8h.htm" target="_top" xlink:title="main.h">
<polygon fill="white" stroke="black" points="667.5,-58.5 667.5,-79.5 714.5,-79.5 714.5,-58.5 667.5,-58.5"/>
<text text-anchor="middle" x="691" y="-66.5" font-family="Helvetica,sans-Serif" font-size="10.00">main.h</text>
</a>
</g>
<!-- Node1&#45;&gt;Node18 -->
<g id="edge48" class="edge"><title>Node1&#45;&gt;Node18</title>
<path fill="none" stroke="midnightblue" d="M750.611,-116.362C739.909,-107.859 724.704,-95.7785 712.329,-85.9466"/>
<polygon fill="midnightblue" stroke="midnightblue" points="714.311,-83.0511 704.304,-79.5707 709.957,-88.5318 714.311,-83.0511"/>
</g>
<!-- Node19 -->
<g id="node46" class="node"><title>Node19</title>
<polygon fill="white" stroke="#bfbfbf" points="831,-0.5 831,-21.5 923,-21.5 923,-0.5 831,-0.5"/>
<text text-anchor="middle" x="877" y="-8.5" font-family="Helvetica,sans-Serif" font-size="10.00">nyx/nyx_client.h</text>
</g>
<!-- Node1&#45;&gt;Node19 -->
<g id="edge86" class="edge"><title>Node1&#45;&gt;Node19</title>
<path fill="none" stroke="midnightblue" d="M774.428,-116.295C793.853,-96.3545 835.758,-53.337 859.557,-28.9056"/>
<polygon fill="midnightblue" stroke="midnightblue" points="862.126,-31.2846 866.597,-21.6792 857.112,-26.4001 862.126,-31.2846"/>
</g>
<!-- Node20 -->
<g id="node48" class="node"><title>Node20</title>
<a xlink:href="timersource_8h.htm" target="_top" xlink:title="timersource.h">
<polygon fill="white" stroke="black" points="190,-58.5 190,-79.5 270,-79.5 270,-58.5 190,-58.5"/>
<text text-anchor="middle" x="230" y="-66.5" font-family="Helvetica,sans-Serif" font-size="10.00">timersource.h</text>
</a>
</g>
<!-- Node1&#45;&gt;Node20 -->
<g id="edge56" class="edge"><title>Node1&#45;&gt;Node20</title>
<path fill="none" stroke="midnightblue" d="M731.76,-125.264C655.123,-120.842 455.937,-107.612 279.986,-79.9943"/>
<polygon fill="midnightblue" stroke="midnightblue" points="280.458,-76.5255 270.033,-78.4124 279.36,-83.4387 280.458,-76.5255"/>
</g>
<!-- Node21 -->
<g id="node51" class="node"><title>Node21</title>
<a xlink:href="activity_8h.htm" target="_top" xlink:title="activity.h">
<polygon fill="white" stroke="black" points="1059.5,-58.5 1059.5,-79.5 1116.5,-79.5 1116.5,-58.5 1059.5,-58.5"/>
<text text-anchor="middle" x="1088" y="-66.5" font-family="Helvetica,sans-Serif" font-size="10.00">activity.h</text>
</a>
</g>
<!-- Node1&#45;&gt;Node21 -->
<g id="edge60" class="edge"><title>Node1&#45;&gt;Node21</title>
<path fill="none" stroke="midnightblue" d="M796.109,-123.092C847.668,-116.527 952.225,-102.018 1049.43,-80.1661"/>
<polygon fill="midnightblue" stroke="midnightblue" points="1050.44,-83.5246 1059.41,-77.8887 1048.88,-76.6998 1050.44,-83.5246"/>
</g>
<!-- Node22 -->
<g id="node53" class="node"><title>Node22</title>
<a xlink:href="logging_8h.htm" target="_top" xlink:title="logging.h">
<polygon fill="white" stroke="black" points="1133.5,-58.5 1133.5,-79.5 1192.5,-79.5 1192.5,-58.5 1133.5,-58.5"/>
<text text-anchor="middle" x="1163" y="-66.5" font-family="Helvetica,sans-Serif" font-size="10.00">logging.h</text>
</a>
</g>
<!-- Node1&#45;&gt;Node22 -->
<g id="edge62" class="edge"><title>Node1&#45;&gt;Node22</title>
<path fill="none" stroke="midnightblue" d="M796.146,-124.47C857.936,-119.253 997.638,-105.744 1123.44,-80.1086"/>
<polygon fill="midnightblue" stroke="midnightblue" points="1124.15,-83.5341 1133.24,-78.0803 1122.74,-76.6794 1124.15,-83.5341"/>
</g>
<!-- Node24 -->
<g id="node57" class="node"><title>Node24</title>
<a xlink:href="client_8h.htm" target="_top" xlink:title="client.h">
<polygon fill="white" stroke="black" points="454,-58.5 454,-79.5 504,-79.5 504,-58.5 454,-58.5"/>
<text text-anchor="middle" x="479" y="-66.5" font-family="Helvetica,sans-Serif" font-size="10.00">client.h</text>
</a>
</g>
<!-- Node1&#45;&gt;Node24 -->
<g id="edge66" class="edge"><title>Node1&#45;&gt;Node24</title>
<path fill="none" stroke="midnightblue" d="M731.619,-122.293C685.358,-115.275 597.571,-100.873 514.045,-80.0366"/>
<polygon fill="midnightblue" stroke="midnightblue" points="514.7,-76.592 504.147,-77.5314 512.982,-83.378 514.7,-76.592"/>
</g>
<!-- Node25 -->
<g id="node61" class="node"><title>Node25</title>
<a xlink:href="timesaver_8h.htm" target="_top" xlink:title="timesaver.h">
<polygon fill="white" stroke="black" points="1209.5,-58.5 1209.5,-79.5 1280.5,-79.5 1280.5,-58.5 1209.5,-58.5"/>
<text text-anchor="middle" x="1245" y="-66.5" font-family="Helvetica,sans-Serif" font-size="10.00">timesaver.h</text>
</a>
</g>
<!-- Node1&#45;&gt;Node25 -->
<g id="edge72" class="edge"><title>Node1&#45;&gt;Node25</title>
<path fill="none" stroke="midnightblue" d="M796.015,-125.074C866.983,-120.482 1042.97,-107.312 1198.83,-80.2165"/>
<polygon fill="midnightblue" stroke="midnightblue" points="1199.83,-83.595 1209.07,-78.4116 1198.61,-76.7014 1199.83,-83.595"/>
</g>
<!-- Node26 -->
<g id="node63" class="node"><title>Node26</title>
<a xlink:href="sysfs_8h.htm" target="_top" xlink:title="sysfs.h">
<polygon fill="white" stroke="black" points="1297.5,-58.5 1297.5,-79.5 1346.5,-79.5 1346.5,-58.5 1297.5,-58.5"/>
<text text-anchor="middle" x="1322" y="-66.5" font-family="Helvetica,sans-Serif" font-size="10.00">sysfs.h</text>
</a>
</g>
<!-- Node1&#45;&gt;Node26 -->
<g id="edge74" class="edge"><title>Node1&#45;&gt;Node26</title>
<path fill="none" stroke="midnightblue" d="M796.079,-125.109C891.92,-119.309 1175.9,-100.998 1287.38,-79.9013"/>
<polygon fill="midnightblue" stroke="midnightblue" points="1288.18,-83.3098 1297.3,-77.9177 1286.81,-76.4455 1288.18,-83.3098"/>
</g>
<!-- Node27 -->
<g id="node65" class="node"><title>Node27</title>
<a xlink:href="init_8h.htm" target="_top" xlink:title="init.h">
<polygon fill="white" stroke="black" points="1364,-58.5 1364,-79.5 1402,-79.5 1402,-58.5 1364,-58.5"/>
<text text-anchor="middle" x="1383" y="-66.5" font-family="Helvetica,sans-Serif" font-size="10.00">init.h</text>
</a>
</g>
<!-- Node1&#45;&gt;Node27 -->
<g id="edge76" class="edge"><title>Node1&#45;&gt;Node27</title>
<path fill="none" stroke="midnightblue" d="M796.326,-125.684C900.678,-121.247 1228.57,-105.765 1353.88,-79.5736"/>
<polygon fill="midnightblue" stroke="midnightblue" points="1354.95,-82.9208 1363.96,-77.3393 1353.44,-76.0867 1354.95,-82.9208"/>
</g>
<!-- Node28 -->
<g id="node67" class="node"><title>Node28</title>
<a xlink:href="timeout__alarm_8h.htm" target="_top" xlink:title="timeout_alarm.h">
<polygon fill="white" stroke="black" points="1419.5,-58.5 1419.5,-79.5 1510.5,-79.5 1510.5,-58.5 1419.5,-58.5"/>
<text text-anchor="middle" x="1465" y="-66.5" font-family="Helvetica,sans-Serif" font-size="10.00">timeout_alarm.h</text>
</a>
</g>
<!-- Node1&#45;&gt;Node28 -->
<g id="edge78" class="edge"><title>Node1&#45;&gt;Node28</title>
<path fill="none" stroke="midnightblue" d="M796.13,-126.126C889.451,-123.278 1168.65,-112.575 1409.42,-80.0803"/>
<polygon fill="midnightblue" stroke="midnightblue" points="1409.97,-83.5371 1419.41,-78.7164 1409.02,-76.6014 1409.97,-83.5371"/>
</g>
<!-- Node29 -->
<g id="node69" class="node"><title>Node29</title>
<a xlink:href="config_8h.htm" target="_top" xlink:title="config.h">
<polygon fill="white" stroke="black" points="-0.5,-58.5 -0.5,-79.5 52.5,-79.5 52.5,-58.5 -0.5,-58.5"/>
<text text-anchor="middle" x="26" y="-66.5" font-family="Helvetica,sans-Serif" font-size="10.00">config.h</text>
</a>
</g>
<!-- Node1&#45;&gt;Node29 -->
<g id="edge80" class="edge"><title>Node1&#45;&gt;Node29</title>
<path fill="none" stroke="midnightblue" d="M731.877,-125.696C612.813,-120.731 196.826,-102.161 66,-80 64.8993,-79.8136 63.7853,-79.6094 62.6636,-79.3903"/>
<polygon fill="midnightblue" stroke="midnightblue" points="63.0388,-75.8867 52.5128,-77.0921 61.493,-82.7139 63.0388,-75.8867"/>
</g>
<!-- Node30 -->
<g id="node72" class="node"><title>Node30</title>
<a xlink:href="sawmill__logger_8h.htm" target="_top" xlink:title="sawmill_logger.h">
<polygon fill="white" stroke="black" points="1527.5,-58.5 1527.5,-79.5 1622.5,-79.5 1622.5,-58.5 1527.5,-58.5"/>
<text text-anchor="middle" x="1575" y="-66.5" font-family="Helvetica,sans-Serif" font-size="10.00">sawmill_logger.h</text>
</a>
</g>
<!-- Node1&#45;&gt;Node30 -->
<g id="edge84" class="edge"><title>Node1&#45;&gt;Node30</title>
<path fill="none" stroke="midnightblue" d="M796.155,-126.512C899.519,-124.623 1232.65,-116.056 1517.31,-80.0822"/>
<polygon fill="midnightblue" stroke="midnightblue" points="1517.94,-83.5303 1527.41,-78.7909 1517.05,-76.5867 1517.94,-83.5303"/>
</g>
<!-- Node31 -->
<g id="node75" class="node"><title>Node31</title>
<polygon fill="white" stroke="#bfbfbf" points="1640,-58.5 1640,-79.5 1712,-79.5 1712,-58.5 1640,-58.5"/>
<text text-anchor="middle" x="1676" y="-66.5" font-family="Helvetica,sans-Serif" font-size="10.00">cjson/json.h</text>
</g>
<!-- Node1&#45;&gt;Node31 -->
<g id="edge88" class="edge"><title>Node1&#45;&gt;Node31</title>
<path fill="none" stroke="midnightblue" d="M796.132,-126.058C930.113,-122.007 1445.48,-105.195 1629.68,-79.9123"/>
<polygon fill="midnightblue" stroke="midnightblue" points="1630.36,-83.3503 1639.77,-78.4693 1629.37,-76.4208 1630.36,-83.3503"/>
</g>
<!-- Node8&#45;&gt;Node9 -->
<g id="edge16" class="edge"><title>Node8&#45;&gt;Node9</title>
<path fill="none" stroke="midnightblue" d="M759.965,-58.3619C757.081,-50.7584 753.112,-40.294 749.637,-31.1349"/>
<polygon fill="midnightblue" stroke="midnightblue" points="752.829,-29.6793 746.01,-21.5707 746.284,-32.1619 752.829,-29.6793"/>
</g>
<!-- Node10&#45;&gt;Node2 -->
<g id="edge20" class="edge"><title>Node10&#45;&gt;Node2</title>
<path fill="none" stroke="midnightblue" d="M387.292,-61.5363C354.938,-51.7624 297.832,-34.5117 259.456,-22.9191"/>
<polygon fill="midnightblue" stroke="midnightblue" points="260.233,-19.4976 249.648,-19.9562 258.209,-26.1985 260.233,-19.4976"/>
</g>
<!-- Node10&#45;&gt;Node4 -->
<g id="edge22" class="edge"><title>Node10&#45;&gt;Node4</title>
<path fill="none" stroke="midnightblue" d="M404.113,-58.3619C398.173,-50.3496 389.878,-39.1605 382.841,-29.6696"/>
<polygon fill="midnightblue" stroke="midnightblue" points="385.604,-27.5193 376.837,-21.5707 379.981,-31.6883 385.604,-27.5193"/>
</g>
<!-- Node11 -->
<g id="node23" class="node"><title>Node11</title>
<polygon fill="white" stroke="#bfbfbf" points="408.5,-0.5 408.5,-21.5 449.5,-21.5 449.5,-0.5 408.5,-0.5"/>
<text text-anchor="middle" x="429" y="-8.5" font-family="Helvetica,sans-Serif" font-size="10.00">glib.h</text>
</g>
<!-- Node10&#45;&gt;Node11 -->
<g id="edge24" class="edge"><title>Node10&#45;&gt;Node11</title>
<path fill="none" stroke="midnightblue" d="M415.118,-58.3619C417.323,-50.8401 420.348,-40.5187 423.012,-31.4308"/>
<polygon fill="midnightblue" stroke="midnightblue" points="426.448,-32.1514 425.902,-21.5707 419.73,-30.1825 426.448,-32.1514"/>
</g>
<!-- Node12&#45;&gt;Node2 -->
<g id="edge30" class="edge"><title>Node12&#45;&gt;Node2</title>
<path fill="none" stroke="midnightblue" d="M293.493,-58.3619C279.918,-49.6138 260.467,-37.0786 244.985,-27.1015"/>
<polygon fill="midnightblue" stroke="midnightblue" points="246.704,-24.0457 236.403,-21.5707 242.912,-29.9297 246.704,-24.0457"/>
</g>
<!-- Node13 -->
<g id="node27" class="node"><title>Node13</title>
<polygon fill="white" stroke="#bfbfbf" points="267,-0.5 267,-21.5 329,-21.5 329,-0.5 267,-0.5"/>
<text text-anchor="middle" x="298" y="-8.5" font-family="Helvetica,sans-Serif" font-size="10.00">pthread.h</text>
</g>
<!-- Node12&#45;&gt;Node13 -->
<g id="edge28" class="edge"><title>Node12&#45;&gt;Node13</title>
<path fill="none" stroke="midnightblue" d="M307.799,-58.3619C306.243,-50.8401 304.107,-40.5187 302.227,-31.4308"/>
<polygon fill="midnightblue" stroke="midnightblue" points="305.641,-30.6541 300.187,-21.5707 298.786,-32.0724 305.641,-30.6541"/>
</g>
<!-- Node14&#45;&gt;Node2 -->
<g id="edge34" class="edge"><title>Node14&#45;&gt;Node2</title>
<path fill="none" stroke="midnightblue" d="M154.673,-58.3619C166.514,-49.7773 183.385,-37.5459 197.016,-27.6636"/>
<polygon fill="midnightblue" stroke="midnightblue" points="199.378,-30.274 205.42,-21.5707 195.269,-24.6067 199.378,-30.274"/>
</g>
<!-- Node15&#45;&gt;Node2 -->
<g id="edge46" class="edge"><title>Node15&#45;&gt;Node2</title>
<path fill="none" stroke="midnightblue" d="M521.37,-60.1348C518.561,-59.3487 515.734,-58.6181 513,-58 404.523,-33.4712 371.764,-45.2551 259.768,-22.1594"/>
<polygon fill="midnightblue" stroke="midnightblue" points="260.277,-18.6898 249.769,-20.0493 258.831,-25.5389 260.277,-18.6898"/>
</g>
<!-- Node15&#45;&gt;Node3 -->
<g id="edge44" class="edge"><title>Node15&#45;&gt;Node3</title>
<path fill="none" stroke="midnightblue" d="M562.673,-58.3619C574.514,-49.7773 591.385,-37.5459 605.016,-27.6636"/>
<polygon fill="midnightblue" stroke="midnightblue" points="607.378,-30.274 613.42,-21.5707 603.269,-24.6067 607.378,-30.274"/>
</g>
<!-- Node15&#45;&gt;Node11 -->
<g id="edge42" class="edge"><title>Node15&#45;&gt;Node11</title>
<path fill="none" stroke="midnightblue" d="M526.45,-58.4966C507.515,-49.2679 479.78,-35.75 458.736,-25.4932"/>
<polygon fill="midnightblue" stroke="midnightblue" points="460.116,-22.2722 449.593,-21.0371 457.049,-28.5646 460.116,-22.2722"/>
</g>
<!-- Node16 -->
<g id="node35" class="node"><title>Node16</title>
<polygon fill="white" stroke="#bfbfbf" points="466.5,-0.5 466.5,-21.5 513.5,-21.5 513.5,-0.5 466.5,-0.5"/>
<text text-anchor="middle" x="490" y="-8.5" font-family="Helvetica,sans-Serif" font-size="10.00">stdio.h</text>
</g>
<!-- Node15&#45;&gt;Node16 -->
<g id="edge38" class="edge"><title>Node15&#45;&gt;Node16</title>
<path fill="none" stroke="midnightblue" d="M537.362,-58.3619C529.104,-50.1043 517.472,-38.4725 507.803,-28.8029"/>
<polygon fill="midnightblue" stroke="midnightblue" points="510.117,-26.1669 500.571,-21.5707 505.167,-31.1166 510.117,-26.1669"/>
</g>
<!-- Node17 -->
<g id="node37" class="node"><title>Node17</title>
<polygon fill="white" stroke="#bfbfbf" points="531,-0.5 531,-21.5 585,-21.5 585,-0.5 531,-0.5"/>
<text text-anchor="middle" x="558" y="-8.5" font-family="Helvetica,sans-Serif" font-size="10.00">assert.h</text>
</g>
<!-- Node15&#45;&gt;Node17 -->
<g id="edge40" class="edge"><title>Node15&#45;&gt;Node17</title>
<path fill="none" stroke="midnightblue" d="M549.834,-58.3619C551.131,-50.8401 552.911,-40.5187 554.477,-31.4308"/>
<polygon fill="midnightblue" stroke="midnightblue" points="557.927,-32.02 556.177,-21.5707 551.029,-30.8306 557.927,-32.02"/>
</g>
<!-- Node18&#45;&gt;Node9 -->
<g id="edge52" class="edge"><title>Node18&#45;&gt;Node9</title>
<path fill="none" stroke="midnightblue" d="M700.354,-58.3619C707.543,-50.1861 717.641,-38.7025 726.093,-29.0907"/>
<polygon fill="midnightblue" stroke="midnightblue" points="728.73,-31.3916 732.705,-21.5707 723.473,-26.7692 728.73,-31.3916"/>
</g>
<!-- Node18&#45;&gt;Node11 -->
<g id="edge50" class="edge"><title>Node18&#45;&gt;Node11</title>
<path fill="none" stroke="midnightblue" d="M667.211,-65.5201C626.368,-59.2663 540.216,-44.8557 459.575,-22.1542"/>
<polygon fill="midnightblue" stroke="midnightblue" points="460.348,-18.7351 449.771,-19.3446 458.42,-25.4642 460.348,-18.7351"/>
</g>
<!-- Node18&#45;&gt;Node19 -->
<g id="edge54" class="edge"><title>Node18&#45;&gt;Node19</title>
<path fill="none" stroke="midnightblue" d="M714.735,-60.7382C717.516,-59.8005 720.318,-58.87 723,-58 759.192,-46.2606 800.433,-33.7179 831.123,-24.5449"/>
<polygon fill="midnightblue" stroke="midnightblue" points="832.521,-27.7805 841.104,-21.5692 830.521,-21.0723 832.521,-27.7805"/>
</g>
<!-- Node20&#45;&gt;Node2 -->
<g id="edge58" class="edge"><title>Node20&#45;&gt;Node2</title>
<path fill="none" stroke="midnightblue" d="M228.166,-58.3619C226.869,-50.8401 225.089,-40.5187 223.523,-31.4308"/>
<polygon fill="midnightblue" stroke="midnightblue" points="226.971,-30.8306 221.823,-21.5707 220.073,-32.02 226.971,-30.8306"/>
</g>
<!-- Node23 -->
<g id="node55" class="node"><title>Node23</title>
<polygon fill="white" stroke="#bfbfbf" points="1126,-0.5 1126,-21.5 1200,-21.5 1200,-0.5 1126,-0.5"/>
<text text-anchor="middle" x="1163" y="-8.5" font-family="Helvetica,sans-Serif" font-size="10.00">sys/syslog.h</text>
</g>
<!-- Node22&#45;&gt;Node23 -->
<g id="edge64" class="edge"><title>Node22&#45;&gt;Node23</title>
<path fill="none" stroke="midnightblue" d="M1163,-58.3619C1163,-50.9219 1163,-40.7427 1163,-31.7276"/>
<polygon fill="midnightblue" stroke="midnightblue" points="1166.5,-31.5706 1163,-21.5707 1159.5,-31.5707 1166.5,-31.5706"/>
</g>
<!-- Node24&#45;&gt;Node2 -->
<g id="edge68" class="edge"><title>Node24&#45;&gt;Node2</title>
<path fill="none" stroke="midnightblue" d="M453.85,-60.4831C450.882,-59.5912 447.884,-58.7412 445,-58 366.068,-37.7156 342.06,-41.4632 259.603,-22.2347"/>
<polygon fill="midnightblue" stroke="midnightblue" points="260.34,-18.8126 249.802,-19.9065 258.722,-25.6231 260.34,-18.8126"/>
</g>
<!-- Node24&#45;&gt;Node11 -->
<g id="edge70" class="edge"><title>Node24&#45;&gt;Node11</title>
<path fill="none" stroke="midnightblue" d="M469.829,-58.3619C462.852,-50.2678 453.079,-38.9318 444.844,-29.3796"/>
<polygon fill="midnightblue" stroke="midnightblue" points="447.293,-26.8595 438.113,-21.5707 441.991,-31.4301 447.293,-26.8595"/>
</g>
<!-- Node29&#45;&gt;Node2 -->
<g id="edge82" class="edge"><title>Node29&#45;&gt;Node2</title>
<path fill="none" stroke="midnightblue" d="M52.5681,-61.057C85.6234,-51.1744 142.354,-34.2136 180.508,-22.807"/>
<polygon fill="midnightblue" stroke="midnightblue" points="181.682,-26.1089 190.261,-19.8911 179.677,-19.4023 181.682,-26.1089"/>
</g>
</g>
</svg>
