<?xml version="1.0" encoding="UTF-8" standalone="no"?>
<!DOCTYPE svg PUBLIC "-//W3C//DTD SVG 1.1//EN"
 "http://www.w3.org/Graphics/SVG/1.1/DTD/svg11.dtd">
<!-- Generated by graphviz version 2.26.3 (20100126.1600)
 -->
<!-- Title: sysfs.c Pages: 1 -->
<svg width="659pt" height="146pt"
 viewBox="0.00 0.00 659.00 146.00" xmlns="http://www.w3.org/2000/svg" xmlns:xlink="http://www.w3.org/1999/xlink">
<g id="graph1" class="graph" transform="scale(1 1) rotate(0) translate(4 142)">
<title>sysfs.c</title>
<polygon fill="white" stroke="white" points="-4,5 -4,-142 656,-142 656,5 -4,5"/>
<!-- Node1 -->
<g id="node1" class="node"><title>Node1</title>
<polygon fill="#bfbfbf" stroke="black" points="301,-116.5 301,-137.5 349,-137.5 349,-116.5 301,-116.5"/>
<text text-anchor="middle" x="325" y="-124.5" font-family="Helvetica,sans-Serif" font-size="10.00">sysfs.c</text>
</g>
<!-- Node2 -->
<g id="node3" class="node"><title>Node2</title>
<polygon fill="white" stroke="#bfbfbf" points="-0.5,-58.5 -0.5,-79.5 68.5,-79.5 68.5,-58.5 -0.5,-58.5"/>
<text text-anchor="middle" x="34" y="-66.5" font-family="Helvetica,sans-Serif" font-size="10.00">sys/types.h</text>
</g>
<!-- Node1&#45;&gt;Node2 -->
<g id="edge2" class="edge"><title>Node1&#45;&gt;Node2</title>
<path fill="none" stroke="midnightblue" d="M300.956,-122.963C258.145,-115.665 165.704,-99.4051 78.4738,-80.2412"/>
<polygon fill="midnightblue" stroke="midnightblue" points="79.2089,-76.8193 68.6887,-78.0741 77.6952,-83.6537 79.2089,-76.8193"/>
</g>
<!-- Node3 -->
<g id="node5" class="node"><title>Node3</title>
<polygon fill="white" stroke="#bfbfbf" points="85.5,-58.5 85.5,-79.5 146.5,-79.5 146.5,-58.5 85.5,-58.5"/>
<text text-anchor="middle" x="116" y="-66.5" font-family="Helvetica,sans-Serif" font-size="10.00">sys/stat.h</text>
</g>
<!-- Node1&#45;&gt;Node3 -->
<g id="edge4" class="edge"><title>Node1&#45;&gt;Node3</title>
<path fill="none" stroke="midnightblue" d="M300.778,-120.346C269.597,-111.771 213.483,-96.3077 156.539,-80.4218"/>
<polygon fill="midnightblue" stroke="midnightblue" points="157.225,-76.9797 146.653,-77.6618 155.343,-83.7218 157.225,-76.9797"/>
</g>
<!-- Node4 -->
<g id="node7" class="node"><title>Node4</title>
<polygon fill="white" stroke="#bfbfbf" points="164,-58.5 164,-79.5 208,-79.5 208,-58.5 164,-58.5"/>
<text text-anchor="middle" x="186" y="-66.5" font-family="Helvetica,sans-Serif" font-size="10.00">fcntl.h</text>
</g>
<!-- Node1&#45;&gt;Node4 -->
<g id="edge6" class="edge"><title>Node1&#45;&gt;Node4</title>
<path fill="none" stroke="midnightblue" d="M300.788,-116.897C277.716,-107.27 242.85,-92.7214 217.599,-82.1852"/>
<polygon fill="midnightblue" stroke="midnightblue" points="218.678,-78.8432 208.102,-78.2223 215.983,-85.3033 218.678,-78.8432"/>
</g>
<!-- Node5 -->
<g id="node9" class="node"><title>Node5</title>
<polygon fill="white" stroke="#bfbfbf" points="225.5,-58.5 225.5,-79.5 278.5,-79.5 278.5,-58.5 225.5,-58.5"/>
<text text-anchor="middle" x="252" y="-66.5" font-family="Helvetica,sans-Serif" font-size="10.00">unistd.h</text>
</g>
<!-- Node1&#45;&gt;Node5 -->
<g id="edge8" class="edge"><title>Node1&#45;&gt;Node5</title>
<path fill="none" stroke="midnightblue" d="M311.611,-116.362C300.909,-107.859 285.704,-95.7785 273.329,-85.9466"/>
<polygon fill="midnightblue" stroke="midnightblue" points="275.311,-83.0511 265.304,-79.5707 270.957,-88.5318 275.311,-83.0511"/>
</g>
<!-- Node6 -->
<g id="node11" class="node"><title>Node6</title>
<polygon fill="white" stroke="#bfbfbf" points="238.5,-0.5 238.5,-21.5 285.5,-21.5 285.5,-0.5 238.5,-0.5"/>
<text text-anchor="middle" x="262" y="-8.5" font-family="Helvetica,sans-Serif" font-size="10.00">stdio.h</text>
</g>
<!-- Node1&#45;&gt;Node6 -->
<g id="edge10" class="edge"><title>Node1&#45;&gt;Node6</title>
<path fill="none" stroke="midnightblue" d="M319.186,-116.295C308.591,-96.7861 285.999,-55.1884 272.6,-30.5177"/>
<polygon fill="midnightblue" stroke="midnightblue" points="275.648,-28.7964 267.8,-21.6792 269.497,-32.1373 275.648,-28.7964"/>
</g>
<!-- Node7 -->
<g id="node13" class="node"><title>Node7</title>
<polygon fill="white" stroke="#bfbfbf" points="479.5,-58.5 479.5,-79.5 528.5,-79.5 528.5,-58.5 479.5,-58.5"/>
<text text-anchor="middle" x="504" y="-66.5" font-family="Helvetica,sans-Serif" font-size="10.00">stdlib.h</text>
</g>
<!-- Node1&#45;&gt;Node7 -->
<g id="edge12" class="edge"><title>Node1&#45;&gt;Node7</title>
<path fill="none" stroke="midnightblue" d="M349.141,-119.178C380.148,-109.131 434.168,-91.6271 469.504,-80.1774"/>
<polygon fill="midnightblue" stroke="midnightblue" points="470.948,-83.3888 479.382,-76.9767 468.79,-76.7296 470.948,-83.3888"/>
</g>
<!-- Node8 -->
<g id="node15" class="node"><title>Node8</title>
<polygon fill="white" stroke="#bfbfbf" points="302.5,-0.5 302.5,-21.5 353.5,-21.5 353.5,-0.5 302.5,-0.5"/>
<text text-anchor="middle" x="328" y="-8.5" font-family="Helvetica,sans-Serif" font-size="10.00">string.h</text>
</g>
<!-- Node1&#45;&gt;Node8 -->
<g id="edge14" class="edge"><title>Node1&#45;&gt;Node8</title>
<path fill="none" stroke="midnightblue" d="M325.277,-116.295C325.772,-97.1314 326.819,-56.654 327.461,-31.8434"/>
<polygon fill="midnightblue" stroke="midnightblue" points="330.964,-31.7664 327.724,-21.6792 323.966,-31.5853 330.964,-31.7664"/>
</g>
<!-- Node9 -->
<g id="node17" class="node"><title>Node9</title>
<polygon fill="white" stroke="#bfbfbf" points="518.5,-0.5 518.5,-21.5 559.5,-21.5 559.5,-0.5 518.5,-0.5"/>
<text text-anchor="middle" x="539" y="-8.5" font-family="Helvetica,sans-Serif" font-size="10.00">glib.h</text>
</g>
<!-- Node1&#45;&gt;Node9 -->
<g id="edge16" class="edge"><title>Node1&#45;&gt;Node9</title>
<path fill="none" stroke="midnightblue" d="M349.135,-117.84C371.386,-109.083 405.09,-95.0214 433,-80 462.777,-63.9737 495.087,-42.2595 516.108,-27.5002"/>
<polygon fill="midnightblue" stroke="midnightblue" points="518.248,-30.2736 524.385,-21.6375 514.202,-24.5613 518.248,-30.2736"/>
</g>
<!-- Node10 -->
<g id="node19" class="node"><title>Node10</title>
<a xlink:href="logging_8h.htm" target="_top" xlink:title="logging.h">
<polygon fill="white" stroke="black" points="564.5,-58.5 564.5,-79.5 623.5,-79.5 623.5,-58.5 564.5,-58.5"/>
<text text-anchor="middle" x="594" y="-66.5" font-family="Helvetica,sans-Serif" font-size="10.00">logging.h</text>
</a>
</g>
<!-- Node1&#45;&gt;Node10 -->
<g id="edge18" class="edge"><title>Node1&#45;&gt;Node10</title>
<path fill="none" stroke="midnightblue" d="M349.346,-121.751C395.856,-111.723 497.727,-89.7578 554.245,-77.5717"/>
<polygon fill="midnightblue" stroke="midnightblue" points="555.21,-80.9443 564.247,-75.4151 553.734,-74.1015 555.21,-80.9443"/>
</g>
<!-- Node12 -->
<g id="node23" class="node"><title>Node12</title>
<a xlink:href="debug_8h.htm" target="_top" xlink:title="debug.h">
<polygon fill="white" stroke="black" points="371.5,-58.5 371.5,-79.5 424.5,-79.5 424.5,-58.5 371.5,-58.5"/>
<text text-anchor="middle" x="398" y="-66.5" font-family="Helvetica,sans-Serif" font-size="10.00">debug.h</text>
</a>
</g>
<!-- Node1&#45;&gt;Node12 -->
<g id="edge22" class="edge"><title>Node1&#45;&gt;Node12</title>
<path fill="none" stroke="midnightblue" d="M338.389,-116.362C349.091,-107.859 364.296,-95.7785 376.671,-85.9466"/>
<polygon fill="midnightblue" stroke="midnightblue" points="379.043,-88.5318 384.696,-79.5707 374.689,-83.0511 379.043,-88.5318"/>
</g>
<!-- Node11 -->
<g id="node21" class="node"><title>Node11</title>
<polygon fill="white" stroke="#bfbfbf" points="577,-0.5 577,-21.5 651,-21.5 651,-0.5 577,-0.5"/>
<text text-anchor="middle" x="614" y="-8.5" font-family="Helvetica,sans-Serif" font-size="10.00">sys/syslog.h</text>
</g>
<!-- Node10&#45;&gt;Node11 -->
<g id="edge20" class="edge"><title>Node10&#45;&gt;Node11</title>
<path fill="none" stroke="midnightblue" d="M597.668,-58.3619C600.29,-50.7584 603.899,-40.294 607.057,-31.1349"/>
<polygon fill="midnightblue" stroke="midnightblue" points="610.404,-32.1654 610.355,-21.5707 603.786,-29.8834 610.404,-32.1654"/>
</g>
<!-- Node12&#45;&gt;Node6 -->
<g id="edge24" class="edge"><title>Node12&#45;&gt;Node6</title>
<path fill="none" stroke="midnightblue" d="M373.371,-58.4966C351.439,-49.1432 319.176,-35.3839 295.013,-25.0791"/>
<polygon fill="midnightblue" stroke="midnightblue" points="296.107,-21.7406 285.535,-21.0371 293.361,-28.1795 296.107,-21.7406"/>
</g>
<!-- Node12&#45;&gt;Node8 -->
<g id="edge30" class="edge"><title>Node12&#45;&gt;Node8</title>
<path fill="none" stroke="midnightblue" d="M385.161,-58.3619C374.998,-49.9408 360.599,-38.0105 348.796,-28.2308"/>
<polygon fill="midnightblue" stroke="midnightblue" points="350.691,-25.2558 340.758,-21.5707 346.225,-30.6459 350.691,-25.2558"/>
</g>
<!-- Node12&#45;&gt;Node9 -->
<g id="edge28" class="edge"><title>Node12&#45;&gt;Node9</title>
<path fill="none" stroke="midnightblue" d="M423.534,-58.4966C447.495,-48.6405 483.348,-33.8923 508.736,-23.4489"/>
<polygon fill="midnightblue" stroke="midnightblue" points="510.324,-26.5802 518.241,-19.5391 507.662,-20.1065 510.324,-26.5802"/>
</g>
<!-- Node13 -->
<g id="node26" class="node"><title>Node13</title>
<polygon fill="white" stroke="#bfbfbf" points="371,-0.5 371,-21.5 425,-21.5 425,-0.5 371,-0.5"/>
<text text-anchor="middle" x="398" y="-8.5" font-family="Helvetica,sans-Serif" font-size="10.00">assert.h</text>
</g>
<!-- Node12&#45;&gt;Node13 -->
<g id="edge26" class="edge"><title>Node12&#45;&gt;Node13</title>
<path fill="none" stroke="midnightblue" d="M398,-58.3619C398,-50.9219 398,-40.7427 398,-31.7276"/>
<polygon fill="midnightblue" stroke="midnightblue" points="401.5,-31.5706 398,-21.5707 394.5,-31.5707 401.5,-31.5706"/>
</g>
<!-- Node14 -->
<g id="node30" class="node"><title>Node14</title>
<polygon fill="white" stroke="#bfbfbf" points="442.5,-0.5 442.5,-21.5 501.5,-21.5 501.5,-0.5 442.5,-0.5"/>
<text text-anchor="middle" x="472" y="-8.5" font-family="Helvetica,sans-Serif" font-size="10.00">stdbool.h</text>
</g>
<!-- Node12&#45;&gt;Node14 -->
<g id="edge32" class="edge"><title>Node12&#45;&gt;Node14</title>
<path fill="none" stroke="midnightblue" d="M411.573,-58.3619C422.421,-49.859 437.834,-37.7785 450.379,-27.9466"/>
<polygon fill="midnightblue" stroke="midnightblue" points="452.802,-30.4942 458.513,-21.5707 448.484,-24.9848 452.802,-30.4942"/>
</g>
</g>
</svg>
