<?xml version="1.0" encoding="UTF-8" standalone="no"?>
<!DOCTYPE svg PUBLIC "-//W3C//DTD SVG 1.1//EN"
 "http://www.w3.org/Graphics/SVG/1.1/DTD/svg11.dtd">
<!-- Generated by graphviz version 2.26.3 (20100126.1600)
 -->
<!-- Title: sysfs.h Pages: 1 -->
<svg width="184pt" height="88pt"
 viewBox="0.00 0.00 184.00 88.00" xmlns="http://www.w3.org/2000/svg" xmlns:xlink="http://www.w3.org/1999/xlink">
<g id="graph1" class="graph" transform="scale(1 1) rotate(0) translate(4 84)">
<title>sysfs.h</title>
<polygon fill="white" stroke="white" points="-4,5 -4,-84 181,-84 181,5 -4,5"/>
<!-- Node1 -->
<g id="node1" class="node"><title>Node1</title>
<polygon fill="#bfbfbf" stroke="black" points="70.5,-58.5 70.5,-79.5 119.5,-79.5 119.5,-58.5 70.5,-58.5"/>
<text text-anchor="middle" x="95" y="-66.5" font-family="Helvetica,sans-Serif" font-size="10.00">sysfs.h</text>
</g>
<!-- Node2 -->
<g id="node3" class="node"><title>Node2</title>
<a xlink:href="sawmill__logger_8c.htm" target="_top" xlink:title="This module&#39;s purpose is to log periodic statistics to /var/log/messages for processing by sawmill...">
<polygon fill="white" stroke="black" points="0,-0.5 0,-21.5 94,-21.5 94,-0.5 0,-0.5"/>
<text text-anchor="middle" x="47" y="-8.5" font-family="Helvetica,sans-Serif" font-size="10.00">sawmill_logger.c</text>
</a>
</g>
<!-- Node1&#45;&gt;Node2 -->
<g id="edge2" class="edge"><title>Node1&#45;&gt;Node2</title>
<path fill="none" stroke="midnightblue" d="M79.7233,-50.5407C71.8098,-40.9786 62.4317,-29.6467 55.7481,-21.5707"/>
<polygon fill="midnightblue" stroke="midnightblue" points="77.124,-52.8894 86.1961,-58.3619 82.5167,-48.4264 77.124,-52.8894"/>
</g>
<!-- Node3 -->
<g id="node5" class="node"><title>Node3</title>
<a xlink:href="suspend_8c.htm" target="_top" xlink:title="Suspend/Resume logic to conserve battery when device is idle.">
<polygon fill="white" stroke="black" points="112,-0.5 112,-21.5 176,-21.5 176,-0.5 112,-0.5"/>
<text text-anchor="middle" x="144" y="-8.5" font-family="Helvetica,sans-Serif" font-size="10.00">suspend.c</text>
</a>
</g>
<!-- Node1&#45;&gt;Node3 -->
<g id="edge4" class="edge"><title>Node1&#45;&gt;Node3</title>
<path fill="none" stroke="midnightblue" d="M110.595,-50.5407C118.673,-40.9786 128.247,-29.6467 135.07,-21.5707"/>
<polygon fill="midnightblue" stroke="midnightblue" points="107.767,-48.4643 103.987,-58.3619 113.115,-52.9818 107.767,-48.4643"/>
</g>
</g>
</svg>
