<?xml version="1.0" encoding="UTF-8" standalone="no"?>
<!DOCTYPE svg PUBLIC "-//W3C//DTD SVG 1.1//EN"
 "http://www.w3.org/Graphics/SVG/1.1/DTD/svg11.dtd">
<!-- Generated by graphviz version 2.26.3 (20100126.1600)
 -->
<!-- Title: timersource.c Pages: 1 -->
<svg width="202pt" height="146pt"
 viewBox="0.00 0.00 202.00 146.00" xmlns="http://www.w3.org/2000/svg" xmlns:xlink="http://www.w3.org/1999/xlink">
<g id="graph1" class="graph" transform="scale(1 1) rotate(0) translate(4 142)">
<title>timersource.c</title>
<polygon fill="white" stroke="white" points="-4,5 -4,-142 199,-142 199,5 -4,5"/>
<!-- Node1 -->
<g id="node1" class="node"><title>Node1</title>
<polygon fill="#bfbfbf" stroke="black" points="32.5,-116.5 32.5,-137.5 111.5,-137.5 111.5,-116.5 32.5,-116.5"/>
<text text-anchor="middle" x="72" y="-124.5" font-family="Helvetica,sans-Serif" font-size="10.00">timersource.c</text>
</g>
<!-- Node2 -->
<g id="node3" class="node"><title>Node2</title>
<polygon fill="white" stroke="#bfbfbf" points="-0.5,-0.5 -0.5,-21.5 40.5,-21.5 40.5,-0.5 -0.5,-0.5"/>
<text text-anchor="middle" x="20" y="-8.5" font-family="Helvetica,sans-Serif" font-size="10.00">glib.h</text>
</g>
<!-- Node1&#45;&gt;Node2 -->
<g id="edge2" class="edge"><title>Node1&#45;&gt;Node2</title>
<path fill="none" stroke="midnightblue" d="M62.9914,-116.457C55.6096,-107.339 45.3758,-93.5281 39,-80 31.7272,-64.5688 26.7904,-45.8428 23.7758,-31.7946"/>
<polygon fill="midnightblue" stroke="midnightblue" points="27.148,-30.8074 21.7624,-21.6835 20.2828,-32.1745 27.148,-30.8074"/>
</g>
<!-- Node3 -->
<g id="node5" class="node"><title>Node3</title>
<a xlink:href="timersource_8h.htm" target="_top" xlink:title="timersource.h">
<polygon fill="white" stroke="black" points="114,-58.5 114,-79.5 194,-79.5 194,-58.5 114,-58.5"/>
<text text-anchor="middle" x="154" y="-66.5" font-family="Helvetica,sans-Serif" font-size="10.00">timersource.h</text>
</a>
</g>
<!-- Node1&#45;&gt;Node3 -->
<g id="edge4" class="edge"><title>Node1&#45;&gt;Node3</title>
<path fill="none" stroke="midnightblue" d="M87.0401,-116.362C99.2925,-107.696 116.799,-95.3126 130.839,-85.3819"/>
<polygon fill="midnightblue" stroke="midnightblue" points="132.912,-88.2028 139.055,-79.5707 128.87,-82.4879 132.912,-88.2028"/>
</g>
<!-- Node5 -->
<g id="node9" class="node"><title>Node5</title>
<a xlink:href="clock_8h.htm" target="_top" xlink:title="clock.h">
<polygon fill="white" stroke="black" points="47.5,-58.5 47.5,-79.5 96.5,-79.5 96.5,-58.5 47.5,-58.5"/>
<text text-anchor="middle" x="72" y="-66.5" font-family="Helvetica,sans-Serif" font-size="10.00">clock.h</text>
</a>
</g>
<!-- Node1&#45;&gt;Node5 -->
<g id="edge8" class="edge"><title>Node1&#45;&gt;Node5</title>
<path fill="none" stroke="midnightblue" d="M72,-116.362C72,-108.922 72,-98.7427 72,-89.7276"/>
<polygon fill="midnightblue" stroke="midnightblue" points="75.5001,-89.5706 72,-79.5707 68.5001,-89.5707 75.5001,-89.5706"/>
</g>
<!-- Node4 -->
<g id="node7" class="node"><title>Node4</title>
<polygon fill="white" stroke="#bfbfbf" points="121.5,-0.5 121.5,-21.5 180.5,-21.5 180.5,-0.5 121.5,-0.5"/>
<text text-anchor="middle" x="151" y="-8.5" font-family="Helvetica,sans-Serif" font-size="10.00">stdbool.h</text>
</g>
<!-- Node3&#45;&gt;Node4 -->
<g id="edge6" class="edge"><title>Node3&#45;&gt;Node4</title>
<path fill="none" stroke="midnightblue" d="M153.45,-58.3619C153.065,-50.9219 152.538,-40.7427 152.072,-31.7276"/>
<polygon fill="midnightblue" stroke="midnightblue" points="155.559,-31.3765 151.547,-21.5707 148.568,-31.7381 155.559,-31.3765"/>
</g>
<!-- Node5&#45;&gt;Node2 -->
<g id="edge14" class="edge"><title>Node5&#45;&gt;Node2</title>
<path fill="none" stroke="midnightblue" d="M62.4624,-58.3619C55.1323,-50.1861 44.8367,-38.7025 36.2192,-29.0907"/>
<polygon fill="midnightblue" stroke="midnightblue" points="38.7586,-26.68 29.4771,-21.5707 33.5466,-31.3528 38.7586,-26.68"/>
</g>
<!-- Node5&#45;&gt;Node4 -->
<g id="edge10" class="edge"><title>Node5&#45;&gt;Node4</title>
<path fill="none" stroke="midnightblue" d="M86.4898,-58.3619C98.1827,-49.7773 114.843,-37.5459 128.303,-27.6636"/>
<polygon fill="midnightblue" stroke="midnightblue" points="130.613,-30.31 136.602,-21.5707 126.47,-24.6675 130.613,-30.31"/>
</g>
<!-- Node6 -->
<g id="node12" class="node"><title>Node6</title>
<polygon fill="white" stroke="#bfbfbf" points="58,-0.5 58,-21.5 102,-21.5 102,-0.5 58,-0.5"/>
<text text-anchor="middle" x="80" y="-8.5" font-family="Helvetica,sans-Serif" font-size="10.00">time.h</text>
</g>
<!-- Node5&#45;&gt;Node6 -->
<g id="edge12" class="edge"><title>Node5&#45;&gt;Node6</title>
<path fill="none" stroke="midnightblue" d="M73.4673,-58.3619C74.4935,-50.9219 75.8976,-40.7427 77.141,-31.7276"/>
<polygon fill="midnightblue" stroke="midnightblue" points="80.6427,-31.9551 78.542,-21.5707 73.7083,-30.9986 80.6427,-31.9551"/>
</g>
</g>
</svg>
