<?xml version="1.0" encoding="UTF-8" standalone="no"?>
<!DOCTYPE svg PUBLIC "-//W3C//DTD SVG 1.1//EN"
 "http://www.w3.org/Graphics/SVG/1.1/DTD/svg11.dtd">
<!-- Generated by graphviz version 2.26.3 (20100126.1600)
 -->
<!-- Title: timesaver.c Pages: 1 -->
<svg width="1013pt" height="146pt"
 viewBox="0.00 0.00 1013.00 146.00" xmlns="http://www.w3.org/2000/svg" xmlns:xlink="http://www.w3.org/1999/xlink">
<g id="graph1" class="graph" transform="scale(1 1) rotate(0) translate(4 142)">
<title>timesaver.c</title>
<polygon fill="white" stroke="white" points="-4,5 -4,-142 1010,-142 1010,5 -4,5"/>
<!-- Node1 -->
<g id="node1" class="node"><title>Node1</title>
<polygon fill="#bfbfbf" stroke="black" points="375,-116.5 375,-137.5 445,-137.5 445,-116.5 375,-116.5"/>
<text text-anchor="middle" x="410" y="-124.5" font-family="Helvetica,sans-Serif" font-size="10.00">timesaver.c</text>
</g>
<!-- Node2 -->
<g id="node3" class="node"><title>Node2</title>
<polygon fill="white" stroke="#bfbfbf" points="694.5,-0.5 694.5,-21.5 735.5,-21.5 735.5,-0.5 694.5,-0.5"/>
<text text-anchor="middle" x="715" y="-8.5" font-family="Helvetica,sans-Serif" font-size="10.00">glib.h</text>
</g>
<!-- Node1&#45;&gt;Node2 -->
<g id="edge2" class="edge"><title>Node1&#45;&gt;Node2</title>
<path fill="none" stroke="midnightblue" d="M445.025,-125.843C513.051,-122.879 659.569,-112.766 696,-80 709.381,-67.9651 713.702,-47.4602 714.933,-31.9225"/>
<polygon fill="midnightblue" stroke="midnightblue" points="718.44,-31.8181 715.367,-21.6787 711.446,-31.5213 718.44,-31.8181"/>
</g>
<!-- Node3 -->
<g id="node5" class="node"><title>Node3</title>
<polygon fill="white" stroke="#bfbfbf" points="72.5,-58.5 72.5,-79.5 119.5,-79.5 119.5,-58.5 72.5,-58.5"/>
<text text-anchor="middle" x="96" y="-66.5" font-family="Helvetica,sans-Serif" font-size="10.00">stdio.h</text>
</g>
<!-- Node1&#45;&gt;Node3 -->
<g id="edge4" class="edge"><title>Node1&#45;&gt;Node3</title>
<path fill="none" stroke="midnightblue" d="M374.884,-123.05C322.993,-116.802 222.724,-103.159 129.502,-80.0973"/>
<polygon fill="midnightblue" stroke="midnightblue" points="130.185,-76.6603 119.633,-77.6134 128.477,-83.4485 130.185,-76.6603"/>
</g>
<!-- Node4 -->
<g id="node7" class="node"><title>Node4</title>
<polygon fill="white" stroke="#bfbfbf" points="136.5,-58.5 136.5,-79.5 185.5,-79.5 185.5,-58.5 136.5,-58.5"/>
<text text-anchor="middle" x="161" y="-66.5" font-family="Helvetica,sans-Serif" font-size="10.00">stdlib.h</text>
</g>
<!-- Node1&#45;&gt;Node4 -->
<g id="edge6" class="edge"><title>Node1&#45;&gt;Node4</title>
<path fill="none" stroke="midnightblue" d="M374.927,-120.572C333.974,-112.804 264.046,-98.727 195.828,-80.3235"/>
<polygon fill="midnightblue" stroke="midnightblue" points="196.348,-76.8374 185.779,-77.5771 194.502,-83.5897 196.348,-76.8374"/>
</g>
<!-- Node5 -->
<g id="node9" class="node"><title>Node5</title>
<polygon fill="white" stroke="#bfbfbf" points="203,-58.5 203,-79.5 247,-79.5 247,-58.5 203,-58.5"/>
<text text-anchor="middle" x="225" y="-66.5" font-family="Helvetica,sans-Serif" font-size="10.00">time.h</text>
</g>
<!-- Node1&#45;&gt;Node5 -->
<g id="edge8" class="edge"><title>Node1&#45;&gt;Node5</title>
<path fill="none" stroke="midnightblue" d="M374.997,-116.803C345.709,-108.163 302.619,-95.203 256.812,-80.1836"/>
<polygon fill="midnightblue" stroke="midnightblue" points="257.903,-76.8579 247.31,-77.0508 255.711,-83.5059 257.903,-76.8579"/>
</g>
<!-- Node6 -->
<g id="node11" class="node"><title>Node6</title>
<polygon fill="white" stroke="#bfbfbf" points="264.5,-58.5 264.5,-79.5 317.5,-79.5 317.5,-58.5 264.5,-58.5"/>
<text text-anchor="middle" x="291" y="-66.5" font-family="Helvetica,sans-Serif" font-size="10.00">unistd.h</text>
</g>
<!-- Node1&#45;&gt;Node6 -->
<g id="edge10" class="edge"><title>Node1&#45;&gt;Node6</title>
<path fill="none" stroke="midnightblue" d="M388.45,-116.497C369.864,-107.438 342.798,-94.2462 321.905,-84.0628"/>
<polygon fill="midnightblue" stroke="midnightblue" points="323.314,-80.8563 312.792,-79.6212 320.247,-87.1487 323.314,-80.8563"/>
</g>
<!-- Node7 -->
<g id="node13" class="node"><title>Node7</title>
<polygon fill="white" stroke="#bfbfbf" points="334.5,-58.5 334.5,-79.5 403.5,-79.5 403.5,-58.5 334.5,-58.5"/>
<text text-anchor="middle" x="369" y="-66.5" font-family="Helvetica,sans-Serif" font-size="10.00">sys/types.h</text>
</g>
<!-- Node1&#45;&gt;Node7 -->
<g id="edge12" class="edge"><title>Node1&#45;&gt;Node7</title>
<path fill="none" stroke="midnightblue" d="M402.48,-116.362C396.874,-108.431 389.068,-97.3885 382.403,-87.9606"/>
<polygon fill="midnightblue" stroke="midnightblue" points="385.103,-85.7161 376.472,-79.5707 379.387,-89.7568 385.103,-85.7161"/>
</g>
<!-- Node8 -->
<g id="node15" class="node"><title>Node8</title>
<polygon fill="white" stroke="#bfbfbf" points="420.5,-58.5 420.5,-79.5 481.5,-79.5 481.5,-58.5 420.5,-58.5"/>
<text text-anchor="middle" x="451" y="-66.5" font-family="Helvetica,sans-Serif" font-size="10.00">sys/stat.h</text>
</g>
<!-- Node1&#45;&gt;Node8 -->
<g id="edge14" class="edge"><title>Node1&#45;&gt;Node8</title>
<path fill="none" stroke="midnightblue" d="M417.52,-116.362C423.126,-108.431 430.932,-97.3885 437.597,-87.9606"/>
<polygon fill="midnightblue" stroke="midnightblue" points="440.613,-89.7568 443.528,-79.5707 434.897,-85.7161 440.613,-89.7568"/>
</g>
<!-- Node9 -->
<g id="node17" class="node"><title>Node9</title>
<polygon fill="white" stroke="#bfbfbf" points="499,-58.5 499,-79.5 543,-79.5 543,-58.5 499,-58.5"/>
<text text-anchor="middle" x="521" y="-66.5" font-family="Helvetica,sans-Serif" font-size="10.00">fcntl.h</text>
</g>
<!-- Node1&#45;&gt;Node9 -->
<g id="edge16" class="edge"><title>Node1&#45;&gt;Node9</title>
<path fill="none" stroke="midnightblue" d="M430.101,-116.497C447.282,-107.519 472.23,-94.4835 491.645,-84.3387"/>
<polygon fill="midnightblue" stroke="midnightblue" points="493.431,-87.3544 500.673,-79.6212 490.189,-81.1503 493.431,-87.3544"/>
</g>
<!-- Node10 -->
<g id="node19" class="node"><title>Node10</title>
<polygon fill="white" stroke="#bfbfbf" points="560.5,-58.5 560.5,-79.5 611.5,-79.5 611.5,-58.5 560.5,-58.5"/>
<text text-anchor="middle" x="586" y="-66.5" font-family="Helvetica,sans-Serif" font-size="10.00">string.h</text>
</g>
<!-- Node1&#45;&gt;Node10 -->
<g id="edge18" class="edge"><title>Node1&#45;&gt;Node10</title>
<path fill="none" stroke="midnightblue" d="M441.872,-116.497C472.532,-106.393 518.791,-91.1485 550.586,-80.6704"/>
<polygon fill="midnightblue" stroke="midnightblue" points="551.961,-83.9026 560.363,-77.4485 549.77,-77.2543 551.961,-83.9026"/>
</g>
<!-- Node11 -->
<g id="node21" class="node"><title>Node11</title>
<a xlink:href="config_8h.htm" target="_top" xlink:title="config.h">
<polygon fill="white" stroke="black" points="2.5,-58.5 2.5,-79.5 55.5,-79.5 55.5,-58.5 2.5,-58.5"/>
<text text-anchor="middle" x="29" y="-66.5" font-family="Helvetica,sans-Serif" font-size="10.00">config.h</text>
</a>
</g>
<!-- Node1&#45;&gt;Node11 -->
<g id="edge20" class="edge"><title>Node1&#45;&gt;Node11</title>
<path fill="none" stroke="midnightblue" d="M374.783,-124.203C313.558,-118.913 183.482,-105.787 65.5425,-80.0781"/>
<polygon fill="midnightblue" stroke="midnightblue" points="66.1469,-76.6271 55.6264,-77.8799 64.6319,-83.4612 66.1469,-76.6271"/>
</g>
<!-- Node13 -->
<g id="node25" class="node"><title>Node13</title>
<a xlink:href="logging_8h.htm" target="_top" xlink:title="logging.h">
<polygon fill="white" stroke="black" points="628.5,-58.5 628.5,-79.5 687.5,-79.5 687.5,-58.5 628.5,-58.5"/>
<text text-anchor="middle" x="658" y="-66.5" font-family="Helvetica,sans-Serif" font-size="10.00">logging.h</text>
</a>
</g>
<!-- Node1&#45;&gt;Node13 -->
<g id="edge24" class="edge"><title>Node1&#45;&gt;Node13</title>
<path fill="none" stroke="midnightblue" d="M445.085,-119.838C484.95,-111.548 552.162,-97.1151 618.413,-80.3163"/>
<polygon fill="midnightblue" stroke="midnightblue" points="619.355,-83.6881 628.177,-77.8211 617.622,-76.906 619.355,-83.6881"/>
</g>
<!-- Node15 -->
<g id="node29" class="node"><title>Node15</title>
<a xlink:href="main_8h.htm" target="_top" xlink:title="main.h">
<polygon fill="white" stroke="black" points="758.5,-58.5 758.5,-79.5 805.5,-79.5 805.5,-58.5 758.5,-58.5"/>
<text text-anchor="middle" x="782" y="-66.5" font-family="Helvetica,sans-Serif" font-size="10.00">main.h</text>
</a>
</g>
<!-- Node1&#45;&gt;Node15 -->
<g id="edge28" class="edge"><title>Node1&#45;&gt;Node15</title>
<path fill="none" stroke="midnightblue" d="M445.038,-122.518C503.879,-114.84 626.201,-98.2248 729,-80 735.315,-78.8804 742.03,-77.5759 748.483,-76.2647"/>
<polygon fill="midnightblue" stroke="midnightblue" points="749.232,-79.6839 758.312,-74.2244 747.809,-72.83 749.232,-79.6839"/>
</g>
<!-- Node12 -->
<g id="node23" class="node"><title>Node12</title>
<polygon fill="white" stroke="#bfbfbf" points="-0.5,-0.5 -0.5,-21.5 58.5,-21.5 58.5,-0.5 -0.5,-0.5"/>
<text text-anchor="middle" x="29" y="-8.5" font-family="Helvetica,sans-Serif" font-size="10.00">stdbool.h</text>
</g>
<!-- Node11&#45;&gt;Node12 -->
<g id="edge22" class="edge"><title>Node11&#45;&gt;Node12</title>
<path fill="none" stroke="midnightblue" d="M29,-58.3619C29,-50.9219 29,-40.7427 29,-31.7276"/>
<polygon fill="midnightblue" stroke="midnightblue" points="32.5001,-31.5706 29,-21.5707 25.5001,-31.5707 32.5001,-31.5706"/>
</g>
<!-- Node14 -->
<g id="node27" class="node"><title>Node14</title>
<polygon fill="white" stroke="#bfbfbf" points="603,-0.5 603,-21.5 677,-21.5 677,-0.5 603,-0.5"/>
<text text-anchor="middle" x="640" y="-8.5" font-family="Helvetica,sans-Serif" font-size="10.00">sys/syslog.h</text>
</g>
<!-- Node13&#45;&gt;Node14 -->
<g id="edge26" class="edge"><title>Node13&#45;&gt;Node14</title>
<path fill="none" stroke="midnightblue" d="M654.699,-58.3619C652.339,-50.7584 649.091,-40.294 646.249,-31.1349"/>
<polygon fill="midnightblue" stroke="midnightblue" points="649.587,-30.0839 643.281,-21.5707 642.902,-32.1587 649.587,-30.0839"/>
</g>
<!-- Node15&#45;&gt;Node2 -->
<g id="edge30" class="edge"><title>Node15&#45;&gt;Node2</title>
<path fill="none" stroke="midnightblue" d="M769.711,-58.3619C759.983,-49.9408 746.202,-38.0105 734.905,-28.2308"/>
<polygon fill="midnightblue" stroke="midnightblue" points="737.062,-25.4695 727.211,-21.5707 732.481,-30.7619 737.062,-25.4695"/>
</g>
<!-- Node16 -->
<g id="node32" class="node"><title>Node16</title>
<polygon fill="white" stroke="#bfbfbf" points="862.5,-0.5 862.5,-21.5 1005.5,-21.5 1005.5,-0.5 862.5,-0.5"/>
<text text-anchor="middle" x="934" y="-8.5" font-family="Helvetica,sans-Serif" font-size="10.00">luna&#45;service2/lunaservice.h</text>
</g>
<!-- Node15&#45;&gt;Node16 -->
<g id="edge32" class="edge"><title>Node15&#45;&gt;Node16</title>
<path fill="none" stroke="midnightblue" d="M805.75,-59.9375C830.099,-50.6465 868.316,-36.0636 896.705,-25.231"/>
<polygon fill="midnightblue" stroke="midnightblue" points="898.202,-28.4058 906.298,-21.5707 895.707,-21.8658 898.202,-28.4058"/>
</g>
<!-- Node17 -->
<g id="node34" class="node"><title>Node17</title>
<polygon fill="white" stroke="#bfbfbf" points="753,-0.5 753,-21.5 845,-21.5 845,-0.5 753,-0.5"/>
<text text-anchor="middle" x="799" y="-8.5" font-family="Helvetica,sans-Serif" font-size="10.00">nyx/nyx_client.h</text>
</g>
<!-- Node15&#45;&gt;Node17 -->
<g id="edge34" class="edge"><title>Node15&#45;&gt;Node17</title>
<path fill="none" stroke="midnightblue" d="M785.118,-58.3619C787.323,-50.8401 790.348,-40.5187 793.012,-31.4308"/>
<polygon fill="midnightblue" stroke="midnightblue" points="796.448,-32.1514 795.902,-21.5707 789.73,-30.1825 796.448,-32.1514"/>
</g>
</g>
</svg>
