<?xml version="1.0" encoding="UTF-8" standalone="no"?>
<!DOCTYPE svg PUBLIC "-//W3C//DTD SVG 1.1//EN"
 "http://www.w3.org/Graphics/SVG/1.1/DTD/svg11.dtd">
<!-- Generated by graphviz version 2.26.3 (20100126.1600)
 -->
<!-- Title: timeout_alarm.h Pages: 1 -->
<svg width="248pt" height="88pt"
 viewBox="0.00 0.00 248.00 88.00" xmlns="http://www.w3.org/2000/svg" xmlns:xlink="http://www.w3.org/1999/xlink">
<g id="graph1" class="graph" transform="scale(1 1) rotate(0) translate(4 84)">
<title>timeout_alarm.h</title>
<polygon fill="white" stroke="white" points="-4,5 -4,-84 245,-84 245,5 -4,5"/>
<!-- Node1 -->
<g id="node1" class="node"><title>Node1</title>
<polygon fill="#bfbfbf" stroke="black" points="67.5,-58.5 67.5,-79.5 158.5,-79.5 158.5,-58.5 67.5,-58.5"/>
<text text-anchor="middle" x="113" y="-66.5" font-family="Helvetica,sans-Serif" font-size="10.00">timeout_alarm.h</text>
</g>
<!-- Node2 -->
<g id="node3" class="node"><title>Node2</title>
<a xlink:href="alarm_8c.htm" target="_top" xlink:title="Old interface (deprecated) to add/clear alarms using RTC.">
<polygon fill="white" stroke="black" points="0,-0.5 0,-21.5 50,-21.5 50,-0.5 0,-0.5"/>
<text text-anchor="middle" x="25" y="-8.5" font-family="Helvetica,sans-Serif" font-size="10.00">alarm.c</text>
</a>
</g>
<!-- Node1&#45;&gt;Node2 -->
<g id="edge2" class="edge"><title>Node1&#45;&gt;Node2</title>
<path fill="none" stroke="midnightblue" d="M88.4533,-52.8215C73.2957,-42.8312 54.2816,-30.2993 41.0382,-21.5707"/>
<polygon fill="midnightblue" stroke="midnightblue" points="86.5837,-55.7811 96.8594,-58.3619 90.436,-49.9364 86.5837,-55.7811"/>
</g>
<!-- Node3 -->
<g id="node5" class="node"><title>Node3</title>
<a xlink:href="timeout__alarm_8c.htm" target="_top" xlink:title="New interface add/clear alarms using RTC.">
<polygon fill="white" stroke="black" points="68,-0.5 68,-21.5 158,-21.5 158,-0.5 68,-0.5"/>
<text text-anchor="middle" x="113" y="-8.5" font-family="Helvetica,sans-Serif" font-size="10.00">timeout_alarm.c</text>
</a>
</g>
<!-- Node1&#45;&gt;Node3 -->
<g id="edge4" class="edge"><title>Node1&#45;&gt;Node3</title>
<path fill="none" stroke="midnightblue" d="M113,-48.1906C113,-39.1684 113,-28.9941 113,-21.5707"/>
<polygon fill="midnightblue" stroke="midnightblue" points="109.5,-48.3619 113,-58.3619 116.5,-48.3619 109.5,-48.3619"/>
</g>
<!-- Node4 -->
<g id="node7" class="node"><title>Node4</title>
<a xlink:href="suspend_8c.htm" target="_top" xlink:title="Suspend/Resume logic to conserve battery when device is idle.">
<polygon fill="white" stroke="black" points="176,-0.5 176,-21.5 240,-21.5 240,-0.5 176,-0.5"/>
<text text-anchor="middle" x="208" y="-8.5" font-family="Helvetica,sans-Serif" font-size="10.00">suspend.c</text>
</a>
</g>
<!-- Node1&#45;&gt;Node4 -->
<g id="edge6" class="edge"><title>Node1&#45;&gt;Node4</title>
<path fill="none" stroke="midnightblue" d="M139.042,-53.1009C155.478,-43.0658 176.256,-30.3808 190.686,-21.5707"/>
<polygon fill="midnightblue" stroke="midnightblue" points="137.136,-50.1637 130.424,-58.3619 140.783,-56.1383 137.136,-50.1637"/>
</g>
</g>
</svg>
