<?xml version="1.0" encoding="UTF-8" standalone="no"?>
<!DOCTYPE svg PUBLIC "-//W3C//DTD SVG 1.1//EN"
 "http://www.w3.org/Graphics/SVG/1.1/DTD/svg11.dtd">
<!-- Generated by graphviz version 2.26.3 (20100126.1600)
 -->
<!-- Title: timeout_alarm.c Pages: 1 -->
<svg width="1057pt" height="146pt"
 viewBox="0.00 0.00 1056.90 146.00" xmlns="http://www.w3.org/2000/svg" xmlns:xlink="http://www.w3.org/1999/xlink">
<g id="graph1" class="graph" transform="scale(1 1) rotate(0) translate(4 142)">
<title>timeout_alarm.c</title>
<polygon fill="white" stroke="white" points="-4,5 -4,-142 1053.9,-142 1053.9,5 -4,5"/>
<!-- Node1 -->
<g id="node1" class="node"><title>Node1</title>
<polygon fill="#bfbfbf" stroke="black" points="465.899,-116.5 465.899,-137.5 555.899,-137.5 555.899,-116.5 465.899,-116.5"/>
<text text-anchor="middle" x="510.899" y="-124.5" font-family="Helvetica,sans-Serif" font-size="10.00">timeout_alarm.c</text>
</g>
<!-- Node2 -->
<g id="node3" class="node"><title>Node2</title>
<polygon fill="white" stroke="#bfbfbf" points="16.3993,-0.5 16.3993,-21.5 57.3993,-21.5 57.3993,-0.5 16.3993,-0.5"/>
<text text-anchor="middle" x="36.8993" y="-8.5" font-family="Helvetica,sans-Serif" font-size="10.00">glib.h</text>
</g>
<!-- Node1&#45;&gt;Node2 -->
<g id="edge2" class="edge"><title>Node1&#45;&gt;Node2</title>
<path fill="none" stroke="midnightblue" d="M465.851,-126.195C347.829,-123.623 36.5909,-113.681 5.89927,-80 -7.38548,-65.4214 5.58693,-44.2 18.5803,-29.1476"/>
<polygon fill="midnightblue" stroke="midnightblue" points="21.4262,-31.2245 25.6344,-21.5013 16.2811,-26.4781 21.4262,-31.2245"/>
</g>
<!-- Node3 -->
<g id="node5" class="node"><title>Node3</title>
<polygon fill="white" stroke="#bfbfbf" points="14.3993,-58.5 14.3993,-79.5 63.3993,-79.5 63.3993,-58.5 14.3993,-58.5"/>
<text text-anchor="middle" x="38.8993" y="-66.5" font-family="Helvetica,sans-Serif" font-size="10.00">stdlib.h</text>
</g>
<!-- Node1&#45;&gt;Node3 -->
<g id="edge4" class="edge"><title>Node1&#45;&gt;Node3</title>
<path fill="none" stroke="midnightblue" d="M465.836,-125.369C387.531,-121.847 221.33,-111.323 73.7481,-80.0582"/>
<polygon fill="midnightblue" stroke="midnightblue" points="74.1191,-76.5578 63.6059,-77.8701 72.6428,-83.4003 74.1191,-76.5578"/>
</g>
<!-- Node4 -->
<g id="node7" class="node"><title>Node4</title>
<polygon fill="white" stroke="#bfbfbf" points="80.3993,-58.5 80.3993,-79.5 131.399,-79.5 131.399,-58.5 80.3993,-58.5"/>
<text text-anchor="middle" x="105.899" y="-66.5" font-family="Helvetica,sans-Serif" font-size="10.00">string.h</text>
</g>
<!-- Node1&#45;&gt;Node4 -->
<g id="edge6" class="edge"><title>Node1&#45;&gt;Node4</title>
<path fill="none" stroke="midnightblue" d="M465.89,-124.024C397.469,-118.907 263.183,-106.54 141.598,-80.0939"/>
<polygon fill="midnightblue" stroke="midnightblue" points="142.27,-76.658 131.75,-77.9142 140.757,-83.4926 142.27,-76.658"/>
</g>
<!-- Node5 -->
<g id="node9" class="node"><title>Node5</title>
<polygon fill="white" stroke="#bfbfbf" points="695.399,-0.5 695.399,-21.5 754.399,-21.5 754.399,-0.5 695.399,-0.5"/>
<text text-anchor="middle" x="724.899" y="-8.5" font-family="Helvetica,sans-Serif" font-size="10.00">stdbool.h</text>
</g>
<!-- Node1&#45;&gt;Node5 -->
<g id="edge8" class="edge"><title>Node1&#45;&gt;Node5</title>
<path fill="none" stroke="midnightblue" d="M555.937,-125.665C623.634,-122.604 746.619,-112.587 773.899,-80 788.13,-63.0007 768.562,-42.0693 750.094,-27.7469"/>
<polygon fill="midnightblue" stroke="midnightblue" points="751.945,-24.7636 741.812,-21.6692 747.803,-30.4072 751.945,-24.7636"/>
</g>
<!-- Node6 -->
<g id="node11" class="node"><title>Node6</title>
<polygon fill="white" stroke="#bfbfbf" points="212.899,-58.5 212.899,-79.5 284.899,-79.5 284.899,-58.5 212.899,-58.5"/>
<text text-anchor="middle" x="248.899" y="-66.5" font-family="Helvetica,sans-Serif" font-size="10.00">cjson/json.h</text>
</g>
<!-- Node1&#45;&gt;Node6 -->
<g id="edge10" class="edge"><title>Node1&#45;&gt;Node6</title>
<path fill="none" stroke="midnightblue" d="M465.519,-117.536C423.709,-108.735 359.691,-95.0526 295.167,-80.2551"/>
<polygon fill="midnightblue" stroke="midnightblue" points="295.759,-76.8 285.229,-77.9679 294.189,-83.6216 295.759,-76.8"/>
</g>
<!-- Node7 -->
<g id="node13" class="node"><title>Node7</title>
<polygon fill="white" stroke="#bfbfbf" points="302.399,-58.5 302.399,-79.5 363.399,-79.5 363.399,-58.5 302.399,-58.5"/>
<text text-anchor="middle" x="332.899" y="-66.5" font-family="Helvetica,sans-Serif" font-size="10.00">sys/stat.h</text>
</g>
<!-- Node1&#45;&gt;Node7 -->
<g id="edge12" class="edge"><title>Node1&#45;&gt;Node7</title>
<path fill="none" stroke="midnightblue" d="M478.665,-116.497C449.104,-106.864 405.203,-92.5595 373.308,-82.1668"/>
<polygon fill="midnightblue" stroke="midnightblue" points="374,-78.7113 363.408,-78.9409 371.831,-85.3669 374,-78.7113"/>
</g>
<!-- Node8 -->
<g id="node15" class="node"><title>Node8</title>
<polygon fill="white" stroke="#bfbfbf" points="360.399,-0.5 360.399,-21.5 503.399,-21.5 503.399,-0.5 360.399,-0.5"/>
<text text-anchor="middle" x="431.899" y="-8.5" font-family="Helvetica,sans-Serif" font-size="10.00">luna&#45;service2/lunaservice.h</text>
</g>
<!-- Node1&#45;&gt;Node8 -->
<g id="edge14" class="edge"><title>Node1&#45;&gt;Node8</title>
<path fill="none" stroke="midnightblue" d="M510.044,-116.329C508.455,-101.989 504.02,-76.2014 491.899,-58 483.658,-45.6254 471.093,-35.0594 459.587,-27.0982"/>
<polygon fill="midnightblue" stroke="midnightblue" points="461.368,-24.0804 451.084,-21.5311 457.533,-29.9369 461.368,-24.0804"/>
</g>
<!-- Node9 -->
<g id="node17" class="node"><title>Node9</title>
<a xlink:href="main_8h.htm" target="_top" xlink:title="main.h">
<polygon fill="white" stroke="black" points="148.399,-58.5 148.399,-79.5 195.399,-79.5 195.399,-58.5 148.399,-58.5"/>
<text text-anchor="middle" x="171.899" y="-66.5" font-family="Helvetica,sans-Serif" font-size="10.00">main.h</text>
</a>
</g>
<!-- Node1&#45;&gt;Node9 -->
<g id="edge16" class="edge"><title>Node1&#45;&gt;Node9</title>
<path fill="none" stroke="midnightblue" d="M465.662,-122.64C407.342,-116.456 302.758,-103.468 205.515,-80.0943"/>
<polygon fill="midnightblue" stroke="midnightblue" points="206.069,-76.6268 195.524,-77.6492 204.405,-83.4261 206.069,-76.6268"/>
</g>
<!-- Node11 -->
<g id="node23" class="node"><title>Node11</title>
<a xlink:href="logging_8h.htm" target="_top" xlink:title="logging.h">
<polygon fill="white" stroke="black" points="538.399,-58.5 538.399,-79.5 597.399,-79.5 597.399,-58.5 538.399,-58.5"/>
<text text-anchor="middle" x="567.899" y="-66.5" font-family="Helvetica,sans-Serif" font-size="10.00">logging.h</text>
</a>
</g>
<!-- Node1&#45;&gt;Node11 -->
<g id="edge24" class="edge"><title>Node1&#45;&gt;Node11</title>
<path fill="none" stroke="midnightblue" d="M521.354,-116.362C529.469,-108.104 540.9,-96.4725 550.403,-86.8029"/>
<polygon fill="midnightblue" stroke="midnightblue" points="552.998,-89.1562 557.511,-79.5707 548.005,-84.2497 552.998,-89.1562"/>
</g>
<!-- Node13 -->
<g id="node27" class="node"><title>Node13</title>
<a xlink:href="smartsql_8h.htm" target="_top" xlink:title="smartsql.h">
<polygon fill="white" stroke="black" points="928.399,-58.5 928.399,-79.5 993.399,-79.5 993.399,-58.5 928.399,-58.5"/>
<text text-anchor="middle" x="960.899" y="-66.5" font-family="Helvetica,sans-Serif" font-size="10.00">smartsql.h</text>
</a>
</g>
<!-- Node1&#45;&gt;Node13 -->
<g id="edge28" class="edge"><title>Node1&#45;&gt;Node13</title>
<path fill="none" stroke="midnightblue" d="M556.013,-124.005C629.955,-118.62 781.63,-105.578 918.498,-80.0633"/>
<polygon fill="midnightblue" stroke="midnightblue" points="919.151,-83.5021 928.326,-78.2046 917.85,-76.624 919.151,-83.5021"/>
</g>
<!-- Node15 -->
<g id="node31" class="node"><title>Node15</title>
<a xlink:href="lunaservice__utils_8h.htm" target="_top" xlink:title="lunaservice_utils.h">
<polygon fill="white" stroke="black" points="380.899,-58.5 380.899,-79.5 482.899,-79.5 482.899,-58.5 380.899,-58.5"/>
<text text-anchor="middle" x="431.899" y="-66.5" font-family="Helvetica,sans-Serif" font-size="10.00">lunaservice_utils.h</text>
</a>
</g>
<!-- Node1&#45;&gt;Node15 -->
<g id="edge32" class="edge"><title>Node1&#45;&gt;Node15</title>
<path fill="none" stroke="midnightblue" d="M496.409,-116.362C484.717,-107.777 468.057,-95.5459 454.596,-85.6636"/>
<polygon fill="midnightblue" stroke="midnightblue" points="456.429,-82.6675 446.297,-79.5707 452.287,-88.31 456.429,-82.6675"/>
</g>
<!-- Node16 -->
<g id="node34" class="node"><title>Node16</title>
<a xlink:href="timersource_8h.htm" target="_top" xlink:title="timersource.h">
<polygon fill="white" stroke="black" points="684.899,-58.5 684.899,-79.5 764.899,-79.5 764.899,-58.5 684.899,-58.5"/>
<text text-anchor="middle" x="724.899" y="-66.5" font-family="Helvetica,sans-Serif" font-size="10.00">timersource.h</text>
</a>
</g>
<!-- Node1&#45;&gt;Node16 -->
<g id="edge36" class="edge"><title>Node1&#45;&gt;Node16</title>
<path fill="none" stroke="midnightblue" d="M549.653,-116.497C585.145,-106.877 637.83,-92.5981 676.163,-82.209"/>
<polygon fill="midnightblue" stroke="midnightblue" points="677.337,-85.5172 686.073,-79.5231 675.505,-78.7609 677.337,-85.5172"/>
</g>
<!-- Node17 -->
<g id="node37" class="node"><title>Node17</title>
<a xlink:href="timeout__alarm_8h.htm" target="_top" xlink:title="timeout_alarm.h">
<polygon fill="white" stroke="black" points="820.399,-58.5 820.399,-79.5 911.399,-79.5 911.399,-58.5 820.399,-58.5"/>
<text text-anchor="middle" x="865.899" y="-66.5" font-family="Helvetica,sans-Serif" font-size="10.00">timeout_alarm.h</text>
</a>
</g>
<!-- Node1&#45;&gt;Node17 -->
<g id="edge40" class="edge"><title>Node1&#45;&gt;Node17</title>
<path fill="none" stroke="midnightblue" d="M556.094,-120.21C614.202,-111.391 718.194,-95.3088 806.899,-80 807.977,-79.8139 809.066,-79.6246 810.163,-79.4327"/>
<polygon fill="midnightblue" stroke="midnightblue" points="810.951,-82.8475 820.183,-77.6487 809.724,-75.9559 810.951,-82.8475"/>
</g>
<!-- Node18 -->
<g id="node39" class="node"><title>Node18</title>
<a xlink:href="config_8h.htm" target="_top" xlink:title="config.h">
<polygon fill="white" stroke="black" points="614.399,-58.5 614.399,-79.5 667.399,-79.5 667.399,-58.5 614.399,-58.5"/>
<text text-anchor="middle" x="640.899" y="-66.5" font-family="Helvetica,sans-Serif" font-size="10.00">config.h</text>
</a>
</g>
<!-- Node1&#45;&gt;Node18 -->
<g id="edge42" class="edge"><title>Node1&#45;&gt;Node18</title>
<path fill="none" stroke="midnightblue" d="M534.441,-116.497C554.929,-107.356 584.846,-94.0082 607.753,-83.7883"/>
<polygon fill="midnightblue" stroke="midnightblue" points="609.387,-86.892 617.093,-79.6212 606.535,-80.4994 609.387,-86.892"/>
</g>
<!-- Node19 -->
<g id="node42" class="node"><title>Node19</title>
<a xlink:href="init_8h.htm" target="_top" xlink:title="init.h">
<polygon fill="white" stroke="black" points="1010.9,-58.5 1010.9,-79.5 1048.9,-79.5 1048.9,-58.5 1010.9,-58.5"/>
<text text-anchor="middle" x="1029.9" y="-66.5" font-family="Helvetica,sans-Serif" font-size="10.00">init.h</text>
</a>
</g>
<!-- Node1&#45;&gt;Node19 -->
<g id="edge46" class="edge"><title>Node1&#45;&gt;Node19</title>
<path fill="none" stroke="midnightblue" d="M555.995,-124.295C657.231,-117.972 900.881,-101.287 1001.05,-79.5536"/>
<polygon fill="midnightblue" stroke="midnightblue" points="1001.89,-82.9516 1010.85,-77.2968 1000.32,-76.1301 1001.89,-82.9516"/>
</g>
<!-- Node9&#45;&gt;Node2 -->
<g id="edge18" class="edge"><title>Node9&#45;&gt;Node2</title>
<path fill="none" stroke="midnightblue" d="M148.384,-58.8972C125.709,-49.1554 91.3051,-34.3743 66.7171,-23.8106"/>
<polygon fill="midnightblue" stroke="midnightblue" points="68.0642,-20.5801 57.4947,-19.8484 65.301,-27.0116 68.0642,-20.5801"/>
</g>
<!-- Node9&#45;&gt;Node8 -->
<g id="edge20" class="edge"><title>Node9&#45;&gt;Node8</title>
<path fill="none" stroke="midnightblue" d="M195.56,-60.4896C198.355,-59.5965 201.18,-58.7445 203.899,-58 255.542,-43.8633 314.795,-31.7711 359.951,-23.3934"/>
<polygon fill="midnightblue" stroke="midnightblue" points="360.742,-26.8066 369.945,-21.557 359.477,-19.9219 360.742,-26.8066"/>
</g>
<!-- Node10 -->
<g id="node21" class="node"><title>Node10</title>
<polygon fill="white" stroke="#bfbfbf" points="125.899,-0.5 125.899,-21.5 217.899,-21.5 217.899,-0.5 125.899,-0.5"/>
<text text-anchor="middle" x="171.899" y="-8.5" font-family="Helvetica,sans-Serif" font-size="10.00">nyx/nyx_client.h</text>
</g>
<!-- Node9&#45;&gt;Node10 -->
<g id="edge22" class="edge"><title>Node9&#45;&gt;Node10</title>
<path fill="none" stroke="midnightblue" d="M171.899,-58.3619C171.899,-50.9219 171.899,-40.7427 171.899,-31.7276"/>
<polygon fill="midnightblue" stroke="midnightblue" points="175.399,-31.5706 171.899,-21.5707 168.399,-31.5707 175.399,-31.5706"/>
</g>
<!-- Node12 -->
<g id="node25" class="node"><title>Node12</title>
<polygon fill="white" stroke="#bfbfbf" points="530.899,-0.5 530.899,-21.5 604.899,-21.5 604.899,-0.5 530.899,-0.5"/>
<text text-anchor="middle" x="567.899" y="-8.5" font-family="Helvetica,sans-Serif" font-size="10.00">sys/syslog.h</text>
</g>
<!-- Node11&#45;&gt;Node12 -->
<g id="edge26" class="edge"><title>Node11&#45;&gt;Node12</title>
<path fill="none" stroke="midnightblue" d="M567.899,-58.3619C567.899,-50.9219 567.899,-40.7427 567.899,-31.7276"/>
<polygon fill="midnightblue" stroke="midnightblue" points="571.399,-31.5706 567.899,-21.5707 564.399,-31.5707 571.399,-31.5706"/>
</g>
<!-- Node14 -->
<g id="node29" class="node"><title>Node14</title>
<polygon fill="white" stroke="#bfbfbf" points="932.899,-0.5 932.899,-21.5 988.899,-21.5 988.899,-0.5 932.899,-0.5"/>
<text text-anchor="middle" x="960.899" y="-8.5" font-family="Helvetica,sans-Serif" font-size="10.00">sqlite3.h</text>
</g>
<!-- Node13&#45;&gt;Node14 -->
<g id="edge30" class="edge"><title>Node13&#45;&gt;Node14</title>
<path fill="none" stroke="midnightblue" d="M960.899,-58.3619C960.899,-50.9219 960.899,-40.7427 960.899,-31.7276"/>
<polygon fill="midnightblue" stroke="midnightblue" points="964.399,-31.5706 960.899,-21.5707 957.399,-31.5707 964.399,-31.5706"/>
</g>
<!-- Node15&#45;&gt;Node8 -->
<g id="edge34" class="edge"><title>Node15&#45;&gt;Node8</title>
<path fill="none" stroke="midnightblue" d="M431.899,-58.3619C431.899,-50.9219 431.899,-40.7427 431.899,-31.7276"/>
<polygon fill="midnightblue" stroke="midnightblue" points="435.399,-31.5706 431.899,-21.5707 428.399,-31.5707 435.399,-31.5706"/>
</g>
<!-- Node16&#45;&gt;Node5 -->
<g id="edge38" class="edge"><title>Node16&#45;&gt;Node5</title>
<path fill="none" stroke="midnightblue" d="M724.899,-58.3619C724.899,-50.9219 724.899,-40.7427 724.899,-31.7276"/>
<polygon fill="midnightblue" stroke="midnightblue" points="728.399,-31.5706 724.899,-21.5707 721.399,-31.5707 728.399,-31.5706"/>
</g>
<!-- Node18&#45;&gt;Node5 -->
<g id="edge44" class="edge"><title>Node18&#45;&gt;Node5</title>
<path fill="none" stroke="midnightblue" d="M656.306,-58.3619C668.857,-49.6955 686.791,-37.3126 701.174,-27.3819"/>
<polygon fill="midnightblue" stroke="midnightblue" points="703.35,-30.1327 709.59,-21.5707 699.372,-24.3725 703.35,-30.1327"/>
</g>
</g>
</svg>
