<?xml version="1.0" encoding="UTF-8" standalone="no"?>
<!DOCTYPE svg PUBLIC "-//W3C//DTD SVG 1.1//EN"
 "http://www.w3.org/Graphics/SVG/1.1/DTD/svg11.dtd">
<!-- Generated by graphviz version 2.26.3 (20100126.1600)
 -->
<!-- Title: wait.h Pages: 1 -->
<svg width="146pt" height="88pt"
 viewBox="0.00 0.00 146.00 88.00" xmlns="http://www.w3.org/2000/svg" xmlns:xlink="http://www.w3.org/1999/xlink">
<g id="graph1" class="graph" transform="scale(1 1) rotate(0) translate(4 84)">
<title>wait.h</title>
<polygon fill="white" stroke="white" points="-4,5 -4,-84 143,-84 143,5 -4,5"/>
<!-- Node1 -->
<g id="node1" class="node"><title>Node1</title>
<polygon fill="#bfbfbf" stroke="black" points="48,-58.5 48,-79.5 92,-79.5 92,-58.5 48,-58.5"/>
<text text-anchor="middle" x="70" y="-66.5" font-family="Helvetica,sans-Serif" font-size="10.00">wait.h</text>
</g>
<!-- Node2 -->
<g id="node3" class="node"><title>Node2</title>
<polygon fill="white" stroke="#bfbfbf" points="0,-0.5 0,-21.5 62,-21.5 62,-0.5 0,-0.5"/>
<text text-anchor="middle" x="31" y="-8.5" font-family="Helvetica,sans-Serif" font-size="10.00">pthread.h</text>
</g>
<!-- Node1&#45;&gt;Node2 -->
<g id="edge2" class="edge"><title>Node1&#45;&gt;Node2</title>
<path fill="none" stroke="midnightblue" d="M62.8468,-58.3619C57.5142,-50.4313 50.0888,-39.3885 43.7494,-29.9606"/>
<polygon fill="midnightblue" stroke="midnightblue" points="46.5923,-27.9161 38.1079,-21.5707 40.7834,-31.8221 46.5923,-27.9161"/>
</g>
<!-- Node3 -->
<g id="node5" class="node"><title>Node3</title>
<polygon fill="white" stroke="#bfbfbf" points="79.5,-0.5 79.5,-21.5 138.5,-21.5 138.5,-0.5 79.5,-0.5"/>
<text text-anchor="middle" x="109" y="-8.5" font-family="Helvetica,sans-Serif" font-size="10.00">stdbool.h</text>
</g>
<!-- Node1&#45;&gt;Node3 -->
<g id="edge4" class="edge"><title>Node1&#45;&gt;Node3</title>
<path fill="none" stroke="midnightblue" d="M77.1532,-58.3619C82.4858,-50.4313 89.9112,-39.3885 96.2506,-29.9606"/>
<polygon fill="midnightblue" stroke="midnightblue" points="99.2166,-31.8221 101.892,-21.5707 93.4077,-27.9161 99.2166,-31.8221"/>
</g>
</g>
</svg>
